<svg xmlns="http://www.w3.org/2000/svg" xmlns:xlink="http://www.w3.org/1999/xlink" id="Layer_1" x="0px" y="0px" viewBox="0 0 600 600" style="enable-background:new 0 0 600 600;" xml:space="preserve"> <style type="text/css"> .st0{fill:#000101;} .st1{fill:#D6EFF6;} .st2{fill:#FEFEFE;} .st3{fill:#D8F0F6;} .st4{fill:#9EB1B6;} .st5{fill:#FDFEFE;} .st6{fill:#AAB8BB;} .st7{fill:#ADBCBF;} .st8{fill:#A7B6B9;} .st9{fill:#AEBDC0;} .st10{fill:#A1B0B3;} .st11{fill:#9AAAAC;} .st12{fill:#C6D4D4;} .st13{fill:#D1DDDE;} .st14{fill:#D6E2E2;} .st15{fill:#E7F0F0;} .st16{fill:#CEDADC;} .st17{fill:#FAFBFB;} .st18{fill:#040505;} .st19{fill:#0E0F0F;} .st20{fill:#010101;} .st21{fill:#B5C4C9;} .st22{fill:#A6B6B9;} .st23{fill:#FCFDFD;} .st24{fill:#FBFDFD;} .st25{fill:#1A1C1C;} .st26{fill:#181A1A;} .st27{fill:#141516;} .st28{fill:#222525;} .st29{fill:#151718;} .st30{fill:#0D0E0F;} .st31{fill:#0B0C0C;} .st32{fill:#161818;} .st33{fill:#121314;} .st34{fill:#09090A;} .st35{fill:#060707;} .st36{fill:#070808;} .st37{fill:#0B0C0D;} .st38{fill:#08090A;} .st39{fill:#0D0E0E;} .st40{fill:#0C0D0D;} .st41{fill:#090A0A;} .st42{fill:#0D0F0F;} .st43{fill:#080909;} .st44{fill:#080809;} .st45{fill:#0A0B0B;} .st46{fill:#070707;} .st47{fill:#020203;} .st48{fill:#0F1111;} .st49{fill:#0E0F10;} .st50{fill:#161819;} .st51{fill:#131515;} .st52{fill:#050505;} .st53{fill:#050606;} .st54{fill:#030404;} .st55{fill:#080808;} .st56{fill:#111213;} .st57{fill:#0C0E0E;} .st58{fill:#1F2222;} .st59{fill:#030303;} .st60{fill:#0B0B0C;} .st61{fill:#0A0C0C;} .st62{fill:#090A0B;} .st63{fill:#0F1011;} .st64{fill:#060606;} .st65{fill:#0C0D0E;} .st66{fill:#181A1B;} .st67{fill:#020202;} .st68{fill:#0A0B0C;} .st69{fill:#070708;} .st70{fill:#101212;} .st71{fill:#0E1010;} .st72{fill:#0A0A0B;} .st73{fill:#040404;} .st74{fill:#0F1010;} .st75{fill:#111212;} .st76{fill:#131616;} .st77{fill:#2F3334;} .st78{fill:#1F2223;} .st79{fill:#090909;} .st80{fill:#1F2122;} .st81{fill:#141617;} .st82{fill:#292D2E;} .st83{fill:#1B1D1D;} .st84{fill:#2E3334;} .st85{fill:#050506;} .st86{fill:#101112;} .st87{fill:#101111;} .st88{fill:#121414;} .st89{fill:#0B0D0D;} .st90{fill:#252829;} .st91{fill:#181B1C;} .st92{fill:#121415;} .st93{fill:#060607;} .st94{fill:#010202;} .st95{fill:#1D1F20;} .st96{fill:#111313;} .st97{fill:#101213;} .st98{fill:#151717;} .st99{fill:#17191A;} .st100{fill:#131415;} .st101{fill:#020303;} .st102{fill:#040405;} .st103{fill:#292C2D;} .st104{fill:#030304;} .st105{fill:#26292A;} .st106{fill:#1E2021;} </style> <g> <path class="st0" d="M373,197.2c73,0,145.9,0,218.9,0c3.7,0,3.7,0,3.7,3.6c0,62.4,0,124.8,0,187.2c0,3.6,0,3.6-3.6,3.6 c-45.4,0-90.7,0-136.1-0.1c-2.6,0-3.3,0.7-3.1,3.1c0.2,2.5,0,5,0.1,7.5c0,1.5-0.6,2.2-2.1,2.2c-0.6,0-1.3,0-1.9,0 c-145.8,0-291.6,0-437.4,0c-3.5,0-3.5,0-3.5-3.7c0-62.5,0-125-0.1-187.5c0-2.8,0.9-3.4,3.5-3.3c45.6,0.1,91.3,0,136.9,0.1 c2.1,0,2.7-0.4,2.5-2.5c-0.2-2.3,0.1-4.6-0.1-6.9c-0.2-2.6,0.6-3.5,3.4-3.5c28.6,0.1,57.2,0.1,85.8,0.1 C284.2,197.2,328.6,197.2,373,197.2z"></path> <path class="st1" d="M587.4,297.8c1,0.7,0.8,1.6,0.8,2.4c0.3,10.7,0.3,21.4,0.8,32.1c0.9,18.6,2.4,37.1,4.5,55.6 c0.2,1.8-0.2,2.1-1.7,2.1c-1.3,0-2.6,0-3.9,0c-44.1,0-88.3,0-132.4,0.1c-2.5,0-3-0.6-3-3c0.1-26.3,0.1-52.6,0.1-78.8 c0-4.2,0-4.2,4.1-4.2c39.1,0,78.3-0.1,117.4,0.1C579.8,304,584.4,302.7,587.4,297.8z"></path> <path class="st1" d="M373.4,199.1c72.6,0,145.2,0,217.8-0.1c2.1,0,2.5,0.4,2.2,2.5c-1.7,10.5-3.3,21-4.9,31.5 c-0.6,4.2-1.3,8.5-1.8,12.8c-0.7,5.7-4.7,9.7-10.4,9.8c-12.8,0.1-25.5,0.1-38.3,0.1c-27.6,0-55.2,0-82.8,0.1 c-1.9,0-2.6-0.2-2.5-2.4c0.1-13.1,0.1-26.1,0.1-39.2c0-3.7,0-3.8-3.9-3.8c-63.7,0-127.4,0-191.1,0c-33.7,0-67.4,0-101.1,0 c-1.9,0-2.8-0.3-2.9-2.5c-0.1-2.1-0.7-4.1-1-6.2c-0.3-1.8-0.2-2.7,2.3-2.7c20.8,0.1,41.7,0.1,62.5,0.1 C269.5,199.1,321.5,199.1,373.4,199.1z"></path> <path class="st1" d="M593.3,264.4c-2.1,10.1-4.1,20.1-6.4,30.2c-1,4.5-4.7,7.2-9.1,7.6c-1.1-0.4-2.2-0.2-3.3-0.2 c-39.3,0-78.7,0-118,0c-3.8,0-3.4,0.3-3.4-3.5c0-10.7,0-21.5,0-32.2c0-2,0.4-2.7,2.6-2.7c45,0.1,90,0,135,0.1 C591.5,263.6,592.6,263.3,593.3,264.4z"></path> <path class="st2" d="M148.3,212.2c2.4-0.1,4.8-0.1,7.2-0.1c97.6,0,195.1,0,292.7,0c1.8,0,2.5,0.2,2.5,2.3 c-0.1,62.1-0.1,124.2-0.1,186.3c0,0.5-0.1,1.1-0.1,1.6c-1,0.5-2,0.3-3,0.3c-145,0-290,0-435,0c-1,0-2,0.3-3-0.3c0-1.1,0-2.2,0-3.3 c0.4-0.1,0.7,0,1,0.3c0.7,1.1,1.8,1.5,3.1,1.5c1.1,0,2.2,0,3.3,0c142.2,0,284.4,0,426.7,0c6,0,5.5,0.4,5.5-5.6 c0-58.6,0-117.2,0-175.8c0-0.6,0-1.3,0-1.9c-0.1-3.4-0.2-3.6-3.6-3.7c-1,0-2,0-3.1,0c-96,0-192,0-288.1,0c-1.9,0-3.9,0.3-5.7-0.6 C148.3,212.9,148.2,212.6,148.3,212.2z"></path> <path class="st3" d="M594,212.6c0,4.5,0,9.1,0,13.6c0,11,0,22,0,33.1c0,1.8-0.3,2.5-2.3,2.5c-7.7-0.1-15.4-0.1-23.1,0 c-1.6,0-2.4-0.1-2.5-2.2c0-2.1,0.8-2.4,2.6-2.3c2.4,0.1,4.8,0,7.2,0c6.3,0,11.3-4.3,12.3-10.6c1.4-9,2.7-18,4-27.1 C592.6,217.3,593.7,215.1,594,212.6z"></path> <path class="st1" d="M9.5,402.2c1,0,2,0,3.1,0c145,0,289.9,0,434.9,0c1,0,2,0,3.1,0c-0.4,1-1.3,0.4-1.9,0.4 c-145.7,0-291.5,0-437.2,0C10.8,402.7,9.9,403.3,9.5,402.2z"></path> <path class="st4" d="M593.8,283.3c0,0.2,0,0.4,0,0.6c-0.4,2.6-0.2,5.1-0.2,7.7c-0.1,10.9,0,21.7-0.1,32.6c0,0.5,0,0.9,0.2,1.3 c0,3.7,0,7.4,0,11.2c-0.5,6,0,12-0.3,18c0,0.8,0.7,2.1-0.8,2.5c-1-3.1-0.6-6.2-0.6-9.4c-0.8-2.6,0.3-5.3-0.6-7.8 c-0.1-0.1-0.4-0.2-0.4-0.3c-0.2-4.6-0.3-9.1-0.5-13.7c0.3-2,0.3-4,0-6c0-2.6-0.1-5.1-0.1-7.7c-0.5-7.3-0.1-14.7-0.2-22 c0-0.7-0.2-1.5,0.2-2.2c0-3.6,1.1-7,2.2-10.4c1.2,0,0.8,0.9,0.9,1.5C593.7,280.6,593.4,282,593.8,283.3z"></path> <path class="st2" d="M148.3,212.2c0,0.2,0,0.4,0,0.6c-1.6,1.4-3.5,0.9-5.3,0.9c-40.6,0-81.1,0-121.7,0c-2.6,0-5.2,0-7.8,0 c-1.9,0-2.7,0.8-2.6,2.7c0,1.1,0,2.2,0,3.3c0,58,0,115.9,0,173.9c0,1.8,0.5,3.7-0.9,5.3c-0.2,0-0.3,0-0.5,0c0-1-0.1-2-0.1-3 c0-60.3,0-120.7-0.1-181c0-2.5,0.7-2.9,3-2.9C56.5,212,100.8,212,145,212C146.1,212,147.2,212.1,148.3,212.2z"></path> <path class="st5" d="M593.3,264.4c-1-0.7-2.1-0.5-3.2-0.5c-44.5,0-89.1,0-133.6-0.1c-2.6,0-3.2,0.8-3.2,3.3 c0.1,10.5,0.1,20.9,0,31.4c0,2.6,0.7,3.2,3.3,3.2c39.3-0.1,78.7-0.1,118,0c1.1,0,2.2-0.4,3.2,0.5c-1.2,0-2.4,0.1-3.6,0.1 c-39.1,0-78.1,0-117.2,0c-4.3,0-4.3,0-4.3-4.2c0-10.9,0.1-21.8,0.1-32.8c0-1.7,0.4-2.1,2.1-2.1c45,0.1,90,0.1,135,0.1 C591,263.3,592.8,262,593.3,264.4z"></path> <path class="st6" d="M507.4,261.2c-1.5,0.9-3.2,0.4-4.8,0.4c-2.2,0.1,0.2-1.6-0.9-2.2c-0.9,1.9-2.4,2.2-4.5,2.3 c-2.6,0.2-3.3-2.2-5.1-3c-0.1,0.2-0.3,0.4-0.4,0.6c0.8,0.5,1.7,1,2.9,1.8c-4.5,0.8-5.3,0.6-6.7-2.1c-0.2-0.3-1-0.9-0.3-1.3 c0.4-0.2,1.3-0.6,1.7,0.2c0.4,0.8,0.8,1.5,1.7,2c0.6-1.1-0.9-1.3-0.9-2.4c2.7,0.8,5.4-0.5,8.1,0.5c0.6,0.2,1.3-1,2.2,0.5 c0.6,1.1,0.2-1.4,1.3-1.1c1.7,0.5,3.5,0.3,5.3,0.1c0.9-0.1,0.8,0.1,0.5,0.8c-0.3,0.8-1.6,1.6-0.4,2.6 C507.2,261.1,507.3,261.2,507.4,261.2z"></path> <path class="st7" d="M488.2,261.7c-2.2,0-4.6,0.1-6.9-0.1c-1.6-0.1-3.1,0.5-4.8-0.6c-0.7-0.5-2.8,1.3-4.3-0.4 c-0.3-0.3-0.3,0.7-0.5,0.7c-1.1,0.3-2.5,1.1-2.1-1.2c-1.4-0.3-0.9,2.3-2.5,1.4c1.9-3.7,1.9-3.7,9.4-3.8c-1.2,0.8-1.9,1.3-2.7,1.8 c2.1,0,3.2-2.4,5.1-1.8C482.1,258.6,487.1,255.4,488.2,261.7z"></path> <path class="st8" d="M518.2,257.8c-0.7,0.9-1.8,1-1.9,2.3c1.9-0.5,2.9-3.2,4.8-2.4c3,1.2,7.7-2.5,9.1,3.5 c-3.8,0.4-7.5,1.3-11.3-0.3c-1-0.4-1,0.9-2,0.8c-1.4-0.2-2.8-1-4.4-0.1c-1.1,0.6-0.4-1-0.8-1.4c-1.1,0-0.8,2.4-2.4,1.4 C511.6,257.6,511.6,257.6,518.2,257.8z"></path> <path class="st9" d="M536.7,257.8c2.1,0.2,4.2,0.1,6.3,0.5c1.3,0.3,3.5-0.3,5.3-0.6c0.5-0.1,1.1-0.1,1.4,0c0.8,0.4-0.1,0.8-0.1,1.3 c0,0.5-1.7,1.7,0.5,1.5l0,0c0.3,1.8-1.1,1-1.8,1.1c-1,0.1-2,0.1-3,0c-0.5,0-1.1-0.2-1-0.9c0.1-0.4,1.7-0.4,0.3-1.1 c-0.3-0.2-1.7,0.3-1.5,1.1c0.5,1.6-0.6,0.9-1.1,0.9c-2.7,0.1-5.6,0.7-6.9-3.5c-0.8,2.2,1,2.3,1,3.4c-2.2-0.2-4.8,0.6-5.8-2.4 c-0.1-0.4-1.2-0.9-0.3-1.4c0.7-0.4,1.3-0.3,1.9,0.4c0.6,0.7,0.7,1.9,1.8,2.1c1.5-0.8-2.6-2.3,0.3-2.4 C534.6,257.8,535.8,256.8,536.7,257.8c-0.3,1,0.7,1.2,0.8,1.5C537.3,259,536.4,258.7,536.7,257.8z"></path> <path class="st10" d="M465.2,261.3c-1.5,0.9-3.2,0.3-4.8,0.3c-2,0,0-1.3,0-1.3c-0.9-1-1.4-0.8-1.4-0.5c-0.9,2.9-3.3,1.6-5.1,1.8 c-0.8,0.1-1.3-0.1-1.2-1c0.2-1.5,1.2,0.6,1.6-0.4c-0.2-0.2-0.4-0.6-0.7-0.7c-0.8-0.4-1.2-1.1-0.8-1.8c0.4-0.8,1.3-0.1,1.6,0.1 c1.2,0.5,3.1-1.2,3.9,1.1c0.1,0.2,0.4-1.6,2-1.2c1.3,0.4,2.8,0.8,4.2-0.1c0.2,0.4,1.9-0.6,0.9,1c-0.4,0.7-1.4,1.4-0.5,2.4 C465.1,260.9,465.2,261,465.2,261.3z"></path> <path class="st11" d="M561.3,261.7c0.1-1.3,1.5-1.3,1.4-3.2c-2.1,4.4-5.8,2.3-8.6,3.1c-0.3,0.1,0.7-0.8,0-1.4 c-1,0.3-1.1,2.3-2.8,1.3c-0.2-0.5,0.6-0.3,0.8-0.6c0.5-1,1.2-2.9,1.7-2.9c2.1,0.1,4.2-0.7,6.1-0.1c0.8,0.3,1.2,0.9,2.1,0.2 c0.7-0.6,1.6-0.4,2.2,0.2c1,0.9-0.3,1.9,0.1,3c0.3,0.7-1,0.3-1.5,0.4C562.3,261.8,561.9,261.7,561.3,261.7z"></path> <path class="st12" d="M593.8,325.5c-0.2-0.3-0.7-0.5-0.7-0.8c0.6-13.1,0.1-26.2,0.2-39.3c0-0.6,0-1.1,0.5-1.5 C593.8,297.8,593.8,311.7,593.8,325.5z"></path> <path class="st13" d="M592.8,357.2c0.9-0.6,0.6-1.5,0.6-2.3c0-5.3-0.1-10.7-0.1-16c0-0.8-0.3-1.7,0.5-2.3c0,11.3,0,22.6,0,33.9 c-0.1,0-0.3,0-0.4,0C593.2,366.2,593,361.7,592.8,357.2z"></path> <path class="st14" d="M590.5,288.2c0,8.1,0,16.1,0,24.2c-0.7-0.3-0.5-0.9-0.5-1.4c0-7.1,0-14.2,0-21.3 C590,289.1,589.9,288.5,590.5,288.2z"></path> <path class="st12" d="M593.8,283.3c-1.2-1.7,0.4-3.9-1.1-5.5c0.2-1.8,0.5-3.5,0.7-5.3c0.1,0,0.3,0,0.4,0 C593.8,276.1,593.8,279.7,593.8,283.3z"></path> <path class="st10" d="M464.8,260.9c0.4-0.7,0.7-1.5,1.2-2.2c0.3-0.5,0.5-1.7,1.4-1.1c1,0.6-0.1,1.2-0.3,1.9c-0.2,1-1.4,1-1.9,1.7 C465.1,261.2,464.9,261,464.8,260.9z"></path> <path class="st6" d="M507.2,261c0.4-1,0.9-2,1.3-3c0.2-0.4,0.7-0.7,1.2-0.4c0.6,0.4,0.1,0.7,0,1.1c-0.3,1.2-1.4,1.8-2.3,2.4 C507.3,261.2,507.2,261.1,507.2,261z"></path> <path class="st15" d="M591.6,340c1.2,2.5,0.4,5.2,0.6,7.8C591,345.3,592.1,342.6,591.6,340z"></path> <path class="st16" d="M550,260.6c0.3-1.3,0.5-2.6,2.7-3C551.6,258.9,551.9,260.7,550,260.6C550,260.6,550,260.6,550,260.6z"></path> <path class="st17" d="M590.6,320c0.9,2,0.6,4,0,6C590.7,324,590.6,322,590.6,320z"></path> <path class="st1" d="M10,398.9c0-60.8,0-121.6,0-182.4c0-3.8,0-3.8,3.7-3.8c44.9,0,89.7,0,134.6,0c99,0,197.9,0,296.9,0 c5.5,0,4.8-0.7,4.8,4.6c0,60.2,0,120.3,0,180.5c0,3.7,0,3.7-3.7,3.7c-144.2,0-288.5,0-432.7,0C11.6,401.7,9.4,402.1,10,398.9z"></path> <path class="st18" d="M486.1,258.2c-1.8,1.6-3.2,1.9-4.7,2.2C482.4,259.2,483.7,258.6,486.1,258.2z"></path> <path class="st0" d="M527.9,258.2c-1.3,1.8-3,1.5-4.3,2.2C524.7,259.2,525.9,258.6,527.9,258.2z"></path> <path class="st19" d="M536.7,257.8c0.4,1.2,1.8,1.6,2.7,3.1c-1.8-0.6-2.8-1.4-3-3c0,0,0.1-0.1,0.2-0.1 C536.5,257.8,536.6,257.9,536.7,257.8C536.7,257.9,536.7,257.8,536.7,257.8z"></path> <path class="st20" d="M154.2,381.1c-32.6,0-65.2-0.1-97.8,0.1c-4.6,0-8.2-3.4-8.1-8.2c0.3-12.9,0.1-25.7,0.1-38.6 c0-4.9,2.7-7.6,7.7-7.6c65.4,0,130.7,0,196.1,0c5.2,0,7.8,2.6,7.8,7.7c0,13.1,0,26.1,0,39.2c0,4.9-2.6,7.5-7.5,7.5 C219.7,381.1,187,381.1,154.2,381.1z"></path> <path class="st21" d="M232.2,329c1,0.3,3.2-1.7,2.5,2c1-2.4,2.6-2.2,4.3-2.1c2.4,0.1,4.8-0.3,7.2,0c2.4,0.3,4.8-0.1,7.1-0.1 c3,0,4.5,1.5,4.5,4.5c-0.1,0.1-0.3,0.3-0.3,0.4c0,1-0.6,1.6-1.4,2.1c-0.1,0-0.3,0,0-0.1c1.4-0.2,1.2-1.6,1.7-2.5 c1.2,2.7,1.1,2.9-2.7,5.1c0.6,1,1.1-0.1,1.6-0.1c0.5,0,1.1-0.2,1.8-0.3c-0.7,2.5,0.9,5.2-1.2,7.6c-0.8,0.9-0.2,0.8,0.7,0.3 c0.6-0.3,0.4,0.7,0.4,1.1c-0.4,3.5,0.8,7.2-0.9,10.7c-0.2,0.3,1,2.4,0.6,3.8c-0.7,2.6,0,5.1,0.3,7.7c0.1,0.9-0.4,1.4-0.9,1.9 c-0.8,0.8-1.5,1.8-1.5,3.2c0.7-0.9,1.4-1.8,2.2-2.8c0.4,3.4-1.6,6.7-4.4,7.3c-0.4,0.1-1.3,0.6-1.4-0.5c0.2-1.4-1.4-1.6-1.5-2.2 c0.3,0.5,1.6,0.9,1.6,2.2c-1.3-0.1-3.2,2.3-3.8-0.9c-0.1-0.5-1.1-0.1-1.7-0.1c-1.9-0.1-3.4,3.2-5.4,0.6c-1.6,2.1-4,0.3-5.9,1.2 c-0.6,0.3-0.6-0.4-0.6-0.9c1.1-1.1,2.9-1.1,3.9-2.2c-1.2,0.9-2.8,1.1-3.9,2.3c-1.4,0.5-1.7-0.7-2-1.6c-1.9,0.4,0.9,2-0.9,2.2 c-1.6,0.2-0.6-1.7-1.8-2.2c-0.1,3.1-2.1,2.6-3.8,1.7c-1.1-0.6-1.2,0.6-2,0.5c-3.7-0.2-7.4-0.1-11.2-0.3c1.3-0.7,2.1-1.6,2.4-3.2 c0.3-1.3,1.6-2.4,2.7-4c-1.9,0.5-2.1,2.1-3.1,2.8c-0.9,0.2-1.2-0.3-1.4-1c-0.3-1.1,2.4-1.6,0.6-3c-1-0.6-0.9-1.7-1.3-2.9 c0.3,1.3,0.3,2.4,1.5,3c0.8,1.6-1.1,1.9-1.3,2.9c-0.4,0.4-0.8,0.7-1.3,0.9c-1.2,0.7-2.2-0.3-3.3-0.2c-0.2,0.4-0.4,0.8-0.9,1 c-0.7,0-1.1-0.5-1.3-1.1c1-0.8-0.7-1.2-0.3-1.9c0.2-1.4,0.2-1.4-1.7-1.7c0.6,0.2,1.8-0.1,1.9,1.3c-0.6,1.1-1.1,2.2-2.7,2 c-1.2-0.5-1.6-1.9-2.8-2.2c0.4,0.5,1.8,0.6,1.5,1.9c-0.5,0.5-1.1,0.8-1.8,0.8c-1.4-0.3-2.4-1-3-2.4c-0.1-0.8-0.3-1.7,0.1-2.5 c0.6-0.6,1.1-1.4,2-1.6c-1,0.2-1.6,1.1-2.3,1.7c-1,0.2-1.9,1.2-3.1,0.5c-0.2-0.1-0.4-0.6-0.4-0.6c-0.2,1-1.5,1.8-0.8,3 c0.4,0.4,1,0.8,0.8,1.5c-0.3,0.3-0.6,0.5-1.1,0.8c0.9-0.2,1.3-0.9,2-1.1c1.4-0.2,1.5,0.6,1.5,1.6c-0.7,1.8-2.6,1.9-3.8,3 c-0.1,0-0.2,0.1-0.4,0.1c-1.4,0.4-1.5-0.9-2-1.6c-1.8,0.2,0.9,2-0.8,2.1c-1.6,0.2-0.7-1.7-1.9-2.2c0.1,3.3-2,2.2-3.8,2 c-1.1-0.2-2.2,0.2-3.4,0.2c-3.2,0-6.4,0-9.8,0c2.6-1.8,2.6-5,4.7-6.9c-1.8,0.9-2.7,2.5-3.6,4.1c-1.4,2.5-6,4.8-7.7,3 c-2.4-2.6-3.7-0.4-5.6-0.3c-2.8,0.2-5.6,0.3-8.4,0.3c0,0-0.1-0.5-0.1-0.8c1.1-0.7,2.2-1.5,3.6-1.7c-1.5,0.1-2.5,1-3.6,1.8 c-1.5,0.6-1.4-1.2-2.1-1.6c-1.4,0.6,0.9,2-0.6,2.3c-1.8,0.4-0.8-1.7-2-2.4c0,3.4-2,2.7-3.8,1.9c-1.1-0.5-1.3,0.6-2.3,0.6 c-3.5-0.3-7-0.1-10.9-0.1c2.8-1.7,2.5-5.2,4.9-6.9c-1.7,0.8-2.7,2.3-3.5,3.7c-1.6,2.8-6.1,5.3-7.8,3.3c-2.5-3-4.1,0-5.9-0.3 c-2.8-0.4-5.5,0.7-8.2,0.3c-1.2-0.2-2-1-2-2.4c-1.6,0.5,0,2.4-1.3,2.4c-1.2,0-0.6-1.8-1.6-2.3c-1.5,0.2,1.2,2.3-1,2.2 c-1.4,0-3,0.3-3.3-1.9c-0.1-0.5-0.6-0.4-0.9-0.2c-0.3,0.2-0.5,0.3-0.2,0.8c0.7,1.2,0.6,1.3-0.5,1.3c-3.6,0-7.2,0-11.3,0 c3.1-1.7,2.8-5,4.8-7c-1.7,1.1-2.6,2.8-3.4,4.5c-0.8,1.6-3.2,2.6-4.8,1.9c0.1-1.4-1.2-1.7-1.7-2.5c0.6,0.9,1.9,1.3,1.8,2.6 c-1.5,0.2-3.1,1.7-4-1.1c-0.3-0.8-2.3,0.4-3.5,0.7c-3.2,0.9-6.4,0.9-9.7,0.7c-1.3-0.1-1.6-1-1.3-2.1c-1.9,0.3,0,2.5-1.6,2.4 c-1.1-0.1-0.7-1.7-1.6-2.5c-0.1,2.4-0.6,2.9-2.7,2.3c-0.9-0.2-1.6-0.1-2.4,0.1c-2.2,0.6-3.3-2-5.2-2.4c-0.1,0-0.1-0.6-0.1-1 c0.4,0,0.9-0.2,1.3,0c1.4,0.4,2.8,0.8,2.9-2c-1.3,1.8-2.7,1.1-3.9,0.8c-2.3-0.6,1.4-2.9-1.3-3.6c1.8,0.4,2.3,2.2,4.5,2.6 c-1.6-1.8-3.4-2.8-4.1-4.6c-0.5-1.1,1.5-4,2.7-4.1c-0.5-1.3-3.6-0.8-2.6-2.5c0.7-1.2,0-1.5,0-2.3c-0.1-1.5,1.5-0.2,2.4-1.1 c-3.9-0.6-1.1-3.7-2.7-5.3c1.5,0.4,1.9,1.9,3.1,2.7c0.5-1.2-0.4-1.5-0.8-1.9c-1.8-2-2.8-3.9-1.5-6.8c0.3-0.6-1-2.6-0.5-3.7 c0.6-1.3,1-2.4-0.6-3.4c1.5-0.4,2,1.3,3.4,0.4c-1.8-1.1-3.6-2.1-2.8-4.6c0.3-1,0.9-0.5,1.4-0.4c0.6,0.2,1.1,0.7,1.8-0.1 c-0.9-1-2.6-0.6-3.5-1.7c1.2-2,4.6,2,5.1-2.4c-1.5,2.2-2.9,0.7-4.3,0.6c0.2-2.7,1.8-1.6,3.1-1c-0.1-1-2.2-2.1,0.8-2.2 c3.5-0.1,7,0.1,10.5-0.2c1.9-0.2,0.2,1.1,0.9,1.6c0.8-1.6,2.1-1.7,3.7-1.6c2.8,0.1,5.7-0.5,8.3,0.1c2.2,0.5,4-0.4,6.1-0.2 c2.2,0.2,4.5,0.4,6.6,0c2.4-0.5,3.6,1.5,5.5,2.4c0.2-1.5-1.4-1.1-1.3-2.1c0,0,0.1-0.2,0.2-0.2c3.9,0,7.8,0,11.7-0.1 c1.3,0,2.1,0.1,1.3,1.4c3.9-2.4,7.6-1.8,11.3,1.1c-0.2-1.4-1.3-1.4-1.8-2.1c2-1.3,4,0.6,6,0c2.3-0.7,4.6-0.2,7.1-0.3 c-0.2,1.3-2.2,1.6-1.3,3.3c1.4-1.1,1.7-3.3,4.1-3.4c2.2-0.1,3.4,1.2,5,2.5c0.4-1.5-1.3-1.2-1.4-2.1c1.3-0.7,1.7,0.4,2.5,1 c1.1,0.9,0.6-0.2,0.6-0.6c0.9-0.6,1.9-0.2,2.8-0.3c1.6,1.3-0.8,1.7-0.3,2.5c0.6-0.6,0.8-1.8,1.7-2.5c1.2-0.1,2.4,0.2,3.6-0.2 c1.2,0,2.9-1,2.5,1.6c2.5-2.7,6.2-2.5,11.1,0.5c0-1.3-1.2-1.3-1.9-1.9c2.1-1.3,4.1,0.6,6.1-0.1c2.3-0.8,4.7,0,7.1-0.4 c-0.1,1.4-2.1,1.7-1.3,3.3c1.4-1.1,1.7-3.2,4.2-3.3c2.2-0.1,3.3,1.4,4.9,2.5c0.3-1.5-1.1-1.3-1.4-2.1c0.2-0.1,0.4-0.2,0.6-0.3 c1.2-0.2,1.4,1.1,2.2,1.4c0.9,0.3,0.3-0.5,0.4-0.8c0.9-0.6,1.9-0.2,2.8-0.3c1.6,1.3-0.8,1.7-0.5,2.6c0.6-0.8,1-1.8,1.8-2.5 c1.2-0.1,2.4,0.2,3.6-0.2c1.2-0.1,2.9-1,2.5,1.6c2.5-2.6,6-2.4,10.9,0.4c0-1.2-1.3-1.1-1.8-2.3c4.6,1,8.9,0,13.3,0.2 c-0.3,1.3-2.1,1.6-1.4,3.1c3.1-3.6,3.1-4.7,9.2-1.1c0.2-1.2-1.3-1-1.5-1.8c1.3-0.7,1.8,0.4,2.6,1c1.1,0.9,0.5-0.2,0.6-0.6 c0.9-0.6,1.9-0.2,2.8-0.3c1.6,1.3-0.8,1.7-0.5,2.6c0.5-0.8,1-1.8,1.8-2.5C229.8,329.1,231,329.4,232.2,329z"></path> <path class="st22" d="M206.7,372.2c0.4,0.6,1.1,1.2,0.4,2c0.1,1.1,0.9,1.8,1.7,2.9c-0.5-0.8-1.1-1.2-0.6-1.9c0-0.5,0.1-1,0.5-1.3 c1.1-0.4,2.2,2.4,3.3,0c0.4-0.2,0.7-0.4,1.1-0.6c0.4,0.5,0.8-0.4,1.2,0c0.3,0.4,0.7,0.7,1,1.1c-1.2,4.2-4.4,4.8-8.1,4.6 c-0.4,0-0.8,0.1-0.9-0.2c-1.4-3.1-3-0.6-4.7-0.3c-2,0.3-4.2,0.5-6.2,0.3c-0.9-0.1-2.2,1.5-2.8-0.4c0,0,0,0,0,0 c0.8-0.6,1.5-1.3,2.5-1.5c0.9-0.2,1.7-0.7,1.5-1.8c-0.7-0.1-0.1-1.4-1.1-1.1c-0.4-0.1-0.9,0.4-1.2-0.1c-0.4-0.4-0.8-0.7-1.1-1.1 c-0.5-1.4,0.3-2.2,1.4-2.8c1.1,0.2,2-1,3.1-0.5c0.3-0.3,0.4-0.2,0.6,0.1c0.1,0.7,0.5,1.4,0,2.1c0.2,1.5,1.4,2.2,2.6,2.8 c0-0.1,0.1-0.2,0.1-0.2c0-0.1,0-0.2,0-0.3c0.6-0.2,1.2-0.4,1.8-0.6c0.3-0.3,0.6-0.3,0.9,0c1.3,0.1,2.1-0.7,2.9-1.6 c0.1,0.1,0.2,0.2,0.2,0.3C206.8,372.1,206.7,372.2,206.7,372.2z"></path> <path class="st23" d="M185.6,329.5c-1.1,0-2.3,0-3.4,0c-0.5-1,0.4-0.6,0.7-0.6c2.4,0,4.7,0,7.1,0.1c-1.2,0.9-2.6,0.2-3.9,0.5 C185.9,329.7,185.8,329.7,185.6,329.5z"></path> <path class="st24" d="M143.4,329.5c-1.1,0-2.3,0-3.4,0c-0.5-1,0.5-0.6,0.7-0.6c2.4,0,4.7,0,7.1,0.1c-1.2,0.9-2.6,0.2-3.9,0.5 C143.7,329.7,143.5,329.7,143.4,329.5z"></path> <path class="st5" d="M227.8,329.5c-1.1,0-2.3,0-3.4,0c-0.7-0.7,0.1-0.6,0.4-0.6c2.5,0,4.9,0.1,7.4,0.1c-1.2,0.9-2.6,0.2-3.9,0.5 C228.1,329.7,227.9,329.7,227.8,329.5z"></path> <path class="st25" d="M193.3,368.3c-1,1.1-1.9,2.2-2.5,2.9c-1.9-2.2-3.9,0.4-5.9-0.5C187.6,369.1,190.5,368.9,193.3,368.3z"></path> <path class="st26" d="M151.6,367.8c-1.5,1.6-2.4,2.7-3.2,3.6c-1.6-2.6-3.7,0.4-5.7-0.7C145.5,369.3,148.2,368.7,151.6,367.8z"></path> <path class="st27" d="M238.3,366.9c1.2-0.8,2.5-1.4,3.4-2.4c2-2,2.7-2.5,4.9-2.2c0.1,0,0.2,0.2,0.9,0.8c-4.2-0.4-5.8,3.2-8.8,4.4 C238.6,367.3,238.5,367.1,238.3,366.9z"></path> <path class="st28" d="M228.9,361.1c-0.5,0.3-1.3,1-1.5,0c-0.5-2.9-2-1.8-3.5-1.1c-0.6,0.3-1.2,0.8-2.1,0.5c0.9-1.2,0.9-1.2,4.6-2.2 C227.5,357.9,227.5,357.9,228.9,361.1L228.9,361.1z"></path> <path class="st29" d="M113.4,329.6c2.9,0.8,4.1,5.2,8,3c-0.9,1-3.2,1.8-3.9,1.9c-1,0.1-0.4-0.7-0.6-1c-0.3-0.4-0.5-1.9-1.5-0.5 c-0.1,0.1-0.4-0.1-0.6-0.1C115.3,331.4,113.4,330.9,113.4,329.6z"></path> <path class="st30" d="M248.3,374.8c-1.1,1.4-2.6,1.4-3.9,1.8c-0.4,0.1-1.3,0.1-0.7-0.8c0.4-0.6-0.1-1.1-0.3-1 c-2.7,0.7-1.7-2.2-3-2.9C243.1,372.6,244.3,377.2,248.3,374.8z"></path> <path class="st19" d="M243,359.5c-0.1-4.5-4.7-4.5-6.9-6.9c2.2,0.2,3.7,2,6,2.3C243.4,355.1,242.4,357.9,243,359.5z"></path> <path class="st31" d="M162.2,362.9c-3.6,0-5.1,3.6-7.9,4.5C154.8,364.8,159.3,362,162.2,362.9z"></path> <path class="st32" d="M126.9,341.5c-2.7-2.6-1.3-7-4.6-9.2c1.3,1.1,3.7,2,3.4,3.6C125.3,338.1,127.5,339.2,126.9,341.5z"></path> <path class="st33" d="M228.8,361.1c1.2,0.1,0.1-1.7,1.4-1.6c1,1.2-1.1,2.5-0.1,3.6c0.9-0.3,0.4-1.9,2-2.1c-0.4,1.8-1.5,3-2.4,4.6 C228.9,364.1,228.8,362.6,228.8,361.1C228.9,361.1,228.8,361.1,228.8,361.1z"></path> <path class="st34" d="M111.4,367.7c1.1-2,2.8-2.2,3.8-3.3c1.6-1.7,2.3-2.2,4.1-2.1c0.2,0,0.4,0.2,0.8,0.5 C116.4,362.8,114.8,366.3,111.4,367.7z"></path> <path class="st35" d="M243.4,334.5c0.3-1.3,0.1-1-1.2-1.7c-0.9-0.5-1.2-2-2-3.5c2.8,1.5,4.2,5.1,8.5,2.9 C246.9,333.9,245.7,334.3,243.4,334.5L243.4,334.5z"></path> <path class="st36" d="M126.7,336.9c3.6-1.3,3.9-5.4,6.7-7.4C132.9,333.1,129.8,336.6,126.7,336.9z"></path> <path class="st37" d="M170.9,341.3c0,1.4-2.1,3-1.1,3.5c1.6,0.9,1.5-1.7,2.4-2.5c0.2-0.2,0.4-0.3,1.1-0.7c-0.8,2.1-1.2,3.9-3.2,4.5 c-0.4,0.1-1.5-0.5-1.5-0.7C168.6,343.6,169.5,342.3,170.9,341.3z"></path> <path class="st38" d="M254,345.1c2.4,0.2,1.7-2.9,3.7-3.2c-0.6,1.6-0.8,3.3-2.4,4.2c-0.9,0.5-2.1-0.5-2.1-0.7 c-0.2-1.8,1.5-2.7,2.1-4.8C255.7,342.8,254.1,343.6,254,345.1z"></path> <path class="st39" d="M66.1,368.4c-0.8,1.1-1.6,2.1-2.4,3.2c-0.8-0.9,0.5-1.3,0.1-2.2c-1.6,1-3.5,1.2-5.3,1.7 c-0.1-0.3-0.1-0.5-0.2-0.8c2.6-0.8,5.1-1.7,7.7-2.5C66,368.1,66.1,368.2,66.1,368.4z"></path> <path class="st30" d="M84.9,341.7c0.4-0.2,0.8-0.6,1.1-0.5c0.5,0.1,0.2,0.6,0,0.9c-0.2,0.6-0.6,1.1-0.9,1.6c-0.2,0.4-0.5,0.8,0,1.2 c0.5,0.3,0.8,0,1.1-0.4c0.7-0.8,0.7-2.1,1.8-2.8c0.3,1.2-0.6,2-1,2.9c-0.5,1-1.2,1.8-2.5,1.2c-1.3-0.7-0.7-1.5-0.2-2.5 C84.7,342.9,85.3,342.4,84.9,341.7L84.9,341.7z"></path> <path class="st40" d="M212.9,340.4c0.7,1.9-0.5,2.1-0.6,2.7c0,0.6-1.3,1.3-0.3,1.8c0.8,0.4,1.1-0.6,1.5-1.2 c0.4-0.7,0.4-1.6,2.1-2.1c-1.2,1.7-1.1,3.5-3,4.3c-0.9,0.4-1.2-0.7-1.9-0.6C210.7,343.5,212,342.4,212.9,340.4z"></path> <path class="st41" d="M90.9,329.7c-1.7,2.8-2,6.7-6.4,7.3C87.8,335.5,88.4,331.9,90.9,329.7z"></path> <path class="st36" d="M169,336.9c3.7-1.1,3.8-5.6,7.1-7.2C173.3,331.8,173.8,336.8,169,336.9z"></path> <path class="st42" d="M188,363.2c0.8-0.5,0.6-1.9,2.5-2.3c-1.1,1.9-1.9,3.3-2.8,4.7c-1.6-2.2-0.9-4.1,0.1-6.3 C189.1,360.6,187,361.9,188,363.2z"></path> <path class="st35" d="M211.2,336.9c3.7-1.1,3.9-5.4,6.8-7.5C216.7,334.2,214.7,336.4,211.2,336.9z"></path> <path class="st43" d="M197.7,364c-0.7-1.8,0.3-3.1,0.3-4.6c0-0.2,0.4-0.3,0.6-0.5c1.2,2.8,4,0.7,6,2 C202.3,362.4,198.2,358.9,197.7,364z"></path> <path class="st44" d="M162.3,361.2c-2.3,1.2-6.1-2.6-6.5,3.3c-0.5-1.8-0.3-4.7,0.1-5.2c0.1-0.2,0.4-0.2,0.6-0.3 C157.5,362.2,160.6,359.3,162.3,361.2z"></path> <path class="st45" d="M145.8,363.2c0.8-0.7,0.6-1.9,1.9-2.2c-0.3,1.9-1.5,3-2.3,4.6c-1.1-3.2-1.1-3.2,0.3-6.2 C146.9,360.7,144.7,362,145.8,363.2z"></path> <path class="st37" d="M208,363.3c1.1,2.1-4.1,3.9,0.2,6c-1.6-0.2-3.2-0.4-4.8-0.6C206.3,368,206.4,365,208,363.3z"></path> <path class="st43" d="M128.9,341.5c-0.6,1.1-1.2,2.1-1.9,3.4c2.6,0.4,2-2.5,3.9-3.1c-0.9,1.6-0.9,3.4-2.7,4.2 c-0.9,0.4-1.2-0.8-1.9-0.6c0.1-1.7,1.1-3,2-4.3C128.5,341.2,128.7,341.3,128.9,341.5z"></path> <path class="st46" d="M71.5,358.7c1.2,2.9,4,1.2,5.8,2.4c-1.8,0-3.6,0.4-5.4-0.3c-0.7,0.8,0.4,2.3-1.1,2.9 C70.1,361.9,71.4,360.5,71.5,358.7z"></path> <path class="st47" d="M240.1,363.9c-0.4-1.9,0.2-3.5,1-5.4c0.9,3.4,3.8,1.4,5.8,2.6c-1.3,0.9-2.7,0.3-3.6,0.1 c-1.7-0.3-2.3,0.1-2.5,1.7C240.7,363.2,240.4,363.4,240.1,363.9z"></path> <path class="st48" d="M104.4,340c-1.1,0.9,0.7,1.2,0.4,2.1c-1.5-0.3-3-0.2-4.4,0.6c-0.8,0.4-2,0.7-2-1l-0.1,0.1 C100.7,342.6,102.3,340.1,104.4,340L104.4,340z"></path> <path class="st43" d="M56.1,341.7c2.5,0.9,4-1.6,6.2-1.7l-0.1-0.1c-0.8,0.9,0.5,1.4,0.4,2.3c-1.5-0.5-2.9-0.5-4.2,0.3 C57.4,343.2,56.3,343.5,56.1,341.7L56.1,341.7z"></path> <path class="st31" d="M100.2,340.9c-1.7-1-1.5-2.7-1.2-4.1c0.2-1-2.5-1.5-0.4-2.1c1-0.3,1.3,1.6,1.4,2.7 C100,338.6,99.9,339.7,100.2,340.9z"></path> <path class="st49" d="M184.3,341.1c-0.5-1.9-1-3.8-1.4-5.8c-0.1-0.2,0.1-0.6,0.2-0.7c0.2-0.2,0.6-0.2,0.7,0.1 C184.3,336.8,185,338.9,184.3,341.1z"></path> <path class="st36" d="M97,331.8c-0.7,2.4-3.5,2.5-6,0.4C93,331.4,95.2,334,97,331.8z"></path> <path class="st31" d="M141.9,341.1c-0.4-2.2-0.9-4.3-1.3-6.5c1.6,1.9,2.2,4.1,2,6.4C142.4,341,142.2,341,141.9,341.1z"></path> <path class="st39" d="M55.6,366.6c0.8-2.2-2.1-1.5-2.3-3.2c1.9,0.3,3.4,1.3,5.4,2C57.5,366.3,56.6,366.7,55.6,366.6L55.6,366.6z"></path> <path class="st30" d="M76.2,358.9c-1.3-0.4-1.2-1.3-1.2-2.3c0-0.7,0-1.5-0.6-2c-0.4-0.4-1.7-0.5-0.6-1.4c1.4-1.1,0.5,1.7,1.6,1 C75.9,355.7,76.3,357.2,76.2,358.9z"></path> <path class="st19" d="M205,338.4c0.7,2.2,0.7,2.2,2.3,2.5c-0.7,1-3.1,0.6-2.5,2.8C204,341.9,204.5,340.2,205,338.4z"></path> <path class="st45" d="M97.8,366.6c0.7-2-1.7-1.7-2.4-3.1c2.1,0.2,3.5,1.3,5.5,2C99.7,366.3,98.8,366.7,97.8,366.6L97.8,366.6z"></path> <path class="st50" d="M97.7,355.5c1.4-0.9,2.9-1.8,4.3-2.7C101.5,354.7,101.5,354.7,97.7,355.5z"></path> <path class="st51" d="M55.4,355.5c1.5-0.9,2.9-1.8,4.5-2.8C59.2,354.6,59.2,354.6,55.4,355.5z"></path> <path class="st36" d="M120.3,338.3c1.8,0.3-0.4,3.7,2.8,2.4c-1.3,0.9-2.8,1.2-2.9,2.9C120,341.8,119.8,340.1,120.3,338.3z"></path> <path class="st30" d="M106.4,339.5c-0.5-1.7-1.2-3.3-0.3-5.1c0.1,1.4,1.7,1.6,2,2.7C105.8,336.8,107.9,339.1,106.4,339.5z"></path> <path class="st44" d="M168.9,366.2c0.7,1.5,1.6,3.1,0.8,5C167.8,369.7,168.4,368,168.9,366.2z"></path> <path class="st31" d="M217.9,346.2c0.1-0.5-0.3-1.4,0.5-1.2c1,0.3,0.8,1.7,1.5,2.4c-1,1-0.1,2.3-0.5,3.4 C217.4,349.7,219.3,347.4,217.9,346.2L217.9,346.2z"></path> <path class="st36" d="M92,351.5c-0.7-2.3,0.3-4.4-1.1-6.5C93.3,347.2,93.5,348,92,351.5z"></path> <path class="st52" d="M90.9,374.3c2.2-0.5,4.2,1.8,6-0.5c0.6,1.1-0.4,1.5-0.6,2.1C94.7,375.1,92.3,376.3,90.9,374.3z"></path> <path class="st43" d="M127.6,371.4c-1.9-1.7-1.5-3.4-1.1-5.8C127.6,367.7,128,369.3,127.6,371.4z"></path> <path class="st18" d="M84.6,365.9c0.8,1.8-0.1,3.6,1.4,5.6C83.2,369.4,83.2,369.3,84.6,365.9z"></path> <path class="st35" d="M231.1,340c0.3,1.2,0.3,1.2-1.1,1.4c-1.5,0.2-2.6,2-5.2,0.7C227.6,342,229.2,340.5,231.1,340L231.1,340z"></path> <path class="st53" d="M188.9,340c0.3,1.2,0.2,1.2-1.1,1.5c-1.5,0.3-2.6,2-5.1,0.8C185.4,341.9,187,340.6,188.9,340L188.9,340z"></path> <path class="st52" d="M146.6,340c0.3,1.3,0.3,1.2-1.1,1.5c-1.5,0.3-2.6,2-5.2,0.7C143.2,341.9,144.8,340.6,146.6,340L146.6,340z"></path> <path class="st54" d="M211.7,353.6c0,1.2-0.1,2.3,0,3.5c0.2,1.2-0.7,1.3-1.3,1.7c-0.8,0.4-1-0.1-0.7-0.7c0.1-0.3,0.7-0.3,0.8-0.5 C210.9,356.3,210.1,354.8,211.7,353.6z"></path> <path class="st55" d="M192.7,336c0.2,1.4-2.1,1.8-1.3,3.5c-1.3-1.5-0.5-3.4-1.7-5.3C191.3,334.8,191.3,336.8,192.7,336L192.7,336z"></path> <path class="st43" d="M169.3,353c-0.3,2.3,1.2,4.2-0.9,5.6c-0.4,0.3-1.4,0.2-1.1,0C169.1,357.2,167.6,354.9,169.3,353z"></path> <path class="st35" d="M226.3,341.1c-0.4-2.2-0.8-4.3-1.2-6.5c1.9,1.9,1.5,4.2,2,6.4C226.9,341,226.6,341,226.3,341.1z"></path> <path class="st52" d="M127.2,353.1c-0.4,2.2,1,4-0.9,5.4c-0.3,0.2-0.6,0.8-1.1,0.3c-0.4-0.5-0.1-0.7,0.4-1 C127,356.7,125.4,354.8,127.2,353.1z"></path> <path class="st56" d="M78.3,344c0.4,0.1,1.2,0.1,1,0.6c-0.7,1.9,0.9,2.9,1.8,4.4C78.4,347.5,77.4,345.7,78.3,344L78.3,344z"></path> <path class="st43" d="M235,336c0.3,1-0.7,1-1.1,1.6c-0.3,0.5,0.2,1.4-0.9,2c-0.2-1.8-0.4-3.4-0.7-5.3 C233.5,334.9,233.5,336.8,235,336L235,336z"></path> <path class="st45" d="M206.2,360.9c-0.8-1.5-2.7-2.7-1.2-4.9C206.2,357.5,206.4,359.1,206.2,360.9z"></path> <path class="st51" d="M206.7,337.1c-1.5-0.8-3.2-0.6-5.1-0.3C204.2,334.3,205.7,334.5,206.7,337.1L206.7,337.1z"></path> <path class="st30" d="M123.2,348.9c-1.1-1-2.2-1.9-2.9-3.3c-0.3-0.7-0.3-0.8,0.4-1.1c0.5-0.2,1.4-0.2,1.3,0.1 C120.8,346.5,123.2,347.3,123.2,348.9z"></path> <path class="st45" d="M182.4,355.7c1.1-1.5,3-1.9,4.8-3.2c-0.1,1.2-1.3,1.8-0.6,2.7c0,0-0.5,0.5-0.7,0.7 C184.8,352.8,183.5,357.3,182.4,355.7z"></path> <path class="st40" d="M224.3,356.1c1.4-1.8,3.3-2.1,4.9-3.6C228.4,354.7,228.4,354.7,224.3,356.1z"></path> <path class="st43" d="M113.3,332.6c-0.7,3-3.1,2.5-4.6,3.5c-0.1-0.2-0.3-0.4-0.4-0.6C109.8,334.6,111.3,333.7,113.3,332.6z"></path> <path class="st57" d="M235,336.1c1-1.9,3.2-2,5.1-3.6C239.3,335.7,236.8,335.3,235,336.1C235,336,235,336.1,235,336.1z"></path> <path class="st41" d="M143.8,351.8c-1.5,0.7-3,1.4-4.6,2.2c-0.1-1.7,1.7-1.1,2.1-2.5C141.9,349.2,142.9,351.7,143.8,351.8z"></path> <path class="st35" d="M211.8,371.4c-1.3-1.8-1.5-3.4-0.6-5.9C211.8,367.8,212.7,369.3,211.8,371.4z"></path> <path class="st41" d="M254.5,370.9c-2.7-1.2-1.4-3-0.8-4.9C255,367.6,254.2,369.3,254.5,370.9z"></path> <path class="st36" d="M75.6,369.6c2-0.1,3.3,0.4,4.6,0.9c0.6,0.2,1,0.3,0.5,1c-0.3,0.4-0.9,0.9-1,0.6 C79.1,370.3,77.1,371.1,75.6,369.6z"></path> <path class="st58" d="M180.7,373c-2.1-0.3-2.6-2.9-4.9-2.6c0,0-0.2-0.5-0.2-0.7c0.2-0.7,0.7-0.4,1.1-0.2 C178.6,370,179.4,371.8,180.7,373z"></path> <path class="st34" d="M150.5,336c0.3,1.5-1.9,1.8-1.4,3.5c-1.4-1.5-0.1-3.4-1.2-4.9C149.1,334.9,149,336.7,150.5,336L150.5,336z"></path> <path class="st37" d="M132.8,332c2.5,0.2,4.3,0.4,6,1.4C136.9,333.5,135,333.7,132.8,332z"></path> <path class="st34" d="M118.8,369.8c1.4,0.1,2.8,0.2,4.1,0.7c0.9,0.3,0.5,0.7,0.4,1.1c-0.1,0.6-0.7,0.8-0.9,0.4 C121.7,370.3,119.7,371.1,118.8,369.8z"></path> <path class="st39" d="M171.6,359.4c-1.6,1.8-3.1,2.5-4.7,3.5C167.3,360.3,169.1,360,171.6,359.4z"></path> <path class="st29" d="M256.4,359.2c-1.4,2-3.2,2.5-4.5,3.5c-0.1-0.2-0.2-0.4-0.2-0.6C252,359.8,254.2,360.1,256.4,359.2z"></path> <path class="st59" d="M142.3,363.6c-0.9-2.3-3-0.8-4.6-1.7c1.3-1.3,2.8-0.6,4.1-0.6C142.1,361.3,143.1,362.3,142.3,363.6z"></path> <path class="st45" d="M90,361.1c1.1-0.2,1.3-1.2,1.7-2c0.8-1.6,1.7-1.3,2.9-0.1c-2.2-0.4-2.5,1.4-3.5,2.5 C90.5,362.2,90.5,362.2,90,361.1L90,361.1z"></path> <path class="st35" d="M242.3,347.7c0.7,0.7,0.3,1.1-0.1,1.6c-0.7,0.8-1.2,1.7-1.9,2.3c-0.8,0.6,1.4,1.6-0.4,1.7 c-0.2,0-0.5-0.3-0.6-0.5c-0.9-1.1,0.4-1.4,0.8-2C240.7,349.7,241.5,348.7,242.3,347.7z"></path> <path class="st60" d="M124.1,372.3c1.2,0.7,1.7,2.5,3.7,1.7c0.3-0.1,0.5,1,0.1,0.8c-1.3-0.5,0.4,2.3-1.1,1 C125.7,374.9,124.5,374,124.1,372.3z"></path> <path class="st43" d="M197.8,353.2c-1.9-2.5,1.6-3.4,1.6-5.4C200.8,350.1,196.3,350.8,197.8,353.2z"></path> <path class="st46" d="M66.3,378.1c0.9-1.7,2.7-2,4.3-3.1C70.6,378.5,67.5,376.9,66.3,378.1z"></path> <path class="st43" d="M157,347.1c1.3,1.9,0.3,2.4-0.2,3.1c-0.5,0.6-1.3,1.1-1.1,2c0.1,0.4,0.6,0.7,0.1,1.1 c-0.4,0.3-0.6-0.1-0.9-0.3c-0.6-0.4-0.5-0.7-0.1-1.3C155.5,350.3,156.9,349.4,157,347.1z"></path> <path class="st40" d="M115.3,347.9c0.7,1.4-0.5,2-1.2,2.7c-0.8,0.8-1,1.6,0.3,2.9C111.8,352.3,111.8,352.2,115.3,347.9z"></path> <path class="st45" d="M138.8,375.6c-1.9,0-3.8,0.2-5.4-1.2C135.4,374.3,137.2,374.5,138.8,375.6z"></path> <path class="st45" d="M166.5,372.2c1.1,0.8,1.5,2.6,3.4,1.8c0.4-0.2,0.6,0.9,0.3,0.8c-1.2-0.3,0.2,2.1-1.1,1.1 c-1.2-0.9-2.1-2.1-3.1-3.2C166.1,372.5,166.3,372.4,166.5,372.2z"></path> <path class="st61" d="M181,375.6c-1.9-0.1-3.8,0.2-5.4-1.2C177.5,374.3,179.3,374.6,181,375.6z"></path> <path class="st43" d="M212.2,373.9c1.1,0.8-1,1.3-0.2,2.1c-0.7,0.3-0.9-0.4-1.3-0.7c-0.6-0.5-1.2-0.9-1.8-1.4 c0.1-0.5-0.9-1-0.3-1.4c0.7-0.6,0.8,0.3,1.1,0.7C210.2,374.2,211.1,374.4,212.2,373.9z"></path> <path class="st34" d="M162.7,338.1c1.2,1.1-0.5,3.6,2.8,2.4c-1.3,1.5-3.4,1.2-3,3.4C162.1,341.8,162,340.1,162.7,338.1z"></path> <path class="st18" d="M245.6,369.8c1.4,0.1,2.8,0.1,4.1,0.7c1,0.4,0.4,0.7,0.3,1.2c-0.2,0.6-0.7,0.8-0.9,0.3 C248.4,370.3,246.5,371.1,245.6,369.8z"></path> <path class="st54" d="M79.3,360.9c-0.4-1.3-2.5-2-1.4-3.8c0.1-0.2-0.2-0.7,0.3-0.9c0.4-0.1,0.7,0.1,0.7,0.6 C79,358.1,79.9,359.4,79.3,360.9z"></path> <path class="st43" d="M247.8,355.9c0.5,1.7,1.3,3.2,0.9,5.2C247.7,359.4,245.8,358.2,247.8,355.9z"></path> <path class="st45" d="M162.9,356c1.2,1.5,1.1,3.2,1.3,4.9C163,359.5,161.6,358.2,162.9,356z"></path> <path class="st31" d="M120.6,355.9c1.2,1.5,1.2,3.3,1.3,5C120.8,359.5,119.4,358.2,120.6,355.9z"></path> <path class="st31" d="M150.5,336.1c1-1.9,3.2-1.9,4.7-3.7C154.5,334.8,154.1,335,150.5,336.1C150.5,336,150.5,336.1,150.5,336.1z"></path> <path class="st31" d="M192.8,336.1c1-1.9,3.1-2.1,5-3.8C196.9,335.7,194.5,335.4,192.8,336.1C192.7,336,192.8,336.1,192.8,336.1z"></path> <path class="st35" d="M113.2,375.1c-0.5,2.6-3.2,1.9-4.7,3.5C109.1,376.9,109.5,376.6,113.2,375.1z"></path> <path class="st61" d="M196.7,375c0.5,0.5-0.3,2.9-0.6,2.6c-1.5-1.4-2.1,1.1-3.3,0.7C193.3,376.4,195.8,376.7,196.7,375z"></path> <path class="st19" d="M165,349c-0.8-1.1-1.6-2.3-2.4-3.4c-0.7-0.9,0-0.9,0.6-1.3c0.5-0.3,1.2-0.1,1.1,0.1 C163.1,346.3,165.3,347.3,165,349z"></path> <path class="st62" d="M89.5,334.1c2.5,0.1,3.7,0.4,6,1.5C93.9,336,92.7,335.7,89.5,334.1z"></path> <path class="st36" d="M206.7,372.2c0-0.2,0-0.3-0.1-0.5c-0.8-1.2-2.7-0.6-3.6-1.9c1.6-0.5,2.8,0.5,4.1,0.7c0.2,0,1.3-0.2,0.9,0.8 C207.7,371.8,207.6,372.4,206.7,372.2z"></path> <path class="st55" d="M228.4,352c-1.8,0.1-3,1.7-4.8,1.5C225.5,354,225.2,348.5,228.4,352z"></path> <path class="st63" d="M122.3,337.1c-1.5-0.8-3.2-0.6-5-0.3C119.9,334.3,121.4,334.5,122.3,337.1L122.3,337.1z"></path> <path class="st36" d="M160.3,369.3c2.1,0.5,3.3,0.7,4.5,1c0.7,0.2,1.1,0.7,0.6,1.4c-0.7,1-0.7,0-1.1-0.3 C163.3,370.7,161.8,370.9,160.3,369.3z"></path> <path class="st43" d="M186.3,351.6c-1.7,0.8-3.1,1.5-4.6,2.2C182.7,351.3,184.2,350.6,186.3,351.6z"></path> <path class="st64" d="M235.1,378.3c0.9-2.2,3.2-2.1,5.1-3.6C239.2,377.8,236.8,377.5,235.1,378.3 C235,378.3,235.1,378.3,235.1,378.3z"></path> <path class="st65" d="M136.3,357.2c-2.2-0.6-2.4-3.7-4.9-2.9c-0.1-0.3-0.2-0.7-0.1-1c0.2-0.6,0.6-0.4,1-0.1 C133.9,354,135.2,355.2,136.3,357.2z"></path> <path class="st66" d="M139.2,373.4c-2.8-0.6-3.2-3.5-5.6-3.1c0-0.3-0.2-0.6-0.1-0.8c0.3-0.6,0.7-0.3,1.1-0.1 C136.4,370.2,137.4,371.7,139.2,373.4z"></path> <path class="st49" d="M243.3,334.5c-1,2.2-3.3,3.1-4.8,4.8C240,337.5,240.7,335.1,243.3,334.5C243.4,334.5,243.3,334.5,243.3,334.5 z"></path> <path class="st46" d="M180,378.4c-1.7-0.5-3.4-0.9-5.1-1.4c0.1-0.2,0.1-0.5,0.2-0.7c1.9-0.1,3.4,1,5.2,1.2 C180.2,377.7,180.1,378.1,180,378.4z"></path> <path class="st67" d="M102,351.5c-1.9,0.9-3.5,1.6-5,2.4c-0.1-0.2-0.2-0.5-0.4-0.7C98.4,352.8,99,350.3,102,351.5z"></path> <path class="st68" d="M217.2,373.8c2.5,0.8,4.4,0.6,6,2C221.4,375.3,219.3,376.2,217.2,373.8z"></path> <path class="st41" d="M62.2,340c-0.5-1.7-1-3.5-1.5-5.2c1.7,1.3,1.8,3.2,2.5,5C62.8,339.8,62.5,339.9,62.2,340 C62.2,340,62.2,340,62.2,340z"></path> <path class="st69" d="M248.9,337.1c-1.4-1.3-3.1-0.3-5.2-0.5c1.5-1.3,3-1.5,4.4-1.5C248.8,335.1,248.8,336.4,248.9,337.1 L248.9,337.1z"></path> <path class="st41" d="M104.4,340.1c-0.5-1.8-1-3.6-1.5-5.5c1.7,1.4,1.8,3.4,2.4,5.1C105,339.8,104.7,339.9,104.4,340.1 C104.4,340,104.4,340.1,104.4,340.1z"></path> <path class="st31" d="M159.5,333.3c-0.7-1.1-1.8-0.6-2.7-0.7c1.1-1.5-1.2-1.6-1.2-3.6C157,331,159.4,330.9,159.5,333.3L159.5,333.3 z"></path> <path class="st70" d="M201.7,333.2c-0.7-0.9-1.8-0.6-2.7-0.7c1.1-1.5-1.4-1.6-1.1-3.1C199.3,330.8,201.5,330.9,201.7,333.2 L201.7,333.2z"></path> <path class="st43" d="M150.6,378.3c0.8-2,3.2-1.9,4.4-3.4C154.5,376.9,154.3,377,150.6,378.3C150.5,378.2,150.6,378.3,150.6,378.3z "></path> <path class="st71" d="M93.9,357.2c-2.3-0.4-2.6-3.3-4.9-2.9c0-0.4-0.2-0.8,0-1.1c0.3-0.6,0.7-0.3,1.1-0.1 C91.5,354.1,92.5,355.5,93.9,357.2z"></path> <path class="st65" d="M83.3,342.5c-1.6-0.6-2.4-2-3.4-5.1C81.7,338.8,82.1,340.9,83.3,342.5z"></path> <path class="st53" d="M223.5,333.3c-2.1,0.6-4.5,0-5.8-1.4C219.7,332.4,221.7,332.2,223.5,333.3z"></path> <path class="st72" d="M257.1,360.9c-0.1,1.8-3.3,1.4-2.2,3.7c-0.3,0.1-0.7,0.3-1,0.2c-0.8-0.4-0.7-1.1-0.2-1.6 C254.6,362.4,255.5,361.4,257.1,360.9z"></path> <path class="st36" d="M208.7,330c1.2,0.5,1.4,2.3,3.4,2c1.3-0.2-0.5,0.7-0.3,1.2c0.5,1.2-0.2,0.7-0.6,0.4c-1.1-0.9-2.2-1.9-3.3-2.8 C208.2,330.5,208.4,330.3,208.7,330z"></path> <path class="st43" d="M181,333.4c-1.9,0.1-3.8,0.2-6-1.2C177.6,331.9,179.3,332.7,181,333.4z"></path> <path class="st44" d="M166.4,330c1.2,0.4,1.5,2.8,3.4,1.8c0.1,0,0.5,0.3,0.5,0.5c0.1,0.5-1.6,0.4-0.5,1.4c-0.3,0.3-0.6,0.2-0.9-0.1 c-1.1-0.9-2.3-1.7-3.4-2.6C165.8,330.7,166.1,330.4,166.4,330z"></path> <path class="st52" d="M248.9,337.2c1.6,1.2,2.9,3.4,3,5.5C250.8,340.9,249.4,339.3,248.9,337.2 C248.9,337.1,248.9,337.2,248.9,337.2z"></path> <path class="st73" d="M200.7,353.3c2.8,1.6,1.9,3.8,2.4,5.5C201.4,357.5,202.1,355.4,200.7,353.3z"></path> <path class="st43" d="M124.1,330.2c1.3,0.4,1.6,2.6,3.6,1.7c0.2-0.1,0.7,0.9,0.3,0.8c-1.3-0.4,0.2,2.1-1.1,1 C125.7,332.8,124.5,331.8,124.1,330.2z"></path> <path class="st40" d="M237.9,363.3c0.5,0.1,1.3,0.2,0.9,0.9c-0.2,0.3-1,1.4-1.5,0.7c-0.9-1.2-2.6-1.9-2.9-3.9 c1.5,0.5,1.5,2.1,2.8,2.3C237.4,363,237.7,363,237.9,363.3z"></path> <path class="st64" d="M207.5,349.4c-1.1-1.5-1.9-2.6-2.7-3.7c-0.3-0.5-0.7-0.9,0.2-1.2c0.4-0.1,0.7-0.7,1.2-0.2 c0.3,0.4,0.4,0.5,0,1.2C205.2,347,208,347.2,207.5,349.4z"></path> <path class="st49" d="M217,361.5c-0.4,0.1-0.9,0.5-1.2,0.4c-0.5-0.2-0.3-0.7-0.1-1.2c0.7-1.2,1.4-2.4,2.2-3.8 c0.7,1.8-1.1,2.5-0.7,3.7C217.6,361,217.7,361.3,217,361.5z"></path> <path class="st41" d="M95.5,377.7c-2,0.5-3.7-0.3-5.4-1.2C92.1,376.1,93.7,377.2,95.5,377.7z"></path> <path class="st36" d="M247.8,343.8c-1.3-0.9-1.6-4.5-0.4-5.3c0.1-0.1,0.4-0.1,0.5,0c0.3,0.2,0.6,0.6,0.4,0.9 C247.3,340.8,247.9,342.4,247.8,343.8L247.8,343.8z"></path> <path class="st34" d="M247.8,343.9c1.5,1.2,0.5,3.8,2.6,4.7C247.7,347.5,246.6,345.5,247.8,343.9 C247.8,343.8,247.8,343.9,247.8,343.9z"></path> <path class="st59" d="M66.2,335.8c1.1-1.3,2.6-2.2,4.2-2.9C70.5,336.3,67.5,334.7,66.2,335.8z"></path> <path class="st67" d="M59.6,351.7c-1.9,0.8-3.4,1.5-5,2.2C56.2,353.1,56.6,349.8,59.6,351.7z"></path> <path class="st43" d="M105.3,351.6c-1.7-1.1-1.7-3.1-2.4-4.7C104.6,348,104.7,349.9,105.3,351.6z"></path> <path class="st31" d="M159.8,374.8c-2.8,0.6-3.2-1.4-3.9-3.1C157.1,372.7,158.4,373.7,159.8,374.8z"></path> <path class="st45" d="M178.5,357.1c-2.2-0.5-2.5-3.6-5-2.8c0-0.4-0.2-0.8,0-1c0.3-0.5,0.7-0.3,1.1,0 C176.2,354.1,177.4,355.3,178.5,357.1z"></path> <path class="st45" d="M67,352.3c1.6,0.9,3.1,1.7,4.7,2.6C69.6,355,68.1,354,67,352.3z"></path> <path class="st30" d="M84.5,353.6c0.6,1.6,0.7,3.1,0,4.7C83.6,356.8,83.9,355.2,84.5,353.6z"></path> <path class="st40" d="M113.7,371.6c1.3,1.1,2.5,2.1,3.8,3.2C114.9,375.5,114.4,373.5,113.7,371.6z"></path> <path class="st31" d="M201,373.9c0.3,0.3,0.5,0.6,0.8,1c-0.9,0-1.7-0.5-2.6,0c1.6-1.6-2.5-1.6-0.9-3.2 C199.2,372.4,200.1,373.2,201,373.9z"></path> <path class="st41" d="M221.1,357.2c-2.6-0.6-2.7-3.6-5.2-3c-0.4,0.1-0.3-0.6-0.2-0.9c0.2-0.6,0.5-0.6,1-0.3 C218.3,353.9,219.4,355.3,221.1,357.2z"></path> <path class="st39" d="M130.4,361.2c-1.1,1.2-3,1.7-2.9,4.2C126.4,363.1,127.3,362,130.4,361.2z"></path> <path class="st74" d="M119.8,366.5c0.1-1.9,1.1-3.4,2.4-4.8C121.8,363.5,121.1,365.2,119.8,366.5z"></path> <path class="st71" d="M98.4,341.7c-0.4,0-0.8,0-1.2,0l0.1,0.1c-0.3-1.6-0.7-3.2-1-4.8C98.1,338,97.7,340.1,98.4,341.7 C98.3,341.7,98.4,341.7,98.4,341.7z"></path> <path class="st39" d="M164.8,361.9c-0.8,1.6-1.6,3.2-2.4,4.7c-0.3-0.1-0.5-0.3-0.8-0.4C162.5,364.7,162.8,362.9,164.8,361.9z"></path> <path class="st75" d="M203.9,366.3c0.7-1.6,1.2-3.4,3-4.4c-0.8,1.6-1.6,3.2-2.4,4.7C204.4,366.6,204.1,366.4,203.9,366.3z"></path> <path class="st68" d="M252.3,336.2c0.2,1.7,1.6,3.1,1.6,5.6c-1.4-1.9-2-3.5-2.5-5.1C251.2,336.1,251.9,336.2,252.3,336.2 L252.3,336.2z"></path> <path class="st45" d="M67.2,366.9c-1.9-0.7-1.8-3.8-4.4-2.7c0.8-1.1,1.4-2.5,2.6-0.4C65.8,364.8,66.8,365.4,67.2,366.9z"></path> <path class="st44" d="M77.7,362.7c-1.7,0.3-3.2,1.5-5.6,0.8C74.2,362.6,75.9,362,77.7,362.7z"></path> <path class="st43" d="M109.6,366.5c-1.5,0.3-1.5-0.8-2-1.4c-0.3-0.4-0.5-0.8-0.9-1c-1-0.6-1.1-0.9-0.4-1.8 C107.3,363.7,108.4,365,109.6,366.5z"></path> <path class="st35" d="M57.8,340.9c-1.5-1.5-1.2-3.2-0.8-5.4C58.3,337.5,57.4,339.4,57.8,340.9z"></path> <path class="st35" d="M204.4,362.9c-1.6,0-3.2,1.5-4.9,0.6C201.1,363,202.6,361.8,204.4,362.9z"></path> <path class="st69" d="M188.9,340c0.3-1.9-1.7-3.5-0.7-6.1c0.7,2.1,1.2,3.7,1.6,5.3C190.1,340.1,189.3,339.9,188.9,340 C188.9,340,188.9,340,188.9,340z"></path> <path class="st36" d="M146.7,340c0.1-1.9-1.4-3.5-0.5-5.6c0.5,1.7,1.1,3.3,1.5,5C147.8,340.1,147,339.9,146.7,340 C146.6,340,146.7,340,146.7,340z"></path> <path class="st41" d="M64.2,339.4c-0.5-1.6-1.3-3.2,0-5c0.2,1.6,0.5,3.3,0.7,4.9C64.7,339.4,64.4,339.4,64.2,339.4z"></path> <path class="st76" d="M124.4,362.8c-0.9,1.8-1.7,3.7-2.6,5.5c-0.5,0.4-1,0.6-1.2-0.3C122.4,366.7,122.1,363.7,124.4,362.8 C124.4,362.8,124.4,362.8,124.4,362.8z"></path> <path class="st35" d="M91.1,368.2c-1.7-1.4-1-3.2-0.9-5.4C91.8,364.8,90.5,366.7,91.1,368.2z"></path> <path class="st41" d="M132.8,363.4c0.4,1.6,1.4,3.2,0.6,4.9C132.8,366.7,132.1,365.1,132.8,363.4z"></path> <path class="st54" d="M138.4,363.4c1.6,0.7,3,1.4,4.5,2c-0.9,0.1-1.2,1.2-2,1.1C141,364.8,138.3,365.3,138.4,363.4z"></path> <path class="st41" d="M175.6,368.3c-0.2-1.6-1.6-3.2-0.5-4.9C175.6,365,176.3,366.5,175.6,368.3z"></path> <path class="st18" d="M180.5,363.4c1.2,0.5,2.3,0.9,3.3,1.4c0.4,0.2,1.3,0,1.1,0.8c-0.1,0.6-1-0.2-1.3,0.7 c-0.2,0.6-0.8,0.1-0.9-0.6C182.6,364.5,180.6,365.2,180.5,363.4z"></path> <path class="st37" d="M217.9,368.3c-0.5-1.6-1.5-3.1-0.8-5.5C218,364.9,218.2,366.5,217.9,368.3z"></path> <path class="st53" d="M138.1,378c-1.9,0-3.8-0.3-5.3-1.5C134.6,376.5,136.5,376.7,138.1,378z"></path> <path class="st59" d="M227.8,365.5c-2.9,1.4-3.6-0.8-4.8-2C224.4,364.1,225.9,364.7,227.8,365.5z"></path> <path class="st69" d="M145.6,357.4c1.6-0.2,3.2-0.3,5.3-0.5C149,358.7,147.3,358.4,145.6,357.4z"></path> <path class="st34" d="M150.7,354.9c1.9,0.4,3.1,2.5,5.4,2C154.3,358.1,151.8,357,150.7,354.9L150.7,354.9z"></path> <path class="st43" d="M187.8,357.4c1.6-0.1,3.2-0.3,5.4-0.5C191.2,358.6,189.6,358.5,187.8,357.4z"></path> <path class="st35" d="M108.4,355.3c2.1-0.1,3.4,2,5.4,1.9C111.4,358.3,110.1,356.2,108.4,355.3z"></path> <path class="st41" d="M202,342.7c0.5-1.6-0.2-3.3,0.9-5.3C203.5,339.7,203.6,341.4,202,342.7z"></path> <path class="st45" d="M192.5,355.2c2.4-0.2,3.5,2.4,5.6,1.6c0.1,0.2,0.2,0.3,0.1,0.5c0,0.6-0.5,0.5-0.8,0.5 C195.6,357.6,194.2,356.5,192.5,355.2z"></path> <path class="st65" d="M132.2,361.7c-0.9,0.3-1.5,0.1-1-0.9c0.6-1.3,1.4-2.4,2.3-3.9c0.7,1.7-1.1,2.4-0.7,3.6 C133.1,361.2,132.7,361.5,132.2,361.7z"></path> <path class="st74" d="M103.1,358c1.4-1.3,3.2-0.1,4.6-1C106.5,359,104.6,358,103.1,358z"></path> <path class="st43" d="M235.3,356.9c-1.9,1.9-3.6,1.5-5.3,0.6C231.6,357.3,233.2,357.1,235.3,356.9z"></path> <path class="st30" d="M60.8,357.9c1.4-1.2,3.2-0.2,4.7-0.7C64.2,358.8,62.5,358.2,60.8,357.9z"></path> <path class="st43" d="M202.6,349.3c-1.9,0.3-1.7,2.6-3.1,3.3C199.9,350.9,200.2,349,202.6,349.3z"></path> <path class="st36" d="M72.1,352.9c0.6-1.7,1.3-2.9,2.2-3.9c0.4-0.3,1.3-0.4,1.5,0.1c0.4,0.8-0.4,0.7-0.9,0.8 C73.6,350.3,73.9,352.3,72.1,352.9z"></path> <path class="st69" d="M257.2,348.1c-1.5,1.4-3,2.8-4.5,4.3c-0.2-0.2-0.3-0.3-0.5-0.5C253.7,350.4,255.1,348.9,257.2,348.1z"></path> <path class="st77" d="M226.7,348.5c-1.4,1.2-2.8,2.4-4.2,3.7c0.6-2,2.1-3.2,3.7-4.2C226.4,348.2,226.6,348.3,226.7,348.5z"></path> <path class="st45" d="M210.1,352.1c0.7-2.2,2.8-2.9,4.4-4.3C213.9,350,211.4,350.4,210.1,352.1z"></path> <path class="st31" d="M128.8,365.6c0.4,1.6,1.5,3,1,5.3C128.6,368.9,128.5,367.3,128.8,365.6z"></path> <path class="st38" d="M167.9,352c0.9-2.2,2.9-3,4.6-4.2C171.5,349.8,169.3,350.5,167.9,352z"></path> <path class="st37" d="M172.8,370.6c-2.8-0.8-1.5-3.2-2.1-4.9C172.2,367,171.8,369.1,172.8,370.6L172.8,370.6z"></path> <path class="st78" d="M138,351.9c0.7-1.9,2.6-2.7,4-3.9C141.3,350,139.6,350.9,138,351.9z"></path> <path class="st79" d="M125.8,352.2c0.8-2.3,2.7-3.2,4.7-4.1C129,349.5,127.4,350.9,125.8,352.2z"></path> <path class="st37" d="M215,370.6c-2.8-0.8-1.6-3.2-2.1-4.9C214.4,367,214,369.1,215,370.6L215,370.6z"></path> <path class="st52" d="M257.1,370.4c-1.6-1-1.4-2.7-2.1-4.1c-0.1-0.3,0.1-0.7,0.5-0.8c0.4-0.1,0.5,0.2,0.5,0.4 C256.4,367.5,256.8,368.9,257.1,370.4z"></path> <path class="st18" d="M83.3,352.4c1-1.9,2.4-3.5,4.5-4.2C86.3,349.6,84.8,351,83.3,352.4z"></path> <path class="st62" d="M227.5,370.9c1.4-1.5,3.3-1.3,4.9-1.8C231.1,370.8,229.2,370.5,227.5,370.9z"></path> <path class="st45" d="M102.7,363.9c-0.7,0-1.3-0.2-0.8-1.1c0.6-1.1,0.1-2.7,1.8-3.6c0.2,1.3-0.7,2.4-0.3,3.5 C103.4,363.3,103.9,364.1,102.7,363.9z"></path> <path class="st49" d="M215.1,360.9c-1.1,1.4-2.6,1.7-2.9,3.1c-0.1,0.6-0.1,1.2-0.9,0.8c-0.4-0.3-0.5-1.2-0.2-1.5 C212.3,362.6,213.1,361.1,215.1,360.9z"></path> <path class="st30" d="M102.7,363.9c0.2-0.4,0.5-0.8,0.7-1.2c0.9-0.2,0.7-1.8,2.2-1.6c-0.7,1.2-1.4,2.4-2.1,3.5 c-0.2,0.4-0.2,1.3-1,0.7C102.3,365.3,102.6,364.4,102.7,363.9z"></path> <path class="st19" d="M195.3,363.3c0.1,0.6,0.1,1.3,0.2,2.1c-1.7-1.1-2.5-2.6-3.5-4.5c1.8,0.4,1.7,2.4,3.1,2.3L195.3,363.3z"></path> <path class="st36" d="M60.5,363.9c-0.4-0.1-1.2,0-1-0.5c0.6-1.3,0.4-2.9,1.9-4.3c0.1,1.5-0.7,2.6-0.3,3.7 C61.2,363.3,61.6,364,60.5,363.9z"></path> <path class="st35" d="M174.6,361.6c-0.6,0-1.8,0.8-1.2-0.7c0.5-1.3,1.4-2.4,2.3-3.9c0.7,1.6-1.1,2.4-0.7,3.6 C175.4,361.1,175.5,361.6,174.6,361.6z"></path> <path class="st80" d="M142.3,358.5c0.2-1.6,1.3-1,1.3-0.3c0,1.1,1.2,2.9,0.4,3.1C141.7,361.7,143.5,359,142.3,358.5L142.3,358.5z"></path> <path class="st81" d="M253.8,358.3c-0.8-1.5-0.5-3-0.2-4.6C254.8,355.2,254.4,356.7,253.8,358.3z"></path> <path class="st65" d="M90,361c-0.8-0.2-0.5,1.2-1.6,0.8c0.5-1.8,1.6-3.2,3-5.2C91.6,358.9,89.8,359.6,90,361 C90,361.1,90,361,90,361z"></path> <path class="st36" d="M117.4,353.6c1,1.9,1.4,3.5,1,5.3C117.4,357.5,117,356,117.4,353.6z"></path> <path class="st44" d="M245.3,359.2c-1.1-1.9-1.4-3.5-1.1-5.1C245.1,355.5,245.8,357,245.3,359.2z"></path> <path class="st35" d="M72.4,354.3c1.2,1.8,1,3.5,1.1,5.1C72.4,357.9,71.9,356.4,72.4,354.3z"></path> <path class="st18" d="M114.9,354.5c0.6,1.5,1.7,3,1,5C114.7,357.9,114.8,356.2,114.9,354.5z"></path> <path class="st52" d="M158.1,360.1c-1-2.3-1.5-3.8-1-5.5C157.8,356.1,158.7,357.5,158.1,360.1z"></path> <path class="st52" d="M200.3,359.8c-1.1-2.1-1.4-3.6-1-5.3C200,356,200.8,357.5,200.3,359.8z"></path> <path class="st36" d="M94.9,364.4c-0.9,0.4-1.5,1-2.1,2.6c-0.6-1.7-0.8-3-0.2-3.3C93.5,363.2,94.1,364.1,94.9,364.4z"></path> <path class="st71" d="M248.3,354.5c2.1,1,2.3,2.9,2.6,4.8C249.7,357.9,248.8,356.3,248.3,354.5L248.3,354.5z"></path> <path class="st41" d="M147.1,351.7c-0.7-1.6-1.3-3.2-2-4.8c1.7,1.1,2.1,2.8,2.7,4.5C147.6,351.5,147.4,351.6,147.1,351.7z"></path> <path class="st65" d="M134.9,351.2c-0.7-1.3-1.3-2.5-0.9-3.9c0.1-0.5,0.5-0.8,1-0.6c0.7,0.2,0.6,0.6,0.2,1 C134.3,348.7,135.8,350,134.9,351.2z"></path> <path class="st18" d="M217.2,334.3c1.9,0.1,3.7,0.2,5.8,1.6C220.6,336,218.9,335.3,217.2,334.3z"></path> <path class="st73" d="M231.1,340.1c0.2-1.9-1.5-3.5-0.9-5.8c1.2,1.8,1.2,3.7,1.9,5.3C232.3,340,231.5,339.9,231.1,340.1 C231.1,340,231.1,340.1,231.1,340.1z"></path> <path class="st67" d="M74.9,336.4c4-2,4.2-2,4.4,1.1C78.1,335.4,76.4,337.1,74.9,336.4z"></path> <path class="st48" d="M82.8,336.2c0.7,1.9,1.4,3.7,2.2,5.6c0,0,0.1-0.1,0.1-0.1C83.2,340.3,82,338.7,82.8,336.2L82.8,336.2z"></path> <path class="st29" d="M148.9,348.6c1.4-1,2.7-2.1,4.1-3.1c0.2,0.3,0.4,0.5,0.6,0.8C151.8,346.8,151.1,348.7,148.9,348.6z"></path> <path class="st52" d="M63.1,351.7c-1.5-1.3-1.8-3.1-2.3-4.9C62.3,348.1,62.7,349.9,63.1,351.7z"></path> <path class="st30" d="M90.1,346.2c0.8,1.7-0.4,3.1-0.5,4.7C88.3,349,89.7,347.7,90.1,346.2z"></path> <path class="st36" d="M78.4,343.9c-1.3-0.4-1.5-1.3-0.9-2.3c0.6-1-0.2-2.3,0.9-3.5C79.4,340.3,77.7,342.1,78.4,343.9 C78.3,344,78.4,343.9,78.4,343.9z"></path> <path class="st35" d="M244.8,342.7c-0.3-1.6-0.9-3.3,0.8-4.9C245.4,339.7,245.8,341.3,244.8,342.7z"></path> <path class="st57" d="M173.6,350.8c0.1-1.6,0.1-3.3,1.7-4.5c-0.3,1.5-0.7,3.1-1,4.6C174,350.8,173.8,350.8,173.6,350.8z"></path> <path class="st63" d="M116.7,337.7c-1.4,1.1-2.7,2.3-4.1,3.4c-0.2-0.2-0.3-0.4-0.5-0.6C113.4,339.3,114.8,338.1,116.7,337.7z"></path> <path class="st35" d="M159.8,342.7c0.9-1.5-0.4-3.3,1.1-5.3C161.2,339.7,161.4,341.3,159.8,342.7z"></path> <path class="st36" d="M117.6,342.6c0.7-1.5-0.3-3.3,1-5.4C119,339.7,119.3,341.4,117.6,342.6z"></path> <path class="st70" d="M75.2,342.7c-0.3-1.7-0.3-3.3,1.2-4.7c-0.2,1.6-0.3,3.2-0.5,4.8C75.7,342.8,75.4,342.8,75.2,342.7z"></path> <path class="st59" d="M122.2,337.2c1.8,1.4,2.3,3.5,3.1,5.4C123.9,341,122.6,339.3,122.2,337.2 C122.3,337.1,122.2,337.2,122.2,337.2z"></path> <path class="st18" d="M167.1,342.8c-0.9-1.7-1.8-3.4-2.7-5.1c1.8,1.2,2.5,3,3.3,4.7C167.5,342.6,167.3,342.7,167.1,342.8z"></path> <path class="st73" d="M206.7,337.2c1.6,1.5,2.3,3.5,3,5.5C208.4,341,207,339.3,206.7,337.2C206.7,337.1,206.7,337.2,206.7,337.2z"></path> <path class="st0" d="M217.4,376.1c1.7,0.5,3.4,1,5.1,1.5c-2,0.7-3.6-0.1-5.3-0.7C217.3,376.6,217.3,376.3,217.4,376.1z"></path> <path class="st41" d="M132.8,334.3c1.9,0,3.7,0.5,5.3,1.5C136.1,335.9,134.3,335.5,132.8,334.3z"></path> <path class="st43" d="M187.7,346.8c1,1.5,2.2,2.9,2.1,5.4C188.6,350.2,187.9,348.6,187.7,346.8z"></path> <path class="st56" d="M159.5,333.4c1.5,0.2,2.7-1.1,4.4-0.5c-1.4,1.3-3.1,1.5-4.7,1.4C158.6,334.3,159.4,333.7,159.5,333.4 C159.5,333.3,159.5,333.4,159.5,333.4z"></path> <path class="st35" d="M81.8,330.2c1.3-0.1,1.3,2.7,3.2,1.6c0.3-0.2,0.7,0.5,0.4,0.7c-0.6,0.4,0.1,1-0.2,1.3 c-0.3,0.3-0.6-0.1-0.9-0.3c-1.1-0.8-2.1-1.7-3.2-2.5C81.3,330.7,81.6,330.5,81.8,330.2z"></path> <path class="st59" d="M81.8,372.5c0.4,1.9,4.1,0.7,3.5,3.7C83.6,375.3,82.6,373.9,81.8,372.5z"></path> <path class="st43" d="M231.9,351.6c-1.1-1.4-1.8-3-2.1-4.8C231.2,348.1,231.9,349.7,231.9,351.6z"></path> <path class="st41" d="M75.2,333.2c-1.9-0.4-3.5-1.2-4.2-4.1C72.6,330.9,74.6,331.2,75.2,333.2L75.2,333.2z"></path> <path class="st82" d="M208.3,375.2c0.1,1.4,2,1.5,2,2.9c-1.3-1.1-3.6-1.4-3.2-3.9C207.5,374.5,207.9,374.8,208.3,375.2z"></path> <path class="st35" d="M160.6,358.9c-0.9-1.5-1.4-3.1-1-5.1C160.8,355.5,160.9,357.2,160.6,358.9z"></path> <path class="st41" d="M190,342.8c-1,1.8-3.3,1.4-4.7,2.4C186.5,343.9,188,342.8,190,342.8L190,342.8z"></path> <path class="st35" d="M60.7,355.6c1.5-0.6,3-1.3,4.7-0.9C64,355.6,62.5,356.2,60.7,355.6z"></path> <path class="st36" d="M147.8,342.7c-1.1,1.8-3.1,1.7-4.8,2.4C144.4,343.9,145.8,342.8,147.8,342.7L147.8,342.7z"></path> <path class="st83" d="M82.1,362.1c1.4-0.9,2.8-1.9,4.2-2.8c-0.7,1.8-2.3,2.6-3.7,3.4C82.4,362.6,82.2,362.4,82.1,362.1z"></path> <path class="st81" d="M81.6,359.3c-0.8-1.5-2.2-2.7-2.1-4.8C81,356,81.6,357.5,81.6,359.3z"></path> <path class="st53" d="M113.3,363.8c-0.2-1.6-0.2-3.2,0.6-4.8C115.5,360.9,113.5,362.2,113.3,363.8z"></path> <path class="st48" d="M121.5,375.1c-1.4,1-3,1.6-5.3,1.4C118.1,375.2,119.8,375.1,121.5,375.1z"></path> <path class="st43" d="M67.7,363.3c0.4-1.4,0.4-3,1.3-4.4c1,1.9-0.5,3.4-0.3,5C68.2,364,67.9,363.8,67.7,363.3z"></path> <path class="st41" d="M184.4,358.2c-1.3,1.5-3,1.9-4.8,2C181,359.2,182.5,358.2,184.4,358.2L184.4,358.2z"></path> <path class="st80" d="M142.3,358.4c-1.4,1.2-3.1,1.8-5,1.8C138.9,359.6,140.2,357.8,142.3,358.4 C142.3,358.5,142.3,358.4,142.3,358.4z"></path> <path class="st34" d="M99.3,358.3c-1,1.5-2.6,1.7-4.2,1.9C96.2,359,97.7,358.7,99.3,358.3z"></path> <path class="st54" d="M94.9,340.7c-1.7,0-3.1-0.8-5.1-2C92.4,338.5,93.5,339.9,94.9,340.7z"></path> <path class="st45" d="M192.9,340.5c0.9,1.4,1.8,2.7,2.9,4.3C193.9,343.9,193.5,343.4,192.9,340.5z"></path> <path class="st64" d="M74.1,375.9c0.3-0.1,0.6-0.4,0.9-0.4c1.3,0.2,2.4-1.1,3.9-0.3c-1.5,1.1-3.1,1.4-4.8,1.4 C74.1,376.4,74.1,376.1,74.1,375.9z"></path> <path class="st68" d="M68.1,345.1c-0.9-1.4-1.8-2.7-2.7-4.1c0.2-0.1,0.4-0.3,0.6-0.4c1.2,1.1,1.8,2.7,2.7,4.1 C68.5,344.8,68.3,344.9,68.1,345.1z"></path> <path class="st49" d="M158.9,375.8c1.6-0.4,3.1-0.8,5-1.2C162.3,376.2,161.1,376.6,158.9,375.8z"></path> <path class="st59" d="M100.6,370.3c1.6-0.4,3.3-0.9,5.5-1.5c-1.8,2.1-3.8,1.5-5.3,2.4C100.7,370.8,100.6,370.5,100.6,370.3z"></path> <path class="st60" d="M234.8,372.7c0.2-1.9,1.5-3,2.6-4.3C237.3,370.2,235.8,371.3,234.8,372.7z"></path> <path class="st52" d="M248.3,367.7c0.6,1.2,2,0.3,3.5,1.7c-2.4-0.3-4-0.5-5.7-0.7C246.5,367.2,247.7,368.2,248.3,367.7L248.3,367.7 z"></path> <path class="st43" d="M163.2,367.7c0.8,0.9,2.1,0.4,2.9,1.6c-1.6-0.2-3.2-0.4-4.9-0.6C161.6,367.3,162.6,368.1,163.2,367.7 L163.2,367.7z"></path> <path class="st67" d="M78.8,367.7c0.6,1.2,2,0.3,3,1.2c-1.9,1-3.5-0.7-5.3,0.2C77,367.2,78.2,368.2,78.8,367.7L78.8,367.7z"></path> <path class="st45" d="M226.3,368.1c-1.8,0.1-3.3-0.7-4.7-1.5C223.6,366,224.8,367.4,226.3,368.1z"></path> <path class="st84" d="M250.7,330.3c2,0.4,2.5,2.5,4,3.5C252.5,333.5,252,331.5,250.7,330.3z"></path> <path class="st42" d="M238.5,330.9c-1.2,2.2-3.1,2.1-4.5,2.7C235,332.3,236.5,331.8,238.5,330.9z"></path> <path class="st59" d="M257.7,333.3c0.5,2.8-2,2.9-3.7,3.7C255.3,335.8,256.5,334.6,257.7,333.3 C257.8,333.4,257.7,333.3,257.7,333.3z"></path> <path class="st54" d="M78.9,367.7c0.5-1.7,1.2-3.2,2.6-4.4C80.8,364.9,80.9,367,78.9,367.7C78.8,367.7,78.9,367.7,78.9,367.7z"></path> <path class="st47" d="M180.1,335.7c-1.9,0.2-3.5-0.4-5-1.4C176.9,334.2,178.5,334.7,180.1,335.7z"></path> <path class="st31" d="M248.3,367.7c0.4-1.8,1-3.5,3-5.3C250.4,364.8,249.9,366.6,248.3,367.7C248.3,367.7,248.3,367.7,248.3,367.7z "></path> <path class="st31" d="M242,369.7c1.4,1,2.8,2,4.2,3c-0.1,0.2-0.3,0.4-0.4,0.6c-1.4-1-2.8-2-4.2-3 C241.7,370.2,241.9,369.9,242,369.7z"></path> <path class="st35" d="M209.4,336c0.8,1.7,1.6,3.5,2.3,5.2C210.3,339.8,208.8,338.3,209.4,336L209.4,336z"></path> <path class="st45" d="M56.1,341.7c-0.4,0-0.8,0-1.2,0l0.1,0.1c-0.3-1.7-0.7-3.3-1-5C55.8,338.1,55.5,340.1,56.1,341.7 C56.1,341.7,56.1,341.7,56.1,341.7z"></path> <path class="st19" d="M90.9,336.6c-1.9,1.7-3.6,1.7-5.1,2.1C87,337.4,88.5,336.9,90.9,336.6z"></path> <path class="st67" d="M77.8,366.6c-0.3-2,0.5-3.5,2.2-4.6C79.3,363.5,78.5,365.1,77.8,366.6z"></path> <path class="st31" d="M139.2,336.8c0.9,1.4,1.3,2.9,1.2,4.9C139,340.1,138.8,338.6,139.2,336.8z"></path> <path class="st45" d="M170.6,338.6c1.1-1.3,2.6-1.7,4.8-1.9C173.7,338.2,172.2,338.4,170.6,338.6z"></path> <path class="st36" d="M217.1,337c-1.1,1.2-2.6,1.4-4.1,1.7C213.9,337.1,215.5,337.1,217.1,337z"></path> <path class="st36" d="M172.3,361.2c-1,1.2-2.5,1.9-3,3.6C168.7,362.3,171,362.1,172.3,361.2z"></path> <path class="st31" d="M224.7,341.3c-1.3-1.4-1.3-2.9-1.6-5C225,338,224.6,339.8,224.7,341.3z"></path> <path class="st18" d="M95.3,361.3c1.4,0,2.9,0,4.9,0C98.2,362.6,96.8,362.4,95.3,361.3z"></path> <path class="st46" d="M87.6,361c-0.1,1.8-3.1,1.3-2.2,3.6c0.1,0.2-0.6,0.5-0.8,0.2c-0.3-0.5-1.1-0.9-0.3-1.6 C85.3,362.4,86.2,361.5,87.6,361z"></path> <path class="st52" d="M67.7,363.3c0.3,0.2,0.7,0.4,1,0.6c0,0.4,0.1,0.9,0.1,1.6c-1.8-1.1-2.4-2.9-3.9-4.3 C66.8,361.1,66.8,362.8,67.7,363.3z"></path> <path class="st41" d="M60.5,363.9c0.2-0.4,0.4-0.8,0.6-1.1c1-0.2,0.7-1.7,2.1-1.7c-0.6,1.8-1.7,3.1-2.8,4.6 C59.7,364.9,60.8,364.5,60.5,363.9z"></path> <path class="st34" d="M87.2,353.9c-0.3,1.4,0.5,3-0.7,4.3C86,356.7,85.7,355.2,87.2,353.9z"></path> <path class="st18" d="M75,374.8c-2.5,0.5-2.8-1.6-3.8-2.8C72.5,372.7,73.9,373.4,75,374.8z"></path> <path class="st85" d="M114.8,353.1c0.7-2.4,1.1-4,3.4-4C116.5,349.7,116.4,351.7,114.8,353.1z"></path> <path class="st59" d="M157.2,353.4c0.5-3.6,1.2-4.3,4-4C159,349.9,158.4,351.4,157.2,353.4z"></path> <path class="st35" d="M241.9,352.6c0.6-1.5,0.4-3.7,3.6-3.6C243.8,350.2,242.8,351.4,241.9,352.6z"></path> <path class="st30" d="M106.6,348.7c1.4-1,2.8-2.1,4.5-3.4C110.2,347.2,110.2,347.2,106.6,348.7z"></path> <path class="st33" d="M191.4,348.8c1.4-0.9,2.2-2.6,4.1-2.9C194.3,347.1,193.3,348.6,191.4,348.8z"></path> <path class="st36" d="M80.2,350.7c-1.2,1.5-2.9,1.8-4.5,2.4C76.9,351.6,78.6,351.2,80.2,350.7z"></path> <path class="st36" d="M121.7,350.6c0.3,0,0.6,0,0.8,0.1c0.3,0.3,0.3,0.7-0.2,0.8c-1.5,0.5-2.8,1.6-4.7,1.7 C118.9,351.7,120.8,351.7,121.7,350.6L121.7,350.6z"></path> <path class="st45" d="M145,353.5c-1.5,0.9-3,1.7-4.5,2.6c0.9-1.9,2.7-2.4,4.2-3.3C144.8,353.1,144.9,353.3,145,353.5z"></path> <path class="st86" d="M97.6,346.4c-0.6,1.7-1.4,3.1-2.8,4.1C95.1,348.7,96.3,347.5,97.6,346.4z"></path> <path class="st44" d="M206.1,350.5c0.3,0,0.6,0,0.8,0.1c0.3,0.3,0.3,0.7-0.1,0.9c-1.4,0.6-2.9,1.3-4.4,1.7 C203.3,351.7,205.2,351.8,206.1,350.5C206.2,350.5,206.1,350.5,206.1,350.5z"></path> <path class="st85" d="M133.1,346.2c-0.4,1.6-0.7,3.1-1.1,4.7c-0.2-0.1-0.5-0.1-0.7-0.2C131.4,349.1,131.7,347.5,133.1,346.2z"></path> <path class="st31" d="M217.8,346.1c-0.5,1.6-1,3.2-1.5,4.8C216.4,349.2,214.9,346.9,217.8,346.1 C217.9,346.2,217.8,346.1,217.8,346.1z"></path> <path class="st87" d="M129.1,374.2c-0.1-2,1.6-2.9,2.7-4.1C131.8,372,129.8,372.7,129.1,374.2z"></path> <path class="st54" d="M248.3,350.6c0.5,0.1,2-0.1,0.6,1c-1.1,0.8-2.5,1.2-4.3,2C245.7,351.5,247.7,351.9,248.3,350.6L248.3,350.6z"></path> <path class="st71" d="M95.1,356.1c-1.3-1.3-2.5-2.6-2.9-4.5c1.2,1.4,2.3,2.7,3.5,4.1C95.5,355.8,95.3,356,95.1,356.1z"></path> <path class="st88" d="M172.8,370.6c0.6,0.1,0.8-0.9,1.4-0.5c0.6,0.5-0.1,0.9-0.4,1.3c-0.7,1-1.6,1.9-2.4,2.8 C170.4,372.4,173.2,372.2,172.8,370.6C172.8,370.6,172.8,370.6,172.8,370.6z"></path> <path class="st89" d="M123.7,350.6c0.8-1.7,2.2-2.7,4.1-2.9C126.5,348.7,125.1,349.7,123.7,350.6z"></path> <path class="st45" d="M207.8,350.1c1.2-1.2,2.5-2.3,4.5-2.4c-1.3,1-2.7,2-4,2.9C208,350.4,207.9,350.3,207.8,350.1z"></path> <path class="st90" d="M125.4,378.6c-1-1.4-2.3-2.5-3.2-4.1C123.3,375.9,124.3,377.3,125.4,378.6z"></path> <path class="st91" d="M214.2,353.6c-0.1,1.4-0.2,2.7-0.4,4.1c0,0.4-0.2,0.7-0.7,0.6c-0.5-0.1-0.4-0.6-0.4-0.9 C212.9,356.1,213,354.7,214.2,353.6z"></path> <path class="st33" d="M256.2,353c0.9,2.2,0.3,3.7-0.6,5.8C255.2,356.6,255.4,355.1,256.2,353z"></path> <path class="st41" d="M232.2,342.8c-1,1.9-3.3,1.3-4.7,2.4C228.8,343.9,230.2,342.7,232.2,342.8L232.2,342.8z"></path> <path class="st44" d="M170,347.7c-1.3,1-2.7,1.9-4,2.9C166.8,349,168,347.8,170,347.7z"></path> <path class="st35" d="M167.2,336c0.8,1.7,1.8,3.2,1.8,5.2C168.2,339.6,166.4,338.3,167.2,336L167.2,336z"></path> <path class="st31" d="M72,349.2c0.7,1.7-3,2.3-0.2,3.8c-1.2,0.6-2.2-0.2-2.2-0.6C69.8,351,71.2,350.5,72,349.2z"></path> <path class="st50" d="M235.6,368.3c-1,1.1-2,2.2-3,3.3C232.7,369.8,233.8,368.7,235.6,368.3z"></path> <path class="st41" d="M68,368.4c-0.2,1.7-1,3.1-2.6,4.8C65.9,370.9,67,369.7,68,368.4z"></path> <path class="st44" d="M132.8,337.4c-1.4,0.5-2.8,1-4.2,1.5c0.9-1.8,2.5-1.7,3.9-2.2C132.6,336.9,132.7,337.1,132.8,337.4z"></path> <path class="st59" d="M163.9,350.5c0.3,0,0.6,0,0.8,0.1c0.3,0.2,0.4,0.7-0.1,0.9c-1.5,0.5-2.8,1.6-4.8,1.8 C161,351.6,163.1,351.9,163.9,350.5L163.9,350.5z"></path> <path class="st92" d="M224.4,346.3c-0.2,1.8-1.4,2.9-2.9,4.7C222,348.6,223.2,347.5,224.4,346.3z"></path> <path class="st36" d="M153.1,368.6c-0.8,1.4-1.6,2.9-2.5,4.3c-0.2-0.1-0.4-0.3-0.7-0.4C150.9,371.1,151.4,369.5,153.1,368.6z"></path> <path class="st41" d="M194.7,369.9c-0.6,0.8-1.3,1.6-1.4,2.8c-0.4,0-1.2,0.1-1-0.4c0.7-1.4,1.3-3,3.2-4.3 C195.1,369,194.9,369.5,194.7,369.9z"></path> <path class="st39" d="M154.4,340.4c1.4-1.1,2.7-2.2,4.1-3.3c0.2,0.2,0.3,0.4,0.5,0.6c-1.4,1.1-2.7,2.2-4.1,3.3 C154.7,340.8,154.6,340.6,154.4,340.4z"></path> <path class="st52" d="M226.5,361.4c-1.3,1.4-2.8,0.6-4.2,0.6C223.6,360.7,225.1,361.4,226.5,361.4z"></path> <path class="st93" d="M182.6,341.2c-1.2-1.2-1.7-2.6-1.3-4.7C182.7,338.1,182,339.8,182.6,341.2z"></path> <path class="st88" d="M214.4,373.3c-0.3,0.3-0.6,0.6-0.9,0.9c-0.1-0.3-0.2-0.6-0.3-0.9c0.4-1,2-1.3,1.8-2.8c0,0-0.1,0.1-0.1,0.1 c0.6,0.2,0.8-0.9,1.3-0.5c0.6,0.5-0.1,0.9-0.4,1.3C215.5,372.1,214.9,372.7,214.4,373.3z"></path> <path class="st20" d="M53.3,361.6c1.3-0.7,2.7-0.4,4.2-0.4C56.2,362.4,56.1,362.5,53.3,361.6z"></path> <path d="M180.1,361.7c1.4-0.8,2.8-0.6,4.5-0.5C182.9,362.7,181.5,362.1,180.1,361.7z"></path> <path class="st68" d="M74.5,337.7c-1.4,1.1-2.8,2.2-4.7,3.7c1-2.5,3.2-2.8,4.1-4.4C74,337.2,74.2,337.5,74.5,337.7z"></path> <path class="st36" d="M142.9,367.8c1.4-0.5,2.7-1.3,4.6-1C145.9,368,144.5,368.5,142.9,367.8z"></path> <path class="st20" d="M104.8,366.8c-1.3,1.2-2.9,1.4-5,1.6C101.4,366.8,103.2,367,104.8,366.8z"></path> <path class="st94" d="M58,368.1c1.4-1,2.9-1.5,4.9-1.3C61.3,368,59.8,368.3,58,368.1z"></path> <path class="st53" d="M240.2,369.5c0.9-1.6,2.5-2.4,4.6-3.8C243.5,368.1,241.5,368.4,240.2,369.5z"></path> <path class="st57" d="M143.7,347.9c1,1.1,1.6,2.3,2,4.4C144,350.9,143.9,349.3,143.7,347.9z"></path> <path class="st36" d="M143.4,329.5c0.2,0,0.3,0,0.5,0c-0.1,2-1.9,2.9-2.5,4.5c-0.2-0.1-0.5-0.3-0.7-0.4 C141.5,332.2,142.4,330.8,143.4,329.5z"></path> <path class="st40" d="M198.3,369.6c-0.2,0-0.4-0.1-0.6-0.1c0.8-1.8,2.6-2.2,4.1-3.2C201.2,367.9,199.4,368.4,198.3,369.6z"></path> <path class="st69" d="M184.2,368c-1.8,0.2-3.2-0.7-4.6-1.5C181.4,365.9,182.6,367.6,184.2,368z"></path> <path class="st53" d="M137.3,366.5c2-0.5,3.2,1,4.8,1.5C140.2,368.3,138.8,367.3,137.3,366.5z"></path> <path class="st37" d="M113.5,369.3c1-1.5,2.4-2.4,4.1-3C116.5,367.8,115.1,368.7,113.5,369.3z"></path> <path class="st53" d="M92.6,369.4c1.1,1.3,2.1,2.6,3.6,4.3C94.3,372.5,93.1,371.4,92.6,369.4z"></path> <path class="st44" d="M185.1,367.8c1.4-0.4,2.7-1.4,4.8-0.9C188,367.8,186.7,368.6,185.1,367.8z"></path> <path class="st20" d="M87.5,370.4c-1.2-1.4-1.5-3-1.7-5.3C87.4,366.9,87.5,368.6,87.5,370.4z"></path> <path class="st95" d="M167.2,336.1c-1-1.2-1.9-2.3-2.9-3.5c0.1-0.1,0.2-0.3,0.4-0.4c1.2,1,2.5,2,3.5,3.2 C168.7,336.1,167.7,336.1,167.2,336.1C167.2,336,167.2,336.1,167.2,336.1z"></path> <path class="st50" d="M209.4,336.1c-0.5-1.5-2.4-1.9-2.9-4.1c1.5,1.4,2.9,2.3,3.8,3.5C210.8,335.9,210,336.2,209.4,336.1 C209.4,336,209.4,336.1,209.4,336.1z"></path> <path class="st18" d="M177.1,351.2c-0.7-1.4-1.1-2.5-0.9-3.7c0.1-0.7,0.4-1,1.1-0.8c0.6,0.2,0.7,0.5,0.3,1 C176.7,348.7,177.6,349.8,177.1,351.2z"></path> <path class="st43" d="M239.5,348.2c-1.2,1.1-2.4,2.3-4.3,2.6c1.3-1,2.6-2,3.8-3.1C239.1,347.8,239.3,348,239.5,348.2z"></path> <path class="st36" d="M227.3,367.8c1.4-0.5,2.7-1.4,4.5-1C230.3,367.9,228.9,368.5,227.3,367.8z"></path> <path class="st74" d="M59.5,329.9c-1,1.3-2,2.7-2.9,4c0.4-1.8,1.1-3.4,2.3-4.5C59.1,329.6,59.3,329.8,59.5,329.9z"></path> <path class="st43" d="M159.3,336.5c1.5-1.2,3.1-1.5,5.3-1.5C162.8,336.3,161.3,336.8,159.3,336.5z"></path> <path class="st63" d="M69,339.1c0.5-1.8,2.6-2.1,3.5-3.5C72.1,337.6,70.4,338.3,69,339.1z"></path> <path class="st41" d="M120.6,368c0.3,0.4,0.8,0.4,1.2,0.3c0.8,0.1,1.6-0.1,2.8,1.1c-2.2-0.3-3.7-0.4-5.2-0.6 c-0.4,0-0.4-0.4-0.3-0.6C119.5,367.6,120,367.8,120.6,368z"></path> <path d="M192.2,354.9c-1.5,0.4-2.8,1.3-4.4,0.7C189.3,355.2,190.6,354.2,192.2,354.9z"></path> <path class="st56" d="M238,346.2c-1.4,1-2.8,2.1-4.3,3.2C234.1,347.9,234.1,347.9,238,346.2z"></path> <path class="st36" d="M238.7,373.1c-1.4,2-3.2,2-4.6,2.7C235.1,374.5,236.5,373.9,238.7,373.1z"></path> <path class="st96" d="M206.4,354.8c1.3,1.2,1.9,2.8,2.2,4.5C207.3,358.1,206.7,356.6,206.4,354.8z"></path> <path class="st31" d="M129.9,353.8c-0.3,1.5-0.5,3-0.8,4.5c-0.8-1.7-0.4-3.3,0-4.8C129.4,353.6,129.7,353.7,129.9,353.8z"></path> <path class="st97" d="M132.2,361.7c0.2-0.4,0.4-0.8,0.6-1.2c1.4-0.3,1.3-2,2.5-2.6C135,360.3,133.7,362,132.2,361.7z"></path> <path class="st64" d="M57.1,358.4c-1.1,1.3-2.6,1.7-4.2,1.9C54,359,55.5,358.7,57.1,358.4z"></path> <path class="st52" d="M137,341c-1.4-0.7-2.8-1.3-4.3-2c0.1-0.2,0.2-0.4,0.3-0.7c1.5,0.4,2.9,1.2,4.2,2 C137.2,340.6,137.1,340.8,137,341z"></path> <path class="st18" d="M175.1,338.7c1.7,0.2,3.2,0.8,4.3,2.1C177.8,340.4,176.2,340,175.1,338.7z"></path> <path class="st45" d="M235.1,355.4c1.8,0,3.1,1,4.4,2C237.7,357.5,236.5,356.2,235.1,355.4z"></path> <path class="st73" d="M217.3,338.6c1.6,0.3,3.2,0.7,4.3,2.2C220.1,340.3,218.4,340.1,217.3,338.6z"></path> <path class="st29" d="M182.4,341.7c-1.7,1.4-2.9,2.3-4.6,3.7C178.9,343.2,179.9,342.4,182.4,341.7z"></path> <path class="st37" d="M147.8,342.8c0-0.4,0-1.3,0.6-0.8c1.2,1.1,2.1,2.4,2.9,4.4C149.3,345.4,149.2,343.5,147.8,342.8 C147.8,342.7,147.8,342.8,147.8,342.8z"></path> <path class="st98" d="M139.5,342.2c-1.1,0.9-2.3,1.8-3.4,2.7c0.4-1.8,1.7-2.5,3-3.3C139.2,341.8,139.4,342,139.5,342.2z"></path> <path class="st86" d="M242,346.9c-1.6-0.7-3-1.6-3.4-3.4C239.9,344.4,240.8,345.8,242,346.9z"></path> <path class="st43" d="M108.3,340.5c1,1.4,2,2.7,2.9,4.1c-0.2,0.1-0.4,0.3-0.6,0.4c-1-1.4-2-2.7-2.9-4.1 C107.9,340.8,108.1,340.6,108.3,340.5z"></path> <path class="st35" d="M235,340.5c0.9,1.4,2.4,2.4,2.4,4.4c-1-1.3-2-2.6-3.1-4C234.6,340.8,234.8,340.6,235,340.5z"></path> <path class="st45" d="M149.9,340.9c1.9,0.7,2.5,2.3,3,4.1C151.9,343.6,150.9,342.3,149.9,340.9z"></path> <path class="st99" d="M172.1,353.7c-0.2,1.5-0.5,3.1-0.7,4.6c-1.1-1.7-0.6-3.2,0-4.8C171.7,353.6,171.9,353.7,172.1,353.7z"></path> <path class="st59" d="M102.9,355.7c1.5-0.6,2.9-1.5,4.6-1C106.2,355.6,104.6,356,102.9,355.7z"></path> <path class="st31" d="M104.8,342.8c-0.9,1.7-2.7,1.6-4.1,2.5C101.5,343.3,103.4,343.6,104.8,342.8z"></path> <path class="st30" d="M157.6,369.9c1.3,1,2.7,1.9,4,2.9C159.7,372.6,158.4,371.6,157.6,369.9z"></path> <path class="st37" d="M119.1,373.1c-1.6-0.6-3-1.5-4.5-3.4C116.7,370.7,118.2,371.6,119.1,373.1z"></path> <path class="st53" d="M150.8,354.8c-1.7,0.6-3.3,1.3-5.2,0.8C147.3,355.1,148.8,354,150.8,354.8 C150.7,354.9,150.8,354.8,150.8,354.8z"></path> <path class="st36" d="M196.8,340.7c1.3-1.2,2.3-2.7,4.2-3.2C199.9,338.9,198.5,340,196.8,340.7z"></path> <path class="st100" d="M97.2,341.7c-0.6,1.8-2.4,2-3.7,2.9C94.3,343.1,95.6,342.1,97.2,341.7C97.2,341.7,97.2,341.7,97.2,341.7z"></path> <path class="st101" d="M185.6,329.5c0.2,0,0.3,0,0.5,0c-0.2,1.9-1.8,2.9-3.2,4.1C183.8,332.2,184.7,330.8,185.6,329.5z"></path> <path class="st44" d="M155.8,369.3c0.8-1.7,2.5-2.2,3.9-3.1C158.8,367.8,157.3,368.6,155.8,369.3z"></path> <path class="st47" d="M227.8,329.5c0.2,0,0.3,0,0.5,0c-0.3,1.9-1.8,2.9-3.2,4.1C225.9,332.2,226.9,330.8,227.8,329.5z"></path> <path class="st30" d="M55,341.7c-0.5,1.9-2.5,2-3.6,3.1C51.9,343,53.3,342.2,55,341.7C55,341.7,55,341.7,55,341.7z"></path> <path class="st94" d="M228.4,372.2c-1,1.3-1.6,2.9-3.4,3.6c1-1.3,2-2.7,2.9-4C228.1,371.8,228.2,372,228.4,372.2z"></path> <path class="st36" d="M72.2,370.3c2,0.1,3.2,1.5,4.6,2.4c-0.1,0.2-0.2,0.4-0.4,0.6C75,372.3,73.6,371.3,72.2,370.3z"></path> <path class="st20" d="M186,372c-0.8,1.5-1.4,3.1-3,4C183.6,374.3,184.5,372.9,186,372z"></path> <path class="st67" d="M144,372.2c-1,1.3-1.9,2.7-2.9,4C141.4,374.3,142.3,372.9,144,372.2z"></path> <path class="st97" d="M187.9,330.1c0.2,2-0.7,3.1-1.3,4.2C186.1,332.9,186.6,331.7,187.9,330.1z"></path> <path class="st44" d="M70.6,369.1c1.4-1,2.8-1.9,4.2-2.9C73.9,368,72.5,368.9,70.6,369.1z"></path> <path class="st53" d="M55.5,366.6c0,1,1.6,0.6,1.5,1.7c-1.6,0.1-2.7-1.3-4.9-1.1C53.7,365.5,54.7,367.3,55.5,366.6 C55.6,366.6,55.5,366.6,55.5,366.6z"></path> <path class="st39" d="M60.9,330.2c0.3,1.9-0.4,3.1-1.5,4.8C59.3,332.9,59.8,331.7,60.9,330.2z"></path> <path class="st41" d="M101.7,334.3c0-1.4,0.2-2.7,1.3-4.2C103.4,332.2,102.9,333.3,101.7,334.3z"></path> <path class="st40" d="M145.6,330.2c0.3,1.9-0.7,3-1.2,4.2C144.1,332.9,144.3,331.6,145.6,330.2z"></path> <path class="st87" d="M137.2,368.8c1,1.2,2,2.4,3,3.5C138.7,371.6,137.3,370.8,137.2,368.8z"></path> <path class="st50" d="M69.2,343.6c1.6,0.7,2.6,1.9,3.2,2.5C71.7,345.6,70.4,344.6,69.2,343.6z"></path> <path class="st46" d="M99.3,348.3c-1.2,1.2-2.3,2.5-4,4.3C96.2,350.1,98,349.3,99.3,348.3z"></path> <path class="st34" d="M98.5,333.6c0.8-1.5,1.2-3.1,2.8-4C100.8,331.3,99.9,332.6,98.5,333.6z"></path> <path class="st53" d="M190,342.8c0.2-0.4-0.1-1.5,0.7-0.7c1.1,1,1.8,2.4,3.1,4.2C191.5,345.6,191.5,343.3,190,342.8 C190,342.8,190,342.8,190,342.8z"></path> <path class="st93" d="M97.3,372.8c-1-1.2-2-2.3-2.9-3.5c0.2-0.1,0.3-0.3,0.5-0.4c1,1.1,2,2.3,3,3.4 C97.7,372.5,97.5,372.6,97.3,372.8z"></path> <path class="st85" d="M52.6,368.9c1,1.1,2.1,2.3,3.1,3.4c-0.2,0.2-0.3,0.3-0.5,0.5c-1.1-1.1-2.1-2.2-3.2-3.3 C52.2,369.2,52.4,369,52.6,368.9z"></path> <path class="st92" d="M223.8,342c-1.2,0.8-1.8,2.6-4.2,2.6C221.2,343.4,222.2,342.2,223.8,342z"></path> <path class="st53" d="M252.4,378.4c-1.2-1.3-2.3-2.5-3.5-3.8C250.3,375.7,252.6,375.9,252.4,378.4 C252.3,378.4,252.4,378.4,252.4,378.4z"></path> <path class="st53" d="M107.9,372.6c0.5-1.7,1.5-3,2.7-4.1C110.4,370.2,108.9,371.3,107.9,372.6z"></path> <path class="st44" d="M121.8,354.8c1.4,1.2,2,2.8,2.4,4.4C122.8,358,122.5,356.3,121.8,354.8z"></path> <path class="st41" d="M86,347.2c-1.9,1.4-3.2,2.4-4.6,3.3C82.3,348.9,83.4,347.6,86,347.2z"></path> <path class="st20" d="M234.4,354.9c-1.4,0.5-2.8,1.4-5.2,0.7C231.4,355.1,232.8,354.2,234.4,354.9z"></path> <path class="st35" d="M112.6,347.9c-1,1.4-2.4,2.3-4,3C109.6,349.5,110.9,348.5,112.6,347.9z"></path> <path class="st48" d="M166.4,359.3c-1.2-1.3-2-2.7-2.2-4.5C165.3,356.1,166.2,357.5,166.4,359.3z"></path> <path class="st102" d="M58,345.8c1.2-2.5,3.1-2.3,4.5-2.9C61.5,344.3,59.9,344.6,58,345.8z"></path> <path class="st65" d="M148.8,362.3c1,1.3,2,2.7,3,4C150,365.6,149.1,364.2,148.8,362.3z"></path> <path class="st18" d="M174.6,361.6c0.1-0.3,0.3-0.7,0.4-1c1.5-0.3,1.3-2.2,2.8-2.7c-0.5,1.9-1.6,3.2-2.9,4.4c0,0-0.2-0.1-0.2-0.1 C174.6,361.9,174.6,361.8,174.6,361.6z"></path> <path class="st67" d="M249.4,362c-0.8,1.5-1.6,3-2.4,4.4c-0.3-2,0.9-3.3,1.7-4.8C249,361.7,249.2,361.9,249.4,362z"></path> <path class="st103" d="M184.4,358.3c1.1-1.2,1.5-0.7,1.4,0.6c-0.1,0.9,1.3,1.4,0.5,2.4c-0.1,0.1-0.6,0.2-0.7,0.1 c-0.7-0.7-0.8-1.6-0.6-2.5C185,358.5,184.8,358.3,184.4,358.3C184.4,358.2,184.4,358.3,184.4,358.3z"></path> <path class="st36" d="M217,361.5c0.1-0.3,0.2-0.6,0.2-0.9c1.5-0.3,1.3-2.2,2.8-2.8c-0.3,2-1.6,3.1-2.8,4.4c0,0-0.2,0-0.2,0 C217,362,217,361.7,217,361.5z"></path> <path class="st41" d="M154.2,358.8c-0.7,1.3,0.3,3.2-1.3,4.4C152.6,361.4,152.7,359.9,154.2,358.8z"></path> <path class="st31" d="M55.3,346.5c-0.3,1.7-1.4,2.9-2.6,4C52.9,348.8,54.1,347.6,55.3,346.5z"></path> <path class="st36" d="M112,358.9c-0.6,1.3,0.2,3.1-1.2,4.3C110.4,361.4,110.4,360,112,358.9z"></path> <path class="st43" d="M195.3,363.3c0,0-0.2,0-0.2,0c-0.5-1.6-0.2-3.1,0.9-4.4C196,360.4,196.5,362,195.3,363.3z"></path> <path class="st104" d="M237.9,363.3c-0.3,0-0.5,0-0.8,0c0.3-1.5,0.5-3,0.8-4.4c0.2,0,0.5,0.1,0.7,0.1 C239.2,360.5,238.2,361.8,237.9,363.3z"></path> <path class="st52" d="M198,355.6c-1.4-0.9-2.9-1.7-4.3-2.6c0.1-0.2,0.2-0.4,0.3-0.6c1.4,0.8,2.9,1.6,4.3,2.5 C198.2,355.1,198.1,355.4,198,355.6z"></path> <path class="st31" d="M152.9,365.4c-1-1.3-2-2.6-3-3.9c0.2-0.1,0.4-0.3,0.5-0.4C151.7,362.2,152.5,363.7,152.9,365.4z"></path> <path class="st73" d="M124.4,362.8c0.8-2,2.7-2.3,4.4-3C127.5,361.1,126.2,362.3,124.4,362.8C124.4,362.8,124.4,362.8,124.4,362.8z "></path> <path class="st43" d="M107.5,361.5c2,0.5,2.7,2.1,3.2,3.8C109.6,364,108.5,362.7,107.5,361.5z"></path> <path class="st53" d="M155.8,355.5c-1.4-0.9-3.2-1.3-4-3.1c1.4,0.8,2.9,1.6,4.3,2.5C156.1,355.1,155.9,355.3,155.8,355.5z"></path> <path class="st40" d="M59.4,372c-1,1.4-1.9,2.7-2.9,4.1c0-2,1.3-3.2,2.2-4.6C59,371.7,59.2,371.9,59.4,372z"></path> <path class="st45" d="M176.7,351.9c1.8,0.8,2.2,2.6,3.2,3.9C178.2,355,177.6,353.4,176.7,351.9z"></path> <path class="st43" d="M222.2,356.2c-1.7-1.2-2.4-2.7-3.5-4.2C220.5,352.8,220.9,353.3,222.2,356.2z"></path> <path class="st68" d="M68.9,374.1c-1.2,0.7-2.4,1.3-3.6,2c-0.1-0.2-0.3-0.4-0.4-0.7C66,374.6,67.2,373.8,68.9,374.1z"></path> <path class="st73" d="M213.2,359.8c-1.1,1.4-2.5,2.3-4.1,2.8C210,360.9,211.7,360.5,213.2,359.8z"></path> <path class="st40" d="M239.6,340.9c0.6-1.8,2.1-2.6,3.6-3.4C242.5,339.1,240.6,339.5,239.6,340.9z"></path> <path class="st35" d="M119.8,361.3c-1.6-0.6-3.5,0.7-4.9-0.8C116.6,360.9,118.3,360.1,119.8,361.3z"></path> <path class="st45" d="M203.8,373.3c-0.3,0-0.6,0-0.9,0c-0.7-1.4-2.8-1.5-3.5-3.8C201.1,371,202.9,371.5,203.8,373.3z"></path> <path class="st30" d="M196.3,367.4c0.8-1.7,2.3-2.6,4.5-3.2C199.4,366,197.5,366.2,196.3,367.4z"></path> <path class="st62" d="M73.7,364.7c-1.3,1-2.7,1.9-4.4,3.2C70.3,365.6,71.8,364.8,73.7,364.7z"></path> <path class="st31" d="M228.7,335c-0.5-2.2,0.2-3.3,1.4-4.8C230.1,332.1,229.6,333.3,228.7,335z"></path> <path class="st45" d="M220.2,363.4c-0.6,1.2,0.3,2.7-0.6,4.1C218.7,365.1,218.7,365.1,220.2,363.4z"></path> <path class="st37" d="M148.9,333.9c1.5-1.7,3.1-1.9,4.2-2.7C152.6,332.7,152.6,332.7,148.9,333.9z"></path> <path class="st68" d="M191.8,333.7c0.8-1.4,2.3-1.7,3.6-2.3C194.9,333,193.1,333,191.8,333.7z"></path> <path class="st33" d="M58.2,357.6c0.6,1.3,1.3,2.5,1,4.3C57.6,360.5,58.3,359,58.2,357.6z"></path> <path class="st18" d="M75.1,333.2c1.3,0.5,2.4-1.1,3.7-0.2c-1.1,1.1-2.6,1.1-3.9,1.3c-0.3,0.1-0.9,0.1-0.8-0.4 C74.3,333.7,74.8,333.5,75.1,333.2C75.2,333.2,75.1,333.2,75.1,333.2z"></path> <path class="st35" d="M201.6,333.3c1.5,0.4,2.7-1.2,4.3-0.3c-1.2,1.1-2.7,1.3-4.2,1.3C200.6,334.4,201.8,333.6,201.6,333.3 C201.7,333.2,201.6,333.3,201.6,333.3z"></path> <path class="st39" d="M101.8,376.6c-0.2-1.4,0.3-2.7,1.2-4.5C103.4,374.3,102.7,375.5,101.8,376.6z"></path> <path class="st34" d="M228.3,347.8c0.6,1.3,1.7,2.5,1.7,4.6C228.6,350.8,228.1,349.4,228.3,347.8z"></path> <path class="st70" d="M100.4,357.6c0.6,1.3,1.4,2.5,0.9,4.2C99.6,360.6,100.8,358.9,100.4,357.6z"></path> <path class="st31" d="M89.2,370.1c0.1,0.2,0.2,0.3,0.2,0.4c-0.7,1.5-1.7,2.7-2.8,3.9c0,0-0.4-0.2-0.4-0.3 C86.9,372.5,88,371.3,89.2,370.1z"></path> <path class="st41" d="M144.3,376.6c-0.4-1.5,0.1-2.7,1.1-4.1C145.9,374.3,145,375.4,144.3,376.6z"></path> <path class="st96" d="M68.5,345.8c-0.9,1.6-2.2,2.6-4.4,3.7C65.4,347.4,67.1,346.7,68.5,345.8z"></path> <path class="st45" d="M187.7,372.5c0.3,1.8-0.5,2.9-0.9,4.3C186.2,375.3,186.3,374.9,187.7,372.5z"></path> <path class="st19" d="M194,366.2c-1.7-0.7-2.8-2-3-3.9C192,363.6,193,364.9,194,366.2z"></path> <path class="st68" d="M111,373.6c-0.8,1.4-2.4,1.5-3.7,2.2C108,374.2,109.7,374.2,111,373.6z"></path> <path class="st93" d="M228.8,376.6c-0.5-1.4,0.1-2.5,0.9-4C230.4,374.4,229.3,375.4,228.8,376.6z"></path> <path class="st59" d="M82.9,378.4c-1.1-1.3-2.2-2.5-3.4-3.8C80.9,375.7,83.3,375.8,82.9,378.4C82.9,378.4,82.9,378.4,82.9,378.4z"></path> <path class="st46" d="M101.4,371.8c-0.6,1.6-1.5,3-3.3,4.7C98.9,374.2,99.9,372.9,101.4,371.8z"></path> <path class="st60" d="M59.7,376.5c-0.5-1.4,0.3-2.4,1-3.5C61.2,374.3,60.3,375.4,59.7,376.5z"></path> <path class="st105" d="M253.7,375.4c-1-0.9-2.1-1.8-3.6-3.2C252.5,372.6,252.9,374.3,253.7,375.4z"></path> <path class="st102" d="M155,348.2c-1.3,1-2.7,2-4,3C151.8,349.5,153.1,348.4,155,348.2z"></path> <path class="st36" d="M101.2,347.8c1.4,1.1,1.5,2.6,1.9,4C102,350.7,101,349.6,101.2,347.8z"></path> <path class="st53" d="M70.1,348.3c-1.2,1-2.4,1.9-3.6,2.9c-0.1-0.2-0.3-0.3-0.4-0.5c1.2-1,2.3-2,3.5-3 C69.8,347.9,70,348.1,70.1,348.3z"></path> <path class="st67" d="M254.6,347.8c-1.3,0.9-2.6,1.8-3.9,2.7c0.7-1.8,2.2-2.4,3.5-3.2C254.4,347.4,254.5,347.6,254.6,347.8z"></path> <path class="st55" d="M248.4,350.5c-1.7-0.7-2.6-2.1-3.1-3.8C246.3,348,247.9,348.8,248.4,350.5 C248.3,350.6,248.4,350.5,248.4,350.5z"></path> <path class="st41" d="M206.2,350.5c-2.3-0.1-2.3-2.3-3.4-3.6C204.4,347.6,205.1,349.2,206.2,350.5 C206.1,350.5,206.2,350.5,206.2,350.5z"></path> <path class="st43" d="M163.9,350.4c-2.3-0.1-2.2-2.4-3.4-3.6C162.2,347.6,162.9,349.2,163.9,350.4 C163.9,350.5,163.9,350.4,163.9,350.4z"></path> <path class="st36" d="M76.1,346.5c1,1.2,1.9,2.4,2.9,3.6C77.3,349.5,76.3,348.3,76.1,346.5z"></path> <path class="st86" d="M181.8,346.4c-0.1,1.6-0.6,2.5-2.4,4.1C179.6,348.6,181.1,347.8,181.8,346.4z"></path> <path class="st47" d="M232.2,342.9c0.1-0.4-0.1-1.5,0.7-0.7c1.1,1,1.8,2.4,2.4,3.8C233.6,345.6,233.8,343.3,232.2,342.9 C232.2,342.8,232.2,342.9,232.2,342.9z"></path> <path class="st73" d="M106,341.8c0.9,1.4,1.8,2.7,3,4.6c-2.4-1.1-2.5-3-3.7-4.2C105.6,342.1,105.8,342,106,341.8z"></path> <path class="st59" d="M63.8,341.8c0.9,1.3,1.8,2.7,3.1,4.7C64.5,345.3,64.2,343.5,63.8,341.8z"></path> <path class="st46" d="M93,342.8c-1.2-0.8-2.4-1.5-3.6-2.3C91.2,340.3,92.3,341.2,93,342.8z"></path> <path class="st31" d="M195.9,339c1.1-1.1,2.2-2.2,3.3-3.3C198.8,337.5,197.3,338.3,195.9,339z"></path> <path class="st101" d="M252.3,336.3c-0.7-1.6-2.4-2.4-3.1-4C250.3,333.5,252.7,333.6,252.3,336.3 C252.3,336.2,252.3,336.3,252.3,336.3z"></path> <path d="M82.8,336.2c-0.6-1.7-2.4-2.3-3-4C80.9,333.5,83.2,333.6,82.8,336.2C82.8,336.2,82.8,336.2,82.8,336.2z"></path> <path class="st52" d="M107.4,333.7c0.6-1.7,2.3-1.6,3.5-2.4C110.4,333.2,108.5,332.8,107.4,333.7z"></path> <path class="st64" d="M65,333.1c1.2-0.7,2.4-1.3,3.6-2c0.1,0.2,0.2,0.4,0.4,0.6c-1.2,0.7-2.5,1.5-3.7,2.2 C65.2,333.6,65.1,333.4,65,333.1z"></path> <path class="st73" d="M224.6,372.2c-1.5-0.7-2.9-1.5-3-3.4C222.6,370,223.6,371.1,224.6,372.2z"></path> <path class="st52" d="M182.4,372.3c-1.4-0.7-2.9-1.5-3.1-3.4C180.3,370,181.4,371.1,182.4,372.3z"></path> <path class="st20" d="M97.7,366.6c0,1,1.5,0.6,1.5,1.9c-1.5-0.5-2.9-1-4.6-1.6C95.9,365.6,96.9,367.3,97.7,366.6 C97.8,366.6,97.7,366.6,97.7,366.6z"></path> <path class="st62" d="M178,363.4c-0.8,1.2,0.3,2.7-0.7,3.9C176.5,365.2,176.5,365.2,178,363.4z"></path> <path class="st45" d="M135.7,363.4c-0.7,1.2,0.3,2.6-0.5,3.8C134.3,365.5,134.3,365.5,135.7,363.4z"></path> <path class="st46" d="M233.2,362.3c1,1.3,2,2.7,3,4C234.3,365.6,233.6,364.1,233.2,362.3z"></path> <path class="st45" d="M203.8,354.5c1.1-0.8,2.3-1.5,3.6-2.4C206.9,353.6,206.9,353.6,203.8,354.5z"></path> <path class="st40" d="M161.8,354.7c0.9-1.1,2-2,4.1-2.6C164.6,353.8,163.2,354.2,161.8,354.7z"></path> <path class="st53" d="M186.3,347.7c0.5,1.3,1,2.6,1.5,3.8c-1.6-0.8-1.6-2.3-2.2-3.5C185.8,347.9,186.1,347.8,186.3,347.7z"></path> <path class="st52" d="M197.2,348.2c-1.3,1-2.7,2-4,3C194,349.5,195.3,348.5,197.2,348.2z"></path> <path class="st73" d="M53.4,351.7c1.2-1.1,2.3-2.2,3.5-3.3c-0.1-0.2-0.3-0.3-0.4-0.5c-1.1,1.3-2.1,2.5-3.2,3.8 C53.4,351.6,53.4,351.6,53.4,351.7z"></path> <path class="st52" d="M134.9,351.6c1,1.3,2,2.7,3.5,4.7c-2.5-1.2-2.7-3.1-4.2-4C134.4,352.1,134.6,351.8,134.9,351.6z"></path> <path class="st31" d="M123.4,352.8c-1.2,0.7-2.4,1.5-3.5,2.2C120.5,353.5,121.7,352.8,123.4,352.8z"></path> <path class="st20" d="M109.7,352.4c1.4,0.8,2.8,1.6,4.3,2.4C112.1,354.8,110.6,354.1,109.7,352.4z"></path> <path class="st67" d="M121.8,350.5c-2.3-0.1-2.3-2.4-3.4-3.6C120.1,347.6,120.7,349.3,121.8,350.5 C121.7,350.6,121.8,350.5,121.8,350.5z"></path> <path class="st70" d="M106,371.5c0.1-1.7,0.8-2.9,2.8-3.8C107.6,369.3,106.8,370.4,106,371.5z"></path> <path class="st35" d="M77.4,354.8c0.6-1.4,1.8-1.9,3.6-2.9C80,354,78.5,354.2,77.4,354.8z"></path> <path class="st101" d="M163.2,367.7c0.8-1.5,1.7-3,2.5-4.5C165.1,364.9,165.8,367.3,163.2,367.7 C163.2,367.7,163.2,367.7,163.2,367.7z"></path> <path class="st67" d="M115.1,336c-1.2,1-2.3,2-3.4,3C112.1,337.5,113.7,336.8,115.1,336z"></path> <path class="st101" d="M154,339.2c0.4-1.7,2-2.3,3-3.5C156.7,337.5,155.1,338.1,154,339.2z"></path> <path class="st20" d="M59,347.7c1.5,1.2,1.4,2.7,1.8,4C59.6,350.7,59,349.5,59,347.7z"></path> <path class="st36" d="M174.7,340c1.2,0.5,2.4,1.1,3,2.6c-1.1-0.7-2.2-1.3-3.3-2C174.5,340.5,174.6,340.3,174.7,340z"></path> <path class="st20" d="M69.7,357.7c-1.2-0.7-2.5-1.4-3.7-2.1C67.7,355.6,68.9,356.3,69.7,357.7z"></path> <path class="st68" d="M248.4,354.4c-0.6,0.1-1.1,0.2-1.7,0.3c-0.1-0.1-0.1-0.3-0.2-0.4c1-0.7,2.1-1.5,3.4-2.3 C250.2,353.7,248.2,353.4,248.4,354.4C248.3,354.5,248.4,354.4,248.4,354.4z"></path> <path class="st27" d="M73.5,345.5c-1-0.8-1.9-1.6-2.9-2.4C72.2,343.1,73.2,343.9,73.5,345.5z"></path> <path class="st73" d="M139.8,346.4c0.3,2-1.6,2.7-2.2,4.1C137.4,348.6,139,347.7,139.8,346.4z"></path> <path class="st20" d="M153.2,373.6c-0.9,1.2-2.2,1.9-3.7,2.2C150.4,374.5,151.9,374.2,153.2,373.6z"></path> <path class="st20" d="M194.4,373.8c0.4,0.1,0.9-0.9,1.2,0.1c-1.2,0.8-2.4,1.5-4.2,2.6C192.1,374.4,193.7,374.7,194.4,373.8z"></path> <path d="M199.5,347.4c-1.4-1.4-2.7-2.3-3.2-3.9C197.4,344.6,199,345.3,199.5,347.4z"></path> <path d="M153.7,343.9c1.1,1.1,2.1,2.1,3.2,3.2c0.2-0.2,0.4-0.4,0.6-0.6c-1.1-1-2.3-2-3.4-3C154,343.6,153.9,343.8,153.7,343.9z"></path> <path class="st30" d="M137.6,346.7c0.2-1.7,1.2-2.6,2.6-3C139.4,344.7,138.5,345.7,137.6,346.7z"></path> <path d="M115.1,346.6c-1.4-0.7-2.8-1.5-3.5-3C112.8,344.7,114,345.7,115.1,346.6z"></path> <path class="st18" d="M94.4,346.2c1-0.9,2.1-1.8,3.7-3.3c-0.9,2.1-2,3-3.2,3.8C94.7,346.5,94.6,346.4,94.4,346.2z"></path> <path class="st64" d="M52.4,346.4c0.9-1,1.9-2,3.2-3.5C55.2,345.1,53.8,345.8,52.4,346.4z"></path> <path class="st67" d="M135.3,342.7c-1.1-0.7-2.1-1.4-3.2-2.1C133.7,340.6,134.9,341.1,135.3,342.7z"></path> <path class="st54" d="M217,340c1,0.7,2.1,1.4,3.1,2.1c-1.6,0.2-2.4-0.8-3.6-1.4C216.7,340.4,216.9,340.2,217,340z"></path> <path class="st43" d="M243.4,345c-1.7,0-2.5-1-3-2.4C241.4,343.4,242.4,344.2,243.4,345z"></path> <path class="st37" d="M200.4,345.5c-0.8-0.9-2.1-1.4-2.2-3.1c0.9,0.9,1.8,1.8,2.7,2.6C200.7,345.2,200.6,345.4,200.4,345.5z"></path> <path class="st45" d="M116.1,345.5c-0.9-0.9-1.8-1.8-2.7-2.6c0.2-0.2,0.4-0.4,0.6-0.6c0.8,1,1.6,1.9,2.4,2.9 C116.4,345.1,116.2,345.3,116.1,345.5z"></path> <path class="st96" d="M159.1,345.8c-1.9-1-3-1.8-3.2-3.5C156.8,343.3,157.7,344.3,159.1,345.8z"></path> <path class="st106" d="M222.8,373c-1.3-0.3-2.2-1.1-3.1-2.5C221.5,370.8,222.1,372,222.8,373z"></path> <path class="st51" d="M82.5,356.3c-0.7-1.4-1.6-1.8-1.1-2.8c0.1-0.1,0.6-0.3,0.7-0.2C83.2,354,82.6,354.8,82.5,356.3z"></path> <path d="M179.6,346.5c0.3-1.5,1.6-2.1,2.8-3.6C181.9,345,180.5,345.6,179.6,346.5z"></path> <path d="M224.7,344c-1.1,0.7-2.2,1.4-3,1.9c0.3-1,1.6-1.4,2.3-2.5C224.3,343.6,224.5,343.8,224.7,344z"></path> <path class="st53" d="M201.2,376.1c1.5-0.4,2.9-1.4,4.9-1C204.4,376.2,202.9,376.5,201.2,376.1z"></path> </g> </svg>