<svg xmlns="http://www.w3.org/2000/svg" xmlns:xlink="http://www.w3.org/1999/xlink" id="Layer_1" x="0px" y="0px" viewBox="0 0 600 600" style="enable-background:new 0 0 600 600;" xml:space="preserve"> <style type="text/css"> .st0{fill:#FEFEFE;} .st1{fill:#FAFAFA;} .st2{fill:#FBFBFB;} .st3{fill:#F8F8F8;} .st4{fill:#F9F9F9;} .st5{fill:#EBEBEB;} .st6{fill:#010101;} .st7{fill:#121212;} .st8{fill:#0B0B0B;} .st9{fill:#FCFCFC;} .st10{fill:#545454;} .st11{fill:#5F5F5F;} .st12{fill:#191919;} .st13{fill:#272727;} .st14{fill:#101010;} .st15{fill:#151515;} .st16{fill:#131313;} .st17{fill:#0E0E0E;} .st18{fill:#111111;} .st19{fill:#0C0C0C;} .st20{fill:#0D0D0D;} .st21{fill:#070707;} .st22{fill:#080808;} .st23{fill:#090909;} .st24{fill:#171717;} .st25{fill:#232323;} .st26{fill:#212121;} .st27{fill:#161616;} .st28{fill:#181818;} .st29{fill:#1D1D1D;} .st30{fill:#0F0F0F;} .st31{fill:#1E1E1E;} .st32{fill:#0A0A0A;} .st33{fill:#1B1B1B;} .st34{fill:#1A1A1A;} .st35{fill:#141414;} .st36{fill:#2B2B2B;} .st37{fill:#242424;} .st38{fill:#1F1F1F;} .st39{fill:#1C1C1C;} .st40{fill:#313131;} .st41{fill:#282828;} .st42{fill:#262626;} .st43{fill:#252525;} .st44{fill:#060606;} .st45{fill:#030303;} .st46{fill:#040404;} .st47{fill:#2A2A2A;} .st48{fill:#050505;} .st49{fill:#020202;} .st50{fill:#202020;} .st51{fill:#2C2C2C;} .st52{fill:#292929;} .st53{fill:#424242;} .st54{fill:#2F2F2F;} .st55{fill:#3B3B3B;} .st56{fill:#323232;} .st57{fill:#353535;} </style> <g> <path d="M373.1,197.2c73,0,145.9,0,218.9,0c3.6,0,3.6,0,3.6,3.7c0,62.4,0,124.8,0,187.2c0,3.6,0,3.6-3.7,3.6 c-45.6,0-91.1,0-136.7-0.1c-2.6,0-3.1,0.8-2.9,3.1c0.2,2.6-0.1,5.2,0.1,7.8c0.1,2.1-0.8,2.9-2.8,2.6c-0.4,0-0.7,0-1.1,0 c-145.9,0-291.8,0-437.8,0.1c-2.9,0-3.5-0.9-3.5-3.6c0.1-62.3,0.1-124.6,0-186.9c0-2.9,0.9-3.5,3.6-3.5c45.6,0.1,91.1,0,136.7,0.1 c2.8,0,3.4-0.8,3.2-3.3c-0.2-2.4,0.1-4.8-0.1-7.2c-0.2-2.6,0.6-3.5,3.4-3.5c29.7,0.1,59.4,0.1,89.2,0.1 C286.4,197.2,329.7,197.2,373.1,197.2z"></path> <path class="st0" d="M230.3,212.8c72.4,0,144.8,0,217.2-0.1c2.5,0,3.1,0.6,3.1,3.1c-0.1,61.5-0.1,123,0,184.4 c0,2.5-0.6,3.1-3.1,3.1c-145-0.1-290-0.1-435,0c-2.5,0-3.1-0.6-3.1-3.1c0.1-61.5,0.1-123,0-184.4c0-2.5,0.6-3.1,3.1-3.1 C85.1,212.8,157.7,212.8,230.3,212.8z"></path> <path class="st0" d="M587.8,297.7c-0.4,7,0.6,13.6,0.6,20.2c0,9,0.4,18,1.1,27c0.6,7.2,0.9,14.4,1.6,21.6c0.7,7,1.4,14,2.2,21 c0.2,1.7-0.2,2.1-2,2.1c-45.4-0.1-90.9-0.1-136.3,0c-2.1,0-2.7-0.4-2.7-2.7c0.1-26.6,0.1-53.1,0-79.7c0-2.4,0.4-3.3,3.1-3.3 c40.4,0.1,80.9,0,121.3,0.1C581.6,304,584.7,301.6,587.8,297.7z"></path> <path class="st0" d="M373,199.4c72.5,0,145,0,217.5,0c3.4,0,3.2,0,2.6,3.3c-1.1,6.8-2,13.7-3,20.5c-1.2,8.1-2.4,16.1-3.9,24.1 c-0.9,5.1-5.1,8.2-10.3,8.2c-17.5,0-35,0-52.5,0c-22.7,0-45.4-0.1-68,0.1c-2.6,0-3-0.8-2.9-3.1c0.1-12.6,0-25.2,0-37.8 c0-3.7,0-3.7-3.6-3.7c-88.2,0-176.4,0-264.7,0c-9.1,0-18.1,0-27.2,0c-1.5,0-2.3,0-2.6-2c-0.5-2.8-0.6-5.8-1.4-8.6 c-0.2-0.8,0.2-1.2,1-1.1c0.6,0.1,1.3,0,1.9,0C228.2,199.4,300.6,199.4,373,199.4z"></path> <path class="st0" d="M522.9,263.3c22.5,0,45,0,67.5,0c2.4,0,3.3,0.1,2.5,3.1c-2.3,9.3-4,18.7-6.3,28c-1.2,5.1-5.3,7.9-10.6,7.9 c-40.3,0-80.5,0-120.8,0.1c-2.6,0-3-0.8-2.9-3.1c0.1-11,0.1-22,0-33c0-2.3,0.5-2.9,2.8-2.9C477.7,263.4,500.3,263.3,522.9,263.3z"></path> <path class="st0" d="M566.8,257.5c3.7,0,7.4,0.5,10.9-0.1c7-1.3,10.1-5.6,11.2-12.8c1.4-9.5,2.9-19,4.3-28.6 c0.2-1.2,0.2-2.3,0.3-3.7c0.7,0.8,0.4,1.5,0.4,2.2c0,14.9,0,29.8,0.1,44.7c0,2.1-0.5,2.6-2.6,2.5c-6.9-0.1-13.9-0.1-20.8-0.1 C566.5,261.7,566.5,261.7,566.8,257.5z"></path> <path class="st0" d="M593.8,272.2c0,32.8,0,65.7,0,98.5c-0.5-3-0.8-5.9-0.9-8.9c-0.4-6.8-0.9-13.5-1.3-20.3 c-1.1-16.4-1.5-32.9-1.6-49.4c0-4.9,1.7-9.5,2.5-14.2c0.3-1.9,0.8-3.8,1.2-5.7C593.7,272.1,593.7,272.1,593.8,272.2z"></path> <path class="st1" d="M507.7,257.4c0.1,1.3-1.3,1.9-0.9,3.2c1.1-0.5,1.1-1.7,1.7-2.4c0.3-0.3,0.3-1,1-0.6c0.7,0.4,0.4,0.8,0.1,1.3 c-1,2.2-5.1,3.7-7.4,2.7c-0.6-0.3-0.6-0.6-0.3-1c0.3-0.4,0.5-0.8,0-1.1c-0.5-0.2-0.9,0.3-1.1,0.6c-1.3,1.8-4.7,2.2-6.3,0.6 c-0.7-0.7-1.2-1.6-2.1-2.9c-0.4,1.7,0.1,2,0.5,2.2c0.4,0.3,1,0.5,1.2,1c-2.7,0.4-5.2,0.7-6.1-2.3c-0.1-0.4-1.1-0.7-0.2-1.3 c0.6-0.3,1.2-0.4,1.6,0.3c0.4,0.8,0.8,1.6,1.6,2.1c0.8-1.2-1-1.4-0.8-2.8c2.5,2.3,5.3-1,8,0.9c0.4,0.3,1.9-1.2,2.2,0.7 c0.2-0.1,0.7-0.1,0.7-0.2c-0.1-1.9,1.4-1.1,2-1C504.6,257.7,506.2,257.7,507.7,257.4z"></path> <path class="st1" d="M467,261.7c-0.1-0.3-0.1-0.3-0.1-0.4c1.2-3.3,3.7-3.8,6.9-3.7c3.1,0.1,6.1,0.7,9.3,0c2.8-0.7,4.2,1.5,5.3,4.1 c-3.1,0-6.3,0.6-9.1-0.2c-2.4-0.7-4.8,1.3-7-0.7c-0.5-0.5-0.8,1.7-1.7,0.8C469.3,260.2,468.1,261.2,467,261.7z"></path> <path class="st2" d="M509.2,261.5c1-4.5,4.6-4.2,7.7-3.8c1.7,0.2,3.6-0.6,5.3,0.6c0.4,0.3,1.5-0.5,2.3-0.6c3.1-0.6,5,0.9,6.1,4.1 c-2.4,0-4.8,0.2-7.1-0.1c-1.5-0.2-3.3,1-4.8-0.7c-0.2-0.3-2.8,1.5-4.3-0.2c-1.1,1-2.3,2.2-3-0.4 C511.3,260.1,510.7,262.3,509.2,261.5z"></path> <path class="st2" d="M550,260.5c-0.7,1.2-5.1,1.8-5.8,0.7c-0.1-0.1-0.1-0.4-0.1-0.4c0.5-0.3,1.4-0.6,0.3-1.1 c-0.4-0.2-1.7,0.4-1.5,0.9c0.5,1.6-0.6,1-1.2,1.1c-2.8,0.3-5.4,0.2-6.9-3.3c-0.6,2,1.1,2,1.1,3.2c-2.2-0.2-4.8,0.7-5.8-2.4 c-0.1-0.4-1.2-0.9-0.3-1.5c0.7-0.5,1.3-0.2,1.9,0.4c0.7,0.7,0.6,2,1.9,2.1c0.3-0.8-0.5-1.1-0.7-1.6c-0.4-0.8,0.2-1.2,0.7-1 c2.2,1,4.5-0.8,6.9,0.3c0.7,0.3,2.6,1.2,4-0.2c1.1-1,2.9,0.4,4.6,0c1.7-0.4,0.5,1.3,0.3,1.8C548.9,260.5,548.6,261,550,260.5 L550,260.5z"></path> <path class="st3" d="M454.3,260.4c-0.2-1.2-2.3-1.3-1.6-2.5c0.4-0.6,2.1-1.2,3,0.3c1.1-0.8,1.9-0.6,2.6,0.7 c0.2,0.3,0.3-1.9,2.1-1.4c1.2,0.3,2.7,1.1,4.2,0.1c0.8-0.5,1-0.1,0.6,0.9c-0.3,0.7-1.2,1.2-0.6,2.2c1.1-0.5,1-1.9,1.8-2.6 c0.2-0.2,0.3-0.7,0.8-0.4c0.4,0.2,0.5,0.5,0.4,0.9c-0.4,2.3-6.2,4.5-8,3.1c-0.8-0.6,0.5-1.1,0.2-1.6c-0.5-1.1-1-0.1-1.5,0.2 c-0.6,0.4,0.5,1.4-0.5,1.5c-1.3,0.1-2.6,0-3.9,0c-0.8,0-1.6-0.1-1.7-1c-0.1-1.3,0.6-0.7,1.1-0.3C453.7,260.6,454,260.8,454.3,260.4 z"></path> <path class="st4" d="M562.7,258.9c-1.5,0.6-1.9,2.5-3.4,2.7c-1.4,0.2-2.8-1.5-4.2,0c-1.2-1.5-2.5,0.2-4-0.1c1.8-1,1.7-4.1,2.9-3.9 c2.4,0.4,4.5-0.7,6.7-0.2c0.4,0.1-0.6,0.7-0.6,1.3c1.5,0.7,2-2.7,3.8-0.9c1.1,1.1,0.4,2.3,0.3,3.1c-0.1,1.3-1.8,0.3-2.8,0.7 C561.3,260.5,562.9,260.4,562.7,258.9z"></path> <path class="st5" d="M550.1,260.5c0-1.6,0.8-2.6,2.9-3.4C551.9,258.6,552.2,260.5,550.1,260.5C550,260.5,550.1,260.5,550.1,260.5z"></path> <path class="st6" d="M154.1,382c-32.4,0-64.8,0-97.2,0c-2.4,0-4.7-0.1-6.6-1.9c-1.4-1.4-2.1-2.8-2.1-4.8c0.1-13.5,0.2-27-0.1-40.5 c-0.1-4.2,3.1-7,7-7.5c0.5-0.1,0.9,0,1.4,0c65,0,130,0,195,0c3.4,0,6.2,0.9,7.9,4.2c0.5,1.1,0.5,2.1,0.5,3.2 c0,13-0.2,25.9,0.1,38.9c0.1,5.9-3.4,8.6-8.8,8.6c-13.3-0.2-26.7-0.1-40-0.1C192.3,382,173.2,382,154.1,382z"></path> <path class="st7" d="M480.8,260.6c1.4-1.5,3-1.9,5.2-2.6C484.3,259.8,482.8,260.2,480.8,260.6z"></path> <path class="st8" d="M528.2,258.4c-1.8,1.4-3.2,1.8-4.7,2.1C524.6,259.2,526,258.4,528.2,258.4z"></path> <path class="st9" d="M253.7,345.7c2,0.4,2,0.4,4.2-3.1c-0.7,5.2,0,10.1-0.3,15.1c-0.2,3.6-0.6,7.5,0.2,11.2c0.2,1,0.2,2-0.8,3 c-1.3,1.2,0.8,0.2,0.9,0.9c0.3,1.5-0.6,2.6-1.1,3.8c-0.6,1.5-2.9,1.5-3,3.4c-0.9-0.1-1.7-0.2-1.2-1.4c0-1.3-1.2-1.8-1.8-2.6 c0.6,0.9,1.7,1.4,1.8,2.6c-1.3,1.8-3.2,1.4-4.9,1.4c-2.2,0-4.5,0-6.8,0c-0.1-1.1,1.3-1,1.3-2.8c-2.2,3-4.9,3.1-8,2.6 c0.5-0.5,1.3-0.9,0.8-1.7c1.3-0.5,2.3-1.3,3.6-1.8c-1.3,0.5-2.4,1.1-3.5,1.8c-1.4,0.6-1.7-0.5-1.9-1.8c-1.3,1.3,0.5,2.6-0.7,3.5 c-2-0.2-0.7-2.5-2-3.2c-1.7,0.7,1.8,2.9-0.9,3.1c-1.3,0.1-3.1,0.8-3.1-2c-0.9,2.7-3.2,1.7-4.7,1.9c-1.6,0.2-3.4,1.1-5.2-0.7 c-0.5-0.6-3,1.2-4.8,0.9c-0.8-0.1-1.7,0.2-1.8-1.1c0.2-1.4-1-2-1.7-2.8c0.4,0.9,2.4,1.3,0.8,2.7c0.5,1.2-0.3,1.1-1.1,1.1 c-3.1,0-6.1,0-9.2,0c-0.3-0.9,1.3-1.1,0.6-2.2c-1.8,2.9-4.5,2.3-7.4,2.2c0.5-0.6,1.4-1,0.9-1.8c1.2-0.2,1.9-1.6,3.2-1.4 c-1.4-0.2-2.1,1.1-3.2,1.5c-1.5,0.8-1.4-1-2.2-1.6c-0.8,1.2,0.9,3-0.5,3.2c-1.9,0.3-0.6-2.4-1.8-3.1c-2,0.5,2,3.3-1.3,3.2 c-1.2,0-3.1,0.9-2.8-2.2c-0.9,2.8-3.1,1.9-4.5,2c-1.6,0.1-3.7,1.2-5.2-0.8c-0.2-0.2-1.4,0.4-2.2,0.5c-1.6,0.4-3.4,1.3-4.7-0.7 c-0.2-0.4,0.1-0.8-0.1-1.1c-0.1,0.2-0.1,0.5-0.3,0.7c-0.3,1.3-1.1,1.6-2.5,1.5c-2.8-0.2-5.6-0.1-8.4-0.1c-0.3-0.9,1.2-0.9,0.6-2.2 c-1.8,2.9-4.5,2.3-7.4,2.2c0.6-0.6,1.4-1,0.9-1.8c1.2-0.4,2.2-1.4,3.5-1.6c-1.3,0.2-2.3,1.1-3.5,1.7c-1.4,0.7-1.5-0.6-1.9-1.6 c-1.1,1.1,0.4,2.5-0.7,3.4c-1.8-0.3-0.8-2.5-1.8-3.2c-1.9,0.7,1.7,2.9-1,3.2c-1.4,0.1-3.1,0.5-3.2-2.4c-1.1,2.9-3.2,2.2-4.6,2.3 c-1.5,0-3.6,1.4-4.9-0.9c0-0.1-0.8,0.3-1.2,0.4c-2,0.4-3.9,1.8-5.9-0.3c-0.3-0.3-0.9,1.1-2.2,1c-2.9-0.3-5.9-0.1-8.9-0.1 c-0.2-0.9,1.2-0.9,0.7-2.1c-1.5,1.5-3.1,2.1-5.3,2.3c-3,0.2-3-1.5-3.1-3.4c-0.4,0.1-0.6,0.1-0.7,0.2c-0.7,0.9,0.8,2.7-0.3,2.9 c-1.8,0.3-0.4-2.5-2.1-2.9c-0.4,1,0.1,1.9,0.3,3c-1.5-0.1-3.5,1-4.2-1.7c-0.8,0.6-0.7,3.3-2.5,1c-0.8-1-0.7,1.3-1.8,0.9 c-1.7-0.6-3.9,1.1-5.5-1c-0.1-0.2-1.3,0.5-1.9,0.6c-1.7,0.1-3.7,1.8-4.7-1.1c0-1.3-1.2-1.8-1.8-2.6c0.6,0.9,1.7,1.4,1.8,2.6 c-0.9,1.6-2.4,1.4-3.9,1.4c-3.6,0.2-7.1-0.4-10.7,0c-3.4,0.3-3.5,0.2-4.5-3.2c-0.2,0-0.4,0-0.5,0.1c-0.8,0.9,1,2.6-0.2,2.9 c-1.9,0.3-0.5-2.4-2-3c-0.5,1.1,0,2,0.3,3.2c-1.6-0.2-3.7,1.1-4.2-1.7c-1.3,0-0.5,2.2-1.3,1.6c-1.5-1.2-4.1,0.7-4.8-1.9 c0.6-0.7,1.4,1.1,2.1-0.1c-0.6-1.4-3-0.1-3.1-2.1c1.3-1.2,4.1,1.5,4.7-1.9c-1.6,1.9-3.2,0.4-5.1,0.4c1.1-1.2,0.6-2.3-0.1-3.9 c1.8,0.9,2.4,2.6,4.3,2.4c-1.1-1-2.1-2-3.2-2.9c-1-0.9-1.1-1.8-0.4-2.9c0.8-1.3,1.6-2.6-0.2-3.8c-0.2-0.1-0.3-0.9-0.1-1 c1.7-1.2,0.3-2.9,0.3-4c-0.3-3.2,0.3-6.4-0.1-9.6c-0.2-1.5-1.2-3.5-0.2-5c0.9-1.3,0.2-2.3-0.2-3.3c1.2-0.8,1.6,1.3,3.2,0.2 c-2.5-0.8-3.9-2.4-2.9-4.7c0.6-1.3,1.9,0.7,3-0.1c-0.6-1.5-2.9-0.4-3.3-2.2c1.4-0.9,2.8,0.2,4.9,0.3c-1.6-1.4-3-1.4-4.8-1.9 c1.5-0.2,1.3-2.9,3.2-1c0.4,0.3,0.5-0.3,0.3-0.7c-0.1-0.3-0.3-0.9,0.1-0.8c3.9,1.1,8-1.3,12,0.6c0.8,0.3,3.1-0.6,4.8-0.7 c2.1-0.1,4.2-0.2,5.8,1.7c0.9-1-0.2-1-0.7-1.6c4.1-0.3,7.9,1,11.7-0.2c0.3,1.4-1.4,1.5-0.6,3.4c1-3.1,3.1-3.5,5.5-3.2 c0.8,0.1,1.6,0,2.2,0.8c0.3,0.4,0.8,1.1,1.3,0.7c0.8-0.5-0.1-0.7-0.4-1.1c-0.3-0.4,0.3-0.4,0.4-0.4c3.6,0.8,7.1-0.5,10.7,0 c5.4,0.7,10.9-0.1,16.4,0.3c2.1,0.2,4.6,1.5,6.7-0.9c0.3,1.6-1.3,2-0.5,3.2c2.7-4.3,6.5-2.3,10.2-2c1.1,0.1,2.4-0.7,3.9-0.4 c-0.9,1.4-1.8,2.7-2.8,4.2c1.5,0.3,1.5-1,1.9-1.5c2.7-3.4,3.3-3.6,7.8-1.9c1,0.4,1.2-1.2,2.4-1c4,0.4,8.1,0.3,12.1,0.4 c2.4,0,4.9,1.1,7.4-0.6c-0.1,1.3-1.6,1.8-0.7,2.9c1.9-2.2,6.9-3.6,9.7-2.2c1.6,0.8,2.7-1.4,4.2,0c-0.3,1.4-2,2.4-2.4,3.9 c1.1,0.5,1-0.3,1.3-0.7c2.9-4.2,2.9-4.1,8.4-2.6c0.9,0.2,1.8-1,3-1c4.5,0.2,9.1-0.3,13.5,0.3c1.8,0.2,3.4-0.6,5.2-0.1 c0.1,0.9-1.4,1.3-0.6,2.5c2.2-4.6,6.3-2.3,9.5-2.3c1.6,0,3-0.8,4.7-0.3c2.3,0.6,4.8,0.4,7.1,0.5c2,0.1,4.7-0.2,7-0.5 c0.6-0.1,1.3,0,1.8,0.3c0.6,0.3,1.3,1.4,1.7,1.2c1.7-0.6-0.4-0.8-0.2-1.3c0-0.1,0.3-0.2,0.4-0.2c2.4,0.7,5-0.8,7.2,0.8 c0.4,0.3,0.9,0.2,0.9,0c0.4-1.8,1.4-0.4,1.8-0.2c1.5,0.4-0.6,1.3,0.1,1.9c0.7,0.7,0.8-1.3,1.6-0.2c1,1.5-0.3,2.3-0.9,3.3 c-0.5,0.9-2,0.8-2.4,2.2c1.5,0.1,2.2-1.2,3.3-1.6c0.3,1.3,0.3,1.3-2.4,3c1,0.7,1.7-0.8,2.9-0.3c-2.8,1,1.4,2.7-0.7,4 C255.8,343.2,255.5,345.3,253.7,345.7c-0.4-1.2,0.5-2,0.9-2.9C254.1,343.7,253.1,344.4,253.7,345.7z"></path> <path class="st10" d="M208.9,378.9c0.5-0.8,0.2-1.3-0.4-2c-0.7-0.7-1.6-1.3-1.6-2.6c0.8,1.7,4.2,1.5,3,4.6 C209.6,378.9,209.3,378.9,208.9,378.9z"></path> <path class="st11" d="M167.2,378.5c0.2-1.1-1.3-1.2-1.2-2.9c1.2,1.2,2.9,1.3,1.6,3.4C167.5,378.8,167.4,378.6,167.2,378.5z"></path> <path class="st12" d="M238.7,358.2c0.4,2.4-1.3,4,0.1,5.7c0.2,0.3-0.9,1.5-1.6,0.9c-1-1-2.3-1.9-3.1-3.7c1.7,0.2,1.7,1.8,2.8,2 C237.6,361.7,237.4,360.1,238.7,358.2z"></path> <path class="st13" d="M127,341.2c-2.7-2.4-1.5-6.7-4.7-8.9C126.3,334,125.6,338.2,127,341.2z"></path> <path class="st13" d="M206.8,332.1c3.8,1.9,3.1,6,5,9.2c-1.4-0.9-3.2-3.8-2.9-4.8C209.9,334.2,206.4,334.3,206.8,332.1z"></path> <path class="st14" d="M240.1,329.6c3.1,1.3,4.4,5.2,8.1,3C245.5,335.1,243.8,334.5,240.1,329.6z"></path> <path class="st15" d="M113.7,359c1.4,3.2,4.7,0.4,6.5,2.4c-2.6,0.4-6.2-2.1-7.3,2.3C113.1,362.1,113.4,360.5,113.7,359z"></path> <path class="st15" d="M155.4,364.2c0.1-2.1-0.2-3.8,0.8-5.5c1,3.2,4.2,0.8,6.1,2.5C159.9,362.2,155.9,358.5,155.4,364.2z"></path> <path class="st16" d="M197.8,364.2c-0.6-2.1,0.1-3.6,0.5-5.8c1.4,3.5,4.3,1.3,6.3,2.7C202.4,362.5,198,358.4,197.8,364.2z"></path> <path class="st17" d="M133.4,330.2c-2.1,2.3-2.1,6.7-6.5,6.8C130.4,335.9,130.3,331.7,133.4,330.2z"></path> <path class="st18" d="M133.5,372c-2.2,2.3-1.9,6.9-6.6,7.2C130.3,377.7,130.7,373.8,133.5,372z"></path> <path class="st17" d="M175.6,330.1c-2.1,2.4-2,6.7-6.5,6.8C172.5,335.9,172.6,331.7,175.6,330.1z"></path> <path class="st19" d="M211.3,336.9c3.5-1,3.6-5.2,6.5-6.8C215.7,332.5,215.8,336.7,211.3,336.9z"></path> <path class="st20" d="M90.9,330c-1.9,2.6-1.9,6.7-6.4,7C87.9,335.7,88.2,331.8,90.9,330z"></path> <path class="st21" d="M169.1,379.1c3.6-1.2,3.7-5.4,6.6-7.2C173.7,374.5,173.6,378.7,169.1,379.1z"></path> <path class="st19" d="M212.9,341.2c0.3,1.5-2,2.9-0.8,3.5c1.7,0.9,1.2-2.2,3-2.6c-0.5,1.6-0.8,3.1-2.5,3.9c-1,0.5-1.1-1.1-2-0.8 C210.9,343.6,211.9,342.4,212.9,341.2z"></path> <path class="st22" d="M171,340.6c0,2.1-2.2,3.6-1.1,4.1c1.7,0.9,1.2-2.3,3-2.6c-0.5,1.7-0.9,3.4-2.7,3.9c-0.4,0.1-1.6-0.4-1.6-0.7 C168.6,343.6,169.6,342.3,171,340.6z"></path> <path class="st23" d="M84.5,379.1c3.7-1.2,3.7-5.3,6.5-7.2C89.2,374.6,88.9,378.6,84.5,379.1z"></path> <path class="st23" d="M128.9,340.9c-0.1,1.9-2.4,3.3-1.2,3.9c1.7,0.9,1.2-2.3,3-2.6c-0.6,1.6-0.9,3.4-2.8,3.8 c-0.5,0.1-1.7-0.7-1.7-0.8C126.6,343.7,127.2,342.2,128.9,340.9z"></path> <path class="st19" d="M211.2,379.1c3.4-0.8,3.5-4.6,6-6.2C215.7,375.4,215.5,379.1,211.2,379.1z"></path> <path class="st14" d="M231,340c0.4,1.3,0.4,1.1-0.9,1.4c-1.2,0.2-2.3,1-3.5,1.4c-0.4,0.1-1,0.1-1.1-0.5c-0.1-0.8,0.5-0.4,0.9-0.6 C228,341.3,229.6,340.7,231,340L231,340z"></path> <path class="st15" d="M97,331.7c-0.8,2.4-3.1,2.6-5.8,0.8C93,331.1,95.3,334.2,97,331.7z"></path> <path class="st8" d="M146.6,340c0.4,1.3,0.3,1.1-1,1.4c-1.2,0.2-2.3,1-3.5,1.4c-0.4,0.1-1,0.1-1-0.5c0-0.7,0.5-0.6,0.9-0.5 C143.9,341.9,145,340.3,146.6,340L146.6,340z"></path> <path class="st24" d="M162.4,343.4c-0.1-1.7-0.6-3.4,0.3-5.1c1.4,0.3-0.4,2.9,2,2.4c0.3-0.1,0,0.9-0.4,0.8 C162.7,341.3,162.9,342.7,162.4,343.4z"></path> <path class="st15" d="M211.5,365.7c0.3,2.1,0.5,3.7,0.8,5.4C210,369.4,210,369,211.5,365.7z"></path> <path class="st25" d="M127.2,353.4c-0.3,2.1,1.2,4-1.1,5.3c-0.4,0.2-0.6,0.4-0.9,0.1c-0.1-0.1-0.2-0.5-0.1-0.5 C127.2,357.4,125.3,354.9,127.2,353.4z"></path> <path class="st20" d="M84.3,366.1c1.2,1.6,0.1,3.3,1.2,4.8c-1.2-0.3-1.5-1.7-2.6-1.8C83.8,368.4,84,367.3,84.3,366.1z"></path> <path class="st26" d="M186.8,352.8c0.6,0.9-1.3,1.2-0.2,2.1c0.3,0.2-0.1,0.7-0.5,0.8c-0.6,0.2-0.4-0.4-0.6-0.6 c-1.2-0.8-1.7,1.3-2.8,0.8C183.3,354.9,183.3,354.9,186.8,352.8z"></path> <path class="st27" d="M91.1,374.3c2-0.8,4.1,2,6.1-1C96.4,376.3,93.7,376.5,91.1,374.3z"></path> <path class="st25" d="M224.6,355.7c1.1-1.5,2.9-1.8,4.2-2.8c0.9,0.9-1.2,1.2,0,2.1c0.4,0.3-0.4,0.7-0.8,0.9 C226.9,352.8,225.8,357.3,224.6,355.7z"></path> <path class="st27" d="M53.7,363.3c1.6,0.7,3.1,1.4,4.8,2.2C56.5,366.6,56.5,366.6,53.7,363.3z"></path> <path class="st15" d="M169.7,371.4c-1.9-1.8-1.6-3.4-0.8-5.7C169.7,367.8,170.3,369.4,169.7,371.4z"></path> <path class="st18" d="M113,375c-0.1,3.1-2.8,2.3-4.1,3.3c0,0-0.5-0.3-0.5-0.4c-0.1-0.5,0.3-0.5,0.6-0.7 C110.3,376.5,111.5,375.8,113,375z"></path> <path class="st28" d="M169,353.6c1.1,3.8,0.9,4.4-1.7,5.2C169.3,357.6,167.7,355.2,169,353.6z"></path> <path class="st29" d="M208.9,363.2c0.6-3,2.4-3.4,4.6-3.1C212.1,361,210.7,361.9,208.9,363.2z"></path> <path class="st30" d="M211.3,353.8c-0.1,1.7,1.6,3.6-0.9,4.9c-0.2,0.1-0.5,0.2-0.7,0.1c-0.2-0.1-0.3-0.6-0.3-0.7 C211.6,357.3,209.8,355,211.3,353.8z"></path> <path class="st24" d="M206.3,360.8c-1-1.4-2.9-2.5-1.1-4.6C206.4,357.4,206.1,359.2,206.3,360.8z"></path> <path class="st30" d="M150.4,336.1c0.6,1.5-1.9,1.8-1.2,3.4c-1.3-1.5-0.6-3.2-1.3-5.3C149.2,334.9,149,336.8,150.4,336.1 L150.4,336.1z"></path> <path class="st14" d="M192.6,336.1c0.4,1.4-1.8,1.9-1.2,3.4c-1.2-1.5-0.6-3.3-1.3-5.4C191.4,334.9,191.2,336.8,192.6,336.1 L192.6,336.1z"></path> <path class="st7" d="M225.1,334c2.2,2.1,1.2,4.5,2.1,6.3c0.2,0.3,0,0.8-0.5,0.8c-0.2,0-0.5-0.2-0.6-0.4 C225.8,338.6,225.5,336.6,225.1,334z"></path> <path class="st7" d="M234.9,336c0.1,1.4-1.5,2-1.5,3.4c-0.9-1.6-0.6-3.2-0.6-5C233.4,335.4,233.6,336.6,234.9,336L234.9,336z"></path> <path class="st20" d="M79.3,361.5c-0.7-2-2.4-2.8-1.5-4.7c0.1-0.2,0.2-0.5,0.4-0.6c0.2,0,0.6,0.2,0.6,0.3 C78.9,357.9,79.9,359.3,79.3,361.5z"></path> <path class="st17" d="M123,340.9c-1.5,0.6-2.8,1-2.7,2.7c-0.2-1.8-0.6-3.6,0.4-5.3C121.8,338.9,120,341.7,123,340.9z"></path> <path class="st14" d="M204.9,338c1.2,1.1-0.3,3.4,2.3,2.7c-0.6,1.3-3,0.7-2.4,2.9C204.3,341.7,204.3,340.1,204.9,338z"></path> <path class="st24" d="M123.7,371.8c1.7,1,1.9,3.1,3.9,2.2c0.3-0.2,1.1,0.6,0.2,1c-0.6,0.2,0.2,1.8-0.8,1 C125.7,375,124.3,374.1,123.7,371.8z"></path> <path class="st7" d="M126.8,366.3c0.4,1.6,1.3,3.1,0.7,5C125.5,369.7,125.8,368,126.8,366.3z"></path> <path class="st18" d="M95.8,363.3c1.6,0.7,3.1,1.4,5,2.2c-3,2.1-3.5-1.4-5.2-1.5C95.6,363.8,95.7,363.5,95.8,363.3z"></path> <path class="st7" d="M242.4,347.8c0.1,2.1-2.8,2.9-2,5.3c0,0.1-0.6,0.4-0.9,0.1c-0.4-0.4-1.1-0.9-0.4-1.6 C240.4,350.5,241.3,349,242.4,347.8z"></path> <path class="st15" d="M199.5,347c0.8,2-0.1,2.6-0.7,3.4c-0.4,0.5-1.1,0.9-0.9,1.6c0.2,0.5,0.8,0.8,0.1,1.3 c-0.1,0.1-0.6-0.2-0.9-0.4c-0.7-0.5-0.3-1,0-1.6C197.8,350.1,199.1,349.2,199.5,347z"></path> <path class="st28" d="M122.1,345c-1.3,1.5,0.5,1.9,1,2.8c0.2,0.3,0.4,0.7,0.1,1c-0.4,0.4-0.7,0.1-1-0.4c-0.6-1-1.3-1.9-2-2.8 c-0.3-0.4-0.3-0.8,0.1-0.9c0.5-0.2,1-0.2,1.5-0.2C122.1,344.4,122.2,344.7,122.1,345z"></path> <path class="st31" d="M207.3,348.9c-0.5,0-3-3.6-2.8-4c0.3-0.6,1-0.7,1.6-0.6c0.6,0.1,0.7,0.5,0.2,1.1c-0.9,1.1,0.6,1.5,1.1,2.1 c0.3,0.4,0.6,0.7,0.4,1.2C207.6,348.8,207.4,348.9,207.3,348.9z"></path> <path class="st8" d="M59.7,351.5c-1.9,1-3.4,1.7-4.9,2.4c-0.1-0.2-0.2-0.4-0.3-0.6C56.2,353,56.6,350.2,59.7,351.5z"></path> <path class="st15" d="M90.1,361.1c1.2-0.5,1.5-1.8,2.2-2.7c0.6-0.9,1.1-0.1,1.6-0.1c0.5,0,0.7,0.4,0.5,0.7c-0.4,0.8-1-0.1-1.2,0 c-1.2,0.4-1.4,1.7-2,2.6c-0.3,0.4-0.6,0.7-1,0.3C90,361.9,90.1,361.4,90.1,361.1L90.1,361.1z"></path> <path class="st23" d="M75.5,369.5c2.2,0.1,3.6,0.5,5,1c1,0.4,0.3,0.8,0.2,1.2c-0.2,0.5-0.8,0.8-1,0.3C79,370.4,77.1,371,75.5,369.5 z"></path> <path class="st32" d="M253.6,366c1.2,1.7,0.7,3.3,0.9,4.8C251.3,369.8,253.3,367.9,253.6,366z"></path> <path class="st20" d="M248.7,361.3c-1-1.8-2.8-3.1-1-5.2C248.5,357.6,249,359.1,248.7,361.3z"></path> <path class="st20" d="M96.6,354c0.2-1.9,3.1-1.2,2.5-3.3c0-0.1,0.8-0.2,0.8,0.1c0.1,1.2,1.5-0.3,1.4,0.8c0,0.2-0.5,0.5-0.8,0.6 C99.3,352.8,98.1,353.4,96.6,354z"></path> <path class="st22" d="M246.4,369.5c0.8,0.9,2.2,0.3,3.3,0.9c0.8,0.5,0.4,0.7,0.3,1.2c-0.1,0.6-0.7,0.9-0.9,0.5 c-0.7-1.4-2-1.3-3.2-1.6c-0.2,0-0.4-0.4-0.4-0.6C245.6,369.5,246,369.4,246.4,369.5z"></path> <path class="st30" d="M62.1,340c-0.9,2.1-3.1,2.2-4.9,2.8c-0.3,0.1-1,0.1-1-0.6c0-0.7,0.5-0.5,1-0.5C59.1,342,60.3,340,62.1,340 L62.1,340z"></path> <path class="st33" d="M163.1,356.2c1.1,1.3,0.6,3.1,1.1,4.6C163.6,359.3,160.8,358.5,163.1,356.2z"></path> <path class="st17" d="M104.3,340c-1,2.1-3.1,2.3-5,2.8c-0.4,0.1-1,0.1-1-0.6c0.1-0.7,0.5-0.4,1-0.4C101.3,342,102.5,340,104.3,340 L104.3,340z"></path> <path class="st8" d="M79.9,337.4c1.8,1.6,2.3,3.6,3.6,5.3C81.8,342.1,80.9,340.8,79.9,337.4z"></path> <path class="st14" d="M208.5,330.1c1.2,0.6,1.8,2.1,3.7,1.8c1-0.1-0.5,0.8-0.2,1.4c0.3,0.8-0.5,0.6-0.7,0.4 C210.2,332.6,208.9,331.8,208.5,330.1z"></path> <path class="st34" d="M95.3,336.2c-1.8-0.5-3.6-1-5.4-1.6c2.1-0.6,3.8,0.2,5.6,0.7C95.5,335.6,95.4,335.9,95.3,336.2z"></path> <path class="st14" d="M165.9,372c1.8,0.5,1.8,3,3.8,1.9c0.3-0.2,0.7,0.5,0.5,0.7c-0.4,0.4-0.5,0.7-0.4,1.3c0,0.1-0.6,0.3-0.9-0.1 C168,374.8,166.6,374,165.9,372z"></path> <path class="st23" d="M228.6,351.6c-1.8,0.8-3.2,1.5-4.6,2.2C225.5,353.2,225.3,349.2,228.6,351.6z"></path> <path class="st16" d="M181.8,353.9c1.5-0.6,1.3-4.7,4.6-2.3C184.7,352.4,183.3,353.1,181.8,353.9z"></path> <path class="st30" d="M115.3,347.7c0.7,1.2-0.2,1.8-0.7,2.5c-0.4,0.6-1.5,1-0.9,2c0.2,0.4,0.5,0.8-0.1,1.1 c-0.2,0.1-0.5-0.1-0.7-0.2c-0.4-0.4-0.8-0.7-0.4-1.4C113.4,350.4,114.3,349.1,115.3,347.7z"></path> <path class="st7" d="M144,351.7c-1.6,0.8-3,1.5-4.8,2.3C141.7,350.3,141.7,350.3,144,351.7z"></path> <path class="st30" d="M70.4,332.9c0.3,3.2-2.8,1.8-3.7,3.2c-0.2-0.1-0.5-0.3-0.5-0.4c-0.1-0.4,0.2-0.5,0.6-0.7 C67.9,334.3,69.1,333.6,70.4,332.9z"></path> <path class="st16" d="M208,371.8c1.8,1,2.1,2.7,4,2.3c1.1-0.2-0.3,0.9,0,1.5c0.3,0.7-0.5,0.6-0.7,0.3 C210.2,374.8,208.9,374,208,371.8z"></path> <path class="st14" d="M157.5,347.6c0.6,1.4-0.3,2-0.8,2.7c-0.4,0.5-0.9,1-1,1.6c-0.1,0.4,1.1,1,0,1.4c-0.2,0.1-0.6-0.3-0.9-0.5 c-0.8-0.7,0-1.1,0.3-1.6C155.8,350.1,156.6,349,157.5,347.6z"></path> <path class="st23" d="M112.7,333.1c0.2,3.1-2.8,1.7-3.8,3c-0.2-0.2-0.5-0.3-0.5-0.5c0-0.2,0.2-0.5,0.4-0.6 C110.1,334.4,111.4,333.7,112.7,333.1z"></path> <path class="st18" d="M166.3,330.2c1.3,0.5,1.7,2.1,3.6,1.8c1-0.2-0.5,0.8-0.2,1.4c0.4,0.8-0.4,0.6-0.7,0.4 C168,332.7,166.7,331.8,166.3,330.2z"></path> <path class="st35" d="M124.1,330.1c1.3,0.6,1.7,2.6,3.7,1.7c0.1,0,0.9,0.7,0.1,0.9c-0.8,0.2,0.1,1.8-0.8,1.1 C125.8,332.9,124.4,331.9,124.1,330.1z"></path> <path class="st16" d="M235,336.1c1.1-1.9,3.1-2.1,5.1-3.2C239.1,335.7,236.8,335.5,235,336.1C234.9,336,235,336.1,235,336.1z"></path> <path class="st19" d="M70.5,375c-0.1,2.9-2.8,1.9-3.8,3.3c0,0-0.5-0.2-0.5-0.4c-0.1-0.4,0.2-0.6,0.5-0.8 C67.9,376.5,69.1,375.8,70.5,375z"></path> <path class="st36" d="M55.6,355.9c1.1-0.9,2-2.9,3.9-1.4c0.3,0.2,0.6,0.5,0.4,0.9c-0.1,0.2-0.6,0.5-0.6,0.5 C58,354.3,56.9,356,55.6,355.9z"></path> <path class="st18" d="M217.3,332.3c2.6-0.3,4.3,0.3,6,1.1C221.4,333.4,219.6,333.6,217.3,332.3z"></path> <path class="st32" d="M235,378.2c1.1-1.9,3.2-2.1,5.2-3.4C239.1,377.7,236.9,377.8,235,378.2C234.9,378.2,235,378.2,235,378.2z"></path> <path class="st37" d="M67.1,352.6c1.6,0.8,3.5,1.1,5.1,3.2C69.7,355,68.2,354.1,67.1,352.6z"></path> <path class="st35" d="M67.5,366.8c-2.3-0.3-2.2-3.5-4.6-2.5c-0.1,0-0.1-1.1,0.2-0.9c0.9,0.6,0.4-2,1.4-0.5 C65.4,364.1,66.4,365.3,67.5,366.8z"></path> <path class="st38" d="M77.8,362.4c-0.3,0.4-0.4,0.8-0.6,0.8c-1.5-0.2-2.9,1.1-4.4,0.5c-0.1,0,0-0.7,0-0.7 C74.4,362.7,76,362,77.8,362.4z"></path> <path class="st32" d="M150.5,378.2c1-1.6,3-1.9,4.5-3.3C154.9,378.4,152.2,377.5,150.5,378.2C150.4,378.1,150.5,378.2,150.5,378.2z "></path> <path class="st29" d="M121.9,360.8c-1-1.4-2.7-2.7-1.1-4.6C122.2,357.5,121.3,359.3,121.9,360.8z"></path> <path class="st8" d="M138.3,363.4c1.2,0.5,2.3,1,3.3,1.5c0.4,0.2,1.3,0,1.2,0.8c-0.1,0.5-1,0-1.4,0.8c-0.3,0.6-0.8-0.1-0.9-0.7 C140.4,364.5,138.4,365.2,138.3,363.4z"></path> <path class="st7" d="M133.5,374.5c1.9,0,3.8-0.2,5.4,1.2C137.1,375.4,135.1,375.9,133.5,374.5z"></path> <path class="st31" d="M106.2,333.8c0.6,2.3,1.1,3.9,0.4,5.6C106,337.8,105.1,336.2,106.2,333.8z"></path> <path class="st23" d="M118.6,369.6c1.6-0.1,2.8,0.4,4,0.7c0.8,0.2,1,0.9,0.7,1.4c-0.6,0.9-0.7,0.2-1.2-0.3 C121.3,370.6,119.6,371,118.6,369.6z"></path> <path class="st33" d="M107.5,355.3c3-0.5,4,2.5,6.2,1.5c0,0.2,0.1,0.3,0.1,0.5c0,0.6-0.5,0.4-0.8,0.4 C111.1,357.7,109.8,356.3,107.5,355.3z"></path> <path class="st39" d="M150.6,357.3c-0.3,0.2-0.4,0.4-0.7,0.5c-1.4,0.5-3,1.1-4.1,0.3c-0.8-0.6,0.3-0.8,0.9-0.9c0.8,0,1.6,0,2.4-0.1 C149.5,357.1,149.9,356.6,150.6,357.3z"></path> <path class="st7" d="M175.7,374.5c1.9-0.2,3.7,0.2,5.4,1C179.2,375.5,177.3,375.9,175.7,374.5z"></path> <path class="st38" d="M64.4,339.4c-0.5-1.6-1.5-3.1-0.7-5.4C64.8,336,64.7,337.7,64.4,339.4z"></path> <path class="st35" d="M105.4,351.7c-1.8-1.2-1.8-3.1-2.5-4.8C104.7,348,104.7,350,105.4,351.7z"></path> <path class="st24" d="M133.3,368.3c-0.3-1.7-1.5-3.2-0.7-5.6C133.5,364.9,133.9,366.5,133.3,368.3z"></path> <path class="st17" d="M246.9,343.5c-0.5-1.8,0.1-3.5,1.2-5.1c-0.2,1.7-0.3,3.4-0.5,5.1C247.3,343.5,247.1,343.5,246.9,343.5z"></path> <path class="st40" d="M87.1,359.4c-1.6,1.8-3.2,2.6-4.9,3.6C82.7,360.2,84.6,359.9,87.1,359.4z"></path> <path class="st41" d="M256.1,359.5c-1.3,1.7-2.9,2.2-4.3,3.3C251.8,359.9,253.8,359.9,256.1,359.5z"></path> <path class="st42" d="M220.8,357.1c-2.4-0.4-2.4-3.7-5-2.7c-0.1-0.2-0.3-0.6-0.2-0.7c0.2-0.5,0.5-0.8,1.2-0.4 C218.5,354,219.5,355.3,220.8,357.1z"></path> <path class="st43" d="M94.1,357c-2.7-0.3-2.8-3.3-5.1-2.7c-0.1-0.3-0.2-0.5-0.2-0.8c0.1-0.7,0.5-0.5,1-0.4 C91.6,353.9,92.3,355.5,94.1,357z"></path> <path class="st20" d="M109.4,366.8c-1.9-0.3-1.6-3-4.1-2.6c-0.9,0.1,1.6-0.6,0.9-1.8C107.3,363.8,108.7,364.9,109.4,366.8z"></path> <path class="st12" d="M136.6,357.2c-2.6-0.6-2.7-3.7-5.3-3c0-0.3-0.2-0.6-0.1-0.7c0.2-0.4,0.5-0.6,1.1-0.3 C134,353.9,135,355.3,136.6,357.2z"></path> <path class="st33" d="M178.5,357.1c-2.2-0.6-2.5-3.5-5-2.9c0-0.3-0.1-0.6,0-0.8c0.3-0.4,0.6-0.4,1.1-0.2 C176.2,354,177.4,355.2,178.5,357.1z"></path> <path class="st30" d="M81.4,349.3c-2.2-0.8-2.4-2.4-3.4-3.3c-0.4-0.3-0.3-0.9,0.1-1.2c0.3-0.2,0.7-0.5,0.9-0.4 c0.5,0.2,0.2,0.7,0.2,1.2C79.3,346.8,80.4,347.7,81.4,349.3z"></path> <path class="st35" d="M250.3,349.1c-1.9-0.9-2.3-2.5-3.3-3.6c-0.7-0.7,0-0.7,0.5-0.8c0.5-0.2,1.4-0.4,1.3,0 C247.9,346.5,249.9,347.3,250.3,349.1z"></path> <path class="st31" d="M167.9,352.1c0.7-2.3,3-2.8,4.4-4.4C171.6,349.9,169.3,350.5,167.9,352.1z"></path> <path class="st17" d="M62.5,351.8c-0.7-1.6-1.3-3.3-2-4.9c1.7,1.2,2.3,3,2.7,4.7C63,351.7,62.7,351.7,62.5,351.8z"></path> <path class="st8" d="M174.6,361.6c-0.7,0.1-1.8,0.5-1.1-0.9c0.6-1.2,1.4-2.3,2.2-3.7c0.7,1.7-1.1,2.5-0.8,3.7 C175.4,361.1,175.5,361.6,174.6,361.6z"></path> <path class="st17" d="M92.1,351.5c-0.8-1.6-0.4-2.9-0.5-4.1c0-0.5,0.2-0.9,0.8-0.7c0.3,0.1,0.5,0.5,0.8,0.7 C92.1,348.4,93.3,350,92.1,351.5z"></path> <path class="st39" d="M192.5,357.3c-1.4,1.2-3.1,1.2-5.3,0.7C189.2,356.7,191,357.5,192.5,357.3z"></path> <path class="st27" d="M150.2,355.1c2.5-0.2,3.5,2.4,5.6,1.6c0,0,0.3,0.4,0.3,0.6c-0.1,0.5-0.5,0.4-0.8,0.4 C153.2,357.7,152,356.4,150.2,355.1z"></path> <path class="st39" d="M125.8,352.2c0.6-2.4,2.9-2.9,4.3-4.4C129.4,350,126.9,350.4,125.8,352.2z"></path> <path class="st34" d="M244.4,354.1c0.6,1.5,1.4,2.9,1.1,4.7C244.4,357.7,244,356.1,244.4,354.1z"></path> <path class="st14" d="M87.8,348.2c-1.5,1.4-3,2.8-4.5,4.2c-0.2-0.2-0.3-0.4-0.5-0.5C84.3,350.5,85.6,348.8,87.8,348.2z"></path> <path class="st35" d="M199.3,354.5c0.8,1.5,1.5,3,1.2,5.2C199,358,199.2,356.2,199.3,354.5z"></path> <path class="st8" d="M231.1,340.1c0.2-1.9-1.5-3.5-0.9-5.9c1.2,1.8,1.3,3.7,1.9,5.4C232.3,340,231.4,339.9,231.1,340.1 C231,340,231.1,340.1,231.1,340.1z"></path> <path class="st44" d="M104.4,340.1c-0.1-1.9-1.6-3.5-1-5.9c1.2,1.8,1.3,3.6,1.8,5.2C105.4,340.2,104.7,339.9,104.4,340.1 C104.3,340,104.4,340.1,104.4,340.1z"></path> <path class="st8" d="M75.1,336.4c0.8-1.4,2.4-0.7,3.4-1.4c0.2-0.2,1-0.2,0.6,0.6c-0.2,0.5,0.7,0.9,0.1,1.4c-0.5,0.4-0.6,0-0.9-0.4 C77.4,335.5,76.3,337.3,75.1,336.4z"></path> <path class="st19" d="M132.8,334.2c1.9,0.1,3.7,0.4,5.3,1.5C136.1,335.8,134.3,335.5,132.8,334.2z"></path> <path class="st21" d="M192.7,336.1c0.9-1.8,2.9-2,4.4-3.2C196.5,335.1,196.5,335.1,192.7,336.1 C192.6,336.1,192.7,336.1,192.7,336.1z"></path> <path class="st17" d="M244.5,336.3c0.6-1.3,2.2-0.6,3.1-1.3c0.2-0.1,1.2-0.2,0.9,0.3c-0.3,0.7,0.8,1.2,0.2,1.7 c-0.7,0.5-0.7-0.2-1.1-0.6C246.8,335.5,245.7,337.4,244.5,336.3z"></path> <path class="st45" d="M203.4,369.4c1.3,0.4,2.7,0.8,4,1.1c0.9,0.2,0.5,0.9,0.3,1.3c-0.4,0.7-0.6,0.2-1.1-0.2 c-1-0.7-2.3-1.1-3.4-1.6C203.2,369.9,203.3,369.6,203.4,369.4z"></path> <path class="st45" d="M161.2,369.5c1.2,0.3,2.4,0.6,3.5,0.9c0.8,0.2,1.1,0.8,0.8,1.4c-0.6,1-0.7,0-1.2-0.3c-1-0.7-2.2-0.9-3.3-1.3 C161.1,369.9,161.1,369.7,161.2,369.5z"></path> <path class="st21" d="M150.4,336.1c1-1.6,2.8-2.1,4.4-3.1C154.3,335.1,154.3,335.1,150.4,336.1 C150.4,336.1,150.4,336.1,150.4,336.1z"></path> <path class="st21" d="M207.3,337.4c0.9,1.7,1.9,3.4,2.8,5.1c-2-1.1-2.5-3.1-3.5-4.7C206.8,337.6,207.1,337.5,207.3,337.4z"></path> <path class="st44" d="M57.6,336.1c0.1,1.6,0.2,3.1,0.3,5.2c-1.7-1.8-1.3-3.5-1.1-5.1C57.1,336.1,57.4,336.1,57.6,336.1z"></path> <path class="st22" d="M122.2,337.7c1.8,1,2.2,2.9,3.3,4.3c0.1,0.1-0.1,0.6-0.2,0.7c-0.3,0.2-0.6,0.1-0.8-0.4 C123.7,340.8,123,339.2,122.2,337.7z"></path> <path class="st34" d="M99.1,335.6c1.6,1.8,0.6,3.7,1,5.3C98.5,339.5,98.8,337.8,99.1,335.6z"></path> <path class="st22" d="M180.3,363.3c1.6,0.7,2.8,1.2,4,1.7c0.5,0.2,0.8,0.3,0.6,0.9c-0.9-0.7-1.7,1.3-1.8,0.6 C182.9,364.7,180.9,365.1,180.3,363.3z"></path> <path class="st46" d="M222.9,363.4c1.2,0.6,2.2,1.1,3.3,1.5c0.4,0.2,1-0.1,1,0.6c0,0.8-1.2-0.1-1.3,0.9c-0.1,0.4-0.9,0.1-0.9-0.7 C224.9,364.4,222.6,365.3,222.9,363.4z"></path> <path class="st8" d="M132.8,376.6c1.8-0.1,3.6,0.1,5.8,1.4C136,378.4,134.5,377.2,132.8,376.6z"></path> <path class="st8" d="M90.3,376.1c1.8,0.5,3.5,0.9,5.3,1.4c-2.1,0.8-3.7-0.2-5.5-0.6C90.1,376.6,90.2,376.3,90.3,376.1z"></path> <path class="st8" d="M192.8,378.2c1-1.7,2.9-1.9,4.5-3.2C197,378.2,194.4,377.5,192.8,378.2C192.7,378.1,192.8,378.2,192.8,378.2z"></path> <path class="st32" d="M133,332.4c2.4-0.5,4.1,0.3,5.8,1C137,333.6,135.2,333.5,133,332.4z"></path> <path class="st30" d="M175.4,332.3c2.2-0.5,4,0.2,5.7,1C179.2,333.4,177.3,333.7,175.4,332.3z"></path> <path class="st19" d="M81.9,372.3c0.4,1.8,3.8,1.1,3.3,4.3C83.8,375,82.1,374.2,81.9,372.3z"></path> <path class="st15" d="M232.7,368.7c-1.1,2.2-3.3,1.7-5.7,2.5C228.9,369.1,231.1,369.6,232.7,368.7L232.7,368.7z"></path> <path class="st14" d="M65.4,357.1c-1.2,1.6-2.9,1.1-4.8,1.1C62,356.3,64,358,65.4,357.1z"></path> <path class="st33" d="M234.8,357.1c-1.4,1.2-3,1.3-4.6,1.1c-0.1,0-0.2-0.7-0.1-0.7C231.6,356.8,233.2,357.7,234.8,357.1z"></path> <path class="st32" d="M105.6,369.2c-1.4,1.3-3.2,1.3-4.9,1.6C102,369.3,103.9,369.5,105.6,369.2z"></path> <path class="st22" d="M83,336.4c0.6,1.5,1.1,3.1,1.9,5.3c-2-1.7-2.3-3.4-2.7-4.9C82.2,336.3,82.6,336.2,83,336.4 C83,336.4,83,336.4,83,336.4z"></path> <path class="st47" d="M69.3,339.3c0.2-2,2.3-2.3,3.3-3.6C72.6,337.8,70.2,337.9,69.3,339.3z"></path> <path class="st8" d="M157.1,354.5c0.7,1.6,1.5,3.1,1,5.2C157,357.9,156.8,356.2,157.1,354.5z"></path> <path class="st32" d="M115.9,359.7c-1.2-1.8-1.3-3.5-1.1-5.2C115.7,356,116.4,357.5,115.9,359.7z"></path> <path class="st20" d="M58.5,370.9c1.4-1.3,3.1-1.5,5.5-2C62.1,370.8,60.1,370.2,58.5,370.9z"></path> <path class="st20" d="M73.5,359.4c-1-1.5-1.5-3-1.1-5C73.7,356,73.5,357.7,73.5,359.4z"></path> <path class="st30" d="M67.8,363.4c0.2-1.5,0.4-3.1,1.4-4.8c0.8,2.2-0.6,3.7-0.4,5.3C68.2,364.2,67.7,364.3,67.8,363.4z"></path> <path class="st8" d="M72,360.7c-1,0.8,0.4,2.5-1.3,3c-0.8-1.6,0.6-2.9,0.4-4.4c0-0.4,0.7-0.5,0.8-0.3 C72.1,359.6,72.9,360.2,72,360.7L72,360.7z"></path> <path class="st21" d="M75,378.5c0.9-1.2,2.4-0.7,3.5-1.3c0.2-0.1,1.1-0.2,0.6,0.6c-0.3,0.6,1,1,0,1.5c-0.6,0.3-0.6-0.3-0.8-0.6 C77.3,377.6,76.2,379.6,75,378.5z"></path> <path class="st48" d="M217.3,376.5c1.7,0.2,3.6,0.1,5.5,1.7C220.4,378.1,218.8,377.5,217.3,376.5z"></path> <path class="st44" d="M180.3,377.8c-0.7,0.6-1,0.5-1.3,0.3c-1.2-0.8-3-0.2-4-1.6c0-0.1,0.2-0.4,0.3-0.4 C176.9,376.6,178.7,376.8,180.3,377.8z"></path> <path class="st26" d="M95,356.1c-1.1-1.3-2.5-2.5-2.8-4.5c1.1,1.3,2.2,2.7,3.4,4C95.4,355.8,95.2,355.9,95,356.1z"></path> <path class="st17" d="M248.4,350.6c0.6,0,1.7,0.1,0.8,0.9c-0.9,0.9-2.3,1.3-3.5,1.8c-0.1,0.1-0.6-0.2-0.6-0.3 c-0.1-0.3,0.1-0.6,0.5-0.8C246.5,351.6,247.8,351.6,248.4,350.6L248.4,350.6z"></path> <path class="st32" d="M223.2,375.7c-1.8-0.5-3.9,0.5-5.9-1.4C219.8,374.3,221.6,374.6,223.2,375.7z"></path> <path class="st27" d="M72,349.3c0.8,1.7-2.5,1.9-0.5,3.6c0.3,0.2-0.1,0.5-0.4,0.5c-0.4-0.1-0.8-0.3-1.2-0.5 c-0.4-0.3-0.6-0.7-0.2-1.2C70.5,350.9,71.2,350.1,72,349.3z"></path> <path class="st7" d="M242,352.6c0.2-1.5,0.5-2.9,2-3.7c0.4-0.2,0.8-0.2,1,0.2c0.2,0.3,0.1,0.7-0.4,0.8 C243,350.3,243.1,351.9,242,352.6z"></path> <path class="st8" d="M199.4,352.8c0.2-1.9,0.8-3.2,2.3-3.9c0.2-0.1,0.7,0,1,0.2c0.3,0.3,0.1,0.8-0.2,0.8 C200.5,349.9,200.9,352,199.4,352.8z"></path> <path class="st32" d="M157.4,352.7c-0.6-1.3,0.4-2.1,0.9-3c0.4-0.7,1.5-1.4,2-0.6c0.8,1.3-0.8,0.6-1.2,1 C158.5,350.9,158.5,352.1,157.4,352.7z"></path> <path class="st8" d="M115,352.7c0.1-1.7,0.8-2.9,2.1-3.7c0.3-0.2,0.9-0.3,1.2,0.2c0.3,0.6-0.1,0.8-0.6,0.8 C116,350.1,116.6,352.2,115,352.7z"></path> <path class="st18" d="M76.5,349.3c-1.7,0.6-2.7,1.5-3.2,2.9c-0.1,0.4-0.4,0.6-0.8,0.4c-0.1-0.1-0.3-0.3-0.3-0.4 C72.2,350.9,74.6,349,76.5,349.3z"></path> <path class="st49" d="M84.4,353.3c0.8,1.8,0.5,3.1,0.5,4.4c0,0.4-0.2,0.7-0.7,0.6c-0.4-0.1-0.5-0.4-0.4-0.8 C84,356.3,83.6,355,84.4,353.3z"></path> <path class="st22" d="M257.2,348.1c-1.5,1.4-3,2.8-4.5,4.3c0.1,0.1,0.3,0.2,0.4,0.4c1.3-1.6,2.6-3.3,3.9-4.9 C257.1,348,257.2,348,257.2,348.1z"></path> <path class="st31" d="M97.9,355.8c1.1-0.7,1.9-3,3.8-1.2c0.3,0.3,0.5,0.6,0.2,0.9c-0.2,0.2-0.6,0.3-0.6,0.3 C100,354,99.1,356.3,97.9,355.8z"></path> <path class="st30" d="M117.2,353.8c0.8,0.9,1.3,1.4,1.1,2c-0.4,1.1,1.6,2.4,0,2.9c-0.7,0.2-0.7-1.9-1.1-2.9 C117.1,355.3,117.2,354.7,117.2,353.8z"></path> <path class="st27" d="M210.1,352.1c0.8-2.2,2.8-3,4.5-4.1C213.6,349.9,211.5,350.6,210.1,352.1z"></path> <path class="st30" d="M160.8,358.8c-1.1-1.5-1.6-3-1.2-4.9C161.1,355.4,160.3,357.3,160.8,358.8z"></path> <path class="st48" d="M62.2,340.1c0-1.9-1.5-3.4-1-5.7c1.3,1.7,1.4,3.6,1.9,5.3C63.1,339.7,62.4,339.9,62.2,340.1 C62.1,340,62.2,340.1,62.2,340.1z"></path> <path class="st7" d="M201.8,354.1c1.5,1.1,0.7,2.9,1.5,4.1c0.2,0.3,0,0.7-0.5,0.7c-0.5,0-0.5-0.3-0.6-0.7 C202,356.9,201.3,355.6,201.8,354.1z"></path> <path class="st32" d="M146.7,340.1c0.2-1.9-1.4-3.6-1-6.1c1.4,1.8,1.3,3.7,2,5.3C148.1,340.1,147,339.8,146.7,340.1 C146.6,340,146.7,340.1,146.7,340.1z"></path> <path class="st32" d="M188.9,340c0.2-1.9-1.4-3.5-0.9-5.7c1.4,1.6,1.3,3.5,2,5.1C190.3,340.2,189.2,339.7,188.9,340L188.9,340z"></path> <path class="st15" d="M130.4,361.1c-0.8,1.4-2.8,1.7-2.7,3.6c0,0.3-0.6,0.5-0.8,0.2c-0.2-0.3-0.4-1-0.2-1.2 C127.7,362.6,128.5,361.2,130.4,361.1z"></path> <path class="st28" d="M172.7,360.8c-1,1.7-3,2-2.8,3.9c0,0-0.6,0.3-0.7,0.2c-0.6-0.4-0.6-1.1-0.3-1.5 C169.8,362.5,170.7,361.4,172.7,360.8z"></path> <path class="st38" d="M232,342.7c-0.9,2-3.1,1.7-4.6,2.5C228.7,343.8,230.2,342.9,232,342.7L232,342.7z"></path> <path class="st31" d="M189.8,342.7c-0.9,2-3.1,1.5-4.5,2.6C186.5,343.8,188,342.8,189.8,342.7L189.8,342.7z"></path> <path class="st33" d="M147.6,342.7c-0.9,2-3,1.6-4.5,2.5C144.2,343.6,145.8,342.9,147.6,342.7L147.6,342.7z"></path> <path class="st15" d="M257.3,360.8c-0.6,1.9-3.1,1.7-2.7,3.8c0.1,0.3-0.5,0.5-0.9,0.3c-0.5-0.3-0.6-0.9-0.2-1.4 C254.4,362.4,255.5,361.5,257.3,360.8z"></path> <path class="st8" d="M80.3,361.4c-1,2.1-1.8,3.6-2.7,5.5C77.4,364.5,78,363.4,80.3,361.4z"></path> <path class="st12" d="M122.3,361.8c0.2,0.7-0.1,1.2-0.5,1.7c-0.7,0.9-0.5,2.5-1.9,3c-0.6-1.6,0.8-2.5,1.3-3.7 C121.4,362.4,121.4,361.7,122.3,361.8z"></path> <path class="st32" d="M118.7,337.8c0.4,2,0.4,3.6-0.9,4.9C118.1,341.2,117.1,339.4,118.7,337.8z"></path> <path class="st19" d="M160.9,338.1c0.3,1.6,0.4,3.2-1.2,5.3c0.2-2.2,0.3-3.8,0.4-5.3C160.4,338.1,160.7,338.1,160.9,338.1z"></path> <path class="st24" d="M161.8,366.3c0.3-1.7,1.4-3,2.8-4.3c-0.7,1.5-1.4,3.1-2.1,4.6C162.3,366.5,162,366.4,161.8,366.3z"></path> <path class="st45" d="M164.5,337.8c1.7,0.9,2.1,2.7,3.1,4.1c0.3,0.3,0.1,0.7-0.3,0.8c-0.4,0.1-0.6-0.1-0.7-0.5 C166,340.7,165.2,339.3,164.5,337.8z"></path> <path class="st29" d="M203.1,337.4c0.4,2.3,0.4,4-0.9,5.3C202.5,341.2,201.7,339.5,203.1,337.4z"></path> <path class="st19" d="M244.7,343c-0.3-1.8-0.6-3.3,0.6-4.8C245.8,340.8,245.7,341.2,244.7,343z"></path> <path class="st8" d="M251.7,342.9c-0.9-1.7-1.8-3.3-2.7-5c0.2-0.1,0.4-0.2,0.6-0.4C250.7,339.1,251.8,340.6,251.7,342.9z"></path> <path class="st22" d="M120,362.9c-0.2,0.1-0.4,0.4-0.6,0.4c-1.5-0.4-2.7,1.1-4.2,0.4c-0.1-0.1-0.1-0.7-0.1-0.7 c1.6-0.3,3.2-0.5,4.8-0.8C119.9,362.5,120,362.7,120,362.9z"></path> <path class="st23" d="M162.3,363c-1.3,0.3-2.7,0.7-4,1c-0.5,0.1-0.9,0-1-0.6c0-0.5,0.3-0.6,0.7-0.6C159.4,363,160.7,362,162.3,363z "></path> <path class="st8" d="M204.5,362.3c-0.1,0.6-0.2,0.9-0.2,0.9c-1.6-0.1-3.1,1.1-4.7,0.5c-0.1,0-0.1-0.5-0.1-0.5 C201,362.5,202.7,362.4,204.5,362.3z"></path> <path class="st39" d="M246.7,362.3c-1.2,1.3-2.8,1.3-4.2,1.6c-0.2,0-0.5-0.2-0.6-0.4c-0.1-0.4,0.1-0.7,0.5-0.7 C243.8,362.6,245.3,362.5,246.7,362.3z"></path> <path class="st49" d="M78.3,338.4c0.8,1.8-0.5,3.4-0.2,5.2C76.8,341.8,78.2,340.1,78.3,338.4z"></path> <path class="st17" d="M81.4,363.2c0.3,0.7,0,1.1-0.3,1.4c-0.8,0.9-0.4,2.7-2.1,3c-0.2-1.4,0.9-2.4,1.4-3.6 C80.7,363.6,80.9,363.3,81.4,363.2z"></path> <path class="st44" d="M91.1,368.5c-1.5-1.8-1.1-3.4-0.7-5.1C91.4,364.9,91,366.5,91.1,368.5z"></path> <path class="st21" d="M92.2,367.1c0-0.8,0-1.6,0-2.4c0-0.6,0.3-1.2,0.8-1.2c0.5,0,1.4,0.4,1.5,0.7c0.3,1.5-0.8,0.1-1,0.4 C93,365.4,93.9,366.8,92.2,367.1z"></path> <path class="st35" d="M94.9,340.9c-1.6-0.6-3.2-0.8-4.9-2.5C92.3,338.8,93.8,339.5,94.9,340.9z"></path> <path class="st32" d="M256.6,370.9c-0.4-1.2-1.1-2-1-2.7c0.1-0.9-1.6-2-0.1-2.5c0.6-0.2,1,1.5,1,2.4 C256.6,368.9,257.5,369.5,256.6,370.9z"></path> <path class="st34" d="M67.9,345c-0.9-1.4-1.7-2.7-2.6-4.1c1.9,0.7,2.4,2.3,3.2,3.7C68.4,344.7,68.2,344.9,67.9,345z"></path> <path class="st26" d="M116.8,337.7c-1.3,1.1-2.7,2.1-4,3.2c-0.2-0.2-0.3-0.3-0.5-0.5C113.6,339.3,114.7,338,116.8,337.7z"></path> <path class="st18" d="M129.1,360.1c-1.4,0.9-2.7,1.8-4.2,2.9C125.5,361.1,125.5,361.1,129.1,360.1z"></path> <path class="st50" d="M154.4,340.3c1.4-1.1,2.7-2.1,4.1-3.2c-0.7,1.9-2.3,2.7-3.6,3.8C154.8,340.7,154.6,340.5,154.4,340.3z"></path> <path class="st38" d="M200.9,337.4c-1,1.5-2.4,2.6-4,3.3C197.9,339.2,199.3,338.1,200.9,337.4z"></path> <path class="st16" d="M102.7,364c-0.5-0.1-1.4-0.1-1-0.8c0.6-1.2,0.4-2.6,1.7-4c-0.1,1.5-0.1,2.6-0.2,3.7 C103.6,363.5,103.2,363.8,102.7,364z"></path> <path class="st38" d="M76.2,338.1c-0.3,1.3,0,2.6-0.1,3.8c0,0.4,0,0.8-0.5,0.8c-0.2,0-0.6-0.3-0.6-0.4 C75.3,340.9,75,339.3,76.2,338.1z"></path> <path class="st7" d="M61.1,362.8c1-0.2,0.7-1.7,2.3-1.7c-0.8,1.3-1.4,2.4-2.1,3.6c-0.2,0.4-0.3,1.2-1,0.8c-0.2-0.1,0.1-0.9,0.2-1.4 C60.2,363.3,60.6,363,61.1,362.8z"></path> <path class="st18" d="M90.1,361c-0.5,0.3-0.9,0.5-1.8,1c0.7-2.1,1.7-3.5,3-5.4C91.6,358.8,89.8,359.6,90.1,361 C90.1,361.1,90.1,361,90.1,361z"></path> <path class="st23" d="M100.3,368c1.5-0.8,2.9-1.7,4.9-1.1C103.5,368,101.9,368.4,100.3,368z"></path> <path class="st19" d="M244.5,374.8c-2.7,0.9-3.1-1.3-3.8-2.9C242,372.8,243.2,373.8,244.5,374.8z"></path> <path class="st18" d="M87.2,353.6c0,1.8,0.2,3.2-0.7,4.6C86.2,356.7,85.6,355.2,87.2,353.6z"></path> <path class="st14" d="M152.8,368.5c-0.5,1.6-1.1,3.3-2.6,4.2C150.7,371.1,151.4,369.5,152.8,368.5z"></path> <path class="st18" d="M217.2,360.6c-0.5,0.4-0.9,0.7-1.7,1.3c0.3-2.1,1.4-3.4,2.6-4.9C218.5,358.6,217,359.4,217.2,360.6 L217.2,360.6z"></path> <path class="st7" d="M250.9,368.6c-1.5,1.1-2.9-0.1-4.3,0.3c-0.1,0-0.4-0.3-0.5-0.5c-0.1-0.4,0.3-0.7,0.7-0.6 C248.2,368,249.6,368.3,250.9,368.6z"></path> <path class="st51" d="M116.7,376.3c1.4-1,2.9-1.3,4.6-1.1C119.9,376,118.5,376.9,116.7,376.3z"></path> <path class="st35" d="M136.6,360.5c2.1-1.3,3.5-2.1,5.7-2.1C140.6,359.6,139.1,360.4,136.6,360.5z"></path> <path class="st7" d="M147.5,366.8c-1.6,1.2-3,1.7-5.3,1.2C144.1,367.1,145.5,366.6,147.5,366.8z"></path> <path class="st50" d="M200.5,376.5c1.9-1.2,3.5-1.6,5.6-1.4C204.4,376.1,202.9,376.7,200.5,376.5z"></path> <path class="st8" d="M61.1,362.8c-0.2,0.4-0.4,0.8-0.6,1.2c-0.4-0.1-1.2,0-1-0.6c0.6-1.3,0.4-2.9,1.9-4.3 C61.3,360.6,61.2,361.7,61.1,362.8z"></path> <path class="st17" d="M129.8,370.3c-1-1.4-1.3-3-1.1-4.7C129.6,367.1,130.1,368.6,129.8,370.3z"></path> <path class="st32" d="M86,365.7c1.4,1.3,1.2,3.1,1.6,4.7C86.1,369.2,86.4,367.3,86,365.7z"></path> <path class="st29" d="M144.7,353.2c-1.1,1.4-2.6,2.1-4.2,2.7C141.4,354.2,143.1,353.7,144.7,353.2z"></path> <path class="st48" d="M217.6,363.4c0,0.4,0.2,0.9,0.1,1.3c-0.2,1.2,0.9,2.4,0.2,3.6c0,0.1-0.3,0-0.5,0 C217.6,366.6,216,365.1,217.6,363.4z"></path> <path class="st44" d="M175.2,368.3c0.1-1.7-1.1-3.2,0.1-5c0.3,1.6,0.5,3.3,0.8,4.9C175.8,368.3,175.5,368.3,175.2,368.3z"></path> <path class="st30" d="M76.8,367.9c1.6,0.2,3.2,0.4,4.8,0.6c-1.6,1-3.2,0.3-4.8,0.2C76.8,368.4,76.8,368.1,76.8,367.9z"></path> <path class="st17" d="M100.4,361.2c-2,1.4-3.4,1.2-5.6,0.3C96.9,360.9,98.3,361.1,100.4,361.2z"></path> <path class="st8" d="M142.1,361.5c-1.4,1-2.8,0.9-4.2,0.1C139.2,360.9,140.7,361.1,142.1,361.5z"></path> <path class="st45" d="M145.1,363.5c1.4-0.2,1-2.1,3-2.6c-1.1,1.9-1.9,3.2-2.7,4.7c-0.8-0.7,0-1.4-0.3-1.9L145.1,363.5z"></path> <path class="st8" d="M60.3,355.9c1.8-1.2,3.4-1.2,5.1-1.3C64,355.7,62.4,356.2,60.3,355.9z"></path> <path class="st35" d="M113.8,371.7c0.9,0.8,1.9,1.5,2.9,2.4C113.7,376.2,114.9,372,113.8,371.7z"></path> <path class="st23" d="M184.3,361.4c-1.3,1.1-2.7,0.9-4.7,0.4C181.4,360.7,182.8,361.2,184.3,361.4z"></path> <path class="st7" d="M214.7,361.1c-0.7,1.5-2.8,1.7-2.6,3.7c0,0-0.5,0.3-0.7,0.2c-0.6-0.4-0.5-1.2-0.3-1.4 C212.1,362.5,212.9,361.2,214.7,361.1z"></path> <path class="st8" d="M241.6,354.1c1.5,1.9,1,3.7,1.3,5.3C241.6,358,241.6,356.3,241.6,354.1z"></path> <path class="st30" d="M249,355c1,1.3,2.1,2.4,2.1,4.5C249.6,358.1,249.2,356.6,249,355z"></path> <path class="st35" d="M246,373c-1.6-0.6-3.1-1.4-4.5-3C243.8,370.3,244.7,371.9,246,373z"></path> <path class="st28" d="M158.9,374.3c-2.9,2-1.7-2.1-3.3-2.1C157.1,372.3,158.1,373.2,158.9,374.3z"></path> <path class="st8" d="M222.3,361.6c1.3-0.8,2.7-0.5,4.9-0.5C225.1,362.6,223.7,362.2,222.3,361.6z"></path> <path class="st32" d="M87.6,360.8c-0.1,2-3.1,1.6-2.1,3.9c0.1,0.2-0.6,0.5-0.8,0.2c-0.3-0.5-1.1-1.1-0.3-1.8 C85.4,362.3,86.4,361.7,87.6,360.8z"></path> <path class="st20" d="M57.8,361.3c-1.7,1.4-3.1,1-4.5,0.3C54.6,360.9,56,361.1,57.8,361.3z"></path> <path class="st24" d="M142.5,368.5c-2.3-0.5-3.9-0.9-5.7-2.4C139.1,366.3,140.6,366.9,142.5,368.5z"></path> <path class="st7" d="M201.2,374.3c-2.9,1.7-1.7-2.2-3.4-2.1C199.1,372.3,200.1,373.1,201.2,374.3z"></path> <path class="st26" d="M76.1,358.8c-1.5-1.3-1-3.1-1.1-4.7C76,355.5,76.1,357.2,76.1,358.8z"></path> <path class="st15" d="M206.9,362c-0.7,1.5-1.5,3.1-2.3,5C204.2,364.8,204.6,364,206.9,362z"></path> <path class="st30" d="M92.6,369.4c1,0.2,1.2,1.3,1.7,1.9c0.5,0.6,1.7,0.6,1.8,2.6c-1.7-1.6-3-2.8-4.2-3.9 C92.2,369.8,92.4,369.6,92.6,369.4z"></path> <path class="st17" d="M58.1,368c1.5-0.8,2.8-1.6,4.7-1.2C61.4,368.2,59.7,368.1,58.1,368z"></path> <path class="st35" d="M174.8,336.7c-1,1.5-2.5,1.7-4,2c0,0-0.2-0.4-0.1-0.5C171.8,337.2,173.3,337.2,174.8,336.7z"></path> <path class="st18" d="M159.7,332.6c-2.5,0.7-3-1.3-4.2-2.8C157.5,330.3,158.5,331.6,159.7,332.6z"></path> <path class="st20" d="M201.7,333.3c-1.7-0.5-2.9-1.7-4.1-3.5C199.6,330.6,201.4,331.1,201.7,333.3L201.7,333.3z"></path> <path class="st8" d="M221.6,340.8c-1.5-0.6-3.2-0.8-4.9-2.5C219,338.7,220.5,339.5,221.6,340.8z"></path> <path class="st19" d="M188.8,339.9c0.3,1.1,0.1,1.4-1,1.5c-0.9,0.1-1.6,1.2-2.9,0.6C186.1,340.9,187.6,340.6,188.8,339.9 C188.9,340,188.8,339.9,188.8,339.9z"></path> <path class="st49" d="M222.1,336.1c-1.7-0.5-3.5-0.5-4.8-2.1c1.7,0.5,3.4,0.9,5,1.4C222.3,335.6,222.2,335.8,222.1,336.1z"></path> <path class="st49" d="M180.1,335.8c-1.8-0.2-3.7-0.2-5.1-1.6C176.8,334.4,178.6,334.6,180.1,335.8z"></path> <path class="st16" d="M110.6,345c-1-1.4-2-2.7-3-4.1C109.5,341.7,110.3,343.1,110.6,345z"></path> <path class="st14" d="M237.4,345c-1-1.4-2-2.8-3-4.1c1.8,0.8,2.7,2.1,3.5,3.7C237.7,344.7,237.6,344.9,237.4,345z"></path> <path class="st27" d="M85.2,344.9c2.1,0.1,1.3-2.6,3.1-3c-0.5,1.6-0.8,3.1-2.2,3.9C84.9,346.5,84.4,346.1,85.2,344.9L85.2,344.9z"></path> <path class="st23" d="M230,346.6c1.2,1.7,1.8,3.2,1.9,5C230.9,350.2,229.8,348.8,230,346.6z"></path> <path class="st21" d="M219.3,351.2c-0.7-1.3-1.1-2.4-0.9-3.7c0.1-0.6,0.4-1,1-0.8c0.8,0.2,0.5,0.6,0.3,1.2 C219.4,348.9,219.4,349.9,219.3,351.2z"></path> <path class="st52" d="M178.1,344.6c0.8-1.3,1.9-2.4,3.4-2.8C180.8,343.3,179.6,344,178.1,344.6z"></path> <path class="st19" d="M187.9,346.9c0.8,1.5,2.1,2.8,1.9,5.3C188.7,350.3,187.8,348.8,187.9,346.9z"></path> <path class="st25" d="M177,351.2c-0.6-1.3-1.2-2.5-0.7-3.9c0.2-0.5,0.5-0.7,1-0.6c0.4,0.1,0.7,0.6,0.5,0.8 C176.7,348.5,177.8,349.9,177,351.2z"></path> <path class="st20" d="M147.7,352.2c-1.3-1.9-2.1-3.4-2-5.2C146.8,348.3,147.7,349.8,147.7,352.2z"></path> <path class="st52" d="M166.9,335.9c-0.2-1.6-2.2-1.9-2.6-4.1c1.5,1.4,2.9,2.2,3.6,3.5C168.7,336.4,167.2,335.6,166.9,335.9 L166.9,335.9z"></path> <path class="st52" d="M241.5,347.2c-1-1.2-2.5-2-3.1-3.5c0-0.1,0.2-0.3,0.3-0.4c1.1,1.1,2.3,2.2,3.4,3.3 C241.9,346.8,241.7,347,241.5,347.2z"></path> <path class="st36" d="M195.5,346.2c-1.3,1-2.3,2.4-4.3,2.5c1.3-1,2.5-2.1,3.8-3.1C195.2,345.7,195.4,345.9,195.5,346.2z"></path> <path class="st24" d="M97.5,346.5c-0.2,1.7-1.4,2.8-2.5,4C95,348.6,96.3,347.6,97.5,346.5z"></path> <path class="st30" d="M121.8,350.6c1.3,0.1,1.3,0.5,0.3,1.1c-1.2,0.6-2.6,1.2-4.5,2C118.8,351.5,120.9,351.8,121.8,350.6 L121.8,350.6z"></path> <path class="st20" d="M164,350.4c0.5,0.2,1.6,0.4,0.5,1.1c-1.3,0.8-2.8,1.3-4.8,2.2C161,351.5,163.1,351.8,164,350.4L164,350.4z"></path> <path class="st17" d="M206.2,350.5c0.8,0.1,1.4,0.5,0.4,1.1c-1.3,0.8-2.7,1.3-4.7,2.1C203.2,351.5,205.4,351.8,206.2,350.5 L206.2,350.5z"></path> <path class="st53" d="M137.9,351.7c1.2-1.3,2.3-2.8,4.1-3.4C141,349.9,139.7,351.1,137.9,351.7z"></path> <path class="st52" d="M166.9,335.9c1.4,1.4,1.8,3.3,2.3,5.2C167.7,339.7,166.8,338.1,166.9,335.9 C166.9,335.9,166.9,335.9,166.9,335.9z"></path> <path class="st21" d="M142,336c0.2,1.7,0.4,3.3,0.7,5c-0.2,0-0.5,0.1-0.7,0.1c-0.3-1.7-0.6-3.4-0.9-5.1 C141.4,336.1,141.7,336,142,336z"></path> <path class="st21" d="M184.6,341c-0.7-1.6-1.5-3.2-0.9-5C184.9,337.6,184.2,339.4,184.6,341z"></path> <path class="st30" d="M96.3,336c1.5,1.9,1.3,3.5,1.9,5.1C96.8,340.2,96.8,340.2,96.3,336z"></path> <path class="st30" d="M252.4,336.4c0.1,1.6,1.5,2.9,1.4,5.1c-1.4-1.5-1.9-3.1-2.3-4.6C251.4,336.3,251.9,336.2,252.4,336.4 L252.4,336.4z"></path> <path class="st51" d="M220.3,344.5c0.9-1.2,1.8-2.4,3.4-2.6C222.9,343.1,222,344.2,220.3,344.5z"></path> <path class="st26" d="M89.2,370.1c0.1,0.4,0.2,0.6,0.2,0.7c-0.9,1.2-1.8,2.3-2.7,3.5c0,0-0.4-0.2-0.4-0.3 C86.9,372.4,88,371.2,89.2,370.1z"></path> <path class="st23" d="M249.5,361.9c-0.8,1.5-1.7,3.1-2.7,5c-0.2-2.5,1.3-3.7,2-5.3C249,361.7,249.2,361.8,249.5,361.9z"></path> <path class="st46" d="M229.2,364c1.7-0.2,1.3-2.4,2.9-3.1c-0.3,2.1-1.7,3.2-2.4,5.2C229.5,365,229.4,364.5,229.2,364L229.2,364z"></path> <path class="st22" d="M189.9,342.8c0.2-1,0.6-1.1,1.2-0.3c0.8,1.1,1.5,2.2,2.7,3.9C191.4,345.6,191.5,343.3,189.9,342.8 C189.8,342.7,189.9,342.8,189.9,342.8z"></path> <path class="st17" d="M105,343.3c-1.4,0.7-2.8,1.4-4.4,2.2C101.5,343.8,101.5,343.8,105,343.3z"></path> <path class="st28" d="M195.4,365.1c-1.7-0.7-2.1-2.4-3.2-3.7C194.1,361.9,194.4,363.7,195.4,365.1z"></path> <path class="st23" d="M187,364.1c1.5-0.4,1.3-2.4,3-2.7c-0.8,1.4-1.6,2.8-2.6,4.6C187.3,365,187.2,364.5,187,364.1L187,364.1z"></path> <path class="st19" d="M190.2,369.2c-1.3,1.4-3.1,1.2-4.7,1.7C186.7,369.3,188.6,369.6,190.2,369.2z"></path> <path class="st34" d="M75.1,333.2c1.3,0.5,2.4-1.1,3.8-0.2c-1,1.3-2.6,1-3.9,1.4C74.4,334.6,74.3,334.4,75.1,333.2L75.1,333.2z"></path> <path class="st54" d="M69.4,343.5c1.3,1,2.7,1.9,3.3,3.6C71.2,346.2,70,345.1,69.4,343.5z"></path> <path class="st29" d="M152.9,365.4c-1-1.3-2-2.6-3.5-4.5c2.6,0.9,2.8,3,4.1,3.9C153.3,365,153.1,365.2,152.9,365.4z"></path> <path class="st39" d="M65.1,375.9c0.8-1.4,2.1-2,4.1-2.8C68,375.1,66.4,375.2,65.1,375.9z"></path> <path class="st12" d="M110.6,365.3c-1-1.3-2.1-2.6-3.1-3.8C109.4,362,110.3,363.4,110.6,365.3z"></path> <path class="st21" d="M102.7,364c0.2-0.4,0.4-0.7,0.6-1.1c1-0.2,0.8-1.7,2.3-1.8c-1,1.7-1.8,3.2-2.7,4.7 C101.9,365,103.1,364.5,102.7,364z"></path> <path class="st8" d="M67.8,363.4c0.2,0.4,0.6,0.5,1,0.5c-0.3,1.4-0.3,1.5-1,0.8c-0.9-1-1.6-2.1-2.6-3.4 C66.9,361.3,66.9,362.9,67.8,363.4z"></path> <path class="st17" d="M237.9,331.4c-0.8,1.5-2.4,1.6-3.8,2.3C234.8,332,236.5,332,237.9,331.4z"></path> <path class="st25" d="M162.3,344.2c1.5,1.2,1.8,2.9,3.1,3.8c0.3,0.2,0.2,0.7-0.1,0.9c-0.2,0.1-0.7,0-0.7-0.1 C164.1,347.2,162.2,346.5,162.3,344.2z"></path> <path class="st26" d="M106.6,348.6c1.4-1,2.8-2,4.2-3C110,347.4,108.6,348.4,106.6,348.6z"></path> <path class="st26" d="M153.2,346c-1.3,1-2.1,2.6-4,2.7C150.5,347.7,151.4,346.2,153.2,346z"></path> <path class="st30" d="M171,359.7c-1,1.5-2.5,2.3-4,2.9C167.8,360.9,169.4,360.4,171,359.7z"></path> <path class="st8" d="M145.1,363.5c0,0,0,0.2,0,0.2c-0.9-1.3-0.7-2.1,0.9-4.3C146.2,361,145.5,362.2,145.1,363.5z"></path> <path class="st36" d="M242.3,336c-1.2,1.2-2.4,2.3-4.2,3.9c0.7-2.6,2.6-3.2,3.6-4.5C241.9,335.6,242.1,335.8,242.3,336z"></path> <path class="st23" d="M90.3,346.2c0.1,1.6-0.1,3.2-1.1,5C88.6,349,89.3,347.6,90.3,346.2z"></path> <path class="st55" d="M192.9,368.2c-0.4,1.5-1.5,2.5-2.6,3.3C190.4,369.8,191.8,369,192.9,368.2z"></path> <path class="st23" d="M227.3,368c1.4-0.7,2.7-1.7,4.4-1.1C230.4,368.2,228.8,368,227.3,368z"></path> <path class="st20" d="M190,366.7c-2,1.2-3.3,1.7-5.8,1.3C186.3,367.2,187.6,366.6,190,366.7z"></path> <path class="st35" d="M184.7,368.4c-2.3-0.4-3.8-1-5.8-2.3C181.3,366.2,182.7,367,184.7,368.4z"></path> <path class="st15" d="M70.2,340.8c0.6-1.9,2.5-2.3,3.7-3.5C73.5,339.4,71.3,339.6,70.2,340.8z"></path> <path class="st28" d="M243.3,337.4c-0.7,1.7-2.4,2.3-3.7,3.4C240,338.9,241.9,338.4,243.3,337.4z"></path> <path class="st17" d="M68.1,368.4c-0.2,1.7-1.2,3.1-2.3,4.3C65.8,370.9,66.9,369.6,68.1,368.4z"></path> <path class="st23" d="M137,341.1c-1.4-0.7-2.9-1.4-4.3-2c2-0.5,3.2,0.7,4.7,1.4C137.2,340.6,137.1,340.8,137,341.1z"></path> <path class="st31" d="M113.1,369.6c1.2-2,3-2.4,4.1-3.6C116.7,367.7,116.4,368,113.1,369.6z"></path> <path class="st44" d="M179.4,340.7c-1.5-0.5-3.3-0.6-4.7-2.2C176.9,338.5,178,339.8,179.4,340.7z"></path> <path class="st8" d="M192.5,372.7c0.5-1.6,1-3.2,2.5-4.7C194.9,370.3,193.5,371.4,192.5,372.7z"></path> <path class="st33" d="M74.9,366.4c-0.9,1.7-2.6,2.1-4,3C71.9,368,73.3,367,74.9,366.4z"></path> <path class="st48" d="M214.2,370.3c-1-1.5-1.4-3-1.2-5.2C214.2,367.1,214.4,368.7,214.2,370.3z"></path> <path class="st48" d="M172.3,370.9c-1.6-1.9-1.1-3.7-1.6-5.2C171.9,367.1,172.1,368.7,172.3,370.9z"></path> <path class="st12" d="M98.4,375.9c0.5-1.6,1.4-3,2.7-4.2C100.9,373.6,99.8,374.8,98.4,375.9z"></path> <path class="st44" d="M248.9,367.9c-0.3-2,0.7-3.3,1.5-4.7c0.2,0.1,0.4,0.2,0.6,0.3C250.3,364.9,249.6,366.4,248.9,367.9z"></path> <path class="st22" d="M237.5,368.4c-0.5,1.7-1.4,3.2-2.9,4.2C235.1,370.9,236.1,369.6,237.5,368.4z"></path> <path class="st22" d="M144,372.1c-1,1.4-1.9,2.7-2.9,4.1c-0.2-0.2-0.5-0.3-0.7-0.5C141.5,374.4,142.2,372.8,144,372.1z"></path> <path class="st21" d="M186.2,372.2c-1,1.3-1.9,2.7-2.9,4c-0.2-0.1-0.4-0.3-0.6-0.4c1-1.4,1.9-2.8,2.9-4.2 C185.8,371.8,186,372,186.2,372.2z"></path> <path class="st39" d="M192.6,340.7c1.3,1.1,2.3,2.5,3.2,4.5C193.7,343.9,193.1,342.3,192.6,340.7z"></path> <path class="st8" d="M55.5,373.2c-1.4-1.6-2.7-2.5-3.5-4.2C54.1,370.1,54.8,371,55.5,373.2z"></path> <path class="st30" d="M85.3,344.8c-0.4,0.2-0.8,0.7-1.1,0.6c-0.5-0.2-0.4-0.9-0.2-1.2c0.7-1,0.8-2.3,2-3 C86.9,342.7,84.4,343.5,85.3,344.8C85.2,344.9,85.3,344.8,85.3,344.8z"></path> <path class="st30" d="M253.7,345.7c-0.5-0.2-1.1-0.3-0.6-1.1c0.7-1.1,1.4-2.3,2.4-4C255.4,343,254.1,344.2,253.7,345.7 C253.6,345.7,253.7,345.7,253.7,345.7z"></path> <path class="st32" d="M55.7,341.4c-1.7-1.5-0.9-3.3-1.8-4.5C55.3,337.7,55.3,337.7,55.7,341.4z"></path> <path class="st44" d="M228.6,371.2c-0.9,2.3-2,3.6-3.4,4.7C225.9,374.4,226.7,372.9,228.6,371.2z"></path> <path class="st8" d="M147.7,342.8c0.3-0.9,0.7-1.1,1.3-0.3c0.8,1.1,1.5,2.2,2.7,3.9C149.2,345.6,149.3,343.3,147.7,342.8 C147.6,342.7,147.7,342.8,147.7,342.8z"></path> <path class="st32" d="M94.8,369c0.8,1.4,2.7,1.9,2.7,3.7C96.6,371.5,94.8,370.8,94.8,369z"></path> <path class="st8" d="M147.8,369.3c-1.2,1.2-2.9,1.2-5.1,2.1C144.3,369,146.3,369.8,147.8,369.3z"></path> <path class="st35" d="M217.1,360.7c1.4-0.4,1.4-2.1,2.9-2.9c-0.4,2.1-1.8,3.2-3.2,4.4C217,361.7,217.1,361.1,217.1,360.7 C217.2,360.6,217.1,360.7,217.1,360.7z"></path> <path class="st30" d="M174.6,361.6c0.1-0.3,0.3-0.7,0.4-1c1.4-0.4,1.4-2.1,2.8-2.8c-0.4,2-1.4,3.4-2.9,4.5c0,0-0.2-0.1-0.2-0.2 C174.6,361.9,174.6,361.8,174.6,361.6z"></path> <path class="st7" d="M216,350.7c0.1-1.6-0.1-3.2,1.3-5C217.4,347.8,216.8,349.3,216,350.7z"></path> <path class="st23" d="M132.1,361.8c-0.5-0.1-1.3-0.2-0.9-0.9c0.7-1.3,1.2-2.7,2.7-3.9C133.8,359.1,132.1,360.2,132.1,361.8 L132.1,361.8z"></path> <path class="st6" d="M135,351.7c-0.5-1.4-0.9-2.1-1.1-2.8c-0.2-0.7,0-1.6,0.5-2c0.6-0.5,1.2-0.3,1,0.7c-0.1,0.3-0.4,0.6-0.4,1 C135,349.4,135,350.2,135,351.7z"></path> <path class="st50" d="M103,357.7c1.6-1,3.3-0.2,4.8-0.7C106.2,358.3,105.1,358.5,103,357.7z"></path> <path class="st20" d="M73.8,376.4c1.7-1.1,3.3-1.2,4.9-1.2C77.3,376.1,75.9,377,73.8,376.4z"></path> <path class="st7" d="M81.1,350.1c1.4-0.9,2.2-2.8,4.8-2.9C84,348.5,82.9,349.9,81.1,350.1z"></path> <path class="st20" d="M159,376.4c1.3-0.9,2.7-1.6,4.7-1.3C162.2,376.3,160.6,376.3,159,376.4z"></path> <path class="st48" d="M234.6,354.7c-0.4,0.5-0.5,0.7-0.6,0.7c-1.3-0.2-2.5,1-3.8,0.5c-0.1,0-0.1-0.4-0.1-0.7 C231.6,355.2,232.9,354.2,234.6,354.7z"></path> <path class="st19" d="M206.8,354.7c0.7,1.4,1.4,2.9,2.2,4.3c-1.7-0.9-2.2-2.5-2.8-4C206.4,354.9,206.6,354.8,206.8,354.7z"></path> <path class="st8" d="M207.8,350.2c1.2-1.3,2.5-2.3,4.4-2.6c-1.3,1-2.7,2.1-4,3.1C208.1,350.5,207.9,350.3,207.8,350.2z"></path> <path class="st48" d="M192.4,354.6c-1.4,1.3-2.9,1.4-4.5,1.3c0,0-0.1-0.4-0.1-0.4C189.2,354.9,190.7,354.4,192.4,354.6z"></path> <path class="st48" d="M150.2,354.3c-0.2,0.6-0.2,0.8-0.2,0.8c-1.4,0.5-2.7,1.2-4.2,0.7c-0.1,0-0.1-0.5-0.1-0.5 C147,355,148.4,354.7,150.2,354.3z"></path> <path class="st34" d="M59.6,335c-0.4-2.1,0.4-3.2,1.1-4.4C61.2,332.1,60.5,333.3,59.6,335z"></path> <path class="st44" d="M103,355.9c1.4-1,3-1.3,5-1.3C106.4,356,104.7,355.8,103,355.9z"></path> <path class="st28" d="M79.6,354.8c1.1,1.3,2.1,2.6,2.2,5C80.5,357.9,79.7,356.5,79.6,354.8z"></path> <path class="st14" d="M239,347.6c-0.7,1.7-2,2.9-4,3.1C236.3,349.7,237.7,348.7,239,347.6z"></path> <path class="st8" d="M80,350.8c-1.1,1.4-2.7,2-4.4,2.2C76.7,351.7,78.4,351.3,80,350.8z"></path> <path class="st7" d="M176.7,352c1.8,0.7,2.2,2.5,3.3,3.8C178.1,355.1,177.7,353.3,176.7,352z"></path> <path class="st23" d="M240.6,355.2c-1.7-0.4-3.2-1.1-4.3-2.5C237.9,353.1,239.4,353.9,240.6,355.2z"></path> <path class="st18" d="M174.9,346.2c0.2,1.6-0.1,3.1-1,4.4C173.6,349,174,347.6,174.9,346.2z"></path> <path class="st23" d="M57.5,358.2c-1.5,1.7-3.1,1.9-4.7,2.1C54,359,55.5,358.6,57.5,358.2z"></path> <path class="st23" d="M241.2,358.9c-0.2,1.5,0.3,3.3-1,4.9C239.6,361.8,240.4,360.4,241.2,358.9z"></path> <path class="st17" d="M221.8,360.4c1.1-1.5,2.8-1.6,4.3-2C225,359.8,223.4,360,221.8,360.4z"></path> <path class="st44" d="M99.2,358.3c-0.9,1.6-2.6,1.6-4.1,1.9C96.1,358.8,97.8,359,99.2,358.3z"></path> <path class="st23" d="M217.6,336.6c-1.7,1.5-3.2,1.9-5.5,2.3C213.9,337.2,215.5,337.1,217.6,336.6z"></path> <path class="st21" d="M244.6,366.8c-1.4,0.9-2.8,1.9-4.2,2.8c0.7-1.8,2.4-2.4,3.7-3.5C244.2,366.3,244.4,366.5,244.6,366.8z"></path> <path class="st20" d="M226.1,368.2c-1.5-0.6-3.3-0.5-4.6-2C223.5,366.2,224.9,367,226.1,368.2z"></path> <path class="st44" d="M223.4,336.5c1.4,1.5,0.8,3.2,1.4,4.6C223.4,340,223.2,338.6,223.4,336.5z"></path> <path class="st14" d="M59,371.8c-0.3,1.8-1.5,3-3,4.8C56.5,374.1,57.9,373.1,59,371.8z"></path> <path class="st8" d="M171.9,353.8c-0.1,1.3-0.2,2.5-0.3,3.8c0,0.4-0.2,0.7-0.6,0.6c-0.4-0.1-0.5-0.5-0.5-0.9 c0.2-1.2,0.5-2.4,0.8-3.6C171.5,353.8,171.7,353.8,171.9,353.8z"></path> <path class="st17" d="M150.9,351c0.7-1.7,2.3-2.3,3.8-3.2C153.9,349.5,152.2,350,150.9,351z"></path> <path class="st44" d="M159.5,366.3c-0.6,1.7-2.4,2.1-3.7,3.1C156.4,367.6,158.1,367.2,159.5,366.3z"></path> <path class="st18" d="M249.1,377.3c-1.7,1.2-3.1,1.7-5.1,1.5C245.6,377.5,247.1,377.3,249.1,377.3z"></path> <path class="st8" d="M112.7,348.1c-1.3,1-2.6,2.1-3.9,3.1c0.6-2,2.3-2.5,3.5-3.7C112.4,347.8,112.6,348,112.7,348.1z"></path> <path class="st45" d="M248.1,375.2c-1.5,0.9-3,1.5-4.7,1.3C244.8,375.3,246.4,375,248.1,375.2z"></path> <path class="st21" d="M95.3,366.1c1.4,0.7,3,0.7,4.6,2.6c-2.1-0.8-3.5-1.3-5-1.8C95,366.6,95.2,366.3,95.3,366.1z"></path> <path class="st45" d="M255.7,358.1c0-1.4-0.4-2.9,0.5-4.6C257.2,355.4,256.3,356.7,255.7,358.1z"></path> <path class="st48" d="M225.2,333.8c0.5-1.6,1.4-2.9,2.8-3.8C227.5,331.5,226.6,332.8,225.2,333.8z"></path> <path class="st44" d="M52.7,366.8c1.7-0.2,3.3,0,4.3,1.7C55.5,367.9,54.1,367.3,52.7,366.8z"></path> <path class="st14" d="M153,363.3c-0.6-1.8,0.1-3.1,0.7-4.9C154.1,360.9,154,361.3,153,363.3z"></path> <path class="st17" d="M110.7,363.3c-0.5-1.7-0.1-3.1,1-4.4C111.6,360.4,112,361.9,110.7,363.3z"></path> <path class="st8" d="M131.5,350.7c0.2-1.5-0.1-3.2,1.5-5C132.8,347.8,132.6,349.4,131.5,350.7z"></path> <path class="st24" d="M93.2,342.6c-1.4-0.5-2.7-1.1-3.8-2.5C91.3,340.2,92.3,341.3,93.2,342.6z"></path> <path class="st32" d="M159.6,336.4c1.4-0.9,2.7-1.4,4.6-1.3C162.7,336.3,161.2,336.8,159.6,336.4z"></path> <path class="st28" d="M200.5,364.8c-1.3,0.9-2.7,1.7-4,2.6C197.3,365.7,198.6,364.8,200.5,364.8z"></path> <path class="st23" d="M137.2,368.7c1,1.2,2,2.4,3,3.5C138.6,371.7,137.4,370.7,137.2,368.7z"></path> <path class="st22" d="M159.1,378.7c1.8-1.1,3.2-1.1,4.8-1.6C162.5,378.5,161.7,378.8,159.1,378.7z"></path> <path class="st19" d="M222.3,355.6c-1.8-0.6-2.6-2.1-3.1-3.9C220.3,353,221.3,354.3,222.3,355.6z"></path> <path class="st23" d="M195.2,363.4c-0.4-1.8-0.2-3.2,0.8-4.4C196,360.4,196.4,361.8,195.2,363.4z"></path> <path class="st19" d="M134.9,351.6c1,1.3,2,2.6,3.3,4.3C136.1,354.9,135.6,354.3,134.9,351.6z"></path> <path class="st48" d="M113.7,355.5c-1.4-0.9-3.2-1.2-4-3c1.4,0.8,2.9,1.6,4.3,2.3C113.9,355,113.8,355.3,113.7,355.5z"></path> <path class="st32" d="M117.2,378.8c1.2-1.5,2.9-0.9,4.3-1.3C120.3,378.5,119,379,117.2,378.8z"></path> <path class="st19" d="M131.6,370.4c0.1,1.9-1.8,2.4-2.4,4.5C128.7,372.1,130.9,371.7,131.6,370.4z"></path> <path class="st22" d="M107.9,372.6c0.3-1.8,1.4-3,2.7-4.8C110.6,370.4,108.7,371.2,107.9,372.6z"></path> <path class="st32" d="M53.3,351.4c1.2-1.1,2.3-2.2,3.5-3.4c0.1,0.1,0.1,0.1,0.2,0.2c-1.1,1.2-2.3,2.3-3.4,3.5 C53.5,351.6,53.4,351.5,53.3,351.4z"></path> <path class="st28" d="M233.5,348.5c1.4-1,2.7-1.9,4.1-2.9c-0.6,1.9-2.3,2.5-3.7,3.4C233.8,348.9,233.6,348.7,233.5,348.5z"></path> <path class="st52" d="M232.8,368.8c0-0.4,0-1.2,0.6-0.8c0.5,0.3,1.5,0.9,0.8,1.9c-0.5,0.6-0.8,1.4-1.7,1.6 C231.3,370.5,234.6,369.8,232.8,368.8C232.7,368.7,232.8,368.8,232.8,368.8z"></path> <path class="st22" d="M229.7,351.7c-1.1-1-1.4-2.3-1.8-3.6c0,0,0.4-0.2,0.7-0.2C228.9,349.1,229.9,350.2,229.7,351.7z"></path> <path class="st7" d="M160.6,368.4c2.2-0.8,3.6,0.2,5.1,0c0.1,0,0.4,0.4,0.3,0.6c-0.1,0.2-0.5,0.5-0.6,0.4 C164.2,368.5,162.7,369.2,160.6,368.4z"></path> <path class="st7" d="M173.8,370.3c0,1.9-1.8,2.6-2.5,4.4C170.8,372.1,173.2,371.7,173.8,370.3z"></path> <path class="st32" d="M201.6,378.8c1.2-1.5,2.9-1,4.3-1.4C204.8,378.5,203.4,378.9,201.6,378.8z"></path> <path class="st46" d="M132.6,336.9c-1.3,1-2.7,1.7-4.8,1.9C129.5,337.1,131.2,337.3,132.6,336.9z"></path> <path class="st19" d="M201.6,336.5c1.5-1.1,3-1.3,5.1-1.4C204.8,336.2,203.5,337,201.6,336.5z"></path> <path class="st8" d="M129.3,358.3c-1.1-1.6-0.4-3,0.5-4.4C129.6,355.3,129.4,356.8,129.3,358.3z"></path> <path class="st17" d="M193.2,351.3c0.5-1.9,2.1-2.5,3.8-3.1C195.8,349.2,194.5,350.2,193.2,351.3z"></path> <path class="st21" d="M139,336.2c1,2,1.2,3.5,1.1,5.1C139.2,340,138.7,338.5,139,336.2z"></path> <path class="st22" d="M181.3,336.8c1.4,0.8,0.5,2.5,1.4,3.6c0.2,0.2,0,0.7-0.4,0.7c-0.2,0-0.6-0.3-0.6-0.4 C181.7,339.4,180.5,338.2,181.3,336.8z"></path> <path class="st22" d="M184,358.4c-1.1,1.4-2.8,1.6-4.3,2.1C180.7,358.9,182.5,358.8,184,358.4z"></path> <path class="st17" d="M105.3,341.6c2,1.3,2.4,3.1,3.3,4.4C106.7,345.4,106.3,343.6,105.3,341.6z"></path> <path class="st7" d="M148.7,362.3c1,1.3,2,2.7,3,4C149.9,365.6,149.1,364.2,148.7,362.3z"></path> <path class="st29" d="M121.4,333c-1.4,1.1-2.9,1.4-5.2,1.4C118,333,119.6,332.8,121.4,333z"></path> <path class="st15" d="M229.7,330.7c0.3,1.4,0,2.7-1.1,4.1C228.1,332.9,229.1,331.9,229.7,330.7z"></path> <path class="st48" d="M83,336.4c-0.8-1.7-2.6-2.5-3.3-4.2C81,333.5,83.4,333.7,83,336.4C83,336.4,83,336.4,83,336.4z"></path> <path class="st22" d="M252.5,378.6c-1.2-1.3-2.4-2.6-3.6-3.9C250.5,375.6,252.7,376.1,252.5,378.6 C252.5,378.6,252.5,378.6,252.5,378.6z"></path> <path class="st14" d="M164,350.4c-2.7,0.3-2.1-2.5-3.5-3.4C162.3,347.5,162.8,349.3,164,350.4C164,350.4,164,350.4,164,350.4z"></path> <path class="st35" d="M61.2,372.2c-0.2,2.1-0.7,3.3-1.4,4.6C59.4,374.7,59.4,374.7,61.2,372.2z"></path> <path class="st7" d="M101.8,377.3c-0.4-2.3,0.4-3.4,1.1-4.6C103.4,374.3,102.7,375.4,101.8,377.3z"></path> <path class="st23" d="M63.2,342.6c-1.5,1.8-3.2,1.9-4.6,3C59.1,344,59.1,344,63.2,342.6z"></path> <path class="st24" d="M144.3,376.7c-0.1-2,0-2.3,1.2-3.9C145.8,374.3,145.1,375.5,144.3,376.7z"></path> <path class="st16" d="M68.9,331.7c-1.2,0.7-2.4,1.5-3.7,2.3C65.7,332.4,66,332.2,68.9,331.7z"></path> <path class="st7" d="M187.6,372.6c0.5,1.7-0.4,2.8-1.1,4C186.1,375.2,186.6,374,187.6,372.6z"></path> <path class="st56" d="M100.8,357.6c0.3,1.3,0.6,2.6,1.1,4.4c-2.3-1.3-1.1-3.1-1.8-4.3C100.3,357.7,100.5,357.6,100.8,357.6z"></path> <path class="st23" d="M252.4,336.4c-0.8-1.7-2.6-2.5-3.3-4.2C250.4,333.5,252.9,333.7,252.4,336.4 C252.4,336.4,252.4,336.4,252.4,336.4z"></path> <path class="st8" d="M83.1,378.6c-1.2-1.3-2.3-2.6-3.5-3.9C81.1,375.7,83.3,376.1,83.1,378.6C83.1,378.6,83.1,378.6,83.1,378.6z"></path> <path class="st35" d="M224.1,346.4c0.5,2-1.8,2.5-2,4.1C221.6,348.5,223.5,347.8,224.1,346.4z"></path> <path class="st18" d="M229.9,372.6c0.2,1.7-0.3,2.9-1.2,4.5C228.1,375.1,228.8,374,229.9,372.6z"></path> <path class="st23" d="M132,361.9c1.5-0.9,1.8-2.9,3.4-3.8C134.5,359.5,134.8,361.9,132,361.9C132.1,361.8,132,361.9,132,361.9z"></path> <path class="st30" d="M76.6,373.1c-1.7-0.5-2.9-1.7-4.8-3.3C74.3,370.4,75.4,371.8,76.6,373.1z"></path> <path class="st18" d="M238.2,373.5c-0.8,1.7-2.7,1.4-3.6,2.5c0,0-0.5-0.2-0.6-0.4c-0.1-0.1,0.1-0.5,0.3-0.6 C235.5,374.6,236.5,373.6,238.2,373.5z"></path> <path class="st15" d="M158.3,364.7c-1.3,0.9-2.7,1.8-4.1,2.8C155,365.6,155.4,365.3,158.3,364.7z"></path> <path class="st12" d="M116.1,364.7c-1.4,0.9-2.7,1.8-4.1,2.7C112.8,365.8,114.2,365,116.1,364.7z"></path> <path class="st23" d="M187.1,364c-1.2-1.7,0.3-3,0.8-4.5C188.4,361.2,187.6,362.6,187.1,364C187,364.1,187.1,364,187.1,364z"></path> <path class="st19" d="M254.6,347.7c-1.3,0.9-2.6,1.8-4.5,3.2c1.2-2.3,2.9-2.7,3.9-4C254.2,347.2,254.4,347.5,254.6,347.7z"></path> <path class="st30" d="M122.3,334.9c-1.9,1.4-3.3,2-5.1,1.7C118.6,335.3,120.1,335.4,122.3,334.9z"></path> <path class="st31" d="M220.3,363.4c-0.6,1.2,0,2.6-0.6,4.2C218.7,365.4,218.8,364.9,220.3,363.4z"></path> <path class="st44" d="M198.1,355.5c-1.5-0.8-3.1-1.3-4-3.1c1.4,0.8,2.9,1.6,4.3,2.5C198.3,355.1,198.2,355.3,198.1,355.5z"></path> <path class="st23" d="M229.3,364c-1.2-1.7,0.3-3,0.8-4.4C230.5,361.2,230,362.6,229.3,364C229.2,364,229.3,364,229.3,364z"></path> <path class="st7" d="M64.4,348.7c1.2-1,2.5-2,4.3-3.5C67.7,347.6,66.2,348.3,64.4,348.7z"></path> <path class="st44" d="M170,347.6c-1.4,1-2.7,2-4.1,3C166.6,348.7,168.2,348,170,347.6z"></path> <path class="st8" d="M201.6,333.4c1.4,0.3,2.6-0.9,4.3-0.4c-1.3,1.2-2.9,1.3-4.2,1.4C200.6,334.4,201.8,333.7,201.6,333.4 C201.7,333.3,201.6,333.4,201.6,333.4z"></path> <path class="st8" d="M150.7,340.5c0.9,1.4,1.8,2.8,2.7,4.1C151.6,343.8,150.8,342.3,150.7,340.5z"></path> <path class="st44" d="M127.7,347c0,1-0.4,1.2-0.8,1.4c-1.1,0.7-2.1,1.5-3.3,2.1C124.4,348.8,125.9,348,127.7,347z"></path> <path class="st21" d="M163.6,333c-1.4,1-2.9,1.2-4.5,1.2C160.3,333,161.9,332.8,163.6,333z"></path> <path class="st7" d="M101.7,334.6c-0.3-1.7,0.4-2.8,1.2-4C103.3,332.1,103,333.3,101.7,334.6z"></path> <path class="st21" d="M155.9,355.5c-1.4-0.9-3.1-1.3-3.9-3c1.4,0.8,2.9,1.6,4.3,2.4C156.1,355.1,156,355.3,155.9,355.5z"></path> <path class="st15" d="M186.4,335c-0.4-2,0.4-3,0.9-4.3C187.8,332.1,187.8,332.1,186.4,335z"></path> <path class="st52" d="M51.2,344.7c0.6-1.7,2.1-2.1,3.4-2.8C54,343.5,52.4,343.8,51.2,344.7z"></path> <path class="st20" d="M66.8,346.5c-2.2-1.3-2.7-2.9-3.8-5.2C65,343,65.6,344.6,66.8,346.5z"></path> <path class="st8" d="M235.1,355.2c1.7,0.3,3.2,0.9,4.3,2.3C237.7,357.2,236.4,356.3,235.1,355.2z"></path> <path class="st16" d="M233.2,362.3c1,1.3,2.1,2.7,3.1,4C234.4,365.6,233.6,364.2,233.2,362.3z"></path> <path class="st22" d="M118.9,373.1c-1.4-0.8-3-1.4-4-3.2C116.8,370.6,118,371.6,118.9,373.1z"></path> <path class="st32" d="M114.9,335.8c-0.4,1.6-1.9,2.4-3.3,3.9C112,337.4,113.8,336.8,114.9,335.8z"></path> <path class="st21" d="M195.4,331.4c-0.9,1.3-2.2,1.9-4.2,2.7C192.6,332.2,194.1,332,195.4,331.4z"></path> <path class="st8" d="M157.6,369.9c1.3,1,2.6,1.9,3.8,2.9C159.6,372.5,158.4,371.5,157.6,369.9z"></path> <path class="st17" d="M203.3,373.1c-1.3-0.9-3-1.4-4.1-3.4C201.2,370.7,202.4,371.6,203.3,373.1z"></path> <path class="st22" d="M213.4,374.5c-0.1-2.3,1.9-2.7,2.4-4.7C215.8,371.4,215.8,371.4,213.4,374.5z"></path> <path class="st22" d="M116.6,332c-2.6,2-1.8-1.8-3.2-1.8C114.9,330.1,115.8,331,116.6,332z"></path> <path class="st30" d="M149.5,333.3c1-1,2.4-1.5,3.9-1.5c-1.2,0.7-2.4,1.4-3.6,2.1C149.7,333.7,149.6,333.5,149.5,333.3z"></path> <path class="st23" d="M107.3,333.6c0.8-1.5,2.3-1.7,3.7-2.2C110.2,332.9,108.6,332.9,107.3,333.6z"></path> <path class="st20" d="M145.4,330.2c0.5,1.9-0.2,3-0.8,4.2c0,0-0.4,0-0.5-0.1C143.8,332.9,144.6,331.8,145.4,330.2z"></path> <path class="st19" d="M149.7,375.9c0.7-1.6,2.2-1.7,3.5-2.3C152.5,375.1,150.9,375.2,149.7,375.9z"></path> <path class="st32" d="M195.4,373.4c0.1,0.4,0.1,0.7,0.1,0.8c-1.1,0.6-2.3,1.2-3.5,1.8c0,0-0.3-0.4-0.3-0.4 C192.7,374.4,194.2,374.1,195.4,373.4z"></path> <path class="st17" d="M97.4,343.3c0,1.8-1.2,2.6-2.7,3.1C95.6,345.3,96.5,344.3,97.4,343.3z"></path> <path class="st6" d="M115.1,346.7c-1.5-0.6-2.9-1.5-3.4-2.8C112.8,344.7,113.9,345.7,115.1,346.7z"></path> <path class="st6" d="M153.8,343.9c1.4,0.7,2.9,1.5,3.4,2.7C156.1,345.8,155,344.8,153.8,343.9z"></path> <path d="M199.7,346.6c-1.1-1.1-2.3-2.1-3.4-3.2c-0.1,0.1-0.2,0.3-0.4,0.4c1.2,1,2.4,1.9,3.6,2.9 C199.6,346.6,199.7,346.6,199.7,346.6z"></path> <path class="st46" d="M241.4,360.6c1.8,0,3.1,0,4.5,0c0.4,0,0.7,0.2,0.6,0.6c0,0.2-0.4,0.5-0.5,0.4 C244.8,360.7,242.9,361.7,241.4,360.6z"></path> <path class="st17" d="M55.6,346.1c-0.4,2.1-1.8,3-2.5,4.4C53,348.8,53,348.8,55.6,346.1z"></path> <path class="st21" d="M140.1,346c-0.2,2.4-1.9,3.2-2.6,4.5C137.3,348.6,138.8,347.7,140.1,346z"></path> <path class="st19" d="M78.8,350.3c-1.6-0.7-2.2-2.2-3-3.6C77.4,347.5,78,348.9,78.8,350.3z"></path> <path class="st44" d="M121.9,350.5c-2.4,0.1-2.2-2.5-3.5-3.5C120.1,347.6,120.7,349.3,121.9,350.5 C121.8,350.6,121.9,350.5,121.9,350.5z"></path> <path class="st30" d="M182.2,346.5c-0.1,1.9-2.1,2.5-2.3,4C179.9,348.6,179.9,348.5,182.2,346.5z"></path> <path class="st8" d="M206.3,350.4c-2.5,0.2-2.3-2.5-3.7-3.4C204.6,347.4,205,349.4,206.3,350.4 C206.2,350.5,206.3,350.4,206.3,350.4z"></path> <path class="st23" d="M248.5,350.5c-1.9-0.5-2.5-2.2-3.3-3.7C246.6,347.8,247.8,348.9,248.5,350.5 C248.4,350.6,248.5,350.5,248.5,350.5z"></path> <path class="st17" d="M192.8,355.5c1.7,0,3,0.6,3.8,2.2C195.3,357,194,356.3,192.8,355.5z"></path> <path class="st18" d="M164.2,354.9c1.4,1.1,1.7,2.7,2.3,4.2C165,358.1,164.6,356.4,164.2,354.9z"></path> <path class="st48" d="M123.8,359.3c-0.7-1.4-1.4-2.9-2.1-4.3c1.6,1,2,2.5,2.7,3.9C124.2,359.1,124,359.2,123.8,359.3z"></path> <path class="st48" d="M66.4,354.9c1.2,0.7,2.5,1.4,3.7,2.2c-1.6,0-3-0.5-4.1-1.6C66.2,355.3,66.3,355.1,66.4,354.9z"></path> <path class="st48" d="M58.9,347.6c1.5,1.2,1.4,2.7,1.8,4C59.8,350.6,58.8,349.5,58.9,347.6z"></path> <path class="st22" d="M66.3,351c0.8-1.5,2-2.5,3.6-3C68.9,349.2,67.9,350.4,66.3,351z"></path> <path class="st44" d="M101.3,347.7c1.3,1.1,1.4,2.5,1.6,3.9C102,350.6,101,349.6,101.3,347.7z"></path> <path class="st46" d="M213.7,358.3c-1-1.6-0.4-3,0.4-4.4C214,355.3,213.9,356.8,213.7,358.3z"></path> <path class="st49" d="M145.8,351.9c-0.7-0.2-0.9-0.1-0.9-0.2c-0.7-1.2-1.3-2.3-1.3-3.7c0,0,0.4-0.1,0.5-0.1 C144.6,349,145.1,350.3,145.8,351.9z"></path> <path class="st6" d="M187.7,352.2c-1.4-1.5-1.7-2.9-1.8-4.4C186.8,349,187.5,350.1,187.7,352.2z"></path> <path class="st6" d="M95.8,351.6c0.9-1.4,1.9-2.6,3.5-3.2C98.3,349.7,97.3,351,95.8,351.6z"></path> <path class="st7" d="M80.5,352.5c-0.5,1.4-1.9,1.8-3.5,3.1C77.8,353.4,79.3,353.1,80.5,352.5z"></path> <path class="st20" d="M204.2,354.9c0.5-1.5,2-1.8,3.4-3.3C207.1,354.1,205.2,354,204.2,354.9z"></path> <path class="st7" d="M161.9,354.8c0.7-1.4,2-1.9,3.8-3C164.7,353.9,163.2,354.2,161.9,354.8z"></path> <path class="st35" d="M123.9,352.4c-1.7,1.1-2.8,1.9-4.2,2.8C120.8,353.3,121.4,352.9,123.9,352.4z"></path> <path class="st22" d="M154,339.2c0.5-1.6,1.9-2.5,3.1-3.4C156.7,337.4,155.2,338.2,154,339.2z"></path> <path class="st23" d="M196.2,339.2c0.5-1.6,1.9-2.5,3.1-3.4C199,337.5,197.4,338.2,196.2,339.2z"></path> <path class="st36" d="M135,370c1.1,0.9,2.3,1.9,3.5,2.9c-0.2,0.2-0.4,0.3-0.5,0.5C137,372.1,135.3,371.5,135,370z"></path> <path class="st45" d="M221.4,369c1.2,1,2.4,2,2.9,3.6C223,371.6,221.8,370.7,221.4,369z"></path> <path class="st6" d="M179.4,368.8c1,1.2,2,2.3,2.9,3.5C180.8,371.7,179.6,370.7,179.4,368.8z"></path> <path class="st21" d="M86.1,338.6c0.9-1.4,2.4-1.4,3.8-1.7C89.1,338.4,87.4,338,86.1,338.6z"></path> <path class="st49" d="M203.8,368.2c0.1-0.1,0.3-0.4,0.3-0.4c1.3,0.6,3,0,4.2,1C206.7,369.9,205.3,368.2,203.8,368.2z"></path> <path class="st57" d="M147.9,371.4c0.5-1.5,1.5-2.5,3.4-3.8C150.3,369.6,149.3,370.6,147.9,371.4z"></path> <path class="st6" d="M123.9,369.3c-1.5-0.2-3-0.4-4.5-0.6c0-0.2,0.1-0.5,0.1-0.7c1.5,0.2,3,0.4,4.5,0.6 C123.9,368.8,123.9,369,123.9,369.3z"></path> <path class="st25" d="M108.3,368.2c-0.8,1.1-1.2,2.6-2.8,3.5C105.9,369.8,106.8,368.8,108.3,368.2z"></path> <path class="st22" d="M198.1,369.4c0.6-1.7,2.3-2.1,3.6-3.1C201.1,368.1,199.3,368.4,198.1,369.4z"></path> <path class="st23" d="M73.7,364.7c-1.3,0.9-2.6,1.8-3.8,2.7C70.4,365.6,71.8,364.8,73.7,364.7z"></path> <path class="st44" d="M206,367.7c0.3-1.6,0.9-3.1,2.3-4.7C208.1,365.1,207.1,366.4,206,367.7z"></path> <path class="st23" d="M177.8,363.3c-0.5,1.2,0.4,2.8-0.7,4.6C176.6,365.8,177,364.5,177.8,363.3z"></path> <path class="st22" d="M165.9,363.4c-0.3,1.6-0.9,3.1-2.1,4.2C163.9,366,165,364.7,165.9,363.4z"></path> <path class="st30" d="M52.5,346.3c0.9-1,1.8-2,3-3.5c-0.2,2.3-1.7,2.8-2.5,3.9C52.9,346.6,52.7,346.4,52.5,346.3z"></path> <path class="st21" d="M124.1,363.6c-0.7,1.4-1.4,2.9-2.1,4.3C121.7,366,122.6,364.6,124.1,363.6z"></path> <path class="st16" d="M97.1,341.8c-0.7,1.6-2.4,1.9-3.5,3.2C94.1,343.3,94.4,343,97.1,341.8z"></path> <path class="st15" d="M136.2,344.6c1.1-1.8,1.1-1.8,3.5-3.1C138.6,343.1,137.5,343.9,136.2,344.6z"></path> <path class="st6" d="M232.1,342.7c0.2-0.6,0.6-1,1.1-0.3c0.8,1.1,1.6,2.3,2.2,3.6C233.7,345.5,233.6,343.3,232.1,342.7 C232,342.7,232.1,342.7,232.1,342.7z"></path> <path class="st28" d="M243.2,345.2c-1.4-0.2-2.3-1.2-3.4-2.4C241.8,342.8,242.2,344.5,243.2,345.2z"></path> <path class="st38" d="M73.7,345.4c-1.1-0.7-2.4-1.1-3.2-2.9C72.2,343.3,73.4,343.8,73.7,345.4z"></path> <path class="st44" d="M107.4,375.9c0.6-1.7,2.4-1.6,3.6-2.4C110.4,375.3,108.4,374.9,107.4,375.9z"></path> <path class="st22" d="M56.2,333.7c0.6-1.4,1.2-2.8,2.7-4C58.5,331.6,57.4,332.7,56.2,333.7z"></path> <path class="st32" d="M100.9,330.1c-0.2,1.6-1.4,2.6-2.4,3.7C98.9,332.2,99.7,331,100.9,330.1z"></path> <path d="M254.1,354c0,1.4,0,2.8,0,4.2c-0.1,0-0.3,0-0.4,0c0-1.4,0-2.9,0-4.3C253.8,353.9,253.9,354,254.1,354z"></path> <path class="st8" d="M155.7,342.7c1.3,0.5,2.2,1.4,3.2,2.9C157,345,156.4,343.9,155.7,342.7z"></path> <path class="st38" d="M63.2,372c0.5-2.1,1.5-3.1,2.8-3.8C65.4,369.4,64.8,370.6,63.2,372z"></path> <path class="st6" d="M72,360.8c1.5-0.8,3,0,4.5-0.2c0.4-0.1,0.7,0.1,0.7,0.6c0,0.5-0.5,0.7-0.7,0.5C75.1,360.6,73.3,361.8,72,360.8 C72,360.7,72,360.8,72,360.8z"></path> <path class="st44" d="M135.6,342.3c-0.4,0.6-0.6,0.2-0.7,0c-0.8-0.8-2.2-0.7-2.6-2c0-0.1,0.3-0.3,0.4-0.3 C133.8,340.7,135,341.1,135.6,342.3z"></path> <path class="st21" d="M174.8,340c1.1,0.6,2.4,1.1,3.5,3.1c-1.7-1.1-2.8-1.8-3.9-2.5C174.5,340.4,174.6,340.2,174.8,340z"></path> <path class="st22" d="M219.8,342.7c-1.1-0.7-2.2-1.4-3.3-2.1C218.2,340.5,219.3,341.1,219.8,342.7z"></path> <path class="st34" d="M75.2,333.2c-0.8,0.2-1-0.8-1.6-0.7c-0.5,0.1-1,0.8-1.3,0c-0.1-0.3,0.2-0.9,0.5-1.2c0.6-0.5,1,0.2,1.4,0.4 C74.8,332,75,332.6,75.2,333.2C75.1,333.2,75.2,333.2,75.2,333.2z"></path> <path class="st45" d="M224.6,343.8c-0.9,1-1.7,1.9-2.8,3.1c-0.1-2.1,1.8-2.4,2.2-3.7C224.2,343.5,224.4,343.6,224.6,343.8z"></path> <path class="st46" d="M182.1,343.5c-0.3,1.4-1.5,2.1-2.5,2.9C179.9,345,181,344.3,182.1,343.5z"></path> <path class="st48" d="M140.2,343.8c-0.9,0.9-1.7,1.9-2.6,2.8c0-1.7,1.3-2.3,2.1-3.3C139.8,343.5,140,343.7,140.2,343.8z"></path> <path class="st48" d="M74.9,375c-0.8-1-1.9,0.7-2.6-0.5c-0.1-0.2,0.4-1,0.7-1.1C74,373.3,74.4,374.1,74.9,375z"></path> <path class="st23" d="M246.8,354.7c0.6-1.3,1.9-1.8,3.5-2.8C249.4,354,247.9,354.1,246.8,354.7z"></path> <path class="st27" d="M227.4,358.6c0.8,0.9,1.5,1.5,1.1,2.6c-0.1,0.1-0.5,0.3-0.6,0.2C227.1,360.8,227,360,227.4,358.6z"></path> <path class="st22" d="M134.9,367.1c-0.1-1.3-0.3-2.7,0.8-3.8C135.2,364.6,135.9,366,134.9,367.1z"></path> </g> </svg>