<svg xmlns="http://www.w3.org/2000/svg" xmlns:xlink="http://www.w3.org/1999/xlink" id="Layer_1" x="0px" y="0px" viewBox="0 0 600 600" style="enable-background:new 0 0 600 600;" xml:space="preserve"> <style type="text/css"> .st0{fill:#010000;} .st1{fill:#FEFEFE;} .st2{fill:#FAFAFA;} .st3{fill:#FBFBFB;} .st4{fill:#F8F8F8;} .st5{fill:#F9F9F9;} .st6{fill:#EBEBEB;} .st7{fill:#131212;} .st8{fill:#0C0B0B;} .st9{fill:#0E0D0D;} .st10{fill:#0A0909;} .st11{fill:#201F1F;} .st12{fill:#212020;} .st13{fill:#1C1B1B;} .st14{fill:#2B2B2B;} .st15{fill:#100F0F;} .st16{fill:#141313;} .st17{fill:#111111;} .st18{fill:#0F0F0F;} .st19{fill:#191818;} .st20{fill:#111010;} .st21{fill:#080707;} .st22{fill:#242323;} .st23{fill:#252424;} .st24{fill:#030202;} .st25{fill:#1A1A1A;} .st26{fill:#121111;} .st27{fill:#0D0C0C;} .st28{fill:#151414;} .st29{fill:#090808;} .st30{fill:#0F0E0E;} .st31{fill:#131313;} .st32{fill:#0A0A0A;} .st33{fill:#070606;} .st34{fill:#1F1E1E;} .st35{fill:#0B0A0A;} .st36{fill:#1F1F1F;} .st37{fill:#2E2D2D;} .st38{fill:#161515;} .st39{fill:#171616;} .st40{fill:#1B1A1A;} .st41{fill:#181717;} .st42{fill:#282828;} .st43{fill:#232222;} .st44{fill:#1C1C1C;} .st45{fill:#171717;} .st46{fill:#232323;} .st47{fill:#2A2929;} .st48{fill:#1A1919;} .st49{fill:#2C2B2B;} .st50{fill:#262525;} .st51{fill:#0D0D0D;} .st52{fill:#191919;} .st53{fill:#060505;} .st54{fill:#161616;} .st55{fill:#3D3C3C;} .st56{fill:#323131;} .st57{fill:#141414;} .st58{fill:#070707;} .st59{fill:#040303;} .st60{fill:#0E0E0E;} .st61{fill:#050404;} .st62{fill:#222121;} .st63{fill:#1E1D1D;} .st64{fill:#1D1C1C;} .st65{fill:#020101;} .st66{fill:#151515;} .st67{fill:#383838;} .st68{fill:#030303;} </style> <g> <path class="st0" d="M373.1,197.2c73,0,145.9,0,218.9,0c3.6,0,3.6,0,3.6,3.7c0,62.4,0,124.8,0,187.2c0,3.6,0,3.6-3.7,3.6 c-45.4,0-90.7,0-136.1-0.1c-2.3,0-3.3,0.4-3,2.9c0.3,2.3-0.1,4.6,0.1,6.9c0.2,2.4-0.9,3.2-3.1,3c-0.4,0-0.7,0-1.1,0 c-145.7,0-291.5,0-437.2,0c-3.6,0-3.6,0-3.6-3.6c0-62.4,0-124.8,0-187.2c0-3.6,0-3.6,3.6-3.6c45.9,0,91.8,0,137.8,0.1 c1.3,0,1.4-0.3,1.4-1.4c-0.1-2.7,0.1-5.4-0.1-8.1c-0.2-2.6,0.6-3.5,3.4-3.5C227,197.2,300,197.2,373.1,197.2z"></path> <path class="st1" d="M9.4,402.4c0-0.9,0-1.8,0-2.7c0-61.5,0-123-0.1-184.4c0-2.5,0.6-3.1,3.1-3.1c145,0.1,290,0.1,435,0 c2.5,0,3.1,0.6,3.1,3.1c-0.1,61.5-0.1,123-0.1,184.4c0,0.9,0,1.8,0,2.7C303.5,402.4,156.7,402.4,9.4,402.4z"></path> <path class="st1" d="M587.8,297.7c-0.2,7.6,0.6,14.7,0.6,21.9c0,8.4,0.4,16.9,1.1,25.3c0.6,7.2,0.9,14.4,1.6,21.6 c0.6,6.4,1.4,12.7,2.1,19c0.1,0.9,0,1.9,0.1,2.8c0.1,1-0.2,1.4-1.2,1.2c-0.4-0.1-0.9,0-1.4,0c-45.5,0-91.1,0-136.6,0.1 c-2.4,0-1.3-1.5-1.3-2.2c-0.1-17.8,0-35.5,0-53.3c0-9.2,0.1-18.3,0-27.5c0-1.9,0.2-2.6,2.5-2.6c40.4,0.1,80.9,0,121.3,0.1 C581.4,304,584.7,301.7,587.8,297.7z"></path> <path class="st1" d="M373.1,199.4c72.5,0,145,0,217.5,0c3.2,0,3,0,2.5,3.2c-1.1,6.7-2,13.5-3.1,20.2c-1.3,8.2-2.5,16.5-3.9,24.7 c-0.8,4.5-5.1,8-9.7,8c-40.6,0-81.1,0-121.7,0.1c-1.9,0-2-0.8-2-2.3c0-13.2,0-26.5,0-39.7c0-3.4-0.2-3.6-3.6-3.6 c-97.4,0-194.8,0-292.2,0.1c-2.4,0-2.9-0.9-3.1-2.9c-0.1-2.1-0.5-4.1-1-6.2c-0.3-1.3,0.1-1.7,1.3-1.6c0.6,0,1.1,0,1.7,0 C228.3,199.4,300.7,199.4,373.1,199.4z"></path> <path class="st1" d="M523.3,263.3c22.4,0,44.8,0,67.2,0c2.5,0,3,0.3,2.3,3c-2.3,9.3-4.2,18.7-6.2,28c-1,4.7-6.3,8-10.6,8 c-40.2-0.1-80.4-0.1-120.5,0c-2.3,0-2.9-0.5-2.8-2.8c0.1-11.2,0.1-22.4,0-33.6c0-2.1,0.5-2.6,2.6-2.5 C478,263.4,500.7,263.3,523.3,263.3z"></path> <path class="st1" d="M566.8,257.5c3.7,0,7.4,0.5,10.9-0.1c7-1.3,10.2-5.5,11.2-12.8c1.4-9.5,2.9-19,4.3-28.6 c0.2-1.2,0.2-2.3,0.6-3.5c0,0.7,0.1,1.5,0.1,2.2c0,14.8,0,29.6,0.1,44.4c0,2-0.4,2.6-2.5,2.6c-6.9-0.2-13.9-0.1-20.8-0.1 C566.5,261.7,566.5,261.7,566.8,257.5z"></path> <path class="st1" d="M593.7,370.8c-0.5-9.9-1.7-19.6-2.2-29.4c-0.8-14.7-1.3-29.4-1.6-44.1c-0.1-6.6,1-12.9,2.5-19.2 c0.4-1.9,1-3.8,1.4-5.8C593.7,305.1,593.7,337.9,593.7,370.8z"></path> <path class="st2" d="M501.9,259.4c-3.4,4.4-6.6,2.4-10-0.2c0.6,0.7,1.2,1.4,1.8,2.1c-3.8,0.7-4.5,0.4-5.9-2.5c-0.2-0.3-1-0.8,0-1.2 c0.5-0.2,1.1-0.4,1.4,0.2c0.5,0.8,0.9,1.7,1.7,2.3c0.7-1.3-1.1-1.5-0.7-2.9c2.4,2.4,5.4-1.1,8.1,0.9c0.1,0.1,1.3-0.3,2.2,0.7 c0.8,0.8,0-1.3,1.3-1.3c1.8,0,3.5,0.8,5.3,0.1c0.9-0.4,0.6,0.4,0.3,0.9c-0.3,0.6-0.6,1.3-1.1,2.4c1.6-0.7,1.5-2,2.2-2.7 c0.3-0.3,0.4-0.9,1-0.5c0.5,0.4,0.3,0.7,0.1,1.2c-0.9,2.3-5.6,4-7.6,2.8C500.9,260.9,502.8,260.2,501.9,259.4z"></path> <path class="st2" d="M488.4,261.7c-2.5,0-4.8,0.2-7.1-0.1c-1.6-0.1-3.1,0.6-4.8-0.6c-0.6-0.5-2.8,1.5-4.3-0.3 c-1.2,1.4-2.3,1.4-3.2-0.4c-0.1-0.1-0.6,1.9-1.9,1.3c-0.4-0.1-0.3-0.1-0.2-0.4c1.3-3.2,3.8-3.8,7-3.6c3.1,0.1,6.2,0.7,9.3,0 C486.1,256.9,487.3,259.2,488.4,261.7z"></path> <path class="st3" d="M530.5,261.7c-2.7,0-5.3,0.3-7.8-0.1c-2.8-0.4-5.5,0.4-8.4-0.6c-0.6-0.2-2.2,1.2-3.1-0.6 c-0.1-0.2-0.5,1.9-1.8,1.3c-0.4-0.1-0.5-0.3-0.3-0.4c1.7-0.6,0.5-4.5,4.2-3.3c1.3,0.4,3.6,0.2,5.2,0c1.7-0.2,3.1,0.7,4.7,0.2 C527.7,256.8,528.3,257.1,530.5,261.7z"></path> <path class="st3" d="M550,260.5c-0.7,1.2-5.1,1.8-5.8,0.7c-0.4-0.6-1.2-1.2-1.2-1.1c0.3,2.6-1.7,1.5-2.7,1.5 c-2.9,0.1-2.9,0-5.6-2.8c-0.6,1.5,1.3,1.6,1.2,2.8c-2.2-0.3-4.9,0.6-5.8-2.5c-0.1-0.4-1.2-0.9-0.2-1.5c0.7-0.4,1.3-0.2,1.9,0.4 c0.6,0.7,0.7,1.9,1.8,2.1c0.9-1-2.3-2.2,0.1-2.6c2.7-0.4,5.7-0.6,8.1,0.3c1.4,0.5,2-0.2,2.9-0.4c1.5-0.3,2.8,0.5,4.4,0.2 c1.7-0.4,0.5,1.3,0.3,1.8C549,260.4,548.6,261,550,260.5L550,260.5z"></path> <path class="st4" d="M464.7,260.6c0.8-0.1,0.7-0.9,1-1.4c0.4-0.6,0.9-1.2,1.3-1.7c0,0,0.6,0.2,0.6,0.4c0.2,0.9-0.5,1.6-1,2.2 c-1.7,2.3-4.3,1.7-6.6,1.5c-1.6-0.1,0.4-1.2-0.2-1.9c-0.4-0.4-1-0.2-1.1,0.2c-0.8,3.2-3.4,1.3-5.2,1.7c-0.8,0.2-1-0.4-0.8-1 c0.3-1.4,1,1,1.2,0.2c0.5-0.8,0.1-1-0.1-1.1c-0.8-0.5-1.4-1.1-1-2c0.4-0.9,1.5,0.3,2.1-0.3c0.4,1.7,3-1.2,3.1,1.4 c0.2,0,0.7,0,0.7-0.1c0.8-2.3,2.4-1,3.8-0.8c0.1,0,0.3,0.3,0.4,0.3C465,258.5,465,258.5,464.7,260.6z"></path> <path class="st5" d="M560.9,257.5c-0.3,0.5-0.6,0.9-1.3,2.2c3.5-3.1,5.2-2.8,4.8,1.2c-0.2,1.9-2.1-0.1-2.9,1.2 c-0.2-1.6,1.5-1.7,1.3-3.2c-1.4,0.7-1.9,2.6-3.5,2.7c-1.4,0.1-2.6-0.7-4.2-0.1c-0.7,0.3-2.2-0.6-3.4,0.4c2.8-3.8,3-3.7,3.5-3.8 C556.9,257.6,558.8,257.6,560.9,257.5z"></path> <path class="st6" d="M550.1,260.5c0-1.6,0.8-2.6,2.9-3.4C551.9,258.6,552.2,260.5,550.1,260.5C550,260.5,550.1,260.5,550.1,260.5z"></path> <path class="st0" d="M323.7,322.2c31.8,0,63.5,0.1,95.3-0.1c5,0,10.3,3.6,10,10.1c-0.3,6.8-0.1,13.7-0.1,20.6 c0,5.9-3.6,9.5-9.6,9.5c-34.3,0-68.5,0-102.8,0c-29.5,0-59.1,0-88.6,0c-5.9,0-9.5-3.6-9.5-9.4c0-7.2,0-14.4,0-21.7 c0-5.2,3.9-8.9,9.2-8.9C259.6,322.2,291.7,322.2,323.7,322.2z"></path> <path class="st7" d="M485.4,259c-1.3,0.6-2.7,1.1-4,1.7C482.4,259.2,483.8,258.4,485.4,259z"></path> <path class="st8" d="M523.5,260.5c0.9-1.5,2.5-1.8,4-2.1C526.6,260,524.8,259.8,523.5,260.5z"></path> <path class="st3" d="M423.5,344.7c-0.3,0.9-0.6,1.9,1,1.1c1.1-0.5,1.6-1.6,2-2.8c-0.4,4.8,1.1,9.6-1,14.2c0-1.1,0-2.1,0-3.3 c-1,0.8-1,1.8-1,2.7c0,2.5-3.7,4.8-5.9,3.6c-1.4-0.8-1-2.7-1.6-4.2c-1,1.6-1,2.3-0.1,4.2c-1.7,0-3.5-0.1-5.2,0 c-0.6,0-0.9,0.2-1.1-0.6c-0.3-1.6-0.8-0.9-1.1,0.1c-0.1,0.5-0.5,1-0.8,0.6c-1.7-2.1-4.3,1.9-5.8-1c-1.1,1.9-2.9-0.2-4.2,0.8 c-0.1,0.1-0.3,0.1-0.5,0.2c-0.9,0.6-0.8-2.7-2.2-0.5c-0.7,1.1-2.1-0.3-3.1,1.3c0.2-2.2,2.3-1.2,2.5-2.8c-2.5,0-4.3,2.6-7,2 c-0.3-0.7,0.3-1.1,0.7-1.2c0.4-0.1,0.9,0.8,1.3,0.1c0.2-0.3,0.1-0.7-0.5-0.8c-0.5,0-1-0.7-1.7,0.1c-0.5,0.6-0.6,1.6-1.6,1.9 c-0.4-1.2,1-1.9,0.9-2.9c-0.2-0.1-0.5-0.2-0.5-0.2c-2.4,3-2.4,3-6.6,2.8c-0.2,0-0.4-0.3-0.5-0.2c-3.6,1.4-5-0.4-5.2-4 c-0.9,1.4-1,2.1-0.5,3.3c0.1,0.2,0.1,0.6,0,0.8c-0.3,0.6-5.6,0.5-6-0.2c-0.1-0.2-0.1-0.5-0.2-0.8c-0.9,1.5-2.1,1.2-3.4,0.5 c-0.3,1.3-1.4,0.8-2.2,0.8c-2.3,0.1-5.3,0.6-6.7-0.1c-2.3-1.1-3.8,1.3-5.5,0.2c0.6-1.1,2.4-0.5,3-2c-1.7,0-3.1,0.7-4.3,1.5 c-0.9,0.6-1.9,0.7-2.5,0.4c-1-0.5,0.9-1.3,0-2.1c-0.7,0.8-1.4,1.6-2.3,2.6c-0.7-1.4,1.6-2,0.7-3.3c-1.1,0.2-1.1,1.3-1.4,2 c-0.4,1-1.1,1.2-1.9,0.9c-1.8-0.5-3.5-0.2-5.3,0.1c-2,0.3-3.5-0.3-3.4-2.7c0-0.6-0.1-1.1-0.9-1.5c0.1,1.1-1.7,2.1,0.3,3.2 c0.3,0.1,0.2,0.9-0.7,1c-1.4,0.1-3.3-0.2-5.6-1.3c-0.5-0.3-0.7,0.2-0.9,0.6c-0.5,0.8-1.3,1.7-1.6-0.2c-0.1-0.7-0.7-0.7-0.9-0.2 c-1.1,2.3-2.6,0.9-4,0.7c-1.2-0.2-2.3,0.5-3.8,0.1c-1.9-0.5-4.2,0.4-6.4,0.6c0.5-1.4,2.5-0.6,2.9-2.1c-1.7-0.2-3.1,0.6-4.3,1.4 c-0.9,0.6-1.8,0.7-2.5,0.4c-1-0.5,0.9-1.3,0-2.1c-0.7,0.8-1.5,1.6-2.3,2.5c-0.6-1.4,1.7-1.9,0.7-3.3c-1,0.3-1.1,1.3-1.5,2 c-0.4,0.8-0.8,1.2-1.7,0.9c-2-0.6-4-0.3-6,0c-1.8,0.3-2.6-0.5-2.9-2.1c-0.1-0.7,0.2-1.5-1.4-2.3c1,1.4-1.4,2.4,0.8,3.4 c0.2,0.1,0.1,1.1-0.4,1c-1.9-0.5-4.3,1.2-5.8-1.1c-1.2,0.9-2.4,1-3.6,0c-0.9,2.4-2.6,0.9-4,0.8c-1.3-0.1-2.5,0.6-4,0 c-1.5-0.5-3.5,0.1-5.4,0.3c0.3-1.3,2-0.3,1.9-1.9c-1.4-0.1-2.8,0.8-3.9,1.4c-1,0.6-2,0.9-2.7,0.6c-0.9-0.4,0.9-1.3,0.1-2.1 c-0.7,0.8-1.5,1.6-2.3,2.5c-0.7-1.4,1.6-1.9,0.6-3.3c-1.5,0.6-1,3.7-3.4,2.9c-1.2-0.4-2.3-0.3-3.5-0.1c-3.2,0.6-5.7,0.3-5.2-4.7 c-1.2,2.1-1.2,2.1-0.6,3.7c0.3,0.8,0,1.4-0.9,1.1c-1.8-0.6-4.2,1.8-5.4-1.2c0,0-0.6,0-0.7,0.1c-0.6,1.5-1.2,2.5-1.9,0 c-0.1-0.5-0.7-0.3-0.9,0c-1.2,2.2-2.6,1-4.2,0.5c-1.2-0.4-2.5,1.5-3.8,0c-0.9,1.4-1.5,0.5-2.1-0.3c-0.9,0.7-1.8,1.1-3,0.5 c0.5-0.4,0.9-0.8,1.5-1.2c-0.3-0.1-0.5-0.3-0.6-0.3c-2.5,0.9-3.9,0.4-4.8-2.1c-1.1-3.4-1.1-7-0.9-10.6c0.1-1.7,2.3-1.6,3.1-2.8 c0.2-0.2,0.7-0.2,0.6-1c-1.6-0.1-2.1,1.8-3.9,2.1c0.4-1.2-0.9-2.8,1.6-3.4c-1.9-1.1-1.9-2.9-1.4-4.9c0.7-0.4,1.2,0.9,2,0.2 c0.5-1.9,0.7-2.3,1.2-2.3c-0.6-1.6-3.8-0.2-3.3-2.6c0.3-1.3,0.5-2.8,1.6-3.8c0.3,0.6,0.7,1.1,1.1,1.5c-0.5-0.4-0.8-1-1.2-1.4 c1-2,2.5-2.5,4.4-0.7c0-1.3-0.8-1.3-1.3-2c2.2-0.2,4.3-0.5,6.4-0.7c-0.1,1.6-1.7,1-2.1,1.6c1.2,0.1,2.2-1.5,3.8-1.3 c3.3-0.1,6.6-0.1,10-0.3c1,0,0.4,0.5,0.5,0.8c-0.2,0.5-0.8,0.7-1.1,1.1c0.4-0.4,0.8-0.7,1.4-0.8c1.6-1.3,3.3-1.5,4.9,0 c0.1,0.1,0.2,0.2,0.4,0.3c0.8-1.8,2.2-1,3.5-1c0.1,0,0.5-0.6,0.7-0.4c0.3,0.3,0.5,1.1,0.3,1.2c-2.1,1.8,0.5,2.3,0.6,3.8 c1.1-1.8-0.1-3.5,0.6-5.2c1.5,1.3,0.8,3.2,2.2,4.6c0.6-1.6-0.5-2.9-0.5-4.3c1.6-0.1,3.4-0.8,3.7,2.4c1.1-3.1,2.8-2.6,4.6-1.9 c1.2,0.5,2.3,0.9,3.5,1.4c0.2,0.1,0.5,0,0.8-0.1c-0.5-1.4-2.4-0.7-3.1-2.3c2.8,1.3,5.4-0.4,8,0.7c-0.4,0.8-1.3,0.8-2.2,1.1 c0.9-0.3,1.8-0.2,2.1-1.2c3.8-0.5,7.7,0.4,11.5,0.1c0.2,0.8-0.4,1.1-0.9,1.4c0.5-0.3,0.9-0.6,1.4-0.6c1.7-1.1,3.4-2.1,5.1,0.1 c0.1,0.1,0.3,0.1,0.4,0.1c0.4-2.7,2.7,0.3,3.8-1.2c0.4-0.5,0.7,0.8,0.6,1.3c-0.3,1.7-0.4,1.7,1,3.3c0.7-1.5-0.5-3.2,0.3-4.9 c1.4,1.3,0.8,3.3,2.2,4.6c0.5-1.6-0.5-2.9-0.6-4.3c1.6-0.1,3.5-0.7,3.7,2.3c0.8-1.9,2.9-2.4,4.6-1.7c1.4,0.6,2.7,1.5,4.4,1.4 c-0.6-1.4-2.4-0.9-3.3-2.3c2.5,0.8,4.7,0.4,6.9,0.2c0.5,0,1.1-0.2,1.3,0.5c-0.9,0.8-2.1,0.7-3.1,1.1c1-0.4,2.2-0.2,3-1.2 c2.1-0.1,4.4-0.7,6.3-0.1c1.6,0.5,2.9-0.7,4.2-0.1c1.7,0.8,3.5,0.3,5,0c1.8-0.4,0.9,1.1,1.8,1.4c0.5-3.1,3,0.1,4.1-1.5 c0.1,0.4,0.4,1.1,0.3,1.3c-2,1.8,0.6,2.2,0.8,3.8c0.8-2,0-3.5,0.2-5.4c1.8,1.2,1.1,3.4,2.6,4.7c0-1.8-0.3-3.1-1-4.7 c1.7,0.6,4-1.2,3.6,2.8c1.6-3,3.2-2.7,5.2-1.9c1.3,0.5,2.5,1.5,4.1,1.2c-0.5-1.6-2.4-0.7-3.2-2.4c2.8,1.4,5.6-0.6,8.2,0.8 c-0.8,0.8-2.1,0.7-2.8,1.1c0.8-0.3,2-0.1,2.8-1.1c2.2-0.1,4.7-0.9,6.6-0.2c2.1,0.8,3.6-1.1,5.5,0c-1,0.7-2,1.5-3,2.2 c1.4,0.8,2.5-0.5,2.9-1.1c1.3-1.9,3.2-0.8,4.7-1.2c1-0.2,0.1,0.5,0.1,0.8c0.1,0.7,0.8,0.8,0.9,0.4c0.5-2.5,2.7,0,3.7-1.3 c0.2-0.2,0.5,0.8,0.4,1c-1.3,1.8,0.4,2.6,1.2,3.8c0.4-1.6-0.5-3.2,0.3-4.9c1.5,1.1,0.7,3.4,2.1,4.4c1.4-1.3-1.9-3.2,0.7-4.1 c1.7-0.7,2.3,0.7,2.9,2.9c0.1-2.6,2.3-3.6,3.9-2.6c1.3,0.8,2.6,1.2,4,1.7c0.1,0.1,0.3-0.1,0.5-0.2c-0.3-1.4-2.1-0.6-2.6-2 c2.6,0.7,5.1,0,7.7-0.1c0,1.5-1.3,1.1-1.9,1.4c1,0,1.9-0.5,2.6-1.4c1.4,1,2.9-0.3,4.3,0.4c0.8,0.4,2.4-1.8,2.5,0.8 c0,0.4,0.5,0,0.6-0.1c1.1-1.4,2.7-0.5,4-0.9c-0.9,1.2-2.4,1.6-3.3,3.1c1.6-0.1,2.8-1.1,3.4-2c1.3-1.8,3-0.6,4.5-1.1 c0.9-0.3,0.1,0.5,0.1,0.8c0.1,0.6,0.8,0.8,0.9,0.5c0.6-2.8,2.4-0.1,3.5-0.9c0.5-0.3,0.8,0.6,0.6,0.9c-1.8,2,1.1,2.2,1.3,3.5 c0.1-1.2-0.4-2.4,0-3.6c4.5,3.2,4.3,6.8-0.9,12.4c1.7-0.8,2.8-1.4,4-2c0.9,2.2-1.8,1.6-2.1,3.1c0.8-0.3,1.5-0.5,2.1-0.6 c0.8,0.9-1,0.6-0.4,1.4c1.9,2.8-1.3,3.7-2.1,5.5C423.7,345,423.6,344.9,423.5,344.7c-0.8-0.5,0-1-0.1-1.3 C423.4,343.6,422.4,344.1,423.5,344.7z"></path> <path class="st9" d="M232.8,324.3c-1.7,0.8-3.3,2-5.6,1.8c0.8-1.9,3.3-0.4,3.9-2.2C231.7,323.8,232.3,323.7,232.8,324.3z"></path> <path class="st7" d="M401.2,323.9c-0.8,2.6-3,1.8-5,2.3c1.1-2,3.5-0.6,4.4-2.3C400.8,323.9,401,323.9,401.2,323.9z"></path> <path class="st10" d="M285.6,325.2c-1,0.7-2,1.5-3.3,2.5c0.3-2.1,2.4-1.9,2.8-3.3C285.3,324.7,285.5,325,285.6,325.2z"></path> <path class="st11" d="M359.5,329.3c0-2.2-1.2-1.1-2.2-1.1c-1-0.1-2.4,1.6-2.7,0.2c-0.3-0.9,1.7-0.8,2.6-1.1c1.6-0.5,3.1-1.3,5-1.3 C361.8,327.4,360.2,328,359.5,329.3z"></path> <path class="st12" d="M275.1,329.4c-0.1-1-0.1-2.1-1.6-1.4c-0.8,0.4-1.7,0.5-2.6,0.8c-0.5,0.2-0.9,0.2-1-0.4 c-0.1-0.5,0.3-0.6,0.7-0.6c2.4-0.2,4.5-1.8,7.3-1.8C277,327.2,276.1,328.2,275.1,329.4z"></path> <path class="st13" d="M320.3,326c-1.1,1.2-1.9,2.1-2.9,3.2c-0.2-2.1-1.3-1.1-2.4-1c-0.9,0.1-2.4,1.3-2.6,0.3 c-0.3-1.5,1.6-1,2.5-1.2C316.5,326.8,318,325.7,320.3,326z"></path> <path class="st14" d="M227.1,328.7c1.9-2,4.8-1.1,6.3-3c0.4,0.6,1,0.5,1.6,0.5c-0.2,0.4-0.3,0.8-0.6,1.1c-0.6,0.7-1.2,1.3-1.9,2 c-1.1-1.1,0.7-1.3,0.4-2.1C231.3,327.9,229.5,328.8,227.1,328.7z"></path> <path class="st15" d="M340.1,341.5c-0.5,1.1-1.1,2.3-1.6,3.5c2.5,0.4,1.6-2.8,3.6-2.9c-0.4,1.7-0.9,3.3-2.8,3.9 c-0.8,0.3-1.8-0.7-1.8-0.7C337.6,343.7,338.7,342.5,340.1,341.5z"></path> <path class="st7" d="M240.6,329.8c2.5,1.3,3.9,4.7,7.7,2.9c-1.2,1.4-2.8,1.2-4.1,1.7c-0.6,0.2-1.1,0-0.4-0.8c0.4-0.5-0.4-1.1-0.5-1 C240.7,333.2,241.8,330.5,240.6,329.8z"></path> <path class="st16" d="M282.8,329.9c2.6,1.2,4,4.6,7.8,2.9c-1.2,1.4-2.8,1.2-4.1,1.6c-0.6,0.2-1.1,0-0.5-0.9c0.3-0.5-0.4-1.1-0.5-1 C282.7,333.4,284.5,330,282.8,329.9z"></path> <path class="st17" d="M332.8,332.7c-1.2,1.4-2.7,1.3-4.1,1.7c-0.5,0.1-1.2,0.1-0.5-0.8c0.4-0.5-0.3-1.1-0.5-1 c-2.4,0.6-1.7-2-2.8-2.7C327.6,330.9,329,334.8,332.8,332.7z"></path> <path class="st8" d="M380.6,337c3.7-1.1,3.7-5.4,6.6-7.2C385.3,332.4,385.1,336.6,380.6,337z"></path> <path class="st15" d="M344.9,329.7c-2.2,2.4-2.2,6.7-6.5,7.3C341.5,335.4,342,331.5,344.9,329.7z"></path> <path class="st9" d="M260.5,329.7c-2.2,2.4-2.3,6.5-6.4,7.5c0.2-1.9,2.6-1.7,3.1-3.6C257.5,332.2,258.7,330.5,260.5,329.7z"></path> <path class="st15" d="M301,331.7c-0.6,2.6-1.7,4.9-4.9,5.3C298.7,336,299.1,333.2,301,331.7z"></path> <path class="st18" d="M387.2,332.4c2.1-1,4.2,1.7,6.2-1.2C392.4,334.2,390.5,334.4,387.2,332.4z"></path> <path class="st19" d="M373.8,337.7c2.5,2.5,1.2,4.2,0.1,6.2C372.8,341.9,374.3,340.1,373.8,337.7z"></path> <path class="st20" d="M231,340c0.4,1.3,0.4,1.1-0.9,1.4c-1.2,0.2-2.3,1-3.5,1.4c-0.4,0.1-1,0.1-1.1-0.5c-0.1-0.8,0.5-0.4,0.9-0.6 C228,341.3,229.6,340.7,231,340L231,340z"></path> <path class="st21" d="M273.1,340.1c0.5,1.2,0.5,1-0.6,1.2c-1,0.2-1.9,1.1-2.9,1.4c-0.6,0.2-1.8,0.5-1.7-0.5c0-1.2,0.9,0,1.3-0.2 C270.5,341.4,271.8,340.7,273.1,340.1z"></path> <path class="st22" d="M224.5,356c1.1-1.8,3-2,4.7-3.4c-0.1,1.2-1.1,1.8-0.3,2.6c0.1,0.1-0.8,1.1-0.9,0.3c-0.3-1.5-0.7-0.6-1.2-0.3 C226.1,355.6,225.6,356.2,224.5,356z"></path> <path class="st15" d="M367.9,353.3c-2.3-0.4-2.7-1.2-1.2-2.6c0.7-0.6,1.5-1.1,1.6-2.2c0-0.6,0.3-0.9,0.8-0.6c0.5,0.3,0.3,0.8,0,1.2 c-0.4,0.6-0.8,1.3-1.4,1.7C366.8,351.6,366.7,352.3,367.9,353.3z"></path> <path class="st23" d="M415,359.5c-2.2-2-1.2-4.7-3-6c0,0,0.2-0.5,0.4-0.6c0.5-0.2,0.4,0.3,0.6,0.5C414.6,354.9,414.3,357,415,359.5 z"></path> <path class="st7" d="M234.9,336c0.1,1.4-1.5,2-1.5,3.4c-0.9-1.6-0.6-3.2-0.6-5C233.4,335.4,233.6,336.6,234.9,336L234.9,336z"></path> <path class="st7" d="M225.2,334.6c2,1.6,1.2,4.1,2,6.1c0,0-0.4,0.3-0.6,0.3c-0.5-0.1-0.4-0.5-0.4-0.8 C225.9,338.3,225.5,336.5,225.2,334.6z"></path> <path class="st24" d="M316.4,341.9c-0.3,0.1-0.6,0.4-0.7,0.3c-1.7-1.5-2.8,0.5-4.2,0.7c-0.5,0.1-1.4,0.2-1.3-0.5 c0.1-1.2,0.8-0.2,1.2-0.3c1.1-0.3,2.1-0.9,3.1-1.5C315.9,339.7,315.6,341.1,316.4,341.9z"></path> <path class="st24" d="M358.4,341.6c-0.2,0.2-0.3,0.4-0.5,0.5c-1.7-1.6-2.8,0.6-4.2,0.6c-0.5,0-1.4,0.2-1.4-0.5 c0-1.2,0.8-0.2,1.2-0.3c1.1-0.3,2.2-0.9,3.1-1.5C358.1,339.6,357.8,341.2,358.4,341.6z"></path> <path class="st25" d="M266.5,333.8c-2.5-0.3-4.4-0.2-6.7-1.5C262.4,332,264.2,332.2,266.5,333.8z"></path> <path class="st16" d="M326.7,347.7c0.2,2.1-2.5,2.9-1.8,5.3c0.1,0.3-0.5,0.5-0.8,0.2c-0.4-0.4-1.1-0.8-0.5-1.6 C324.7,350.3,325.7,349,326.7,347.7z"></path> <path class="st7" d="M242.3,347.7c0.1,2.2-2.6,3.1-1.9,5.5c0,0.2-0.6,0.3-0.9,0c-0.4-0.5-0.9-0.9-0.3-1.6 C240.3,350.3,241.3,349,242.3,347.7z"></path> <path class="st26" d="M284.5,347.7c0.2,2.2-2.6,2.9-1.8,5.3c0.1,0.3-0.5,0.5-0.8,0.3c-0.5-0.4-1.1-0.8-0.6-1.5 C282.4,350.3,283.5,349,284.5,347.7z"></path> <path class="st16" d="M414.7,327.3c1.2,0.2,2.4,0.4,3.6,0.8c0.4,0.1,1.2,0.1,1.1,0.9c-0.1,0.3-0.3,0.7-0.6,0.9 c-0.7,0.4-0.7-0.4-1-0.6c-1-0.6-2.2-0.9-3.4-1.3C414.5,327.7,414.6,327.5,414.7,327.3z"></path> <path class="st26" d="M400.5,340c-1,2-3.1,2.3-4.9,2.8c-0.3,0.1-1,0.2-1-0.5c0-0.6,0.5-0.5,1-0.5 C397.4,341.9,398.7,340.1,400.5,340L400.5,340z"></path> <path class="st9" d="M408.7,332.9c0.2,3.2-2.8,1.8-3.7,3.2c-0.2-0.1-0.5-0.3-0.6-0.4c-0.1-0.4,0.2-0.5,0.6-0.7 C406.3,334.3,407.4,333.6,408.7,332.9z"></path> <path class="st27" d="M392.6,354.3c0.7-2,3.1-1.7,2.7-3.6c0.9,0,1.3,1.3,2.5,1C396.2,352.4,394.6,353.2,392.6,354.3z"></path> <path class="st19" d="M328.8,336.3c0.8-1.2,2.4-0.8,3.5-1.3c0.2-0.1,1.1-0.2,0.7,0.6c-0.3,0.6,0.9,1.1,0.1,1.6 c-0.5,0.3-0.6-0.1-0.9-0.5C331.1,335.3,329.8,337.7,328.8,336.3z"></path> <path class="st28" d="M313.7,353c0.6,0.9-0.5,1.1-0.5,2c0,1.9-0.9-0.1-1.4-0.1c-0.9,0-1.4,2.1-2.2,0.6c-0.4-0.7,1.6-1,2.4-1.7 C312.5,353.4,313,352.9,313.7,353z"></path> <path class="st28" d="M286.5,336.4c0.9-1.2,2.4-0.9,3.6-1.4c0.3-0.1,1.1-0.2,0.7,0.6c-0.3,0.6,0.9,1.1,0,1.6 c-0.6,0.3-0.6-0.3-0.9-0.6C288.9,335.5,287.6,337.5,286.5,336.4z"></path> <path class="st29" d="M245.1,327.4c2,0.1,3.4,0.4,4.7,0.9c0.7,0.2,0.5,0.5,0.3,0.9c-0.2,0.4-0.6,1.1-0.8,0.8 C248.5,328.3,246.5,328.9,245.1,327.4z"></path> <path class="st10" d="M223.9,353.9c1.6-0.5,1.4-4.6,4.6-2.3C226.9,352.4,225.4,353.1,223.9,353.9z"></path> <path class="st30" d="M372.3,327.6c1.5-0.1,2.9,0.1,4.3,0.7c0.8,0.3,0.6,0.7,0.3,1.2c-0.3,0.4-0.9,0.8-1.1,0.4 C375.3,328.1,373.3,328.9,372.3,327.6z"></path> <path class="st31" d="M235,336.1c1.1-1.9,3.1-2.1,5.1-3.2C239.1,335.7,236.8,335.5,235,336.1C234.9,336,235,336.1,235,336.1z"></path> <path class="st32" d="M334.8,328.8c-0.2,0.4-0.4,0.8-0.7,1.1c-1.2-0.9-2.6-1.5-4.1-1.9c0,0,0-0.4,0-0.5c1.1-0.6,2,0.5,3.1,0.4 C333.6,327.9,334.5,328,334.8,328.8z"></path> <path class="st33" d="M287.7,327.6c1.5-0.1,2.9,0.1,4.3,0.6c0.7,0.3,0.4,0.5,0.3,0.9c-0.2,0.4-0.6,1.1-0.8,0.7 C290.7,328.3,288.8,328.8,287.7,327.6z"></path> <path class="st10" d="M360.3,339.5c-1-1.7-0.9-3.2-0.8-4.8C361,336.1,361,336.1,360.3,339.5z"></path> <path class="st34" d="M322.5,339.8c0.9-2.7,3.3-3.3,4-5.3c0,0,0.6,0,0.7,0.2c0.3,0.3,0.1,0.7-0.2,0.9 C325.7,336.8,324.4,338,322.5,339.8z"></path> <path class="st27" d="M357.1,334.5c0.9,1.7,1.7,3.4,1.6,5.3C357.4,338.3,357.1,336.5,357.1,334.5z"></path> <path class="st10" d="M318.1,339.4c-0.8-1.7-1.1-3.2-0.7-4.9C319.7,335.8,318.8,337.5,318.1,339.4z"></path> <path class="st8" d="M314.9,334.5c1.1,1.6,1.7,3.4,1.9,5.8C315,338.4,314.9,336.4,314.9,334.5z"></path> <path class="st35" d="M275.9,339.3c-0.9-1.5-1.1-3-0.7-4.6C277.8,335.8,276.4,337.6,275.9,339.3z"></path> <path class="st27" d="M272.7,334.5c0.8,1.7,1.9,3.3,1.7,5.9C272.9,338.3,272.7,336.5,272.7,334.5z"></path> <path class="st7" d="M334,349c-1-1.3-2-2.5-2.9-3.8c1.5-0.8,1.5-0.8,1.8,0.8C333.1,347,334.4,347.5,334,349z"></path> <path class="st36" d="M302.2,332.2c2.4-0.1,4.1,0.3,6.2,1.1C306,333.7,304.1,333.4,302.2,332.2z"></path> <path class="st13" d="M344.3,332.2c2.4-0.3,4.1,0.3,5.8,1.3C348.3,333.1,346.3,333.9,344.3,332.2z"></path> <path class="st7" d="M292.4,348.5c-1.9-0.5-2.3-2.4-3.9-3.6c1.4-0.1,3.1-1.9,2.4,1.2C290.7,346.7,291.9,347.7,292.4,348.5z"></path> <path class="st27" d="M271,351.6c-1.5,0.8-2.6,1.4-3.7,2c-0.3,0.2-0.6,0.4-0.9,0.1c-0.1-0.1-0.2-0.4-0.2-0.5c0.7-1,2.7-0.9,2.6-2.7 C269.3,350.9,270,351.2,271,351.6z"></path> <path class="st35" d="M362,335.8c1.3-1.5,3-1.8,4.5-3c-0.7,2.5-0.8,2.8-1.5,2.4C363.8,334.5,363.3,336.4,362,335.8z"></path> <path class="st19" d="M318.2,331.3c1.1-1.8,2.2-3.6,3.4-5.4C321.4,328.4,320.2,330.1,318.2,331.3z"></path> <path class="st16" d="M277.9,335.9c0.9-1.6,2.5-2.2,4.2-2.9C281.8,335.6,279.4,335.2,277.9,335.9z"></path> <path class="st15" d="M400.6,340.1c-0.2-1.8-1.6-3.5-1.1-5.6c1.3,1.5,1.3,3.4,1.9,5C401.7,340,400.9,339.9,400.6,340.1 C400.5,340,400.6,340.1,400.6,340.1z"></path> <path class="st30" d="M289.7,343.6c-1.2-1.9-0.6-3.6,0.6-5.1C290.1,340.2,289.9,341.9,289.7,343.6z"></path> <path class="st37" d="M390.3,357.2c-2.7-0.5-2.9-3.3-5.2-2.9c0-0.3-0.1-0.5-0.1-0.8c0.1-0.8,0.6-0.4,1-0.3 C387.8,353.8,388.5,355.5,390.3,357.2z"></path> <path class="st30" d="M248.1,338.4c-0.2,1.7-0.3,3.4-0.5,5.1c-1.5-1.8-0.5-3.5-0.2-5.2C247.6,338.4,247.8,338.4,248.1,338.4z"></path> <path class="st28" d="M347.5,357.2c-2.2-0.8-2.5-3.3-4.9-3c-0.1,0-0.3-0.5-0.2-0.6c0.3-0.3,0.5-0.7,1.1-0.4 C345.2,354,346.3,355.3,347.5,357.2z"></path> <path class="st30" d="M375.9,337.8c1.8,0.8,2,2.6,3.2,3.8c0.4,0.4,0.5,0.8,0,1.1c-0.3,0.2-0.7,0-0.9-0.4 C377.5,340.8,376.7,339.3,375.9,337.8z"></path> <path class="st10" d="M387.8,351.1c0-1.2,0-2.5,0-3.7c0-0.6,0.2-0.8,0.8-0.7c0.5,0.1,1,0.4,0.7,0.9 C388.4,348.6,389.4,350.1,387.8,351.1z"></path> <path class="st38" d="M271.6,352.8c0.2,1-1.4,1.3-0.5,2.3c0.2,0.2-0.5,0.8-0.7,0.5c-0.9-1.2-1.5-0.4-2.1,0.2 c-0.3,0.2-0.7,0.4-0.9,0c-0.2-0.3-0.1-0.7,0.2-0.9C268.9,354.3,270.2,353.6,271.6,352.8z"></path> <path class="st20" d="M332.2,338.5c-0.2,1.7,0.4,3.5-0.7,5.6C330.8,341.8,331.2,340.1,332.2,338.5z"></path> <path class="st39" d="M305,356.7c-1.9-0.3-2.3-2.9-4.6-2.6c-0.1,0-0.3-0.5-0.3-0.6c0.3-0.3,0.4-0.6,1.1-0.4 C303,353.8,303.8,355.5,305,356.7z"></path> <path class="st9" d="M324.4,332.9c-0.7,2.6-2.8,2.4-4.4,2.9C321,334.3,322.5,333.6,324.4,332.9z"></path> <path class="st15" d="M276.6,330.4c0.9-1.5,1.8-3,2.8-4.5C279.1,327.9,278.6,329.7,276.6,330.4z"></path> <path class="st29" d="M417.9,337.4c2.3,1.3,2.4,3.4,3.7,4.6c0.1,0.1,0,0.6-0.1,0.7c-0.3,0.3-0.7,0.1-0.9-0.2 C419.7,341,419,339.5,417.9,337.4z"></path> <path class="st24" d="M416.7,338.4c0.9,1.8-0.5,3.4-0.4,5.1C415.2,341.7,416.4,340.1,416.7,338.4z"></path> <path class="st27" d="M262.8,356.8c-1.9-0.5-2.5-2.9-4.7-2.8c-0.1,0-0.5-0.3-0.1-0.6c0.3-0.3,0.6-0.4,1.1-0.2 C260.9,353.9,261.7,355.5,262.8,356.8z"></path> <path class="st33" d="M259.6,334.2c1.9,0.5,3.9,0.2,5.9,2C263,335.8,261.1,335.4,259.6,334.2z"></path> <path class="st29" d="M301.7,334.3c1.9,0.1,3.8,0.3,6.1,1.8C305.2,335.9,303.3,335.4,301.7,334.3z"></path> <path class="st29" d="M349.4,335.5c-1.9,0.8-3.4-0.4-5.2-0.5c-0.1,0-0.4-0.4-0.3-0.6c0-0.2,0.4-0.5,0.5-0.4 C346.1,334.4,347.8,335,349.4,335.5z"></path> <path class="st15" d="M391.7,335.4c-2.1,0.5-3.9,0-5.4-1.6C388.2,334.3,390,334.9,391.7,335.4z"></path> <path class="st8" d="M231.1,340.1c0.2-1.9-1.5-3.5-0.9-5.9c1.3,1.9,1.4,3.8,2,5.4C232.3,340,231.4,339.9,231.1,340.1 C231,340,231.1,340.1,231.1,340.1z"></path> <path class="st30" d="M395.3,335.6c1.5,1.9,0.4,3.8,0.9,5.4C394.6,339.5,394.9,337.8,395.3,335.6z"></path> <path class="st15" d="M253.8,345.7c2.1-0.3,2-2.8,3.6-3.7C257,345.1,256,346.1,253.8,345.7L253.8,345.7z"></path> <path class="st40" d="M245.3,358.7c-1.1-1.4-1.4-2.9-1.3-5.3C245.3,355.5,245.6,357,245.3,358.7z"></path> <path class="st41" d="M286.4,354.1c0.9,1.5,1.6,2.9,1.2,5C286.3,357.5,286.4,355.8,286.4,354.1z"></path> <path class="st30" d="M244.5,336.4c0.8-1.3,2.3-0.7,3.4-1.4c0.2-0.1,1.1-0.3,0.7,0.6c-0.2,0.5,0.8,1,0.2,1.4 c-0.6,0.5-0.7-0.1-1.1-0.5C246.8,335.5,245.6,337.5,244.5,336.4z"></path> <path class="st26" d="M421.6,352.4c0.9-2,2.3-3.6,4.5-4.2C424.7,349.6,423.2,351,421.6,352.4z"></path> <path class="st7" d="M379,351.9c1.4-1.6,2.8-3.1,5-3.8c-1.5,1.4-3,2.8-4.6,4.2C379.3,352.3,379.1,352.1,379,351.9z"></path> <path class="st27" d="M399.3,346.8c1.2,1.5,2,3,2.3,5.6C400,350.4,399.5,348.6,399.3,346.8z"></path> <path class="st19" d="M414.9,349.4c-1.7,0.6-2.7,1.5-3.2,2.8c-0.1,0.2-0.1,0.6-0.5,0.4c-0.2-0.1-0.5-0.4-0.5-0.5 C410.6,350.7,412.9,349,414.9,349.4z"></path> <path class="st28" d="M250.3,349.1c-1.9-1-2.2-2.6-3.3-3.6c-0.3-0.3-0.6-0.8,0.2-0.8c0.5,0,1.7-0.7,1.5-0.1 C248.1,346.6,249.8,347.3,250.3,349.1z"></path> <path class="st42" d="M393.2,356c1.9-1.1,2.7-3.2,4.7-1.5c0.3,0.3,0.4,0.6,0.2,0.9c-0.1,0.2-0.6,0.4-0.6,0.4 C396.2,353.9,395.2,356.3,393.2,356z"></path> <path class="st19" d="M360.4,331.3c1.2-1.7,2.3-3.5,3.6-5.3C364.1,327.9,363.4,329,360.4,331.3z"></path> <path class="st43" d="M375.7,354.4c1.3,1.6,2,3,2.1,4.7C376.8,357.8,375.5,356.7,375.7,354.4z"></path> <path class="st8" d="M296,345.6c2-0.3,2-2.8,3.6-3.6C299.2,345.2,298.2,346.2,296,345.6L296,345.6z"></path> <path class="st30" d="M274.4,351.6c-0.9-1.5-2.2-2.9-2.1-5.2C273.8,348.1,274.3,349.8,274.4,351.6z"></path> <path class="st35" d="M337,336.3c-0.3,1.8,1.4,3,1.2,5.1c-1.5-1.4-1.9-3-2.3-4.5C335.7,336.1,336.6,336.4,337,336.3l0-0.2 L337,336.3z"></path> <path class="st27" d="M379,336.3c0.7,1.6,1.3,3.2,2,4.8c-0.2,0.1-0.4,0.2-0.7,0.2C379.7,339.7,377.8,338.6,379,336.3L379,336.3z"></path> <path class="st35" d="M421.2,336.3c0.6,1.5,1.2,3.1,1.9,4.7C421.3,340,420.4,337.6,421.2,336.3L421.2,336.3z"></path> <path class="st41" d="M398.7,358c2-1.3,3.7-0.3,5.2-1.2C402.8,358.4,402.3,358.5,398.7,358z"></path> <path class="st38" d="M363.5,352.4c1.5,0.8,2.9,1.6,4.4,2.4c-0.1,0.2-0.3,0.5-0.4,0.7C366,354.9,364.4,354.2,363.5,352.4z"></path> <path class="st13" d="M405.8,352.4c1.5,0.8,2.9,1.7,4.4,2.5C408.2,354.9,406.6,354.3,405.8,352.4z"></path> <path class="st39" d="M351.6,341.3c-0.4-0.1-0.5-0.2-0.5-0.2c-0.6-1.4-1.2-2.8-0.8-4.3c0-0.1,0.5-0.1,0.5-0.1 C351.1,338.1,351.9,339.5,351.6,341.3z"></path> <path class="st27" d="M319.4,357.2c-1.5,1.2-3.1,1.2-5.4,0.8C316,356.6,317.8,357.6,319.4,357.2z"></path> <path class="st39" d="M272.3,357.8c1.5-0.9,3.3-0.2,4.8-0.7C275.8,358.7,274,358.3,272.3,357.8z"></path> <path class="st13" d="M234.9,357.1c-1.6,1-3.2,1.6-4.9,0.2C231.6,357.2,233.3,357.2,234.9,357.1z"></path> <path class="st15" d="M356.9,346.9c1.2,1.3,1.8,2.9,2,4.6C357.6,350.3,357,348.7,356.9,346.9z"></path> <path class="st30" d="M337,352.3c1.5-1.4,3-2.8,4.2-3.9C340.4,349.9,338.4,350.8,337,352.3z"></path> <path class="st18" d="M369.6,359.4c-0.9-1.5-1.6-3-1.1-5.1C369.7,356,369.7,357.7,369.6,359.4z"></path> <path class="st29" d="M257.2,348.1c-1.5,1.4-3,2.8-4.5,4.3c0.1,0.1,0.3,0.2,0.4,0.4c1.3-1.6,2.6-3.2,3.9-4.9 C257.1,348,257.2,348,257.2,348.1z"></path> <path class="st44" d="M335.4,359.2c-1.3-1.1-1.9-2.6-2.2-4.3C334.7,355.9,335.2,357.5,335.4,359.2z"></path> <path class="st20" d="M390.8,341.2c-1.4-0.7-2.9-1.4-4.3-2.1c0.1-0.2,0.2-0.4,0.3-0.6c1.6,0.4,3,1.2,4.3,2.1 C391.1,340.7,391,340.9,390.8,341.2z"></path> <path class="st27" d="M244.9,342.7c-0.5-1.5-1-3.1,0.6-4.8C245.5,339.8,245.8,341.3,244.9,342.7z"></path> <path class="st8" d="M249,337.9c1.8,1.1,2.8,2.7,2.7,5C250.8,341.2,249.9,339.5,249,337.9z"></path> <path class="st27" d="M287.7,338c0.1,1.7,0.3,3.3-0.4,5.2C286.4,340.3,286.4,340,287.7,338z"></path> <path class="st8" d="M291.2,337.9c1.8,1.1,2.8,2.8,2.7,5C293,341.2,292.1,339.6,291.2,337.9z"></path> <path class="st8" d="M299.5,348.1c-1.5,1.4-3.1,2.8-4.6,4.3C295.8,350.4,297.3,348.9,299.5,348.1z"></path> <path class="st29" d="M336,342.8c-0.9-1.7-1.7-3.3-2.6-5c0.2-0.1,0.4-0.2,0.6-0.3C335.2,339,336.2,340.6,336,342.8z"></path> <path class="st26" d="M237.9,326.4c-0.9,1.4-1.9,2.8-2.8,4.2c-0.2-0.1-0.4-0.2-0.6-0.4c0.6-1.6,1.7-2.9,2.9-4.2 C237.5,326.2,237.7,326.3,237.9,326.4z"></path> <path class="st8" d="M419.7,349.3c-2.2-0.9-2.6-2.5-3.5-3.7c-0.4-0.5,0.2-1.1,0.8-1.2c0.8-0.2,0.8,0.3,0.6,1 C417.3,346.9,418.8,347.6,419.7,349.3z"></path> <path class="st9" d="M377.2,349.3c-1.7-1-2.2-2.4-3.2-3.5c-0.3-0.4-0.1-0.9,0.3-1.2c0.2-0.1,0.5-0.3,0.8-0.2 c0.7,0.2,0.2,0.7,0.2,1.1C375.3,346.8,376.7,347.5,377.2,349.3z"></path> <path class="st15" d="M277.1,355c-1.5,0.7-3.1,1.2-4.8,0.6C273.9,355.4,275.2,353.7,277.1,355L277.1,355z"></path> <path class="st9" d="M283.8,354.6c1.5,1.3,0.8,3.2,1.4,4.8C283.7,358,284,356.3,283.8,354.6z"></path> <path class="st16" d="M372.2,349.3c-1.2,0.5-2.2,1.4-2.7,2.6c-0.2,0.4,0,1.1-0.8,0.6c-0.4-0.2-0.4-0.6,0-0.9 C369.7,350.7,369.8,348.3,372.2,349.3z"></path> <path class="st0" d="M422.8,353.8c0.7,1.5,0.7,2.9,0.3,4.4c0,0-0.6,0-0.6-0.1C422.1,356.7,422.1,355.2,422.8,353.8z"></path> <path class="st9" d="M291,354.9c1.4,1.1,2.2,2.5,2.3,4.6C291.9,358.1,291.3,356.6,291,354.9z"></path> <path class="st7" d="M284.1,352.8c-0.4-1.2,0.6-1.8,0.9-2.7c0.3-0.8,0.9-1.2,1.6-1.2c0.8,0,0.8,0.6,0.3,1.1c-0.3,0.2-0.7,0.3-1,0.5 C285,351,285.3,352.4,284.1,352.8z"></path> <path class="st45" d="M258.4,350.9c-0.3-1.9,0-3.5,1.6-5.5C259.6,347.7,259.8,349.4,258.4,350.9z"></path> <path class="st9" d="M290.5,350.5c0.6,0.2,2,0.1,0.7,1.1c-1.1,0.8-2.5,1.2-4.2,2C287.7,351.4,290,351.9,290.5,350.5L290.5,350.5z"></path> <path class="st39" d="M300.8,350.5c-0.4-1.7,0.1-3.1,1-4.4C302.2,347.8,301.6,349.2,300.8,350.5z"></path> <path class="st21" d="M411.8,359.4c-0.8-1.5-1.5-3-1.1-5.2C411.9,356.1,412,357.7,411.8,359.4z"></path> <path class="st0" d="M380.2,353.8c0.5,0,0.6,0,0.6,0c0.5,1.5,0.5,3,0,4.4c0,0-0.5,0-0.5,0C379.8,356.8,380,355.3,380.2,353.8z"></path> <path class="st9" d="M332.8,350.5c0.6,0.2,1.9,0.2,0.6,1.1c-1.1,0.8-2.5,1.2-4.2,1.9C329.9,351.4,332.3,352,332.8,350.5 L332.8,350.5z"></path> <path class="st11" d="M232,342.7c-0.8,2.1-3.2,1.4-4.5,2.6C228.7,343.8,230.2,342.9,232,342.7L232,342.7z"></path> <path class="st30" d="M248.4,350.6c0.6,0,1.7,0.1,0.8,0.9c-0.9,0.9-2.3,1.3-3.5,1.8c-0.1,0.1-0.6-0.2-0.6-0.3 c-0.1-0.3,0.1-0.6,0.5-0.8C246.5,351.6,247.8,351.6,248.4,350.6L248.4,350.6z"></path> <path class="st7" d="M244.9,349.2c-1.1,1-2.1,2.2-3,3.4C242.4,351,242.5,349.1,244.9,349.2z"></path> <path class="st46" d="M329.6,358.8c-0.8-1.5-1.5-3-1-5.4C329.7,355.5,330.1,357.1,329.6,358.8z"></path> <path class="st43" d="M361.6,357.3c-1.5,1.1-3.1,1.2-5.4,0.8C358.2,356.6,360,357.5,361.6,357.3z"></path> <path class="st20" d="M377.7,326.5c-1.7,0.9-3.2-0.1-4.8-0.3C374.5,325.5,376.1,326.5,377.7,326.5z"></path> <path class="st23" d="M280.8,343.5c1.1,1.2,2.6,1.9,3.3,3.4C282.4,346.3,281.4,345,280.8,343.5z"></path> <path class="st26" d="M410.5,349c0.5,2-3.1,2.4-0.2,4.1c-1.4,0.4-2.4-0.5-2.2-0.9C408.5,351.1,409.5,350.2,410.5,349z"></path> <path class="st47" d="M241.6,347.2c-1-0.9-2.1-1.9-3-2.8c-0.2-0.2-0.4-0.7,0-0.9c0.4-0.2,0.6,0,0.9,0.3c0.8,1,1.7,2,2.5,3 C241.8,346.9,241.7,347.1,241.6,347.2z"></path> <path class="st9" d="M326.2,352.8c1-3.6,1-3.6,3.3-3.5c0,1.1-1.3,0.8-1.7,1.5C327.3,351.4,327.5,352.5,326.2,352.8z"></path> <path class="st9" d="M314.5,346.9c1.5,1.3,1.8,3,2.2,4.7C315.4,350.3,314.8,348.6,314.5,346.9z"></path> <path class="st20" d="M237.4,345c-1-1.4-2-2.7-3.1-4.1C236.1,341.7,237.3,342.9,237.4,345z"></path> <path class="st20" d="M342.8,351.2c-0.2-2.3,0.3-3.8,1.2-5.1C344.2,347.8,344,349.3,342.8,351.2z"></path> <path class="st28" d="M404.2,340.7c1.2,1.2,2.2,2.4,2.8,4.7C405.3,343.7,404.5,342.4,404.2,340.7z"></path> <path class="st29" d="M386.2,346.3c0.7,1.7-0.5,3-0.6,4.5C384.6,349,386,347.7,386.2,346.3z"></path> <path class="st10" d="M232,351.7c-1-1.4-2.1-2.8-2-5.1C231.3,348.3,232,349.9,232,351.7z"></path> <path class="st48" d="M423.5,344.7c-0.3,0.2-0.5,0.7-0.8,0.7c-0.8,0.1-0.6-0.7-0.5-0.9c0.6-1.2,1.2-2.3,2-3.6 C425.1,342.7,423,343.4,423.5,344.7C423.4,344.8,423.5,344.7,423.5,344.7z"></path> <path class="st41" d="M264,355.9c-1-1.3-2-2.6-3-3.9C262.7,352.9,264.1,354,264,355.9z"></path> <path class="st36" d="M391.8,355.7c-1.9-0.8-2.9-2.1-3.2-4.1C389.6,353,390.7,354.3,391.8,355.7z"></path> <path class="st49" d="M401.6,326.6c-0.8,2.7-3.3,1.2-4.9,2.1C398,327,400.1,327.5,401.6,326.6L401.6,326.6z"></path> <path class="st23" d="M368.7,335.7c-0.3,2-2.2,2.3-3.3,3.5C365.6,337.2,367.8,337.1,368.7,335.7z"></path> <path class="st50" d="M407.6,339.3c0.4-1.9,2.3-2.3,3.5-4.3C410.8,337.8,408.5,337.9,407.6,339.3z"></path> <path class="st15" d="M252.4,336.4c0.5,1.5,1,3.1,1.5,4.6c-1.5-1-2-2.6-2.4-4.1C251.4,336.3,251.9,336.2,252.4,336.4L252.4,336.4z"></path> <path class="st51" d="M294.7,336.4c-0.2,1.7,1.6,2.9,0.8,4.9c-0.6-1.4-1.2-2.9-1.7-4.3C293.6,336.4,294.2,336.2,294.7,336.4 L294.7,336.4z"></path> <path class="st52" d="M417.9,354.1c1,2,2.3,3.1,2.1,5.5C419,357.8,417.8,356.6,417.9,354.1z"></path> <path class="st29" d="M319.4,355.1c-1.6,0.3-3.2,1.2-4.9,0.4C316.1,355.6,317.6,353.4,319.4,355.1L319.4,355.1z"></path> <path class="st40" d="M326,354.6c1.3,1.4,1,3.2,1.4,4.8C325.8,358,326.1,356.3,326,354.6z"></path> <path class="st9" d="M267,341.7c-1-1.9-1.4-3.3-1.2-4.8c0-0.1,0.4-0.2,0.4-0.1C266.8,338.2,267.5,339.6,267,341.7z"></path> <path class="st51" d="M402.6,339.4c-0.2-1.6-1.2-3.2-0.4-4.8C402.8,336.1,403.3,337.7,402.6,339.4z"></path> <path class="st27" d="M415.3,325.5c1.5,0.7,3.1,0.5,4.6,0.8c0,0.2-0.1,0.5-0.1,0.7c-1.6-0.2-3.2-0.4-4.8-0.6 C415.1,326.1,415.2,325.8,415.3,325.5z"></path> <path class="st20" d="M394.1,341.2c-1.7-1.1-1-2.9-1.7-4.3C394.5,337.8,393.5,339.8,394.1,341.2z"></path> <path class="st26" d="M388.8,327.1c1.2,1.2,2.3,2.4,3.5,3.7c-1.8-0.5-3.1-1.6-4-3.1C388.4,327.4,388.6,327.3,388.8,327.1z"></path> <path class="st26" d="M356.2,353.4c-1.2,0.9-2.4,1.8-3.7,2.6c-0.2,0.1-0.6,0.1-0.7-0.1c-0.3-0.3-0.2-0.7,0.2-0.9 c1.3-0.7,2.6-1.4,3.9-2.1C356,353.1,356.1,353.2,356.2,353.4z"></path> <path class="st15" d="M249,355c1.1,1.2,2.1,2.5,2.1,4.6C249.8,358.1,249.1,356.7,249,355z"></path> <path class="st33" d="M329.3,342.7c-0.3-1.5-0.9-3.2,0.6-4.7C330,339.7,330.3,341.2,329.3,342.7z"></path> <path class="st35" d="M241.6,354.1c1.4,2,1.1,3.7,1.3,5.3C241.7,358,241.5,356.4,241.6,354.1z"></path> <path class="st15" d="M382.4,358.5c-0.3-1.7-0.6-3.1,0.6-4.6C383.5,356.7,383.5,356.7,382.4,358.5z"></path> <path class="st35" d="M361.6,355c-1.6,0.7-3.1,1.2-4.9,0.6C358.3,355.4,359.7,353.6,361.6,355L361.6,355z"></path> <path class="st37" d="M265.6,330c-0.3-1.2-1.8-1.8-2-3.5c1.7,0.9,2.4,2.6,3.7,3.6C266.4,331.1,266.1,330,265.6,330L265.6,330z"></path> <path class="st30" d="M355.1,329c-0.4,2.5-1.8,3.6-3,4.8C352.4,332,353.7,330.9,355.1,329z"></path> <path class="st53" d="M234.5,354.3c-0.2,0.6-0.2,0.8-0.2,0.8c-1.4,0.5-2.7,1.1-4.2,0.7c-0.1,0-0.1-0.5-0.1-0.5 C231.5,355,232.9,354.7,234.5,354.3z"></path> <path class="st41" d="M393.6,346.5c-0.4,1.7-1.3,2.9-2.7,4.5C391,348.5,392.8,347.8,393.6,346.5z"></path> <path class="st27" d="M393.9,330.9c-1.4-1.5-2.7-2.4-3.5-4.2C392.3,327.8,393.1,328.8,393.9,330.9z"></path> <path class="st54" d="M394.6,333.7c0.7-1.6,1.4-3.1,2.9-4.1C397,331.3,396,332.7,394.6,333.7z"></path> <path class="st55" d="M293.4,329.9c1.1,1.2,2.2,2.4,3.3,3.7c-0.2,0.2-0.3,0.3-0.5,0.5c-1.2-1.1-2.5-2.2-3.4-3.7 C293,330.2,293.2,330.1,293.4,329.9z"></path> <path class="st56" d="M338.9,333.6c-1.7-0.3-2.4-1.7-3.5-2.5c-0.3-0.2-0.5-0.6-0.1-0.9c0.5-0.4,0.7,0,1,0.4 C337.1,331.7,338,332.6,338.9,333.6z"></path> <path class="st15" d="M314.6,330.6c0,1.5-0.3,2.8-1.5,4.5C312.9,332.9,313.7,331.7,314.6,330.6z"></path> <path class="st13" d="M364.6,345.8c-0.8,1.6-2.4,2.3-3.8,3.1C361.6,347.3,363.1,346.6,364.6,345.8z"></path> <path class="st28" d="M356.8,330.6c0,1.4-0.2,2.8-1.6,4.4C355.2,332.9,355.9,331.7,356.8,330.6z"></path> <path class="st30" d="M238.4,331c-1.3,2.1-3,2.1-4.4,2.7C234.9,332.1,236.5,331.9,238.4,331z"></path> <path class="st9" d="M265.6,330c-0.3,0.5-0.1,1.8-1.3,0.7c-1-0.9-2-1.8-2.7-3C263.4,327.8,263.8,330.1,265.6,330 C265.6,330,265.6,330,265.6,330z"></path> <path class="st35" d="M245.7,331.2c-1.3-1-2.7-2-4-3.1c2,0.1,3.1,1.4,4.5,2.5C246,330.8,245.8,331,245.7,331.2z"></path> <path class="st20" d="M235,350.8c1.3-1,2.6-2.1,4-3.1C238.2,349.4,237,350.5,235,350.8z"></path> <path class="st15" d="M423.8,347.6c-1.3,1-2.7,2-4,3C420.5,348.9,421.8,347.8,423.8,347.6z"></path> <path class="st30" d="M377.1,349.8c1.6-0.5,2.4-2.4,5-2.6c-1.9,1.4-3.3,2.4-4.6,3.4C377.4,350.3,377.3,350,377.1,349.8z"></path> <path class="st28" d="M335.1,350.4c0.6-1.7,2.1-2.4,4.1-3.6C338.2,349.1,336.2,349.2,335.1,350.4z"></path> <path class="st19" d="M307.4,351.7c1.1-1.2,2.2-2.3,3.3-3.5c0.1,0.1,0.3,0.3,0.4,0.4c-1.2,1.1-2.4,2.2-3.6,3.4 C307.5,351.9,307.5,351.8,307.4,351.7z"></path> <path class="st30" d="M288.1,330.9c-1.5-0.8-3.1-1.4-4.4-3.2C285.8,328.3,287.1,329.5,288.1,330.9z"></path> <path class="st30" d="M330.4,330.8c-1.8-0.3-3-1.6-4.2-2.8C328.1,328.2,329.1,329.7,330.4,330.8z"></path> <path class="st57" d="M340.1,332.7c0.7-2.9,1-3.2,3.6-4.8C342.4,329.7,341.4,330.9,340.1,332.7z"></path> <path class="st43" d="M385.7,328.4c-0.9,1.2-1.9,2.5-2.9,3.8C382.8,330.7,383.2,330.1,385.7,328.4z"></path> <path class="st44" d="M351.6,346.9c-0.9,1.3-1.8,2.6-2.7,3.8C348.9,348.8,349.8,347.5,351.6,346.9z"></path> <path class="st20" d="M332.9,350.4c-2.2-0.1-2.3-2.3-3.3-3.6C331.1,347.7,332.1,349,332.9,350.4 C332.8,350.5,332.9,350.4,332.9,350.4z"></path> <path class="st48" d="M415,330.8c-1.7-0.4-3-1.5-4.4-2.8C412.9,327.9,413.6,329.9,415,330.8z"></path> <path class="st58" d="M228.6,329c-0.9,2.3-2,3.6-3.4,4.7C225.9,332.2,226.7,330.7,228.6,329z"></path> <path class="st53" d="M403.7,354.7c-1.4,1.1-3,1.3-4.6,1.2C400.4,354.7,402.1,354.7,403.7,354.7z"></path> <path class="st38" d="M290.6,350.4c-2.2-0.2-2.1-2.4-3.3-3.5C288.9,347.6,289.8,349,290.6,350.4 C290.5,350.5,290.6,350.4,290.6,350.4z"></path> <path class="st31" d="M267.8,333.8c0.3-1.8,1.4-3,2.9-4.8C270.4,331.5,268.8,332.5,267.8,333.8z"></path> <path class="st30" d="M313,329.9c-0.9,1.4-1.8,2.7-2.7,4.1c-0.2-2.1,1.4-3,2.2-4.5C312.6,329.6,312.8,329.8,313,329.9z"></path> <path class="st37" d="M389.7,344.7c0.3-1.9,2.3-1.9,3.2-3.1C392.6,343.5,390.7,343.7,389.7,344.7z"></path> <path class="st10" d="M236.3,352.6c1.6,0.6,3.2,1.1,5,3C238.9,354.8,237.3,354.1,236.3,352.6z"></path> <path class="st35" d="M311.3,341.6c-1.1-2.1-0.7-3.7-0.6-5.3C311.3,337.8,312,339.3,311.3,341.6z"></path> <path class="st30" d="M296.1,345.5c-0.6,0-1.2,0-0.9-0.8c0.6-1.3,1.1-2.6,2.5-3.8C297.7,342.9,296.2,344,296.1,345.5 C296,345.6,296.1,345.5,296.1,345.5z"></path> <path class="st15" d="M253.8,345.6c-0.5-0.1-1.3-0.1-0.9-0.9c0.7-1.2,1.2-2.6,2.5-3.7C255.5,343,253.9,344.1,253.8,345.6 C253.8,345.7,253.8,345.6,253.8,345.6z"></path> <path class="st35" d="M255.2,338.8c0.9-1.7,2.8-1.3,4.1-2C258.4,338.5,256.5,338,255.2,338.8z"></path> <path class="st20" d="M364,344.9c-0.9-1.3-1.7-2.6-2.6-3.9c0.2-0.1,0.4-0.3,0.6-0.4C362.8,342.1,364.4,342.9,364,344.9z"></path> <path class="st8" d="M297.3,338.6c1.1-1.3,2.7-1.6,4.9-2C300.5,338.3,298.9,338.3,297.3,338.6z"></path> <path class="st21" d="M308.4,336.7c0.2,1.5,1.5,2.8,0.8,4.6C308.1,339.8,307.9,338.3,308.4,336.7z"></path> <path class="st8" d="M339.5,338.6c1.2-1.3,2.7-1.6,4.3-1.7C342.7,338.2,341.1,338.4,339.5,338.6z"></path> <path class="st39" d="M382.3,338.6c1-1.4,2.5-1.6,4.4-2C385.5,338.5,383.6,338,382.3,338.6z"></path> <path class="st19" d="M243.3,337.4c-0.7,1.7-2.5,2.3-3.7,3.4C240,338.9,241.9,338.4,243.3,337.4z"></path> <path class="st40" d="M324.1,340.9c0.5-1.9,2.1-2.6,3.8-4C327.3,339.4,324.9,339.4,324.1,340.9z"></path> <path class="st17" d="M370.5,337.7c-1.4,1.1-2.7,2.2-4.6,3.7c0.9-2.6,3.1-2.8,4-4.4C370.1,337.2,370.3,337.5,370.5,337.7z"></path> <path class="st16" d="M412.3,337.2c-0.6,1.9-2.6,2.4-3.8,3.7C408.9,338.7,411.3,338.7,412.3,337.2z"></path> <path class="st26" d="M259.7,338.5c1.7,0.4,3.3,0.8,4.4,2.3C262.5,340.4,260.8,339.9,259.7,338.5z"></path> <path class="st8" d="M306.3,340.7c-1.6-0.4-3.3-0.8-5-2.3C303.7,338.6,305,339.7,306.3,340.7z"></path> <path class="st8" d="M406.5,326.3c-0.4,1.7-1.1,3.1-2.4,4.1C404.4,328.7,405.1,327.3,406.5,326.3z"></path> <path class="st23" d="M371.6,354c0.3,1.6,0.7,3.2,1.1,5.5c-1.9-2-1.7-3.7-1.9-5.4C371.1,354.1,371.4,354.1,371.6,354z"></path> <path class="st59" d="M340.8,353.5c0.8,1.8,0,3.2-0.7,4.6C340.3,356.6,339.4,355.1,340.8,353.5z"></path> <path class="st8" d="M371.2,333.3c1.3,0.4,2.4-1,3.9-0.3c-1.2,1.2-2.7,1.1-4.1,1.4C370.5,334.5,370.5,334.4,371.2,333.3 L371.2,333.3z"></path> <path class="st59" d="M297.6,358c0.1-1.4,0.3-2.8,0.5-4.9C299,355.4,299,355.4,297.6,358z"></path> <path class="st30" d="M401.2,343.4c-1.4,0.7-2.8,1.4-4.2,2.1c0.7-2,2.5-2,3.9-2.9C400.9,342.9,401,343.1,401.2,343.4z"></path> <path class="st60" d="M358.5,342.6c-0.2,2.4-2.9,1.4-3.9,2.7C355.1,343.2,357.3,343.5,358.5,342.6L358.5,342.6z"></path> <path class="st35" d="M316.9,342.8c-1.5,1.5-3.1,1.7-4.6,2.7C313.2,343.6,313.2,343.6,316.9,342.8z"></path> <path class="st29" d="M274.6,342.8c-1.4,1.6-3.2,1.6-4.6,2.9C271,343.7,271,343.7,274.6,342.8z"></path> <path class="st8" d="M413.8,352.7c1.5-0.7,2.9-1.4,4.6-2.2C417.4,352.2,416.9,352.4,413.8,352.7z"></path> <path class="st49" d="M237.9,339.7c1.2-2.3,2.8-3,4-4.2C240.7,336.7,239.6,337.9,237.9,339.7z"></path> <path class="st46" d="M284.4,335.9c-1.3,1.1-2.6,2.1-3.8,3.1c0.4-1.6,2.3-2.2,3.3-3.6C284.1,335.5,284.3,335.7,284.4,335.9z"></path> <path class="st27" d="M303.8,351.6c0.9,1.4,2.6,2.3,2.6,4.4c-1.1-1.3-2.1-2.6-3.2-3.9C303.4,351.9,303.6,351.8,303.8,351.6z"></path> <path class="st27" d="M346,351.6c1,1.4,2.5,2.3,2.6,4.4c-1-1.3-2.1-2.6-3.1-3.9C345.6,351.9,345.8,351.8,346,351.6z"></path> <path class="st38" d="M404.8,346c-1.9-0.6-2.1-2.4-3.7-4.1C403.7,342.7,403.7,344.8,404.8,346z"></path> <path class="st21" d="M320.7,352.6c1.6,0.6,3.2,1.2,5,3C323.3,354.9,321.8,354,320.7,352.6z"></path> <path class="st33" d="M371.6,352.6c1.5-0.7,2.9-1.3,4.4-2c-1,1.7-2.6,2.1-4.1,2.7C371.8,353.1,371.7,352.9,371.6,352.6z"></path> <path class="st9" d="M366.1,348c-1,1.3-2.1,2.4-3.8,2.8C363.4,349.7,364.4,348.4,366.1,348z"></path> <path class="st59" d="M255.6,358.1c0.1-1.5-0.4-3,0.6-4.5C257.2,355.4,256.3,356.7,255.6,358.1z"></path> <path class="st28" d="M323.9,348.2c-1.2,1-2.4,2-3.5,2.9C320.8,349.3,322.2,348.6,323.9,348.2z"></path> <path class="st20" d="M319.4,355.2c2-0.3,3.1,1.3,4.6,2.2C322.1,357.2,320.7,356.3,319.4,355.2 C319.4,355.1,319.4,355.2,319.4,355.2z"></path> <path class="st61" d="M278.5,352.8c1.7,0.4,3.2,1,4.8,2.6C281,355,279.8,353.8,278.5,352.8z"></path> <path class="st8" d="M239.2,357.8c-1.4-0.7-2.8-1.5-4.2-2.2C236.8,355.5,238.3,356.1,239.2,357.8z"></path> <path class="st9" d="M395.4,348.4c-1,1.3-2,2.7-3.6,3.3C393,350.6,394.2,349.5,395.4,348.4z"></path> <path class="st29" d="M379,336.3c-0.7-1.6-2.5-2.4-3.1-4.1C377,333.5,379.6,333.5,379,336.3C379,336.3,379,336.3,379,336.3z"></path> <path class="st33" d="M421.3,336.4c-0.7-1.6-2.5-2.4-3.2-4C419.3,333.5,421.7,333.7,421.3,336.4 C421.2,336.3,421.3,336.4,421.3,336.4z"></path> <path class="st61" d="M413.3,333.3c1.3,0.5,2.4-0.8,4.1-0.3c-1.4,1.2-3,1.4-4.2,1.3C411.9,334.2,413.6,333.6,413.3,333.3 L413.3,333.3z"></path> <path class="st21" d="M371.3,336.5c1.2-1.3,2.7-0.9,4-1.4C374.3,336.7,372.8,336.5,371.3,336.5z"></path> <path class="st33" d="M413.5,336.4c1.3-0.9,2.6-1.4,4.4-1.3C416.6,336.6,415,336.5,413.5,336.4z"></path> <path class="st24" d="M269.1,341.4c-1.2-1.9-0.5-3.6-0.6-5.1C269,337.8,269.9,339.3,269.1,341.4z"></path> <path class="st59" d="M353.5,341.5c-1.1-2-0.7-3.6-0.6-5.2C353.5,337.8,354.3,339.3,353.5,341.5z"></path> <path class="st33" d="M223.5,336.6c1.2,1.6,0.9,3.1,1.2,4.6C223.5,339.9,223.1,338.5,223.5,336.6z"></path> <path class="st15" d="M281.8,340.8c0.6-1.8,2.3-2.5,4-4C285,339.3,282.9,339.6,281.8,340.8z"></path> <path class="st29" d="M348.5,340.9c-1.6-0.7-3.4-0.8-4.8-2.6C345.8,338.8,347.3,339.5,348.5,340.9z"></path> <path class="st41" d="M259.1,340.2c1.5,0.4,2.7,1.1,4,2.7C261.1,342.2,259.9,341.4,259.1,340.2z"></path> <path class="st39" d="M304.5,342.8c-1.1-0.8-2.3-1.5-4.1-2.8c2.5,0.2,3.5,1.3,4.5,2.3C304.8,342.5,304.6,342.7,304.5,342.8z"></path> <path class="st45" d="M346.8,342.8c-1.2-0.7-2.4-1.5-3.6-2.2c1.9-0.4,2.8,0.8,3.9,1.6C347,342.4,346.9,342.6,346.8,342.8z"></path> <path class="st35" d="M279.9,344.7c-1.4-0.9-2.3-2.3-3-4.6C278.7,341.7,279.2,343.3,279.9,344.7z"></path> <path class="st32" d="M319.6,340.7c1.2,1.1,2.2,2.4,2.8,4.5C320.6,343.8,320,342.4,319.6,340.7z"></path> <path class="st35" d="M382.1,341.4c0.1,1.7-1.1,2.8-1.7,4.1C379.7,343.6,381.2,342.6,382.1,341.4z"></path> <path class="st40" d="M384.2,342.1c-0.3,1.4-0.4,2.8-2.6,3.9C382.7,344.2,383,342.9,384.2,342.1z"></path> <path class="st27" d="M273.6,324.3c0.7,1.3-0.3,1.2-1,1.2c-1,0.1-1.9,1-3.1,0.3C270.6,324.5,272.4,325.2,273.6,324.3 C273.7,324.4,273.6,324.3,273.6,324.3z"></path> <path class="st35" d="M316,324.5c-0.9,2-2.8,1.1-4.2,1.6C313,324.7,314.6,324.9,316,324.5C316.1,324.5,316,324.5,316,324.5z"></path> <path class="st27" d="M358.3,324.5c-0.9,2-2.7,1.2-4.8,1.9C355.2,324.6,356.9,324.9,358.3,324.5 C358.3,324.5,358.3,324.5,358.3,324.5z"></path> <path class="st61" d="M251.4,326.5c-2,1.1-3.4-0.3-4.9,0.1c-0.1,0-0.4-0.4-0.4-0.6c0.1-0.4,0.5-0.6,0.8-0.4 C248.2,326.5,249.6,325.8,251.4,326.5z"></path> <path class="st62" d="M351.4,330.4c-1.5-0.9-2.7-2-3.7-4C349.9,327.4,350.2,329.2,351.4,330.4z"></path> <path class="st26" d="M304.1,327.3c1.2,1.2,2.4,2.3,3.5,3.5C305.8,330.4,304.8,329,304.1,327.3z"></path> <path class="st10" d="M350.2,331.4c-2.2-1.1-3.3-2.4-4.3-4C347.3,328.7,348.5,329.8,350.2,331.4z"></path> <path class="st27" d="M256,332.3c0.3-1.9,1.1-3.3,2.8-3.9C257.9,329.7,257,331,256,332.3z"></path> <path class="st15" d="M301.1,328.4c-1,1.3-1.9,2.5-2.9,3.8C298.4,330.3,299.3,329,301.1,328.4z"></path> <path class="st7" d="M372.5,331.1c-1.3-1-2.7-2-4.5-3.4c2.6,0.2,3.4,2,4.9,2.7C372.8,330.7,372.6,330.9,372.5,331.1z"></path> <path class="st38" d="M229.8,330.4c0.5,1.7-0.4,2.8-1.1,4C228.2,332.9,228.9,331.8,229.8,330.4z"></path> <path class="st51" d="M270.9,334.4c0.2-1.4,0.2-2.8,1.6-4.2C272.5,332.1,272.1,333.4,270.9,334.4z"></path> <path class="st38" d="M361.2,333.7c0.6-1.8,2.3-1.7,3.6-2.3C364.3,333,362.3,332.8,361.2,333.7z"></path> <path class="st10" d="M252.4,336.4c-0.8-1.7-2.6-2.5-3.3-4.2C250.4,333.5,252.9,333.7,252.4,336.4 C252.4,336.4,252.4,336.4,252.4,336.4z"></path> <path class="st9" d="M294.7,336.4c-1.2-1.3-2.4-2.6-3.6-3.9C292.7,333.5,294.9,333.9,294.7,336.4 C294.7,336.4,294.7,336.4,294.7,336.4z"></path> <path class="st7" d="M337,336.3c-1.3-1.2-2.7-2.3-4-3.5c0.3-0.3,0.5-0.5,0.8-0.8C334.9,333.4,337,333.9,337,336.3 C337,336.3,337,336.3,337,336.3z"></path> <path class="st24" d="M261.1,348.8c0-0.7,0-1.1,0-1.6c0-0.4,0.2-0.7,0.7-0.6c0.4,0.1,0.5,0.4,0.3,0.9c-0.2,0.4-0.3,0.8-0.4,1.3 c-0.1,0.7,1.4,1.9-0.1,2.1C260.6,351.1,261.4,349.4,261.1,348.8z"></path> <path class="st28" d="M224.4,345.9c0,2.4-1.8,3.2-2.5,4.5C221.7,348.6,223.2,347.7,224.4,345.9z"></path> <path class="st26" d="M263.8,350.2c0.9-1.3,1.8-2.6,2.8-3.9c-0.1,1.9-1.2,3-2.1,4.3C264.2,350.5,264,350.3,263.8,350.2z"></path> <path class="st63" d="M322.1,345.9c-0.9,1.5-2.2,2.3-4.1,3.7C319.1,347.3,320.8,346.8,322.1,345.9z"></path> <path class="st19" d="M237.5,345.7c-0.7,1.8-2.1,2.7-4.1,2.9C234.8,347.6,236.2,346.6,237.5,345.7z"></path> <path class="st64" d="M411.2,347.5c-1.5-1.5-2.9-2.4-3.4-4C408.8,344.7,409.8,345.9,411.2,347.5z"></path> <path class="st41" d="M323.6,343.7c0.7,0.7,1.7,1.8,2.8,3c0.1-0.1,0.2-0.2,0.3-0.3C325.5,345.4,324.3,344.3,323.6,343.7z"></path> <path class="st24" d="M303.3,348.7c0-0.5,0.1-1,0.1-1.5c0-0.4,0.2-0.7,0.7-0.6c0.4,0.1,0.5,0.5,0.3,0.9c-0.2,0.4-0.3,0.8-0.4,1.3 c-0.1,0.7,1.4,1.9-0.1,2.1C302.8,351.1,303.6,349.4,303.3,348.7z"></path> <path class="st54" d="M306.1,350.2c0.9-1.2,1.4-2.9,3.3-3.4c-0.9,1.3-1.8,2.6-2.7,3.9C306.5,350.5,306.3,350.3,306.1,350.2z"></path> <path class="st59" d="M346.3,346.4c0.1,0.2,0.3,0.5,0.2,0.7c-0.8,1.1-0.3,2.2,0.1,3.3c0.1,0.4-0.2,0.8-0.6,0.6 c-1-0.6-0.5-1.6-0.5-2.5C345.5,347.9,345.2,347.1,346.3,346.4z"></path> <path class="st57" d="M278,351c0.5-1.7,2.1-2.2,3.3-3.2C280.9,349.6,279.1,349.9,278,351z"></path> <path class="st29" d="M229.9,351.6c-1.5-0.9-1.5-2.4-1.9-3.8C229.4,348.8,229.4,350.3,229.9,351.6z"></path> <path class="st60" d="M292.8,350.3c0.7-1.6,2.2-2.3,4.2-3.6C295.9,349,294,349.3,292.8,350.3z"></path> <path class="st27" d="M254.6,347.8c-1.3,0.9-2.5,1.8-4.4,3.1c1.1-2.3,2.6-2.9,4-3.7C254.3,347.4,254.4,347.6,254.6,347.8z"></path> <path class="st21" d="M268.5,348.2c-0.7,1.6-1.7,2.8-3.3,3.7C266.3,350.6,267.4,349.4,268.5,348.2z"></path> <path class="st33" d="M407.3,331.8c-1.2,0.7-2.4,1.4-3.6,2.1c-0.1-0.2-0.3-0.4-0.4-0.6c1-1.1,2.4-1.4,3.7-2.1 C407,331.4,407.2,331.6,407.3,331.8z"></path> <path class="st30" d="M314.6,351.9c-1.6-1.2-1.6-2.7-2-4C313.8,348.8,314.3,350.1,314.6,351.9z"></path> <path class="st7" d="M318.6,334.1c0.8-2.1,2.4-2.1,4.1-3.4C321.7,333,320.2,333.1,318.6,334.1z"></path> <path class="st29" d="M404.6,355.2c1.4,0.4,2.8,1,3.7,2.2C406.8,357.1,405.4,356.6,404.6,355.2z"></path> <path class="st19" d="M280.3,331.4c-0.7,1.6-2.4,1.5-3.4,2.8C277.3,332.3,277.3,332.3,280.3,331.4z"></path> <path class="st9" d="M398,334.7c-0.5-1.9,0.5-2.9,1.1-4.1C399.4,332,399,333.2,398,334.7z"></path> <path class="st33" d="M404.9,351.3c0.6-1.6,1.7-2.7,3.5-3C407.3,349.2,406.1,350.2,404.9,351.3z"></path> <path class="st61" d="M399.1,351.7c-1-1-1.9-2.2-1.9-4C398.8,348.8,398.7,350.3,399.1,351.7z"></path> <path class="st53" d="M361.5,355.1c1.9,0,3.3,1.1,4.6,2.3C364.5,356.7,362.6,356.7,361.5,355.1C361.6,355,361.5,355.1,361.5,355.1z "></path> <path class="st0" d="M288.3,326.5c1.6-0.7,3.1-0.4,4.5-0.1c0,0-0.1,0.5-0.1,0.5C291.3,326.8,289.8,326.7,288.3,326.5z"></path> <path class="st61" d="M277,355.1c1.9,0,3.2,1.3,4.6,2.4C279.9,357,278.2,356.5,277,355.1C277.1,355,277,355.1,277,355.1z"></path> <path class="st0" d="M330.5,326.5c1.6-0.8,3-0.4,4.5-0.1c0,0-0.1,0.5-0.1,0.5C333.5,326.8,332,326.6,330.5,326.5z"></path> <path class="st9" d="M356.7,352.2c-1.5-1.7-1.6-3-1.8-4.3C356,348.9,356.7,350.1,356.7,352.2z"></path> <path class="st8" d="M375.4,350.9c-2-1.3-2.6-2.8-4.2-4.7C373.7,347.4,374.2,348.9,375.4,350.9z"></path> <path class="st29" d="M417.2,350.2c-1.7-0.5-2.2-2.2-3.7-3.7C416,347.1,416.1,349.2,417.2,350.2z"></path> <path class="st49" d="M401.7,326.7c0.3-0.6,0.4-1.6,1.4-0.4c0.4,0.5,0.9,0.5,0.4,1.3c-0.4,0.7-0.9,1.3-1.5,1.8 C400.9,328.5,403.9,327.3,401.7,326.7C401.6,326.6,401.7,326.7,401.7,326.7z"></path> <path class="st65" d="M232.1,342.7c0.2-0.6,0.6-1,1.1-0.3c0.8,1.1,1.6,2.3,2.2,3.6C233.7,345.5,233.6,343.3,232.1,342.7 C232,342.7,232.1,342.7,232.1,342.7z"></path> <path class="st27" d="M277.8,345.9c-1.7-0.6-2.1-2.3-2.9-3.5C276.6,343,276.9,344.7,277.8,345.9z"></path> <path class="st21" d="M358.6,342.6c3-0.8,2.3,2.2,3.6,3.2C360.4,345.4,360.4,343,358.6,342.6C358.5,342.6,358.6,342.6,358.6,342.6z "></path> <path class="st40" d="M331.2,354.7c0.7-1.3,1.8-1.9,3.3-2.8C334,354,332.3,354.1,331.2,354.7z"></path> <path class="st49" d="M409.4,342.8c1.1,0.7,2.5,1,2.7,2.6C411.1,344.6,409.7,344.3,409.4,342.8z"></path> <path class="st7" d="M418.7,352c0.1,0.6,0.2,0.8,0.1,0.9c-0.8,1-1.9,1.6-3,2c0,0-0.3-0.3-0.3-0.4 C416.2,353.3,417.8,353.3,418.7,352z"></path> <path class="st0" d="M414.2,338.1c0.9,0.4,0.6,0.7,0.3,1.2c-0.5,1.1,0.5,2.5-0.6,3.5c-0.1,0.1-0.5-0.1-0.5-0.2 C413.7,341.1,413.5,339.5,414.2,338.1z"></path> <path class="st65" d="M371.4,342.7c0.3-1.5,0.1-3.1,0.9-4.5C371.8,339.7,372.7,341.4,371.4,342.7z"></path> <path class="st57" d="M368.6,347.2c-1.1-1.1-2.4-2.1-2.9-2.9c0.7,0.5,2,1.4,3.3,2.4C368.9,346.9,368.7,347.1,368.6,347.2z"></path> <path class="st10" d="M349.5,351.6c1.1-1.2,2.2-2.3,3.2-3.5c0-0.1-0.1-0.1-0.1-0.2c-1,1.3-2,2.5-2.9,3.8 C349.6,351.7,349.6,351.6,349.5,351.6z"></path> <path class="st10" d="M248.5,350.5c-1.9-0.5-2.5-2.2-3.3-3.7C246.6,347.8,247.8,348.9,248.5,350.5 C248.4,350.6,248.5,350.5,248.5,350.5z"></path> <path class="st8" d="M402.8,348.6c1.2-1,2.5-1.9,3.7-2.9C405.9,347.5,404.6,348.5,402.8,348.6z"></path> <path class="st29" d="M393.6,343.4c-0.2,1.6-1.3,2.3-2.5,3.1C391.4,345,392.9,344.5,393.6,343.4z"></path> <path class="st21" d="M270.5,347.9c0.8,1.1,1.8,2.1,1.7,3.9C270.8,350.7,270.8,349.2,270.5,347.9z"></path> <path class="st9" d="M413.4,333.2c-0.7,0.1-1-1.1-1.9-0.6c-0.6,0.4-1.1,0.2-0.9-0.6c0.1-0.5,0.4-1.2,1.2-0.8 C412.6,331.7,413.4,332.1,413.4,333.2C413.3,333.3,413.4,333.2,413.4,333.2z"></path> <path class="st65" d="M320.2,346.4c-1.7-1.3-2.3-2.7-3.4-4.1C318.7,343.2,318.7,343.2,320.2,346.4z"></path> <path class="st16" d="M292,352.3c-0.8,1.5-0.8,1.5-3.2,2.7C289.4,353.2,291.1,353.2,292,352.3z"></path> <path class="st9" d="M371.2,333.2c-0.7,0.1-1-1.1-1.8-0.6c-0.5,0.3-0.9,0.4-1-0.3c-0.1-0.3,0.2-0.7,0.4-1c0.4-0.6,0.8-0.1,1.1,0.1 C370.6,331.8,371.2,332.4,371.2,333.2C371.2,333.3,371.2,333.2,371.2,333.2z"></path> <path class="st35" d="M377.3,352c-1.3,1.9-2.4,2.4-3.8,2.7C374.2,353.5,375.4,353,377.3,352z"></path> <path class="st0" d="M254,358.2c-0.6-1.5-1-2.9,0-4.3C254,355.3,254,356.8,254,358.2z"></path> <path class="st19" d="M240.2,342.8c1.3,0.4,2.2,1.4,2.9,2.5C241.8,345,240.9,344.1,240.2,342.8z"></path> <path class="st66" d="M285.6,345.1c-1.7-0.1-2.5-1.1-3-2.5C283.6,343.4,284.6,344.2,285.6,345.1z"></path> <path class="st7" d="M325,342.5c0.9,0.9,1.9,1.7,2.8,2.6c-1.7-0.1-2.4-1.2-3.3-2.1C324.7,342.9,324.8,342.7,325,342.5z"></path> <path class="st58" d="M386,340.4c1.6,0,2.4,1.2,3.4,1.9C387.9,342.4,387,341.3,386,340.4z"></path> <path class="st56" d="M420.3,353.3c0.9-0.1,0.9,0.5,0.7,1.1c-0.1,0.4,0.4,1-0.3,1.1c-1.1,0.2-0.6-0.9-1-1.3 C419.3,353.7,419.8,353.4,420.3,353.3z"></path> <path class="st67" d="M378.4,355.6c-0.6-0.6-1.3-1.2-0.7-2c0.1-0.2,0.6-0.3,0.7-0.2C379.4,354,378.6,354.8,378.4,355.6z"></path> <path class="st0" d="M243.5,325.2c-0.9,0.9-2,1.6-3.8,2.5c1.1-1.8,2.3-2.3,3.5-2.8C243.3,324.9,243.4,325,243.5,325.2z"></path> <path class="st0" d="M221.6,327.2c1.3,0.7,2.2,1.7,2.6,3.1C223.3,329.4,221.7,329,221.6,327.2C221.7,327.2,221.6,327.2,221.6,327.2 z"></path> <path class="st10" d="M246.8,354.8c0.5-1.4,1.9-1.8,3-2.4C249.4,354,247.8,354,246.8,354.8z"></path> <path class="st68" d="M221.8,346.5c0.3-1.5,1.5-2.2,2.7-3.4C224.2,345.1,222.7,345.6,221.8,346.5z"></path> </g> </svg>