<svg xmlns="http://www.w3.org/2000/svg" xmlns:xlink="http://www.w3.org/1999/xlink" id="Layer_1" x="0px" y="0px" viewBox="0 0 600 600" style="enable-background:new 0 0 600 600;" xml:space="preserve"> <style type="text/css"> .st0{fill:#241F21;} .st1{fill:#FEFEFE;} .st2{fill:#FFFFFF;} </style> <g> <path class="st0" d="M300.6,170.2c97.6,0,195.3,0,292.9,0c1.2,0,2.5,0,3.7-0.1c0.7,0,1.2,0.3,1.1,1.1c0,0.4,0,0.8,0,1.2 c0,84.9,0,169.8,0,254.8c0,2.6,0,2.6-2.5,2.6c-0.8,0-1.5,0-2.3,0c-195.3,0-390.5,0-585.8,0c-1.1,0-2.2,0-3.3,0 c-1.5,0-1.5,0-1.6-1.5c0-0.4,0-0.8,0-1.2c0-84.2,0-168.5,0-252.7c0-1.1,0-2.2,0-3.3c0-0.6,0.3-0.9,0.9-0.9c0.7,0,1.4,0,2.1,0 C104.1,170.2,202.4,170.2,300.6,170.2z"></path> <path class="st1" d="M5.2,427.9c1.7-4.1,3.3-7.8,4.5-11.7c4.3-12.9,6.5-26.2,6.5-39.9c0-51.5,0-102.9,0-154.4 c0-0.5-0.2-1.1,0.1-1.6c0.7,0.2,0.7,0.8,1,1.3c9.1,15.5,22.5,24.7,40.2,27.8c2.7,0.5,5.4,0.6,8.1,0.6c86.1,0,172.2,0,258.3,0 c69.8,0,139.6,0,209.4,0c8.5,0,16.7-1.3,24.5-4.8c11-5,19.6-12.7,25.7-23.2c0.3-0.6,0.5-1.3,1.4-1.8c0,0.9,0,1.6,0,2.4 c0,51.2,0,102.5,0,153.7c0,17.2,3.5,33.6,10.2,49.4c0.3,0.7,0.8,1.3,0.7,2.2C399,427.9,202.3,427.9,5.2,427.9z"></path> <path class="st2" d="M596.4,172.1c-0.9,3.6-1.7,7-2.6,10.4c-2.2,8.7-4.2,17.5-6.6,26.2c-5.6,20.4-22.3,35.4-43.2,38.9 c-3.2,0.5-6.3,0.7-9.5,0.7c-44.1,0-88.2,0-132.3,0c-111.9,0-223.9,0-335.8,0c-25.2,0-46.6-16.6-52.7-41.2 c-2.8-11.2-5.6-22.5-8.4-33.7c-0.1-0.4-0.3-0.8-0.1-1.3C202.1,172.1,399.2,172.1,596.4,172.1z"></path> <path class="st2" d="M4.8,179.5c0.8,1.7,1,3.5,1.5,5.1c2,7.8,3.9,15.6,5.8,23.4c0.5,2.1,1.1,4.2,1.9,6.1c0.4,1.1,0.6,2.2,0.6,3.4 c0,52.8,0,105.7,0,158.5c0,15.8-2.9,31-8.7,45.7c-0.2,0.6-0.5,1.1-0.7,1.7c0,0.1-0.2,0.2-0.4,0.4C4.8,342.4,4.8,261.1,4.8,179.5z"></path> <path class="st2" d="M596.6,179.7c0,81.3,0,162.7,0,244.1c-0.6-0.3-0.6-0.8-0.8-1.2c-4.3-10.7-7.1-21.7-8.3-33.2 c-0.6-5.3-0.8-10.5-0.8-15.8c0-51.8,0-103.6,0-155.4c0-1.6,0.2-3.1,0.8-4.7c1.9-4.9,2.8-10.1,4.2-15.2c1.5-5.6,2.8-11.3,4.2-16.9 c0.1-0.6,0.3-1.2,0.5-1.8C596.5,179.8,596.5,179.7,596.6,179.7z"></path> </g> </svg>