<svg xmlns="http://www.w3.org/2000/svg" xmlns:xlink="http://www.w3.org/1999/xlink" id="Layer_1" x="0px" y="0px" viewBox="0 0 600 600" style="enable-background:new 0 0 600 600;" xml:space="preserve"> <style type="text/css"> .st0{fill:#231F20;} .st1{fill:#2A2627;} .st2{fill:#FFFFFF;} </style> <g> <path class="st0" d="M3,524.3c-0.3-0.5-0.1-1-0.1-1.4c0-58,0-116,0-174c0-90.2,0-180.3,0-270.5c0-0.3,0-0.6,0-0.8 c0-0.5,0.2-0.8,0.8-0.8c0.6,0,1.2,0,1.8,0c100.2,0,200.3,0,300.5,0c96.8,0,193.7,0,290.5,0c0.8,0,1.5,0,2.3,0.1 c0.5,0.2,0.9,0.4,0.8,1c0,0.4,0,0.9,0,1.3c0,147.7,0,295.4,0,443.1c0,0.4,0,0.8,0,1.2c0.1,0.8-0.3,1.1-1.1,1c-0.4,0-0.9,0-1.3,0 c-99,0-198,0-297,0c-0.7,0-1.4-0.1-2.1,0.1c-1.9,0.1-3.8,0.1-5.6,0c-0.7-0.3-1.4-0.1-2.1-0.1c-95.1,0-190.1,0-285.2,0 C4.4,524.4,3.7,524.6,3,524.3z"></path> <path class="st1" d="M298,524.6c0.2-0.2,0.5-0.3,0.7-0.3c0.5,0,1,0,1.5,0c98.9,0,197.9,0,296.8,0c2.4,0,2.2,0.2,2.2-2.2 c0-147.7,0-295.4,0-443c0-0.8,0.2-1.7-0.6-2.2c0.4,0,0.8-0.1,0.9,0.5c0,0.4,0,0.8,0,1.2c0,86.3,0,172.6,0,258.9 c0,61.3,0,122.6,0,183.9c0,0.9,0,1.8,0,2.6c0,0.6-0.2,0.8-0.8,0.8c-0.3,0-0.6,0-0.8,0c-99.4,0-198.8,0-298.1,0 C299.3,524.6,298.7,524.6,298,524.6z"></path> <path class="st1" d="M3,524.3c0.6,0,1.2,0,1.8,0c95.2,0,190.4,0,285.6,0c0.7,0,1.4-0.3,2,0.3c-0.9,0-1.8,0-2.6,0 c-94.9,0-189.9,0-284.8,0C4.3,524.6,3.5,525,3,524.3z"></path> <path class="st2" d="M298.7,523.3c-2.4-0.1-4.9-0.1-7.3,0c-0.6,0.3-1.2,0.1-1.8,0.1c-94.3,0-188.6,0-282.8,0 c-0.6,0-1.2,0.1-1.8-0.1c-0.7-0.1-0.5-0.5-0.4-1c0.5-2.6,1-5.3,1.5-8c1.1-6.1,1.9-12.3,2.6-18.5c1.5-13.3,1.8-26.6,1.8-39.9 c0-108.3,0-216.6,0-325c0-2.2,0-4.3,0.5-6.4c0.1-0.6,0.2-1.2,0.7-1.9c0.5,2.4,0.9,4.7,1.4,7c1.5,7.9,2.9,15.8,4.7,23.7 c1.4,6.2,4.9,11.2,10.4,14.5c3.2,2,6.7,3,10.5,3.2c1,0,2,0,3,0c173.2,0,346.4,0,519.6,0c3.7,0,7.3-0.3,10.7-1.8 c7-3.2,11.5-8.5,13.1-16.1c2-9.6,3.8-19.2,5.7-28.8c0.1-0.5,0.1-1,0.5-1.4c0.7,2.1,1,4.3,1.1,6.5c0,0.7,0,1.4,0,2.1 c0,108.9,0,217.7,0,326.6c0,4.8,0,9.6,0.1,14.4c0.2,6.3,0.6,12.7,1.2,19c0.7,7.8,1.8,15.5,3.1,23.2c0.4,2.6,1,5.1,1.5,7.6 c0.1,0.5,0.2,0.9-0.5,1c-0.6,0.3-1.2,0.1-1.8,0.1c-98.4,0-196.7,0-295.1,0C299.9,523.4,299.3,523.6,298.7,523.3z"></path> <path class="st2" d="M4.5,78.2c197.8,0,395.6,0,593.4,0c0,1.2-0.3,2.3-0.5,3.4c-2.4,12.3-4.8,24.5-7.2,36.8 c-2.2,11.3-4.5,22.7-6.6,34c-1.2,6.5-4.8,11.3-10.3,14.7c-2.7,1.6-5.8,2.5-8.9,2.7c-0.9,0.1-1.9,0.1-2.8,0.1 c-86.9,0-173.9,0-260.8,0c-86.6,0-173.2,0-259.8,0c-3.2,0-6.4-0.4-9.4-1.6c-6.3-2.6-10.2-7.3-12.2-13.7c-1-3.2-1.4-6.6-2.1-9.9 c-2.9-15.1-5.9-30.3-8.8-45.4c-1.3-6.8-2.6-13.5-3.9-20.3C4.5,78.7,4.5,78.4,4.5,78.2z"></path> <path class="st2" d="M4.3,515c0-142.9,0-285.8,0-428.7c0.1,0,0.1,0,0.2,0c0.6,2.8,1.1,5.7,1.7,8.5c1.5,7.8,3,15.6,4.5,23.4 c0.1,0.7,0.1,1.4-0.1,2.1c-1.1,3.4-1.6,6.8-1.6,10.4c0,110.5,0,221,0,331.6c0,7.5-0.2,15-0.8,22.5c-0.7,9-1.7,18-3.2,26.9 c-0.2,1.1-0.4,2.3-0.5,3.4C4.5,515,4.4,515,4.3,515z"></path> <path class="st2" d="M598.1,86.4c0,142.8,0,285.6,0,428.4c-0.7-1.4-0.7-3-1-4.5c-0.9-5.5-1.6-11-2.2-16.5 c-0.5-4.8-0.8-9.7-1.1-14.5c-0.5-7.1-0.4-14.2-0.4-21.3c0-109,0-217.9,0-326.9c0-3.7-0.4-7.2-1.8-10.6c-0.3-0.6-0.1-1.2,0-1.8 c1.8-9,3.5-18,5.3-27.1c0.3-1.7,0.7-3.4,1-5.1C597.9,86.4,598,86.4,598.1,86.4z"></path> <path class="st1" d="M298.7,523.3c0.6,0,1.2-0.1,1.8-0.1c98.3,0,196.7,0,295,0c0.6,0,1.2,0,1.8,0.1c-0.2,0.2-0.4,0.3-0.7,0.3 c-0.4,0-0.9,0-1.3,0c-98.2,0-196.4,0-294.6,0C300.1,523.6,299.3,523.9,298.7,523.3z"></path> <path class="st1" d="M5,523.3c0.6,0,1.2-0.1,1.8-0.1c94.3,0,188.5,0,282.8,0c0.6,0,1.2,0,1.8,0.1c-0.2,0.2-0.4,0.3-0.7,0.3 c-0.5,0-1,0-1.5,0c-94,0-188,0-282,0C6.5,523.6,5.7,523.9,5,523.3z"></path> </g> </svg>