<svg xmlns="http://www.w3.org/2000/svg" xmlns:xlink="http://www.w3.org/1999/xlink" id="Layer_1" x="0px" y="0px" viewBox="0 0 600 600" style="enable-background:new 0 0 600 600;" xml:space="preserve"> <style type="text/css"> .st0{fill:#242021;} .st1{fill:#2A2627;} .st2{fill:#FFFFFF;} .st3{fill:#FEFEFE;} </style> <g> <path class="st0" d="M4.8,86.3c1.8-0.5,3.6-0.1,5.4-0.1c81.8,0,163.5,0,245.3,0c112.2,0,224.4,0,336.5,0c1.7,0,3.5-0.7,5.2,0.2 c0.5,0.9,0.3,2,0.3,2.9c0,141.1,0,282.2,0,423.3c0,3.7,0.4,3.3-3.3,3.3c-195.4,0-390.9,0-586.3,0c-1.2,0-2.6,0.6-3.5-0.8 c-0.2-0.4-0.2-0.7,0-1.1c0.4-1.1,0.2-2.3,0.2-3.5c0-140.3,0-280.5,0-420.8C4.6,88.6,4.4,87.4,4.8,86.3z"></path> <path class="st1" d="M4.4,515.2c0.6,0.4,1.3,0.6,2.1,0.5c0.7,0,1.4,0,2.2,0c194.8,0,389.6,0,584.4,0c4.8,0,4.2,0.6,4.2-4.1 c0-141.7,0-283.4,0-425.2c0.7,0.7,0.4,1.5,0.4,2.3c0,140.6,0,281.1,0,421.7c0,1.5,0,3.1,0,4.6c0,0.8-0.4,1.4-1.3,1.3 c-0.6,0-1.3,0-1.9,0c-195.6,0-391.2,0-586.9,0c-0.9,0-1.8,0-2.7-0.1C4.2,516.2,4.3,515.6,4.4,515.2z"></path> <path class="st1" d="M4.8,86.3c0,1.1,0,2.2,0,3.3c0,140.4,0,280.8,0,421.2c0,1.1,0.5,2.4-0.5,3.4c0-1.6-0.1-3.3-0.1-4.9 c0-139.9,0-279.8,0-419.6C4.3,88.5,3.7,87.2,4.8,86.3z"></path> <path class="st2" d="M593.9,492.1c-0.2,1,0,2,0.1,3c0.6,1.9-0.2,3.8,0.4,5.7c-0.2,0.8-0.1,1.7,0.1,2.5c0.6,1.8-0.2,3.8,0.4,5.6 c-0.2,0.9-0.1,1.7,0.1,2.5c0.2,0.9,0.5,1.8-0.1,2.7l0.1,0c-0.9,0.6-1.9,0.3-2.9,0.3c-194.2,0-388.4,0-582.6,0c-1,0-2.1,0.5-3-0.5 c0.7-3.3,0.6-6.7,0.8-10c0.9-12.4,1.6-24.8,2.4-37.1c1.4-20.5,2.5-41,3.5-61.6c0.8-15,1.3-30,1.9-45.1c0.8-18.6,1.2-37.1,1.5-55.7 c0-2,0.1-2,2.2-2c0.6,0,1.3,0,1.9,0c186.9,0,373.9,0,560.8,0c4.2,0,4.1,0,4.2,4.1c0.7,27,1.3,54,2.5,80.9c0.6,14.7,1.1,29.3,1.9,44 c0.9,18.1,2,36.2,3.1,54.2c0,0.3,0.1,0.5,0.1,0.8C594.1,488.2,593.3,490.2,593.9,492.1z"></path> <path class="st2" d="M301.3,88.5c96.8,0,193.6,0,290.5,0c3.4,0,3.5,0,3.3,3.5c-1,21.2-2,42.3-3.1,63.5c-0.6,12.2-1.1,24.4-1.7,36.6 c-0.9,18.2-1.7,36.4-2.6,54.5c-0.6,12.3-1.2,24.6-1.7,36.9c-0.2,4.9-0.4,9.8-0.7,14.7c-0.1,1.8-0.1,1.8-2,1.9c-0.5,0-1.1,0-1.6,0 c-186.7,0-373.3,0-560,0c-3.6,0-3.6,0-3.8-3.7c-0.7-14.7-1.4-29.5-2.1-44.2c-1-20.5-2-41.1-3-61.6c-0.6-13.1-1.2-26.2-1.8-39.3 c-0.8-17.3-1.7-34.5-2.5-51.8c-0.2-3.2-0.2-6.3-0.4-9.5c-0.1-1.1,0.3-1.5,1.4-1.4c0.6,0,1.3,0,1.9,0 C107.8,88.5,204.6,88.5,301.3,88.5z"></path> <path class="st3" d="M6.9,117.5c0.8,17.2,1.6,34.4,2.4,51.6c1.1,23.1,2.2,46.1,3.3,69.2c0.7,14.9,1.6,29.8,2.1,44.8 c0.3,9.2,0,18.4-0.3,27.6c-0.4,17.6-0.9,35.1-1.5,52.7c-0.7,17.7-1.4,35.5-2.4,53.2c-0.6,10.8-1.2,21.7-1.8,32.5 c-0.6,9.5-1,19-2,28.4c0-120,0-240,0-360C6.7,117.5,6.8,117.5,6.9,117.5z"></path> <path class="st2" d="M595.1,145.8c0,108.6,0,217.1,0,325.7c-0.1,0-0.2,0-0.3,0c-0.2-3.5-0.5-7-0.7-10.5 c-0.6-12.4-1.2-24.8-1.9-37.2c-1-19.4-1.8-38.9-2.4-58.4c-0.6-16.7-0.9-33.3-1.4-50c-0.3-10-0.8-20.1-0.4-30.1 c0.7-16.8,1.6-33.6,2.4-50.5c0.6-12.2,1.2-24.4,1.7-36.6c0.8-17.2,1.6-34.4,2.4-51.6c0-0.4,0.1-0.7,0.1-1.1 C594.9,145.7,595,145.8,595.1,145.8z"></path> <path class="st1" d="M6.6,513.8c1,0.3,2,0.2,3,0.2c194.4,0,388.9,0,583.3,0c0.7,0,1.4,0,2.2,0c-0.2,0.5-0.6,0.6-1.1,0.6 c-0.7,0-1.4,0-2.2,0c-193.9,0-387.9,0-581.8,0C8.8,514.6,7.4,515.3,6.6,513.8z"></path> <path class="st1" d="M593.9,492.1c-0.6-1.9-0.5-3.8-0.4-5.7C594.5,488.2,593.8,490.2,593.9,492.1z"></path> <path class="st1" d="M594.5,500.7c-0.6-1.9-0.5-3.8-0.4-5.7C595,496.9,594.4,498.8,594.5,500.7z"></path> <path class="st1" d="M595,508.9c-0.6-1.8-0.5-3.7-0.4-5.6C595.6,505,594.9,507,595,508.9z"></path> <path class="st1" d="M595,514.1c0-0.9,0.1-1.8,0.1-2.7C595.8,512.3,596,513.2,595,514.1z"></path> </g> </svg>