<svg xmlns="http://www.w3.org/2000/svg" xmlns:xlink="http://www.w3.org/1999/xlink" id="Layer_1" x="0px" y="0px" viewBox="0 0 600 600" style="enable-background:new 0 0 600 600;" xml:space="preserve"> <style type="text/css"> .st0{fill:#191414;} .st1{fill:#0F0E10;} .st2{fill:#171412;} .st3{fill:#F4C559;} .st4{fill:#F3C65E;} .st5{fill:#010210;} .st6{fill:#010009;} .st7{fill:#F5C55A;} .st8{fill:#FEE178;} .st9{fill:#040309;} .st10{fill:#F4C860;} </style> <g> <path class="st0" d="M596.4,522.5c-1.5,0-3,0.1-4.5,0.1c-194.5,0-389,0-583.6,0.1c-2.5,0-3.4-0.6-3.1-3.1c0.2-2.4,0.1-4.8,0.2-7.2 c0.7-0.7,0.3-2.2,1.4-2.7c0.5-0.1,1,0.1,1.3,0.5c0.5,1.2,0.7,2.4,0.9,3.6c0,0.3,0,0.6,0,0.9c-0.5,5.1-0.5,5.1,4.9,5.1 c191.8,0,383.5,0,575.3,0c2.1,0,4.2-0.2,6.3,0.3C596.6,520.6,597.1,521.3,596.4,522.5z"></path> <path class="st1" d="M596.4,522.5c0-0.7,0-1.5-0.8-1.8c-0.2-0.4-0.3-0.8-0.3-1.2c0.4-3.6,0.2-7.2,0.2-10.8c0-139.1,0-278.2,0-417.3 c0-2.6-0.1-5.2-0.1-7.8c0.1-3.4-0.2-3.6-3.5-3.6c-0.4,0-0.8,0-1.2,0c-192.6,0-385.2,0-577.8,0c-1.8,0-3.8-0.6-5.5,0.8 c-0.6,0.8-0.6,1.8-0.8,2.7c-0.1,0.9,0,2-1.4,2.2c0-2.4,0-4.8,0-7.2c1-0.6,2.2-0.3,3.2-0.3c195,0,390,0,585,0c4,0,3.6-0.4,3.6,3.5 c0,145.8,0,291.6,0,437.4c0,1.1,0.3,2.2-0.3,3.2C596.8,522.5,596.6,522.5,596.4,522.5z"></path> <path class="st2" d="M597,522.4c0-145.8,0-291.5,0-437.3c0-1.3-0.1-2.6,0-3.9c0.2-2.2-0.8-2.9-2.8-2.6c-0.9,0.1-1.8,0-2.7,0 c-195.4,0-390.7,0-586.1,0c0.8-1.2,2-0.5,3-0.5c195.3,0,390.6,0,585.9-0.1c1.9,0,3.2-0.1,3.2,2.7c-0.1,146.3-0.1,292.6-0.1,438.9 C597.4,520.6,597.9,521.6,597,522.4z"></path> <path class="st1" d="M6.7,509.8c-0.1,1-0.1,2.1-1.3,2.6c0-4.6-0.1-9.2-0.1-13.8c0-136.1,0-272.2,0-408.3c0-1.1,0.1-2.2,0.1-3.3 c1.8,0.4,1.6,2,1.9,3.3c0.1,0.6,0.1,1.1,0.1,1.7c0,137.5,0,275.1,0,412.6c0,1.4,0.1,2.8-0.2,4.2C7.2,509.2,7,509.5,6.7,509.8z"></path> <path class="st0" d="M6.7,90.2c-0.4-1.1-0.5-2.3-1.3-3.2c0-0.4,0-0.8,0-1.2c1.4-1.4-0.3-3.4,1.2-4.8c0.3-0.2,0.5-0.2,0.8,0 c0.5,0.4,0.7,1,0.9,1.5c0.3,1.6,0.9,3.2,0.6,4.9C8.7,88.3,8.6,89.2,8,90C7.6,90.3,7.2,90.4,6.7,90.2z"></path> <path class="st3" d="M595.7,520.5c0,0-0.1,0.2-0.1,0.2c-1,0.1-2,0.2-3,0.2c-194.1,0-388.2,0-582.3,0.1c-2.8,0-3.5-0.6-2.7-3.3 c0.5-1.5,0.5-3.1,0.7-4.7c-0.4-5.7,1.2-11.2,1.7-16.9c0.6-5.3,1.4-10.7,1.5-16c0.2-14.1,0.8-28.1,0.8-42.2 c-0.1-102.4-0.1-204.7,0-307.1c0-2-0.4-4,0.6-5.9c2.1-0.9,2.1,0.8,2.4,2c1.5,6.9,2.8,13.9,4.2,20.8c1,5.5,2,11,5.8,15.5 c3.8,4.6,8.7,7.2,14.7,7.5c0.7,0,1.4,0,2.1,0c172.8,0,345.5,0,518.3,0c8.1,0,14.2-3.3,18.7-9.9c2.6-3.9,3-8.6,3.9-13.1 c1.5-6.9,2.6-13.9,4.2-20.8c0.3-1.2,0.2-2.8,2.2-2.2c1.2,2.2,1.3,4.6,1.3,7c0,19.8,0,39.6,0,59.4c0,92.6,0,185.1,0,277.7 c0,11.6,1.2,23.1,2.8,34.5c0.4,2.8,0.6,5.5,1.2,8.3C595,514.6,595.9,517.5,595.7,520.5z"></path> <path class="st4" d="M6.7,90.2c0.3,0,0.7,0,1,0c1.6,2,1.4,4.5,1.9,6.7c1.5,6.8,2.5,13.6,4,20.4c0.5,2.2,0.4,4.3-0.3,6.4 c-1.2,2.2-1,4.7-1,7c0,54,0,108,0,161.9c0,55.1,0.1,110.2,0,165.2c0,16.3-0.8,32.5-3.5,48.6c-0.2,1.2-0.1,2.4-1,3.4 c-0.4,0-0.7-0.1-1.1-0.1c0,0,0-0.2,0-0.2c0.5-1.1,0.2-2.2,0.2-3.3c0-137.4,0-274.7,0-412.1c0-1.1,0.2-2.2-0.2-3.3 C6.7,90.7,6.7,90.4,6.7,90.2z"></path> <path class="st5" d="M7.8,509.9c0.8-8.6,2.3-17.2,2.8-25.8c0.3-5.8,0.9-11.5,0.9-17.3c0.1-112.3,0-224.5,0-336.8 c0-2.4,0.3-4.8,1.2-7c1.3,0.3,1,1.1,0.6,2c-0.1,3.4-0.2,6.8-0.2,10.2c0,107.9,0,215.8,0,323.7c0,17.7-1.4,35.3-4.2,52.7 c-0.1,0.5-0.3,0.9-0.5,1.4C7.4,512.1,8.1,510.9,7.8,509.9z"></path> <path class="st6" d="M595,521.9c-195.7,0-391.3,0-587,0c0-0.1,0-0.2,0-0.3c195.7,0,391.4,0,587.1,0 C595.1,521.7,595,521.8,595,521.9z"></path> <path class="st2" d="M595.7,520.5c-0.9-2.6-1.4-5.3-1.6-8.1c0.6-1-0.5-2.3,0.6-3.2c0.6-0.7,0.3-1.5,0.3-2.3 c-0.3-88.6-0.1-177.1-0.1-265.7c0-46.6,0-93.2,0-139.8c0-3.6,0.7-7.1-0.2-10.7c-0.7-0.7-0.8-1.7-1.1-2.6c-0.3-1.4,0.2-2.8,0.4-4.1 c0.1-1,0.7-2.2-0.5-3c-1.2-0.6-2.4-0.3-3.6-0.3c-192.5,0-385.1,0-577.6,0c-1.7,0-3.4-0.1-5.1,0.3l-0.3,0c0,0-0.3,0-0.3,0 c-0.1-1.2,0.4-1.9,1.7-1.8c0.8,0,1.6,0,2.4,0c194,0,387.9,0,581.9-0.1c3.2,0,3.8,1.3,3.8,3.9c0,3.4,0,6.8,0,10.2 c0,140.9,0,281.8,0,422.6C596.4,517.4,596.6,519,595.7,520.5z"></path> <path class="st0" d="M6.7,91C7.3,92.7,7,94.5,7,96.3c0,136.3,0,272.6,0,408.8c0,1.5,0.2,3-0.3,4.5c0-1-0.1-2-0.1-3 c0-137.5,0-274.9,0-412.4C6.6,93.1,6.6,92.1,6.7,91z"></path> <path class="st7" d="M595.2,80.4c-0.4,2.6-0.8,5.2-1.2,7.8c0.4,3.2-0.5,6.3-1.1,9.4c-3.7,18.6-7.4,37.2-11,55.8 c-2.1,10.8-10.7,17.6-22.1,17.6c-151.7,0-303.5,0-455.2,0c-20.6,0-41.2,0-61.8,0c-11.8,0-20.1-6.8-22.4-18.4 c-3.9-19.9-7.6-39.8-11.6-59.6c-0.3-1.8-0.5-3.6-0.4-5.4c-0.3-1.8-0.5-3.5-0.8-5.3c0.1-1.7,1.1-2.5,2.8-2.2c0.7,0.1,1.4,0,2.1,0 c193,0,385.9,0,578.9,0C592.7,80.1,594,79.8,595.2,80.4z"></path> <path class="st1" d="M8.4,87.6c2.6,13,5.1,26,7.7,39.1c1.7,8.6,3.3,17.3,5,25.9c2.2,11.1,10.6,17.8,22.2,17.9c25.8,0,51.6,0,77.4,0 c146.1,0,292.1,0,438.2,0c12.4,0,20.2-6.5,22.6-18.7c3.9-20.3,7.9-40.6,11.9-60.8c0.2-0.9,0.4-1.7,0.7-2.6c0.9,0.7,0.4,1.7,0.7,2.6 c0.8,1.3,0.5,2.7,0.2,4c-1.2,7.2-2.7,14.3-4.1,21.4c-0.4,2.2-0.7,4.3-0.6,6.5c-0.2,0.8-0.4,1.7-1.1,2.2c-1.3-0.2-1,0.9-1.2,1.6 c-1.8,9.1-3.5,18.2-5.4,27.3c-2.2,10.8-11,17.9-22,17.9c-172.8,0-345.7,0-518.5,0c-11.3,0-20.1-7.1-22.4-18.2 c-1.8-8.9-3.5-17.8-5.2-26.7c-0.1-0.7,0.4-2.1-1.2-1.8c-0.2-0.7,0.1-1.5-0.6-2c0.5-1.8,0.5-3.6,0.1-5.6c-1.7-9.1-3.9-18.1-5.1-27.3 C8,89.3,7.5,88.3,8.4,87.6z"></path> <path class="st8" d="M595.2,80.4c-2,0-4,0-6,0c-192.3,0-384.6,0-576.8,0c-1.9,0-3.8-0.1-4.8,1.9c-0.2-0.4-0.3-0.9-0.5-1.3 c0.1-0.7,0.1-1.4,1.1-1.4c0.9,0,1.8,0,2.7,0c193.7,0,387.5,0,581.2,0C593.1,79.7,594.6,78.8,595.2,80.4z"></path> <path class="st9" d="M589.1,124.9c0.1-0.7-0.1-1.4,0.6-1.9c1.5,1.6,2,3.6,2.2,5.8c0.1,1.5,0,3,0,4.5c0,105.2,0.1,210.5-0.1,315.7 c0,18.5,0.8,36.9,3.1,55.3c0.2,1.7,0.6,3.4-0.3,5c-0.3,1,0.3,2.2-0.6,3.1c-2.5-12.9-4.1-26-4.1-39.2 c-0.2-113.8-0.2-227.6-0.3-341.4C589.6,129.5,589.3,127.2,589.1,124.9z"></path> <path class="st10" d="M594.7,509.3c-0.8-9-2.5-18-2.9-27c-0.2-4.2-0.6-8.4-0.6-12.5c0-112.3,0-224.6,0-336.9c0-3.4-0.9-6.5-1.4-9.8 c-0.5-1.7-0.4-3.4-0.1-5.2c1.7-9,3.9-17.9,5-27c0.2-0.4,0.4-0.9,0.9-1.7c0,140.7,0,281,0,421.6C595.2,510.1,595,509.7,594.7,509.3z "></path> </g> </svg>