<svg xmlns="http://www.w3.org/2000/svg" xmlns:xlink="http://www.w3.org/1999/xlink" id="Layer_1" x="0px" y="0px" viewBox="0 0 600 600" style="enable-background:new 0 0 600 600;" xml:space="preserve"> <style type="text/css"> .st0{fill:#FFFFFF;} </style> <g> <path d="M438.2,597.6c-91.6,0-182.9,0-274.3,0c-0.1-0.7-0.2-1.3-0.2-1.9c0-1.2,0-2.4,0-3.6c0-166.9,0-333.8,0-500.6 c0-2.3,0.3-4.7,0.8-6.9c5.2-21.2,10.6-42.3,15.8-63.4c2.7-11,12.4-17.9,21.9-18.1c1.9,0,3.7-0.2,5.6-0.2c62.5,0,125,0,187.6,0 c2.6,0,5.2,0,7.7,0.6c9.9,2.1,16.1,8.2,18.6,17.9c2.9,11,5.5,22.1,8.3,33.1c2.5,10.2,5.1,20.3,7.6,30.5c0.4,1.8,0.7,3.7,0.7,5.5 c0,168.2,0,336.3,0,504.5C438.2,595.7,438.2,596.5,438.2,597.6z M435.9,587.3c0.9-7.5,0.6-495.9,0.1-498.1 c-0.9,0.2-1.9,0.5-2.8,0.7c-39.6,10.6-79.1,21.4-118.8,31.8C246,139.6,201.9,200.2,202,266.8c0.1,88,0,176.1,0,264.1 c0,0.5,0,1,0,1.5c0,0.6,0.1,1.2,0.2,2c1.3,0,2.4,0,3.5,0c64.2,0,128.4,0,192.6,0c1.1,0,2.3,0,3.4,0c12,0.3,21.6,7.7,24.9,19.4 c2.9,10.5,5.7,21,8.6,31.5C435.4,586,435.6,586.7,435.9,587.3z M200,534.3c0-1.4,0-2.7,0-3.9c0-87.1,0-174.3,0-261.4 c0-12.8,1.2-25.5,4.2-37.9c12.6-53.1,53.9-95.9,106.6-110.2c18.5-5,37.1-10,55.6-15c0.8-0.2,1.6-0.4,2.4-0.7c0-0.2,0-0.3-0.1-0.5 c-67.6-5.2-135.1-10.5-202.9-15.7c0,166.2,0,332.1,0,498c0.6-0.7,0.9-1.4,1.1-2.1c2.8-10.4,5.4-20.8,8.4-31.1 c2.9-10.1,9.6-16.4,19.9-18.8C196.7,534.6,198.2,534.5,200,534.3z M435.8,86.8c-0.1-0.6-0.1-0.9-0.1-1.3 c-5.3-21.5-10.6-42.9-16.1-64.3c-2-8-7.3-13.2-15.2-15.5c-2.5-0.7-5.3-0.9-7.9-0.9c-63.7,0-127.4,0-191.2,0c-1.9,0-3.9,0-5.8,0.4 c-9.5,2-15.3,7.8-17.6,17.2c-5.1,20.6-10.2,41.2-15.4,61.8c-0.2,0.8-0.4,1.7-0.6,2.7C256.1,86.8,345.9,86.8,435.8,86.8z M435.9,595.7c-0.2-0.9-0.3-1.6-0.5-2.2c-3.5-12.9-7-25.8-10.4-38.8c-2.7-10.2-11.9-18.4-24.3-18.4c-66.5,0.1-132.9,0-199.4,0 c-0.6,0-1.3,0-1.9,0c-10.9,0.6-19.5,7.5-22.3,18c-3.5,13-7,26-10.5,39c-0.2,0.7-0.3,1.4-0.4,2.2 C256.1,595.7,345.8,595.7,435.9,595.7z M195,88.9c0,0.1,0,0.2,0,0.3c12.8,1,25.6,2,38.4,3c9.2,0.7,18.3,1.4,27.5,2.1 c11.4,0.9,22.8,1.8,34.3,2.7c9.3,0.7,18.7,1.4,28,2.1c12,0.9,24,1.9,36,2.8c4.7,0.4,9.3,0.7,14,1.1c1.5,0.1,3,0.2,4.5-0.2 c16.2-4.4,32.4-8.7,48.6-13.1c0.6-0.2,1.1-0.4,1.7-0.6c0-0.1-0.1-0.2-0.1-0.2C350.2,88.9,272.6,88.9,195,88.9z"></path> <path class="st0" d="M435.9,587.3c-0.2-0.7-0.4-1.3-0.6-2c-2.9-10.5-5.6-21-8.6-31.5c-3.2-11.6-12.8-19.1-24.9-19.4 c-1.1,0-2.3,0-3.4,0c-64.2,0-128.4,0-192.6,0c-1.1,0-2.2,0-3.5,0c-0.1-0.8-0.2-1.4-0.2-2c0-0.5,0-1,0-1.5c0-88,0.1-176.1,0-264.1 c-0.1-66.6,44-127.2,112.4-145.1c39.7-10.4,79.2-21.2,118.8-31.8c0.9-0.2,1.9-0.5,2.8-0.7C436.5,91.4,436.7,579.8,435.9,587.3z"></path> <path class="st0" d="M200,534.3c-1.8,0.3-3.4,0.4-4.8,0.7c-10.3,2.4-17,8.7-19.9,18.8c-3,10.3-5.6,20.7-8.4,31.1 c-0.2,0.7-0.5,1.5-1.1,2.1c0-165.9,0-331.8,0-498c67.7,5.3,135.3,10.5,202.9,15.7c0,0.2,0,0.3,0.1,0.5c-0.8,0.2-1.6,0.4-2.4,0.7 c-18.5,5-37.1,9.9-55.6,15c-52.6,14.3-94,57.1-106.6,110.2c-3,12.5-4.2,25.1-4.2,37.9c0,87.1,0,174.3,0,261.4 C200,531.6,200,532.8,200,534.3z"></path> <path class="st0" d="M435.8,86.8c-90,0-179.8,0-269.8,0c0.2-1,0.4-1.8,0.6-2.7c5.1-20.6,10.2-41.2,15.4-61.8 c2.3-9.4,8.1-15.2,17.6-17.2c1.9-0.4,3.9-0.4,5.8-0.4c63.7,0,127.4,0,191.2,0c2.6,0,5.4,0.2,7.9,0.9c7.9,2.3,13.1,7.5,15.2,15.5 c5.5,21.4,10.7,42.9,16.1,64.3C435.8,85.8,435.8,86.2,435.8,86.8z"></path> <path class="st0" d="M435.9,595.7c-90.1,0-179.8,0-269.8,0c0.2-0.8,0.3-1.5,0.4-2.2c3.5-13,6.9-26,10.5-39 c2.9-10.5,11.5-17.4,22.3-18c0.6,0,1.3,0,1.9,0c66.5,0,132.9,0,199.4,0c12.4,0,21.7,8.2,24.3,18.4c3.4,13,6.9,25.9,10.4,38.8 C435.5,594.1,435.7,594.8,435.9,595.7z"></path> <path class="st0" d="M195,88.9c77.6,0,155.2,0,232.8,0c0,0.1,0.1,0.2,0.1,0.2c-0.6,0.2-1.1,0.5-1.7,0.6 c-16.2,4.4-32.4,8.7-48.6,13.1c-1.5,0.4-3,0.3-4.5,0.2c-4.7-0.4-9.3-0.7-14-1.1c-12-0.9-24-1.9-36-2.8c-9.3-0.7-18.7-1.4-28-2.1 c-11.4-0.9-22.8-1.8-34.3-2.7c-9.2-0.7-18.3-1.4-27.5-2.1c-12.8-1-25.6-2-38.4-3C195,89.1,195,89,195,88.9z"></path> </g> </svg>