<svg xmlns="http://www.w3.org/2000/svg" xmlns:xlink="http://www.w3.org/1999/xlink" id="Layer_1" x="0px" y="0px" viewBox="0 0 600 600" style="enable-background:new 0 0 600 600;" xml:space="preserve"> <style type="text/css"> .st0{fill:#231F20;} .st1{fill:#FEFEFE;} .st2{fill:#FFFFFF;} .st3{fill:#272122;} .st4{fill:#FEFFFF;} </style> <g> <path class="st0" d="M276.7,133.3c90.4,0,180.8,0,271.3,0c0.8,0,1.7-0.4,2.4,0.6c0.3,0.4,0.6,0.7,0.6,1.3c0,0.4,0,0.9,0,1.3 c0,26.2,0,52.3,0,78.5c0,0.4,0,0.8,0,1.2c0,1.6,0,1.6,1.7,1.6c12.5,0,25.1,0,37.6,0c0.4,0,0.9,0,1.3,0c0.9,0.1,1.7,0.8,1.7,1.7 c0.1,0.6,0,1.2,0,1.7c0,77.4,0,154.9,0,232.3c0,3.5,0,3.5-3.5,3.5c-180.7,0-361.3,0-542,0c-0.5,0-1,0-1.5,0 c-0.9-0.1-1.7-0.9-1.7-1.8c0-0.5,0-1,0-1.5c0-26.3,0-52.6,0-78.9c0-2.6,0.3-2.3-2.2-2.3c-12.5,0-25.1,0-37.6,0 c-0.6,0-1.3,0.3-1.9-0.5c-0.4-0.5-0.7-0.8-0.7-1.4c0-0.4,0-0.8,0-1.2c0-77.8,0-155.5,0-233.3c0-0.4,0-0.8,0-1.2 c0.1-0.8,0.9-1.6,1.7-1.7c0.6,0,1.2,0,1.7,0C96,133.3,186.4,133.3,276.7,133.3z"></path> <path class="st1" d="M319.2,219.5c90,0,180.1,0,270.1,0c2.5,0,2.5,0,2.5,2.4c0,77,0,154,0,231c0,2.6,0,2.6-2.7,2.6 c-180,0-360,0-540,0c-2.8,0-2.8,0-2.8-2.9c0-76.9,0-153.7,0-230.6c0-2.8-0.4-2.5,2.4-2.5C138.9,219.5,229.1,219.5,319.2,219.5z"></path> <path class="st2" d="M549.1,135.1c-0.7,2.7-1.3,5.3-1.9,7.8c-2.2,8.7-4.2,17.4-6.5,26c-5.1,18.8-21.2,33-40.5,35.8 c-2.6,0.4-5.2,0.6-7.8,0.6c-143.7,0-287.5,0-431.2,0c-17.1,0-30.9-7.1-41.2-20.8c-4.1-5.6-6.6-11.9-8.2-18.6 c-2.3-9.8-4.8-19.5-7.2-29.2c-0.1-0.4-0.2-0.7-0.3-1.1c-0.1-0.4,0.1-0.6,0.5-0.6c0.6,0,1.3,0,1.9,0c55.3,0,110.6,0,165.9,0 c124.6,0,249.2,0,373.8,0C547.2,134.9,548.1,134.8,549.1,135.1z"></path> <path class="st2" d="M538.7,179.6c0,0.5,0,1.1,0,1.6c0,11.5,0,23,0,34.6c0,0.3,0,0.5,0,0.8c0.2,1.1-0.4,1.4-1.3,1.3 c-0.5,0-1,0-1.5,0c-162.6,0-325.2,0-487.9,0c-0.8,0-1.7-0.4-2.5,0.5c-0.4,0.5-0.9,0.9-0.8,1.6c0.1,0.4,0,0.9,0,1.3 c0,49,0,98,0,147.1c0,2.5,0,2.5-2.5,2.5c-11.8,0-23.6,0-35.3,0c-0.7,0-1.4,0-2,0c-0.3-0.6,0-1,0.2-1.4c4.4-10.1,7.3-20.6,8.8-31.5 c0.7-5.1,1-10.2,0.9-15.3c0-47,0-94,0-140.9c0-0.7,0-1.4,0-2.1c0.7-0.1,0.7,0.5,0.9,0.8c8,13.8,19.8,22.3,35.4,25.5 c2.8,0.6,5.6,0.8,8.4,0.9c1.1,0,2.2,0,3.3,0c142.8,0,285.6,0,428.3,0c6.8,0,13.4-0.8,19.8-3.3c11.6-4.4,20.5-12,26.8-22.8 c0.3-0.4,0.5-0.9,0.8-1.3C538.3,179.6,538.4,179.6,538.7,179.6z"></path> <path class="st2" d="M3.9,367c0-74.9,0-149.9,0-224.8c0.9,1.8,1.2,3.8,1.7,5.8c1.7,6.7,3.4,13.4,5,20.1c0.4,1.7,0.9,3.5,1.6,5.1 c0.7,1.6,0.8,3.2,0.8,4.8c0,48,0,96,0,144c0,14.9-2.6,29.2-8.1,43.1c-0.3,0.7-0.5,1.3-0.8,1.9C4.1,367,4,367,3.9,367z"></path> <path class="st2" d="M549.4,142.1c0,1,0,1.9,0,2.9c0,23.5,0,47,0,70.4c0,0.3,0,0.6,0,1c0,1.4,0,1.4-1.5,1.5c-2.2,0-4.5,0-6.7,0 c-0.7,0-1.1-0.2-1-1c0-0.4,0-0.8,0-1.2c0-13.1,0-26.2,0-39.3c0-0.5,0-1,0.2-1.5c2.3-5.7,3.3-11.7,4.9-17.5 c1.2-4.6,2.3-9.3,3.5-13.9c0.1-0.4,0.3-0.8,0.4-1.2C549.3,142.1,549.4,142.1,549.4,142.1z"></path> <path class="st3" d="M224.1,427c-39.6,0-79.2,0-118.8,0c-1.3,0-2.5,0-3.8-0.3c-4.4-1.1-7.5-4.6-7.9-9c-0.1-0.6-0.1-1.3-0.1-1.9 c0-14.8,0-29.7,0-44.5c0-2.9,0.7-5.6,2.7-7.8c2-2.2,4.5-3.3,7.5-3.4c0.8,0,1.7,0,2.5,0c78.8,0,157.5,0,236.3,0c1,0,2.1,0,3.1,0.1 c5.5,0.5,9.5,4.7,9.6,10.3c0.1,2.5,0,5,0,7.5c0,12.7,0,25.5,0,38.2c0,3.2-1,5.9-3.3,8.1c-1.9,1.8-4.2,2.7-6.7,2.8 c-0.9,0-1.8,0-2.7,0C303,427,263.6,427,224.1,427z"></path> <path class="st4" d="M224.3,361.6c39.7,0,79.5,0,119.2,0c1.4,0,2.8,0,4.2,0.5c3.2,1.3,5.2,3.6,5.7,7.1c0.1,0.8,0.1,1.7,0.1,2.5 c0,14.5,0,29.1,0,43.6c0,1.3,0,2.6-0.4,3.8c-1.1,3.6-4.3,6.1-8.1,6.3c-0.6,0-1.2,0-1.7,0c-79.3,0-158.6,0-237.9,0c-1,0-2,0-3.1-0.2 c-4.2-0.9-7.1-4.2-7.2-8.5c-0.1-6,0-12,0-18c0-9.4,0-18.8,0-28.2c0-4.1,2.6-7.4,6.4-8.5c1.2-0.3,2.4-0.3,3.6-0.3 c33.3,0,66.6,0,99.8,0C211.5,361.6,217.9,361.6,224.3,361.6z"></path> </g> </svg>