<svg xmlns="http://www.w3.org/2000/svg" xmlns:xlink="http://www.w3.org/1999/xlink" id="Layer_1" x="0px" y="0px" viewBox="0 0 600 600" style="enable-background:new 0 0 600 600;" xml:space="preserve"> <style type="text/css"> .st0{fill:#090A0A;} .st1{fill:#FEFEFE;} .st2{fill:#FFFFFF;} .st3{fill:#171A1A;} .st4{fill:#151818;} </style> <g> <path class="st0" d="M300.7,513.5c-96.5,0-193.1,0-289.6,0c-4.4,0-4,0.1-4-3.9c0-139.3,0-278.6,0-418c0-3.9-0.3-4,4-4 c193.3,0,386.5,0,579.8,0c4.3,0,4,0.1,4,4c0,139.4,0,278.8,0,418.2c0,3.6,0,3.6-3.7,3.6C494.3,513.5,397.5,513.5,300.7,513.5z"></path> <path class="st1" d="M591.6,455.5c0,2.2,0,4.5,0.1,6.7c0.6,16,1.2,32,1.8,47.9c0,0.6,0,1.3,0,1.9c-0.9,0.6-1.9,0.3-2.9,0.3 c-29.8,0-59.7,0-89.5,0c-163.1,0-326.2,0-489.3,0c-3.5,0-3.4,0-3.3-3.3c0.1-8.5,0.9-17,0.8-25.6c0.3-2.7,0.5-5.4-0.2-8 c-0.1-0.5-0.2-1.1-0.1-1.6c0.8-6.5,0.1-13.1,1-19.6c0-0.4,0.1-0.7,0.1-1.1c-0.3-7.4,0.5-14.7,0.7-22.1c0.2-9.9,0.7-19.7,1.1-29.6 c0.3-8.4,0.8-16.8,1-25.3c0.3-10,0.8-20.1,1.1-30.1c0.3-8.7,0.7-17.4,1-26.1c0.4-9.7,0.7-19.4,1.1-29c0.3-8.7,0.8-17.4,1-26.1 c0.3-9.9,0.8-19.7,1.1-29.6c0.1-2.8,0.4-5.7,0.4-8.6c0-0.9,0-1.8,0.7-2.5c0.7-7.6,0.6-15.3,1-22.9c0.3-5.7,0.5-11.5,1-17.3 c0.2,1.3,0.5,2.6,0.7,3.9c0.1,1.4,0.9,1.9,2.1,1.8c0.5,0,1.1,0,1.6,0c183.4,0,366.8,0,550.1,0c1.1,0,2.3,0.3,3.3-0.7 c0.5-1.1-0.3-2.3,0.3-3.4c0.3-0.7,0.2-1.9,1.2-1.7c0.9,0.1,0.9,1.3,0.9,2c-0.1,3.1,0.6,6.1,0.5,9.1c-0.1,7.5,0.5,15.1,0.7,22.6 c0.3,9.4,0.7,18.8,1.1,28.2c0.4,9.1,0.7,18.3,1.1,27.4c0.4,9.1,0.7,18.3,1.1,27.4c0.4,9.4,0.7,18.8,1.1,28.2 c0.4,9.1,0.7,18.3,1.1,27.4c0.4,9.2,0.7,18.4,1.1,27.7c0.4,9.2,0.7,18.4,1.1,27.7c0.4,9.3,0.5,18.7,1.2,27.9 C591.9,445,590.7,450.2,591.6,455.5z"></path> <path class="st2" d="M578.7,188.2c-0.2,0.5-0.7,0.5-1.1,0.5c-0.8,0-1.6,0-2.4,0c-182.8,0-365.6,0-548.4,0c-3.4,0-3.4,0-3.9-3.2 c-1.9-12.5-3.7-25-5.6-37.6c-1.9-12.6-3.8-25.2-5.7-37.8c-1-6.3-1.9-12.6-2.8-18.9c-0.1-0.7-0.1-1.4-0.2-2.3 c194.9,0,389.7,0,584.7,0c0.4,2.3-0.7,4.5-0.6,6.8c-0.4,11.1-2.9,21.9-4.4,32.9c-1.5,11.5-3.4,23-5.1,34.5 c-1.1,7.5-2.1,15.1-3.5,22.5C579.5,186.6,579.3,187.5,578.7,188.2z"></path> <path class="st1" d="M8.2,474.8c0-1.9,0-3.8,0-5.6c0-122.7,0-245.5,0-368.2c0-0.7,0-1.4,0-2.4c1.1,2.2,1.1,4.4,1.4,6.5 c2.4,15.3,4.6,30.7,6.9,46.1c1.1,7.4,2.3,14.7,3.3,22.1c0.7,5.6,0,11.3-0.2,16.9c-0.2,9.2-0.9,18.3-0.9,27.5 c-0.2,0.5-0.2,1.1-0.2,1.6c0.7,7.7,0,15.4-0.4,23.1c-0.5,11.3-0.6,22.6-1.5,33.8c-0.4,4.8-0.4,9.7-0.5,14.5 c-0.3,11.9-0.9,23.8-1.3,35.8c-0.4,10.9-0.6,21.9-1.4,32.8c-0.4,4.6-0.4,9.3-0.5,14c-0.3,12.1-0.8,24.2-1.3,36.3 c-0.4,10.9-0.8,21.9-1.4,32.8c-0.3,6.2-0.8,12.4-0.6,18.5c0.1,4.2-0.7,8.4-0.6,12.6C9.1,474,9.4,475,8.2,474.8z"></path> <path class="st1" d="M593.7,98.4c0,1.2,0,2.3,0,3.5c0,122.1,0,244.1,0,366.2c0,2.3,0,4.7,0,7c-1-8.8-0.8-17.6-1.5-26.3 c-0.9-3.9-0.8-8-1-12c-0.4-13.4-0.9-26.7-1.6-40c-0.3-4.7-0.3-9.5-0.4-14.2c-0.2-6.1-0.5-12.2-0.7-18.3 c-0.4-12.1-0.7-24.2-1.5-36.3c-0.3-4.8-0.4-9.7-0.5-14.5c-0.3-11.9-0.9-23.8-1.3-35.8c-0.4-10.9-0.6-21.9-1.4-32.8 c-0.4-4.8-0.4-9.7-0.5-14.5c-0.3-11.9-1.1-23.8-1.3-35.8c0-4.3-0.5-8.6-0.8-12.9c-0.4-6.9,1.2-13.7,2.1-20.5 c0.9-6.8,2-13.6,3.1-20.4c1-6.5,2-13.1,3-19.6c1-6.5,2-13.1,2.9-19.6C592.4,100.4,592.1,98.9,593.7,98.4z"></path> <path class="st3" d="M593.7,98.4c-1.4,3.3-1.4,6.8-2,10.2c-2.6,16.6-5,33.2-7.5,49.8c-0.7,5-1.5,9.9-2.2,14.9 c-0.7,5-0.1,10,0.1,15.1c0.4,11.8,0.9,23.7,1.4,35.5c0.7,18.4,1.4,36.8,2.2,55.2c0.9,23.1,1.8,46.1,2.7,69.2 c0.9,23.2,1.8,46.3,2.7,69.5c0.4,9.3,0.7,18.7,1.1,28c0,1,0,2,0,3c-0.9,1-0.4,2.2-0.5,3.3c-0.1,1.1-0.1,2.3-0.1,3.4 c-0.4-0.7-0.3-1.6-0.3-2.4c-0.6-16.2-1.2-32.3-1.8-48.5c-0.8-20.6-1.6-41.1-2.5-61.7c-0.4-10.6-0.8-21.2-1.2-31.8 c-0.7-18.5-1.4-37-2.2-55.5c-0.9-21.7-1.7-43.4-2.6-65.2c-0.1-2,0-3.9,0-6.5c-1.3,1.9-0.6,3.8-1.8,5.1c0-0.4-0.1-0.8-0.5-1 c0.3-4.4,1.2-8.7,1.8-13c1.7-11.4,3.4-22.9,5.1-34.3c1.9-12.7,3.8-25.3,5.7-38c0.4-2.4,0.5-4.8,1.2-7.1c0,0.3,0.1,0.2,0.9,0.7 C594.2,97,593.8,97.7,593.7,98.4z"></path> <path class="st4" d="M8.2,474.8c0.3-3.3,0.7-6.6,0.8-9.9c0.7-16.1,1.2-32.3,1.8-48.5c0.8-20.6,1.7-41.3,2.5-61.9 c0.5-11.8,0.9-23.7,1.3-35.5c0.8-20.4,1.6-40.7,2.4-61.1c0.5-11.9,0.9-23.9,1.3-35.8c0.1-1.5-0.1-3.1,0.4-4.5c0,1.5,0,3,0.1,4.5 c0,0.8-0.2,1.6,0.5,2.2c0,2.6,0,5.2-0.1,7.8c-0.5,13-1,26-1.5,39.1c-0.8,20.4-1.6,40.8-2.5,61.1c-0.5,11.6-0.8,23.2-1.3,34.8 c-0.8,20.7-1.7,41.5-2.5,62.2c-0.5,11.8-0.9,23.5-1.3,35.3c-0.2,5.5-0.4,11-0.6,16.4c0,0.8,0.1,1.6-0.3,2.4c0-2.2,0-4.4,0-6.7 c-0.2,0-0.4,0-0.6,0c0,2.1,0,4.2,0,6.4c-0.2,0-0.3,0-0.5,0C8.2,480.4,8.2,477.6,8.2,474.8z"></path> </g> </svg>