<svg xmlns="http://www.w3.org/2000/svg" xmlns:xlink="http://www.w3.org/1999/xlink" id="Layer_1" x="0px" y="0px" viewBox="0 0 600 600" style="enable-background:new 0 0 600 600;" xml:space="preserve"> <style type="text/css"> .st0{fill:#3C3E3F;} .st1{fill:#515252;} .st2{fill:#5B5D5D;} .st3{fill:#616262;} .st4{fill:#505252;} .st5{fill:#8C8D8D;} .st6{fill:#FFFFFF;} .st7{fill:#5C5E5E;} .st8{fill:#3E4040;} </style> <g> <path class="st0" d="M107.5,598.3c-0.4-1.1-0.2-2.3-0.2-3.4c0-54.3,0-108.6,0-162.8c0-115.6,0-231.3,0-346.9c0-1.6-0.2-3.3,0.7-4.7 c0.6-0.1,1,0.3,1.5,0.5c1.6,0.3,3.2,0.3,4.9,0.3c124.5,0,249.1,0,373.6,0c1.6,0,3.3,0,4.9-0.3c0.5-0.2,0.9-0.6,1.5-0.4 c0.5,1.1,0.9,2.3,0.7,3.6c0,0.6,0,1.1,0,1.7c0,110.8,0,221.5,0,332.3c0,59,0,117.9,0,176.9c0,1.1,0.2,2.3-0.2,3.4 c-0.7-0.1-0.9-0.6-1.1-1.2c-0.4-2.1-0.2-4.2-0.2-6.3c0-167,0-334,0-501c0-6.9,0.5-6.2-6.1-6.2c-124.3,0-248.5,0-372.8,0 c-6.1,0-5.8-0.5-5.8,5.7c0,167.3,0,334.6,0,501.9c0,2,0.2,4-0.2,6C108.4,597.7,108.2,598.2,107.5,598.3z"></path> <path class="st1" d="M494.5,597.7c0.2,0.2,0.3,0.4,0.5,0.6c-0.2,0.4-0.5,0.6-0.9,0.6c-0.9,0-1.7,0-2.6,0c-30.8,0-61.6,0-92.3,0 c-96,0-191.9,0-287.9,0c-1,0-1.9,0-2.9,0c-0.4,0-0.7-0.2-0.9-0.6c0.2-0.2,0.3-0.4,0.5-0.6c0.8-0.4,1.7-0.3,2.5-0.3 c78.1,0,156.3,0,234.4,0c49,0,98,0.1,147,0C492.8,597.4,493.7,597.3,494.5,597.7z"></path> <path class="st2" d="M108.5,81c-0.1-0.2-0.3-0.4-0.4-0.5c2.1-5.5,4.1-11.1,6.2-16.6c3.4-9,6.9-18,10.3-27c0.5-1.3,1.1-2.6,1.8-3.9 c3.4-6.5,8.8-10.5,16.1-11.7c4.4-0.7,8.9-1.2,13.3-1.7c4.1-0.5,8.1-1,12.2-1.5c3.7-0.5,7.4-0.9,11.1-1.3c4.2-0.5,8.3-1,12.5-1.6 c3.8-0.5,7.6-0.9,11.4-1.4c3.9-0.5,7.8-1,11.6-1.5c3.8-0.5,7.6-0.9,11.4-1.4c4.1-0.5,8.1-1,12.2-1.5c3.7-0.5,7.4-0.9,11.1-1.3 c4.1-0.5,8.1-1,12.2-1.5c1.6-0.2,3.2-0.4,4.8-0.6c4.8-0.4,9.5-0.8,14.3-1.2c0.5,0.2,0.9,0.5,0.5,1.1c-0.5,0.5-1.2,0.6-1.8,0.7 c-26,2.2-51.8,6.1-77.7,9.1c-18.9,2.2-37.7,4.6-56.6,6.9c-9.2,1.1-15.3,5.8-18.6,14.4c-5.3,13.7-10.5,27.5-15.8,41.2 C110.1,79.3,110.1,80.7,108.5,81z"></path> <path class="st3" d="M494.4,80.4c-0.2,0.2-0.3,0.4-0.5,0.6c-1.5-0.2-1.6-1.5-1.9-2.5c-5.4-13.6-10.5-27.3-15.7-40.9 c-3.3-8.6-9.3-13.7-18.6-14.9c-26.7-3.3-53.5-6.6-80.2-9.8c-12.5-1.5-25-3.1-37.5-4.6C338.4,8,336.8,8,335.6,7 c0.2-1.4,1.2-0.8,1.9-0.7c2.7,0.3,5.3,0.5,8,0.8c4.2,0.5,8.3,1,12.5,1.5c3.7,0.5,7.4,0.9,11.1,1.4c3.9,0.5,7.8,1,11.6,1.5 c4.2,0.5,8.3,1.1,12.5,1.6c3.8,0.5,7.6,0.9,11.4,1.3c3.9,0.5,7.8,1,11.7,1.4c3.8,0.5,7.6,0.9,11.4,1.4c4.1,0.5,8.1,1,12.2,1.5 c3.8,0.5,7.6,0.9,11.4,1.4c3.7,0.5,7.4,0.7,11,1.7c5.7,1.5,10.1,4.9,13.1,9.9c1,1.6,1.8,3.4,2.5,5.2c5.3,13.8,10.6,27.6,15.9,41.4 C493.9,79,494.2,79.7,494.4,80.4z"></path> <path class="st4" d="M281.3,5.3c-0.2-0.2-0.5-0.4-0.7-0.6c3.6-0.2,7.2-0.6,10.9-0.6c6.4-0.1,12.8-0.1,19.2,0 c3.9,0.1,7.8,0.4,11.7,0.6c-0.3,1.5-1.6,1.1-2.6,1.3c-5.5,0.4-10.9-0.4-16.3-0.6c-6.1-0.2-12.2,0.8-18.3,0.6 C283.8,6.1,282.5,6.3,281.3,5.3z"></path> <path class="st5" d="M320.1,5.3c0.7-0.3,1.7,0.2,2.3-0.6c2.7,0.2,5.4,0.3,8.2,0.5c1.5,0.1,3,0.3,4.5,0.5c0.8,0.1,1.7,0.1,2.5,0.5 c-0.6,0.2-1.4-0.1-1.8,0.6c-1.3,1.3-2.9,0.4-4.3,0.4c-2.9,0-5.8-0.7-8.7-0.7C321.6,6.6,320.5,6.7,320.1,5.3z"></path> <path class="st6" d="M494.5,597.7c-0.5,0.3-1,0.5-1.6,0.4c-0.8,0-1.5,0-2.3,0c-29.8,0-59.6,0-89.4,0c-96.4,0-192.8,0-289.2,0 c-1.3,0-2.7,0.3-3.9-0.4c0-1.1,0-2.3,0-3.4c0-53.6,0-107.3,0-160.9c0-115.6,0-231.1,0-346.7c0-1.1,0-2.1,0.1-3.2 c0-0.4,0.3-0.7,0.7-0.7c0.7,0,1.3-0.1,2-0.1c61.4,0,122.7,0,184.1,0c29.3,0,58.5,0,87.8,0c35.8,0,71.5,0,107.3,0c0.6,0,1.1,0,1.7,0 c3,0,2.8-0.2,2.8,2.8c0,16.8,0,33.6,0,50.5c0,93.5,0,187,0,280.5c0,59.3,0,118.5,0,177.8C494.4,595.4,494.5,596.5,494.5,597.7z"></path> <path class="st6" d="M320.1,5.3c0.4,0.1,0.7,0.3,1.1,0.4c4.8,0.4,9.7,0.8,14.5,1.2c4.5,0.6,9.1,1.1,13.6,1.7 c3.9,0.5,7.8,0.9,11.7,1.4c3.9,0.5,7.8,1,11.6,1.5c3.8,0.5,7.6,0.9,11.4,1.3c3.8,0.5,7.6,0.9,11.4,1.4c3.9,0.5,7.8,1,11.6,1.5 c4.1,0.5,8.1,1,12.2,1.5c3.7,0.5,7.4,0.9,11.1,1.4c4.2,0.5,8.3,1,12.5,1.6c3.8,0.5,7.6,0.9,11.4,1.4c2.5,0.3,4.9,0.6,7.3,1.2 c5.7,1.3,10,4.6,13,9.6c0.9,1.5,1.6,3,2.2,4.6c5.3,13.9,10.6,27.8,16,41.7c0.3,0.9,0.5,1.9,1.2,2.6c-0.1,0.5,0,1-0.7,1 c-1,0-1.9,0-2.9,0c-64.8,0-129.5,0-194.3,0c-61.3,0-122.7,0-184,0c-1,0-1.9,0-2.9,0c-0.7,0-0.6-0.6-0.7-1c0.7-0.7,0.8-1.7,1.2-2.6 c5.3-13.9,10.6-27.7,15.9-41.6c0.8-2,1.6-3.9,2.8-5.6c3.7-5.5,9-8.4,15.5-9.2c7.2-0.9,14.4-1.8,21.6-2.7c5.4-0.7,10.8-1.3,16.2-1.9 c5.4-0.7,10.8-1.4,16.2-2c3.8-0.5,7.6-0.9,11.4-1.4c4-0.5,7.9-1,11.9-1.5c3.8-0.5,7.6-0.9,11.4-1.4c3.9-0.5,7.8-0.9,11.6-1.4 c3.8-0.5,7.6-1,11.4-1.4c4-0.5,8-0.9,11.9-1.4c3.7-0.4,7.4-0.9,11.1-1c0.9,0,1.9,0,2.8-0.5c2.9-0.1,5.9,0,8.8-0.2 c7.4-0.4,14.8-0.4,22.2,0C314.9,5.3,317.5,5.3,320.1,5.3z"></path> <path class="st6" d="M226.4,186.5c23.6,0,47.2,0,70.8,0c2.7,0,5.3,0.8,7.8,1.4c2.3,0.6,4.2,3.5,4.2,6c0,0.9-0.1,1.7-0.9,2.3 c-0.6,0.4-0.8,1-0.8,1.7c0,0.6,0,1.1,0,1.7c0,11.6,0,23.1,0,34.7c0,0.5,0,1,0,1.4c0,0.8,0.2,1.4,0.8,2c1.4,1.4,1.3,3.1-0.1,4.5 c-0.7,0.8-1.5,1.5-2,2.4c-0.6,1-1.6,1.3-2.6,1.5c-1,0.1-1.9-0.2-2.5-1.1c-0.3-0.4-0.8-0.6-1.2-0.6c-0.8,0-1.5,0-2.3,0 c-47.7,0-95.4,0-143,0c-0.7,0-1.3,0-2,0c-0.7,0-1.3,0.1-1.7,0.8c-0.7,1.1-1.8,1.1-2.8,0.8c-1.5-0.4-2.7-1.3-3.6-2.6 c-0.2-0.3-0.3-0.7-0.5-1c-1.4-2.3-1.4-2.3,0.3-4.4c0.2-0.3,0.4-0.7,0.4-1c0.1-0.7,0-1.3,0-2c0-12.2,0-24.5,0-36.7 c0-0.6,0-1.1,0-1.7c0-0.7-0.2-1.3-0.8-1.8c-1.3-0.9-1.1-2.1-0.5-3.3c0.9-1.8,2.3-3.3,4.4-3.8c3-0.8,5.9-1.2,9-1.2 C180,186.5,203.2,186.5,226.4,186.5z"></path> <path class="st7" d="M149.2,189.9c0.3-0.2,0.7-0.4,1-0.4c0.9-0.1,1.7-0.1,2.6-0.1c48.8,0,97.6,0,146.3,0c0.9,0,1.7,0,2.6,0 c0.5,0,0.9,0.2,1.3,0.5c-0.2,0.6-0.6,1-1.2,1.2c-1.5,0.5-3,0.3-4.5,0.3c-47.7,0-95.3,0-143,0c-1.6,0-3.3,0.2-4.8-0.6 C149.1,190.6,149,190.3,149.2,189.9z"></path> <path class="st8" d="M149.2,189.9c0,0.2,0,0.4,0,0.6c-2.6,3.1-2.6,6.7-2.6,10.5c0.1,11.5,0,22.9,0,34.4c0,5.6,1.4,7.1,6.9,7.1 c48.4,0,96.8,0,145.2,0c5.1,0,6.7-1.5,6.7-6.7c0.1-12.7,0-25.4,0-38.1c0-1.7-0.5-3.4-0.6-5.1c0-0.4,0.2-0.7,0.5-0.9 c1.1,0.8,1.5,1.9,1.6,3.2c0.1,0.8,0,1.5,0,2.3c0,13.2,0,26.4,0,39.6c0,0.8,0,1.5,0,2.3c-0.3,2.7-2.4,4.8-5,5c-0.8,0.1-1.5,0-2.3,0 c-49.1,0-98.2,0-147.4,0c-0.7,0-1.3,0-2,0c-2.8-0.2-5-2.3-5.2-5.1c-0.1-0.8,0-1.5,0-2.3c0-13.2,0-26.4,0-39.6c0-0.8,0-1.5,0-2.3 c0-1.1,0.4-2.1,1.1-2.9C146.9,190.8,147.8,189.9,149.2,189.9z"></path> <path class="st8" d="M302.4,190.4c0.2-0.2,0.4-0.3,0.6-0.5c0.8,0,1.4,0.4,1.8,1c-0.1,0.3-0.3,0.4-0.5,0.5 C303.4,191.4,302.7,191.2,302.4,190.4z"></path> <path class="st8" d="M304.8,190.9c0.3,0.1,0.5,0.3,0.6,0.6c-0.1,0.1-0.2,0.2-0.3,0.3c-0.3-0.1-0.5-0.3-0.6-0.6 C304.6,191.1,304.7,191,304.8,190.9z"></path> <path class="st6" d="M304.5,191.3c0.1,0.3,0.2,0.5,0.6,0.6c0.9,1.6,1.2,3.3,1.2,5.2c-0.1,13.2,0,26.4,0,39.5c0,0.7,0,1.3,0,2 c-0.3,2.7-2.3,4.5-4.9,4.7c-0.7,0-1.3,0-2,0c-48.8,0-97.6,0-146.4,0c-0.8,0-1.5,0-2.3,0c-2.7-0.2-4.6-2-4.8-4.7c0-0.7,0-1.3,0-2 c0-13.2,0-26.4,0-39.5c0-0.3,0-0.6,0-0.9c-0.2-2.7,0.9-4.6,3.4-5.6c1.6,0,3.2-0.1,4.9-0.1c47.9,0,95.8,0,143.7,0c1.5,0,3.1,0,4.6,0 C303.1,190.7,303.8,191,304.5,191.3z"></path> </g> </svg>