<svg xmlns="http://www.w3.org/2000/svg" xmlns:xlink="http://www.w3.org/1999/xlink" id="Layer_1" x="0px" y="0px" viewBox="0 0 600 600" style="enable-background:new 0 0 600 600;" xml:space="preserve"> <style type="text/css"> .st0{fill:#454646;} .st1{fill:#464848;} .st2{fill:#0F1212;} .st3{fill:#333434;} .st4{fill:#2E2F2E;} .st5{fill:#FDFDFD;} .st6{fill:#FEFEFE;} .st7{fill:#484949;} .st8{fill:#575858;} .st9{fill:#282928;} </style> <g> <path class="st0" d="M494.3,598.2c-0.7,1.1-1.8,0.6-2.7,0.6c-127.3,0-254.6,0-381.9,0c-0.9,0-2,0.5-2.7-0.6c0.2-0.6,0.7-1,1.3-1.2 c1.6-0.5,3.2-0.3,4.8-0.3c125.1,0,250.2,0,375.3,0c1.6,0,3.2-0.1,4.8,0.3C493.6,597.2,494,597.6,494.3,598.2z"></path> <path class="st1" d="M131.4,25.8c3.8-3.6,8.7-4.7,13.6-5.4c19.3-2.4,38.6-4.8,57.9-7.1c19.1-2.3,38.2-4.4,57.3-6.9 c11.1-1.4,22.2-2.4,33.4-2.8c16.9-0.6,33.7,1,50.5,3.1c19.4,2.4,38.8,4.6,58.2,7c15.3,1.9,30.6,3.9,45.9,5.9c1.7,0.2,3.4-0.2,5,0.6 c-0.4,0.7-1,1-1.7,1.2c-6.7-0.1-13.3-1.3-19.9-2.2c-24.2-3-48.4-5.9-72.6-8.9c-11.7-1.4-23.4-3-35.2-4c-13.3-1.1-26.5-1.3-39.8-0.4 c-24.7,1.7-49.1,5.5-73.6,8.3c-17.9,2.1-35.7,4.3-53.6,6.6c-2.4,0.3-4.8,0.5-7.2,0.7c-5.9,0.6-11.7,1.6-16.9,4.7 C132.1,26.7,131.7,26.4,131.4,25.8z"></path> <path class="st2" d="M494.3,598.2c-0.2-0.2-0.3-0.4-0.5-0.6c-0.8-0.8-0.8-1.8-0.9-2.8c-0.1-1,0-2,0-3c0-167.8,0-335.6,0-503.4 c0-1.4,0-2.8,0-4.2c0-0.7,0.1-1.4-0.1-2.1c-0.1-0.5-0.1-1,0-1.4c0.1-0.5,0.3-0.9,0.9-0.8c0.7,1.4,0.9,2.8,0.9,4.3 c0,170.5,0,341.1,0,511.6C494.4,596.6,494.3,597.4,494.3,598.2z"></path> <path class="st2" d="M107.5,597.5c-0.2,0.2-0.4,0.4-0.5,0.6c-0.1-1-0.2-2-0.2-3c0-170,0-340.1,0-510.1c0-1.6-0.4-3.2,0.7-4.6 c0.3-0.2,0.6-0.1,0.8,0.2c0.2,0.5,0.3,0.9,0.2,1.4c-0.1,0.7-0.2,1.4-0.1,2.1c0,169,0,338,0,507 C108.4,593.3,108.9,595.6,107.5,597.5z"></path> <path class="st3" d="M493.6,79.9c-0.2,0.2-0.3,0.4-0.5,0.6c-1.5-0.1-1.5-1.5-1.9-2.4c-5.5-13.9-10.7-27.9-16.2-41.9 c-3.2-8.3-9.4-12.6-18-13.8c-1.8-0.2-3.8-0.1-5.3-1.5c0.4-0.2,0.9-0.4,1.3-0.6c12,0.3,20.3,5.7,24.5,17.3 C482.7,51.8,488.3,65.8,493.6,79.9z"></path> <path class="st4" d="M108,80.4l-0.3,0l-0.3,0c4.3-11.3,8.6-22.7,12.9-34c1.9-5.1,3.4-10.3,6.2-15c1.3-2.2,2.7-4.1,4.9-5.6 c0.2,0.2,0.4,0.3,0.6,0.5c0,0.2,0,0.4-0.1,0.6c-6.9,7.6-8.7,17.6-12.5,26.6c-3.4,8.2-6.2,16.6-9.6,24.8 C109.4,79.2,109.4,80.4,108,80.4z"></path> <path class="st5" d="M107.5,597.5c0-170.6,0-341.1,0-511.7c0-1,0-2,0-3c1.5-1.1,3.2-0.9,4.9-0.9c28.3,0,56.6,0,84.8,0 c96.9,0,193.9,0,290.8,0c2,0,4-0.4,5.8,0.9c0,27.7,0,55.4,0,83.1c0,143.9,0,287.7,0,431.6c-1.2,0-2.4,0.1-3.6,0.1 c-126.5,0-252.9,0-379.4,0C109.6,597.6,108.6,597.6,107.5,597.5z"></path> <path class="st6" d="M108,80.4c5.6-14.4,11.2-28.7,16.7-43.1c1.6-4.3,3.8-8.1,7.3-11c4.8-3.8,10.5-4.5,16.2-5.2 c17.6-2.2,35.2-4.4,52.8-6.5c14-1.7,27.9-3.2,41.9-5c14-1.8,27.9-3.6,42-4.4c13.4-0.7,26.8-0.5,40.1,0.6 c14.9,1.2,29.7,3.5,44.6,5.1c15.3,1.7,30.5,3.9,45.7,5.8c10.8,1.3,21.6,2.5,32.4,3.8c1.4,0.2,2.8,0.3,4.1,0.5 c5.4,0.8,10.9,1,15.7,4.2c4.5,3,7.1,7.3,9,12.2c5.5,14.4,11.1,28.7,16.7,43.1c0,0.4,0,0.7,0,1.1c-1,0.9-2.3,0.6-3.4,0.6 c-126.1,0-252.2,0-378.2,0c-1.2,0-2.4,0.3-3.4-0.7C108.1,81.1,108.1,80.8,108,80.4z"></path> <path class="st7" d="M108.1,81.5c46,0,92,0,138,0c33.2,0,66.4,0,99.6,0c49.2,0,98.4,0,147.6,0.1c0.2,0.4,0.4,0.9,0.6,1.3 c-1.1-0.1-2.2-0.2-3.3-0.2c-126.6,0-253.2,0-379.8,0c-1.1,0-2.2,0.1-3.3,0.2C107.6,82.4,107.9,81.9,108.1,81.5z"></path> <path class="st8" d="M148.8,189.6c1-0.8,2.1-0.5,3.2-0.5c48.9,0,97.9,0,146.8,0c5.7,0,7.8,2.1,7.8,7.7c0,13.2,0,26.4,0,39.6 c0,1.1,0.4,2.2-0.5,3.1c-0.6-0.2-1-0.6-1.3-1.2c-0.5-1.5-0.4-3.2-0.4-4.8c0-11.8,0-23.6,0-35.4c0-6.1-1-7.1-7.2-7.1 c-47.5,0-95,0-142.5,0c-1.9,0-3.8,0.3-5.6-0.5C148.8,190.4,148.6,190,148.8,189.6z"></path> <path class="st9" d="M305.5,238.8c0.2,0.2,0.4,0.5,0.6,0.7c-0.7,2.8-2.7,4-5.4,4.3c-0.9,0.1-1.8,0-2.7,0c-48.5,0-97.1,0-145.6,0 c-1.9,0-4,0.4-5.6-1.2c0.2-0.3,0.5-0.6,0.9-0.7c49.2,0.2,98.5,0,147.7,0.1C299.3,242.1,302.8,241.9,305.5,238.8z"></path> <path class="st9" d="M148.8,189.6c0,0.2,0,0.3,0,0.5c-2.8,3.1-2.7,6.8-2.7,10.6c0.1,10.1,0,20.1,0,30.2c0,3.8-0.2,7.6,1.1,11.2 c-0.1,0.1-0.3,0.3-0.4,0.4c-1.9-1-2.6-2.8-2.6-4.7c-0.1-14.2-0.1-28.5,0-42.7C144.2,192.4,145.6,190.1,148.8,189.6z"></path> <path class="st6" d="M147.2,242.2c-1.7-1.4-2.1-3.2-2.1-5.3c0.1-13.5,0.1-27.1,0-40.6c0-3,1-5,3.7-6.1c18.3,0,36.6,0.1,54.9,0.1 c31.8,0,63.6,0,95.3,0c4.9,0,6.4,1.5,6.4,6.4c0,14.1,0.1,28.2,0.1,42.3c-0.7,3-2.7,4.2-5.7,4.2c-49.6,0-99.3,0-148.9,0 C149.6,243,148.4,242.7,147.2,242.2z"></path> </g> </svg>