<svg xmlns="http://www.w3.org/2000/svg" xmlns:xlink="http://www.w3.org/1999/xlink" id="Layer_1" x="0px" y="0px" viewBox="0 0 600 600" style="enable-background:new 0 0 600 600;" xml:space="preserve"> <style type="text/css"> .st0{fill:#241F21;} .st1{fill:#FBEEC8;} </style> <g> <path class="st0" d="M524.3,301.1c0,98.1,0,196.1,0,294.2c0,0.2,0,0.5,0,0.7c0,1.8,0,1.8-2,1.9c-1.1,0-2.1,0-3.2,0 c-145.6,0-291.2,0-436.8,0c-4,0-3.3,0.5-3.3-3.4c0-195.4,0-390.8,0-586.1c0-4.2-0.5-3.6,3.7-3.6c145.5,0,291.1,0,436.6,0 c0.6,0,1.1,0,1.7,0c3.3,0,3.3,0,3.3,3.4C524.3,105.8,524.3,203.5,524.3,301.1z"></path> <path class="st1" d="M81.2,11.5c1.7,4.3,3.3,8.6,5,12.9c4.3,11.3,8.6,22.6,12.9,33.9c2.1,5.4,5.2,10,10,13.4 c3.6,2.5,7.6,3.9,11.9,4.4c8.8,1.2,17.7,2.2,26.5,3.3c10.1,1.2,20.3,2.4,30.4,3.7c12.7,1.6,25.3,3.2,38,4.7 c10.1,1.2,20.1,2.4,30.2,3.7c8.4,1,16.7,2.1,25.1,2.8c6.4,0.6,12.9,0.9,19.4,1.2c5.3,0.2,10.7,0.2,16,0.2c3.7,0,7.4-0.3,11-0.4 c1.8-0.1,1.9-0.1,1.9,1.8c0,0.5,0,1,0,1.5c0,144.1,0,288.3,0,432.4c0,3.5,0,3.5-3.4,3.5c-65.8,0-131.6,0-197.4,0 c-5.5,0-10.7,1.2-15.1,4.8c-3.6,2.9-6,6.7-7.6,11c-4.7,13-9.4,26-14.2,39c-0.2,0.5-0.3,1.1-0.9,1.6c0-193.2,0-386.3,0-579.4 C81,11.5,81.1,11.5,81.2,11.5z"></path> <path class="st1" d="M321.1,95.4c3-0.8,6.2-0.7,9.2-0.9c5.8-0.5,11.6-1.1,17.3-1.8c7.6-0.8,15.1-1.8,22.6-2.7 c8.7-1.1,17.4-2.1,26-3.2c7.7-0.9,15.4-1.9,23.1-2.8c8.4-1,16.9-2.1,25.3-3.2c7.1-0.9,14.3-1.7,21.4-2.6c6.2-0.8,12.5-1.2,18.7-2.5 c8.7-1.8,15-6.9,18.3-15.1c4.1-10.1,7.9-20.3,11.8-30.4c2.4-6.2,4.7-12.4,7.1-18.6c0.1-0.1,0.2-0.2,0.5-0.6 c0,193.5,0,386.8,0,580.1c-0.7-0.3-0.8-1.1-1-1.8c-4.7-13.1-9.5-26.2-14.2-39.2c-2.7-7.3-7.5-12.4-15-14.7 c-2.5-0.8-5.1-0.9-7.8-0.9c-53.4,0-106.8,0-160.1,0c-3.5,0-3.5,0-3.5-3.5c0-144.1,0-288.3,0-432.4 C320.9,97.6,320.8,96.5,321.1,95.4z"></path> <path class="st1" d="M522,6.7c-0.5,2.7-1.7,5.1-2.6,7.5C513.7,29,508,43.8,502.3,58.6c-2.2,5.6-5.8,10-11.1,13 c-3.1,1.7-6.4,2.6-9.8,3c-14.4,1.8-28.7,3.6-43.1,5.3c-11.5,1.4-23.1,2.7-34.6,4.1c-11.2,1.4-22.4,2.9-33.6,4.2 c-10.5,1.2-20.9,2.7-31.4,3.7c-6.1,0.6-12.2,1.1-18.3,1.5c-4.4,0.3-8.8,0.3-13.3,0.5c-7.1,0.3-14.2,0-21.4-0.3 c-6.9-0.3-13.7-0.9-20.5-1.6c-8.9-0.9-17.9-2.1-26.8-3.2c-7.4-0.9-14.8-1.9-22.1-2.8c-8.7-1.1-17.4-2.1-26.1-3.1 c-11.4-1.4-22.9-2.9-34.3-4.3c-10-1.2-20-2.3-30-3.6c-3.6-0.4-7.2-0.8-10.6-2.1c-7.3-2.8-11.9-8.2-14.7-15.3 c-5-13.1-10-26.3-15-39.4c-1.5-3.8-2.9-7.6-4.5-11.6C228.3,6.7,375.1,6.7,522,6.7z"></path> <path class="st1" d="M81.4,596c0.6-2.7,1.7-5.2,2.6-7.7c4.5-12.5,9.1-24.9,13.6-37.4c2.4-6.7,6.8-11.5,13.7-13.8 c2-0.7,4.2-0.9,6.3-0.9c73.7,0,147.3,0,221,0c49,0,98.1,0.1,147.1-0.1c8.3,0,16.6,4.8,20,14c4.7,12.7,9.3,25.5,13.9,38.3 c0.9,2.5,1.8,4.9,2.7,7.5C375.2,596,228.3,596,81.4,596z"></path> </g> </svg>