<svg xmlns="http://www.w3.org/2000/svg" xmlns:xlink="http://www.w3.org/1999/xlink" id="Layer_1" x="0px" y="0px" viewBox="0 0 600 600" style="enable-background:new 0 0 600 600;" xml:space="preserve"> <style type="text/css"> .st0{fill:#221F1E;} .st1{fill:#F5C55B;} .st2{fill:#F6C65B;} .st3{fill:#F4C65F;} .st4{fill:#F7C55C;} </style> <g> <path class="st0" d="M301.8,522.1c-97.8,0-195.6,0-293.5,0c-0.5,0-1,0-1.5,0c-1,0.1-1.3-0.4-1.3-1.3c0-0.7,0-1.3,0-2 c0-143.7,0-287.3,0-431c0-2.9,0.1-5.7,0-8.6c0-1.4,0.5-1.8,1.7-1.6c0.5,0,1,0,1.5,0c195.2,0,390.5,0,585.7,0c3.4,0,3.4,0,3.4,3.4 c0,142.1,0,284.2,0,426.3c0,4.3,0,8.7,0,13c0,1.7,0,1.7-1.8,1.7c-1.2,0-2.5,0-3.7,0C495.4,522.1,398.6,522.1,301.8,522.1z"></path> <path class="st1" d="M14.1,124.1c1,2.5,1.2,4.7,1.6,6.9c1.5,7.4,2.8,14.9,4.4,22.4c2.2,9.9,8.5,15.7,18.4,17.8 c0.9,0.2,1.8,0.1,2.7,0.1c172.7,0,345.3,0,518,0c2.6,0,5.2,0.1,7.8-0.7c8.7-2.8,14.1-8.5,16-17.5c1.9-9.5,3.7-19.1,5.6-28.8 c1,1.4,1.1,2.8,1.2,4.2c0.1,0.8,0,1.6,0,2.5c0,111.7,0,223.3,0,335c0,8.1,0.6,16.2,1.4,24.2c0.9,9.7,2.4,19.3,4.2,28.8 c0.1,0.4,0.3,0.8,0,1.3c-0.9,0.4-2,0.2-3.1,0.2c-77.8,0-155.6,0-233.4,0c-116.1,0-232.2,0-348.3,0c-3.3,0-3.3,0-2.7-3.2 c1.9-9.5,3.1-19,4-28.6c0.4-4.6,0.7-9.3,1-13.9c0.4-7,0.4-13.9,0.4-20.9c0-108.1,0-216.1,0-324.2C13.4,128,13.5,126.3,14.1,124.1z"></path> <path class="st2" d="M595.7,79.4c-0.8,4.2-1.6,8.5-2.4,12.7c-1.6,8.2-3.2,16.3-4.8,24.5c-2.3,11.9-4.6,23.9-7,35.8 c-2.1,10.4-10.1,17.1-20.8,17.4c-0.4,0-0.8,0-1.2,0c-171.9,0-343.7,0-515.6,0c-3,0-5.9-0.3-8.7-1.3c-7.4-2.8-11.9-8.3-13.5-15.9 c-1.6-7.4-2.9-14.9-4.4-22.4c-3.1-15.8-6.1-31.6-9.2-47.4c-0.1-0.6-0.1-1.1-0.2-1.7c-0.3-2-0.3-2,1.6-2.1c0.5,0,1,0,1.5,0 c193.9,0,387.9,0,581.8,0C593.6,79.2,594.6,78.9,595.7,79.4z"></path> <path class="st3" d="M595.8,89c0,140.5,0,280.8,0,421.2c-0.1,0-0.2,0-0.3,0c-0.5-3.6-1-7.2-1.6-10.8c-0.9-6.1-1.4-12.3-1.9-18.5 c-0.3-3.7-0.5-7.5-0.5-11.3c0-112.6,0-225.1,0-337.7c0-3.7-0.4-7.3-1.7-10.8c-0.3-0.7-0.3-1.3-0.2-1.9c2-10,3.9-20,5.9-30 C595.5,89.2,595.6,89.1,595.8,89z"></path> <path class="st4" d="M7.8,90.1c1.3,7,2.7,13.9,4,20.9c0.3,1.8,0.6,3.6,1.1,5.3c0.7,2.5,0.4,4.8-0.3,7.2c-0.6,2-0.8,4-0.8,6.1 c0,112.3,0,224.6,0,337c0,7.5-0.6,15-1.4,22.5c-0.7,6.8-1.5,13.6-2.9,20.3c0-139.8,0-279.6,0-419.3C7.6,90.1,7.7,90.1,7.8,90.1z"></path> </g> </svg>