<svg xmlns="http://www.w3.org/2000/svg" xmlns:xlink="http://www.w3.org/1999/xlink" id="Layer_1" x="0px" y="0px" width="600px" height="600px" viewBox="0 0 600 600" xml:space="preserve"> <g> <path fill="#FEFEFE" d="M500.271,300.271c0,66.081-0.006,132.161,0.037,198.242c0.001,1.465-0.33,1.795-1.794,1.794 c-132.161-0.039-264.323-0.039-396.484,0c-1.465,0-1.795-0.33-1.794-1.794c0.039-132.161,0.039-264.323,0-396.484 c0-1.465,0.33-1.795,1.794-1.794c132.161,0.039,264.323,0.039,396.484,0c1.465,0,1.795,0.33,1.794,1.794 C500.265,168.109,500.271,234.19,500.271,300.271z"></path> <path fill="#221F20" d="M300.27,449.501c-65.494-0.001-130.989-0.01-196.483,0.046c-1.906,0.002-2.329-0.497-2.328-2.343 c0.047-96.614,0.043-193.229,0.044-289.843c0-1.693,0.051-3.387-0.019-5.077c-0.041-0.992,0.246-1.479,1.294-1.386 c0.452,0.04,0.911-0.003,1.366-0.003c130.989,0,261.979,0.006,392.968-0.044c1.943-0.001,2.317,0.556,2.315,2.39 c-0.05,56.25-0.04,112.5-0.039,168.75c0.001,41.861-0.01,83.723,0.044,125.584c0.002,1.717-0.569,1.958-2.092,1.958 C431.65,449.496,365.96,449.501,300.27,449.501z"></path> <path fill="#FEFEFE" d="M488.988,203.418c1.545-5.436,2.235-11.051,3.449-16.556c0.348-1.576,0.619-3.169,0.928-4.771 c0.724,0.326,0.645,0.991,0.703,1.537c0.13,1.225,0.249,2.459,0.249,3.689c0.011,73.341,0.013,146.683,0.005,220.024 c-0.001,6.902,0.203,13.791,0.932,20.659c0.303,0.656-0.053,1.401,0.276,2.054c0.424,5.779,1.407,11.479,2.544,17.15 c0.236,1.177,0.041,1.543-1.131,1.418c-0.579-0.062-1.17-0.009-1.756-0.009c-66.39-0.007-132.78-0.018-199.171-0.019 c-63.722,0-127.443,0.001-191.165,0.069c-2.032,0.002-2.266-0.45-1.892-2.327c2.667-13.378,3.643-26.906,3.634-40.543 c-0.049-72.964-0.022-145.928-0.03-218.892c0-1.606,0.112-3.184,0.889-4.773c0.597,3.009,1.202,6.018,1.79,9.029 c0.66,3.379,1.283,6.766,1.968,10.14c0.412,2.031,1.079,3.975,2.322,5.675c0.502,0.061,0.759,0.443,1.045,0.792 c2.658,3.246,6.08,5.092,10.248,5.576c1.046,0.079,2.088,0.048,3.129,0.048c114.881,0.002,229.762,0.002,344.643,0 c1.041,0,2.083,0.03,3.117-0.052c2.061-0.485,4.206-0.679,6.105-1.764c2.72-1.554,4.746-3.747,6.152-6.533 C488.259,204.468,488.418,203.813,488.988,203.418z"></path> <path fill="#FEFEFE" d="M113.995,206.504c-3.628-9.68-4.437-19.987-6.622-29.987c-1.677-7.678-2.954-15.442-4.529-23.143 c-0.296-1.446,0.109-1.698,1.345-1.563c0.45,0.049,0.91,0.008,1.366,0.008c61.906,0,123.812,0,185.719,0 c68.155,0,136.311-0.001,204.466,0.009c0.827,0,1.677-0.172,2.548,0.184c-2.667,13.654-5.337,27.293-7.992,40.934 c-0.62,3.186-1.191,6.382-1.785,9.573c-0.215,4.353-4.952,8.937-9.323,10.14c-0.99,0.273-1.989,0.59-3.047,0.572 c-0.78,0.142-1.563,0.091-2.343,0.091c-115.673,0.003-231.346,0.003-347.019,0.002c-0.65,0-1.301,0.012-1.947-0.022 c-4.032-0.179-7.23-2.016-9.864-4.979C114.495,207.789,113.986,207.289,113.995,206.504z"></path> <path fill="#FEFEFE" d="M496.044,427.878c-1.617-24.257-0.73-48.545-0.791-72.817c-0.14-55.989-0.049-111.978-0.029-167.967 c0.001-2.304-0.213-4.543-1.057-6.692c-0.227-0.577-0.249-1.135-0.135-1.718c1.34-6.869,2.681-13.737,4.254-20.582 c0,94.468,0,188.935,0,283.403c-1.143-3.767-1.355-7.689-1.975-11.541C496.005,429.295,496.334,428.547,496.044,427.878z"></path> <path fill="#FDFDFD" d="M102.986,158.898c1.249,6.439,2.494,12.88,3.753,19.317c0.114,0.583,0.196,1.127-0.015,1.718 c-0.954,2.676-1.041,5.453-1.04,8.266c0.019,73.215,0.012,146.429,0.017,219.644c0.001,11.213-0.931,22.347-2.712,33.414 c-0.305,0.039-0.511-0.091-0.538-0.395c-0.053-0.584-0.025-1.171-0.025-1.757c-0.001-92.685-0.002-185.371,0.034-278.056 C102.46,160.356,101.798,159.354,102.986,158.898z"></path> <path fill="#302D2E" d="M113.995,206.504c2.63,3.291,5.653,5.953,10.11,6.322c0.693,0.273,1.417,0.14,2.125,0.14 c116.159,0.007,232.319,0.007,348.478,0c0.707,0,1.432,0.144,2.122-0.15c5.922-1.13,9.704-4.689,11.68-10.296 c0.072,0.346,0.103,0.713,0.477,0.899c-1.39,5.431-6.479,9.615-12.391,10.189c-0.698,0.242-1.42,0.129-2.131,0.129 c-116.115,0.006-232.231,0.006-348.346-0.002c-0.706,0-1.43,0.141-2.12-0.144c-4.64-0.387-8.029-2.752-10.468-6.619 C113.687,206.816,113.841,206.66,113.995,206.504z"></path> <path fill="#5A5859" d="M102.986,158.898c-0.775,0.429-0.393,1.161-0.393,1.739c-0.018,92.964-0.017,185.927,0.003,278.891 c0,0.573-0.393,1.308,0.393,1.73c0.063,0.831,0.233,1.685-0.647,2.524c0-95.746,0-191.319,0-286.99 C103.151,157.365,103.063,158.133,102.986,158.898z"></path> <path fill="#454344" d="M495.53,430.054c-0.384-0.645-0.358-1.346-0.276-2.054C495.778,428.627,495.639,429.343,495.53,430.054z"></path> <path fill="#454344" d="M496.044,427.878c0.331,0.664,0.323,1.371,0.266,2.085C495.759,429.326,495.904,428.602,496.044,427.878z"></path> <path fill="#3D3A3B" d="M124,213.591c1.236-0.015,2.471-0.044,3.707-0.044c115.712-0.003,231.423-0.004,347.135-0.002 c0.585,0,1.169,0.041,1.754,0.063c-0.921,0.464-1.917,0.277-2.876,0.277c-115.613,0.012-231.225,0.013-346.838,0.002 C125.92,213.886,124.924,214.041,124,213.591z"></path> <path fill="#3D3A3B" d="M476.831,212.815c-0.875,0.662-1.889,0.342-2.832,0.342c-104.554,0.017-209.107,0.016-313.661,0.016 c-11.263,0-22.525,0.007-33.788-0.014c-0.816-0.002-1.7,0.276-2.445-0.334c2.147,0.002,4.294,0.005,6.442,0.005 c114.322,0.001,228.645,0.001,342.967,0.001C474.62,212.832,475.725,212.821,476.831,212.815z"></path> </g> </svg>