<svg xmlns="http://www.w3.org/2000/svg" xmlns:xlink="http://www.w3.org/1999/xlink" id="Layer_1" x="0px" y="0px" viewBox="0 0 600 600" style="enable-background:new 0 0 600 600;" xml:space="preserve"> <style type="text/css"> .st0{fill:#FEFEFE;} .st1{fill:#FAFAFA;} .st2{fill:#FBFBFB;} .st3{fill:#F8F8F8;} .st4{fill:#F9F9F9;} .st5{fill:#EBEBEB;} .st6{fill:#121212;} .st7{fill:#0B0B0B;} </style> <g> <path d="M373,197.2c73,0,145.9,0,218.9,0c3.7,0,3.7,0,3.7,3.6c0,62.5,0,125,0.1,187.5c0,2.6-0.7,3.4-3.4,3.4 c-45.5-0.1-90.9,0-136.4-0.1c-2.5,0-3.4,0.6-3.1,3.1c0.2,2.4,0,4.8,0.1,7.2c0.1,1.8-0.5,2.6-2.4,2.5c-0.6,0-1.3,0-1.9,0 c-145.6,0-291.3,0-436.9,0c-3.8,0-3.8,0-3.8-3.9c0-62.4,0-124.8-0.1-187.2c0-2.7,0.8-3.4,3.4-3.4c45.6,0.1,91.3,0,136.9,0.1 c2,0,2.8-0.3,2.6-2.5c-0.2-2.2-0.1-4.4-0.1-6.7c0-3.7,0-3.7,3.6-3.7c20.8,0,41.7,0,62.5,0C268.8,197.2,320.9,197.2,373,197.2z"></path> <path class="st0" d="M450.6,402.4c-147.1,0-294,0-440.9,0c-0.5-0.7-0.2-1.8-0.2-2.7c0-61.5,0-123-0.1-184.4c0-2.5,0.6-3.1,3.1-3.1 c145,0.1,290,0.1,435,0c2.5,0,3.1,0.6,3.1,3.1c-0.1,61.5-0.1,123-0.1,184.4C450.6,400.6,450.6,401.5,450.6,402.4z"></path> <path class="st0" d="M587.9,297.5c-0.7,6,0.4,11.3,0.5,16.7c0.2,10.2,0.4,20.4,1.1,30.6c0.5,7.2,0.9,14.4,1.6,21.6 c0.7,6.9,1.4,13.8,2.2,20.7c0.2,1.9-0.3,2.4-2.3,2.4c-45.6-0.1-91.2-0.1-136.9,0c-1.9,0-1.4-1-1.4-1.9c0-14,0-27.9,0-41.9 c0-13.1,0-26.3-0.1-39.4c0-2,0.5-2.4,2.4-2.4c40.5,0.1,81.1,0,121.6,0.1C581.6,304,584.8,301.7,587.9,297.5z"></path> <path class="st0" d="M373.1,199.4c72.5,0,145,0,217.5,0c3.2,0,3,0,2.5,3.2c-1.1,6.7-2,13.5-3.1,20.2c-1.3,8.2-2.5,16.5-3.9,24.7 c-0.8,4.5-5.1,8-9.7,8c-40.6,0-81.1,0-121.7,0.1c-1.9,0-2-0.8-2-2.3c0-13.2,0-26.5,0-39.7c0-3.4-0.2-3.6-3.6-3.6 c-97.4,0-194.8,0-292.2,0.1c-2.3,0-2.9-0.8-3.1-2.9c-0.1-2.1-0.5-4.1-1-6.2c-0.3-1.3,0.1-1.7,1.3-1.6c0.6,0,1.1,0,1.7,0 C228.3,199.4,300.7,199.4,373.1,199.4z"></path> <path class="st0" d="M523.3,263.3c22.4,0,44.8,0,67.2,0c2.5,0,3,0.3,2.3,3c-2.3,9.3-4.3,18.7-6.2,28c-1,4.7-6.3,8-10.6,8 c-40.2-0.1-80.4-0.1-120.5,0c-2.3,0-2.9-0.5-2.8-2.8c0.1-11.2,0.1-22.4,0-33.6c0-2.1,0.5-2.6,2.6-2.6 C478,263.4,500.7,263.3,523.3,263.3z"></path> <path class="st0" d="M566.8,257.5c3.7,0,7.4,0.5,10.9-0.1c7-1.3,10.2-5.5,11.2-12.8c1.4-9.5,2.9-19,4.3-28.6 c0.2-1.2,0.2-2.3,0.3-3.8c0.7,0.9,0.4,1.7,0.4,2.5c0,14.8,0,29.6,0.1,44.4c0,2-0.4,2.6-2.5,2.6c-6.9-0.2-13.9-0.1-20.8-0.1 C566.5,261.7,566.5,261.7,566.8,257.5z"></path> <path class="st0" d="M593.7,370.8c-0.4-9.9-1.7-19.6-2.2-29.4c-0.8-14.7-1.3-29.4-1.6-44.1c-0.1-6.6,1-12.9,2.5-19.2 c0.4-1.9,0.9-3.8,1.4-5.8C593.7,305.1,593.7,337.9,593.7,370.8z"></path> <path class="st1" d="M502,259.5c-3.9,2.5-3.9,2.5-10.3-0.6c0.8,1,1.5,1.7,2.1,2.4c-3.9,0.6-4.5,0.4-5.9-2.4c-0.1-0.3-1.3-0.9,0-1.4 c0.8-0.3,1.3-0.1,1.5,0.6c0.3,0.8,0.9,1.4,1.5,2c1-1.2-1.2-1.5-0.7-2.7c1.6,0.4,3.2,1.1,5,0.2c1.4-0.7,3.1,1.3,4.5-0.3 c0.9,3.2,2-0.9,3.4,0.1c1.2,0.9,3.1,0.4,4.6-0.1c0.2,1.3-1.2,2-0.9,3.2c1.1-0.2,0.9-1.3,1.4-1.8c0.4-0.4,0.4-1.7,1.4-1.1 c1,0.6-0.1,1.3-0.4,1.8c-0.9,1.7-5.8,3-7.2,2C501,260.9,502.9,260.2,502,259.5z"></path> <path class="st1" d="M488.4,261.7c-2.3,0-4.5,0.1-6.6,0c-1.7-0.2-3.4,0.4-5.2-0.5c-1.2-0.6-3.1,1.4-4.5-0.5c-1.2,1.1-2.2,2.1-3-0.4 c-0.1-0.2-0.6,2.2-2.2,1.2c0-0.1,0-0.2,0-0.3c1.2-3.2,3.6-3.7,6.8-3.5c3.1,0.1,6.1,0.8,9.3,0C485.8,256.8,487.3,258.9,488.4,261.7z "></path> <path class="st2" d="M509.2,261.6c0.8-3.9,3.6-4.1,6.8-3.9c2,0.1,4-0.2,5.9,0.6c0.9,0.4,1.5-0.5,2.3-0.7c2.8-0.6,4.3,0.3,6.4,4 c-2.5,0-4.9,0.1-7.3,0c-3-0.2-6.1-0.1-9.1-0.7c-0.9-0.2-2.2,1.7-2.9-0.6C511.3,260.1,510.7,262.4,509.2,261.6z"></path> <path class="st2" d="M550,260.5c-0.7,1.2-5.1,1.8-5.8,0.7c-0.1-0.1-0.1-0.4-0.1-0.4c0.5-0.3,1.4-0.6,0.3-1.1 c-0.4-0.2-1.7,0.4-1.5,0.9c0.5,1.6-0.6,1-1.2,1.1c-2.8,0.3-5.4,0.2-7-3.4c-0.5,2.1,1.1,2.2,1.2,3.4c-2.2-0.2-4.9,0.7-5.8-2.4 c-0.1-0.4-1.2-0.9-0.3-1.5c0.7-0.5,1.3-0.2,1.9,0.4c0.7,0.7,0.6,1.9,1.9,2.1c0.3-0.8-0.5-1.1-0.7-1.7c-0.4-0.8,0.2-1.2,0.7-1 c2.2,1,4.5-0.8,6.9,0.3c0.7,0.3,2.6,1.2,4-0.2c1.1-1,2.9,0.4,4.6,0c1.7-0.4,0.5,1.3,0.3,1.8C548.9,260.5,548.6,261,550,260.5 L550,260.5z"></path> <path class="st3" d="M464.7,260.6c1-0.5,0.9-1.7,1.6-2.4c0.3-0.3,0.3-0.9,1-0.6c0.5,0.3,0.5,0.6,0.3,1.1c-0.8,2.3-5.9,4.2-7.8,2.8 c-0.9-0.7,0.7-1.2,0.1-1.9c-0.3-0.4-0.8-0.2-0.9,0c-0.8,3-3.3,1.7-5.1,1.9c-0.8,0.1-1.3-0.3-1.1-1.1c0.3-1.3,1,0.9,1.1,0.5 c0.5-1,0.1-1.2-0.1-1.4c-0.8-0.5-1.4-1.2-1-2c0.4-0.8,1.5,0.3,2.1-0.3c0.4,1.8,3-1.1,3.1,1.5c0.2-0.1,0.7-0.1,0.7-0.2 c0.8-2.5,2.5-1,3.8-0.7c0.6,0.1,0.9,0.4,1.3-0.2c0.4-0.7,1.4-0.4,1.6-0.2c0.5,0.5-0.3,0.9-0.4,1.4 C464.9,259.5,464,259.9,464.7,260.6z"></path> <path class="st4" d="M551.4,261.4c1.6-0.7,1.4-4,2.7-3.7c2.3,0.5,4.4-0.7,6.6-0.2c-0.2,0.4-0.4,0.9-0.6,1.3c1.5,0.4,2-2.5,3.7-1.1 c1.2,1,0.6,2.5,0.4,3.4c-0.2,1.1-1.9,0.3-2.9,0.5c-0.1-1.2,1.6-1.3,1.3-2.8c-1.1,1-1.9,2.5-3,2.6c-1.8,0.2-5,0.4-5.3,0 C553,259.3,552.1,263.4,551.4,261.4z"></path> <path class="st5" d="M550.1,260.5c0-1.6,0.8-2.6,2.9-3.4C551.9,258.6,552.2,260.5,550.1,260.5C550,260.5,550.1,260.5,550.1,260.5z"></path> <path class="st6" d="M485.4,258.3c-1.5,1.4-1.5,1.4-4.3,2.1C482.3,258.9,483.9,258.8,485.4,258.3z"></path> <path class="st7" d="M528.2,258.1c-1.7,1.7-3.2,1.9-4.6,2.3C524.6,259.1,526,258.6,528.2,258.1z"></path> </g> </svg>