<svg xmlns="http://www.w3.org/2000/svg" xmlns:xlink="http://www.w3.org/1999/xlink" id="Layer_1" x="0px" y="0px" viewBox="0 0 600 600" style="enable-background:new 0 0 600 600;" xml:space="preserve"> <style type="text/css"> .st0{fill:#221E1F;} .st1{fill:#2A2627;} .st2{fill:#FFFFFF;} .st3{fill:#E8E9EA;} </style> <g> <path class="st0" d="M572.1,597.7c-0.2,0.2-0.3,0.4-0.5,0.6c-1,0.5-2,0.3-3,0.3c-178.2,0-356.4,0-534.7,0c-1.2,0-2.6,0.5-3.6-0.8 l0,0c-1.3-1-0.8-2.4-0.8-3.6c0-65.2,0-130.3,0-195.5c0-33.6,0-67.3,0-100.9c0-1.1-0.2-2.2,0.2-3.3c-0.1-6.6,0.6-13.1,0.8-19.7 c0.4-8.7,0.9-17.4,1.4-26c1.1-20.3,2.2-40.6,3.2-60.9c0.6-10.6,1.1-21.2,1.7-31.9c1-19.2,2-38.4,3-57.6c1-19.5,2.1-39,3.1-58.4 c0.2-3.4,0.2-6.8,0.6-10.2C45.3,14.7,57.8,3.4,72.8,3.3c1.3,0,2.6,0,3.9,0c149.8,0,299.6,0,449.5,0c3.6,0,7.2,0,10.7,1 c12,3.1,20.7,13.1,22,25.4c0.5,4.5,0.7,9,0.9,13.6c0.8,16.2,1.6,32.3,2.5,48.5c1.1,21.2,2.2,42.5,3.3,63.7 c0.9,17.5,1.8,35.1,2.8,52.6c1.1,21.2,2.2,42.5,3.3,63.7c0.4,7,0.7,14,1.1,21.1c0,0.5,0,1.1-0.1,1.7c0.4,1,0.2,2,0.2,3 c0,98.9,0,197.8,0,296.7C572.9,595.3,573.5,596.7,572.1,597.7z"></path> <path class="st1" d="M30.4,597.7c0.9,0.4,1.7,0.6,2.7,0.5c0.7,0,1.5,0,2.2,0c177.5,0,355,0,532.5,0c1.3,0,2.6,0,3.9,0 c-0.1,0.4-0.4,0.6-0.8,0.6c-0.8,0-1.7,0-2.5,0c-178.1,0-356.3,0-534.4,0C32.7,598.8,31.1,599.6,30.4,597.7z"></path> <path class="st1" d="M29.8,294.4c0,1.1,0.1,2.2,0.1,3.3c0,98.7,0,197.5,0,296.2c0,1.3-0.2,2.6,0.5,3.8c-0.4,0-0.8,0-0.9-0.4 c-0.1-0.6-0.1-1.3-0.1-1.9c0-98.9,0-197.9,0.1-296.8C29.5,297.1,29.2,295.7,29.8,294.4z"></path> <path class="st1" d="M572.1,597.7c0.7-1.1,0.5-2.3,0.5-3.5c0-9.1,0-18.1,0-27.2c0-89.7,0-179.3,0-269c0-1.2,0.1-2.4,0.1-3.6 c0.6,1.6,0.3,3.3,0.3,4.9c0,84.3,0,168.7,0,253c0,14.3,0,28.7,0,43C573.1,596.1,573.9,597.5,572.1,597.7z"></path> <path class="st2" d="M32,586c0.2-3.6,0.4-7.2,0.5-10.8c0.5-18.4,0.9-36.8,1.4-55.2c0.8-31,1.7-61.9,2.5-92.9 c0.5-18.6,0.8-37.2,1.4-55.8c0.3-9.6,0.1-19.2,0.9-28.8c1.2-13.6,12.7-24.2,26.3-24.6c1.8-0.1,3.7,0,5.5,0 c155.1,0,310.2,0,465.4-0.1c13.4,0,25,9.1,27.6,22c0.5,2.3,0.6,4.6,0.7,6.9c0.4,17.7,0.9,35.3,1.3,53c0.7,28.5,1.5,57,2.2,85.4 c0.9,33.1,1.8,66.2,2.6,99.3c0,0.4,0.1,0.7,0.1,1.1c0.3,3.7,0.5,7.4-0.1,11.1l0,0c-0.8,0.6-1.8,0.3-2.7,0.3c-177.7,0-355.3,0-533,0 c-0.9,0-1.9,0.3-2.7-0.3l0,0C31.5,593,31.7,589.5,32,586z"></path> <path class="st2" d="M301.3,294.6c-88.6,0-177.2,0-265.8,0c-3.5,0-3.5,0-3.3-3.6c0.8-16.1,1.7-32.1,2.6-48.2 c0.6-11.3,1.2-22.5,1.8-33.8c0.9-17,1.8-34,2.7-51c0.6-11.8,1.2-23.6,1.8-35.5c0.9-16.3,1.8-32.7,2.6-49 c0.7-12.6,1.3-25.1,1.9-37.7c0.2-3.5,0.3-7,1.3-10.4c3.4-11.7,13.8-19.7,26.1-20c1.6,0,3.1,0,4.7,0c150.3,0,300.6,0,450.9,0 c14,0,25.1,8.9,27.8,22.4c0.4,2.1,0.5,4.2,0.6,6.3c0.7,12.5,1.3,24.9,1.9,37.4c0.8,15.6,1.7,31.2,2.5,46.8 c0.6,11.3,1.2,22.5,1.8,33.8c0.9,17,1.8,34,2.7,51c0.6,11.4,1.2,22.7,1.8,34.1c0.9,16.8,1.8,33.6,2.7,50.4c0.1,1.7,0.2,3.3,0.2,5 c0,1.9,0,1.9-2,1.9c-0.6,0-1.1,0-1.7,0C478.3,294.6,389.8,294.6,301.3,294.6z"></path> <path class="st2" d="M562.9,297.1c-0.7,1-1.7,1-2.6,1.3c-16.8,5.5-33.6,10.9-50.3,16.4c-1.7,0.6-3.4,0.8-5.2,0.8 c-135.7,0-271.4,0-407.1,0c-1.8,0-3.5-0.3-5.2-0.8c-16.8-5.5-33.6-10.9-50.3-16.4c-0.8-0.3-1.8-0.2-2.6-1.2 C214.1,297.1,388.4,297.1,562.9,297.1z"></path> <path class="st2" d="M516.8,315c17.8-5.8,35.7-11.6,53.7-17.5c0,63.7,0,127.2,0,191c-0.5-1.1-0.4-1.8-0.4-2.5 c-0.5-18.3-0.9-36.6-1.4-54.9c-0.7-28.8-1.4-57.5-2.3-86.3c-0.4-14.5-10.4-26.1-24.6-28.9c-1.6-0.3-3.3-0.4-5-0.4 c-6.7,0-13.3,0-20,0C516.9,315.4,516.8,315.2,516.8,315z"></path> <path class="st2" d="M32.1,488.1c0-63.4,0-126.8,0-190.6c18,5.9,35.9,11.7,53.7,17.5c0,0.2-0.1,0.4-0.1,0.5c-0.9,0-1.7,0-2.6,0 c-5.7,0-11.5,0.1-17.2,0c-14.5-0.2-29.4,11.4-29.8,29.6c-0.3,10.4-0.5,20.7-0.7,31.1C34.7,400.1,34,424,33.4,448 c-0.3,11.6-0.6,23.3-0.8,34.9c0,1.8,0,3.5,0,5.3C32.4,488.2,32.2,488.1,32.1,488.1z"></path> <path class="st1" d="M32.1,596.5c179.5,0,358.9,0,538.4,0c-0.3,0.5-0.7,0.6-1.2,0.6c-0.8,0-1.7,0-2.5,0c-177,0-354,0-531,0 C34.5,597.1,33.2,597.7,32.1,596.5z"></path> <path class="st1" d="M570.4,596.5c0.4-3.7-0.2-7.4,0.1-11.1c0.5,0.4,0.5,0.9,0.5,1.5c0,2.6,0,5.3,0,7.9 C571,595.5,571.1,596.2,570.4,596.5z"></path> <path class="st1" d="M32,586c0.3,3.5-0.3,7,0.1,10.5c-0.1-0.1-0.2-0.1-0.2-0.2C31.3,592.9,31.1,589.5,32,586z"></path> <path class="st3" d="M301.1,47.1c-77.3,0-154.6,0-232,0c-4.1,0-3.8,0.4-3.8-3.7c0-9.8,0-19.6,0-29.4c0-0.6,0-1.3,0-1.9 c-0.1-1.2,0.6-1.6,1.7-1.6c0.6,0,1.1,0,1.7,0c155,0,310,0,465,0c3.6,0,3.4-0.2,3.4,3.3c0,10.1,0,20.2,0,30.2c0,0.6,0,1.1,0,1.7 c0,1.1-0.6,1.5-1.6,1.5c-0.8,0-1.7,0-2.5,0C455.8,47.1,378.5,47.1,301.1,47.1z"></path> </g> </svg>