<svg xmlns="http://www.w3.org/2000/svg" xmlns:xlink="http://www.w3.org/1999/xlink" id="Layer_1" x="0px" y="0px" viewBox="0 0 600 600" style="enable-background:new 0 0 600 600;" xml:space="preserve"> <style type="text/css"> .st0{fill:#0D0909;} .st1{fill:#1D1718;} .st2{fill:#FAECC7;} .st3{fill:#FAECC8;} .st4{fill:#FBEDC8;} .st5{fill:#160E12;} .st6{fill:#130E0F;} .st7{fill:#191110;} </style> <g> <path class="st0" d="M78.3,597.2c-0.4-1.3-0.2-2.6-0.2-3.9c0-195.5,0-391-0.1-586.6c0-2,0.6-2.3,2.4-2.3c146.4,0,292.8,0,439.2,0 c3.7,0,3.7,0,3.7,3.7c0,195.6,0,391.2,0,586.8c0,0.8-0.1,1.5-0.2,2.3c-0.8,0.4-1.7,0.2-2.5,0.2c-146.6,0-293.2,0-439.8,0 C80,597.4,79.1,597.6,78.3,597.2z"></path> <path class="st1" d="M78.3,597.2c0.9,0,1.9,0,2.8,0c146.2,0,292.5,0,438.7,0c1.1,0,2.2,0,3.3,0c-0.5,0.8-1.3,0.3-1.9,0.3 c-147,0-294,0-441,0C79.6,597.5,78.8,598,78.3,597.2z"></path> <path class="st1" d="M78.8,300.9c0-97.5,0-195,0-292.5c0-3.3,0-3.3,3.3-3.3c145.1,0,290.3,0,435.4,0c0.7,0,1.4,0,2.1,0 c3.2,0,3.4,0,3,3.2c-0.7,5.5-0.4,11.1-0.4,16.6c0,187.7,0,375.4,0,563.2c0,2.3,0.3,4.7,0.4,7c0.1,1.2-0.2,1.8-1.6,1.3 c-0.8-0.3-1.7-0.2-2.5-0.2c-145,0-290,0-435,0c-0.7,0-1.5-0.2-2.1,0.1c-2.7,1.1-2.7-0.5-2.7-2.5C78.8,496.2,78.8,398.5,78.8,300.9z "></path> <path class="st2" d="M79.7,10.8c0.6-0.4,0.6,0.4,1,0.5c1.1,0.8,1.3,2.1,1.7,3.3c5.8,15,11.3,30.1,17.4,45 C103.5,69,111,74,121.1,75.2c12.2,1.4,24.3,3.1,36.5,4.5c15,1.7,29.9,3.8,44.9,5.5c10.5,1.2,21,2.8,31.6,3.9 c13.7,1.5,27.4,3.6,41.2,4.6c13.2,0.9,26.4,0.7,39.6,0.8c1.3,0,2.8-0.9,4,0.3c0.6,0.7,0.7,1.6,0.7,2.4c0,0.6,0,1.2,0,1.9 c0,143.6,0,287.2,0,430.9c0,1.5,0.4,3.2-0.8,4.5c-1.3,0.9-2.7,0.6-4.1,0.6c-34.3,0-68.7,0-103,0c-31.4,0-62.8,0-94.1,0 c-10.5,0-18.1,5.5-21.7,15.4c-4.5,12.5-9.1,24.9-13.6,37.4c-0.3,0.9-0.6,1.8-1.5,2.3c-0.4,0-0.2,1.2-1,0.5 c-0.3-0.8-0.2-1.7-0.2-2.5c0-191.6,0-383.2,0-574.7C79.5,12.5,79.3,11.6,79.7,10.8z"></path> <path class="st3" d="M521.3,10.4c1,0.5,0.5,1.4,0.5,2.1c0,45.1,0,90.2,0,135.2c0,147.1,0,294.2,0,441.3c0,0.7,0.6,1.6-0.5,2 c-0.9-0.5-1.1-1.5-1.4-2.3c-4.6-13.2-9.4-26.3-14.3-39.4c-2.9-7.7-8.4-12.4-16.5-14c-1.2-0.4-2.4-0.2-3.6-0.2 c-53.8,0-107.6,0-161.4,0c-1.4,0-2.8,0.3-4.1-0.5c-0.6-0.7-0.6-1.6-0.6-2.4c0-0.9,0-1.9,0-2.8c0-143.1,0-286.1,0-429.2 c0-0.5,0-1.1,0-1.6c0-4.1,0-4.1,4.1-4.4c0.2,0,0.5-0.1,0.7-0.1c7.6-0.5,15.2-1.2,22.8-2.2c15.7-2.1,31.5-3.7,47.1-5.8 c9.6-1.3,19.2-2.2,28.8-3.5c10.7-1.4,21.5-2.6,32.3-3.9c8.2-1,16.4-2.2,24.6-3.1c6.4-0.7,12-2.9,16.6-7.4c2.5-2.5,4.4-5.5,5.6-8.8 c5.9-15.2,11.7-30.4,17.5-45.7C520,12.4,520.2,11.2,521.3,10.4z"></path> <path class="st4" d="M521.1,7c0,0.8-1,1.1-0.8,1.9c0,1.1-0.1,2.2-0.5,3.2c-6.1,15.6-11.9,31.4-18.2,47c-2.6,6.5-7.2,11.3-13.7,14 c-3.9,1.6-8.2,2-12.4,2.4c-10.9,1.2-21.7,2.8-32.5,4c-16.2,1.8-32.4,4-48.6,5.9c-13.5,1.6-26.9,3.4-40.4,4.9 c-9.9,1.1-19.8,2.8-29.8,3.1c-1.9,0.1-3.7,0.4-5.6,0.4c-1.8,0.1-3.7-0.2-5.5,0.3c-8.4,0.2-16.8,0.5-25.3-0.2 c-3.6-0.3-7.2-0.2-10.7-0.5c-8.3-0.6-16.5-1.5-24.7-2.5c-10.8-1.4-21.5-2.6-32.3-4c-20.6-2.6-41.2-5.1-61.8-7.6 c-12.2-1.5-24.4-3.2-36.7-4.5c-10.7-1.2-18.3-6.7-22.3-16.8C93.6,43,87.7,27.8,82,12.5c-0.4-1.2-0.6-2.4-1-3.6 c-0.2-0.8-0.5-1.5-0.7-2.3c-0.2-0.9,0.4-0.5,0.8-0.5c1,0.3,2,0.1,3,0.1c144.6,0,289.2,0,433.8,0C519,6.4,520.3,5.8,521.1,7z"></path> <path class="st4" d="M520.8,593.9c0.9,2-0.3,1.9-1.8,1.9c-145.5,0-291.1,0-436.6,0c-1,0-2.4,0.5-2.3-1.3c2.4-7.3,5-14.4,7.5-21.6 c2.7-7.5,5.5-15,8.2-22.4c3.7-10.1,11.2-15.3,22-15.3c122,0,244,0,365.9,0c10.4,0,18.3,5.5,21.8,15.3c4.6,12.9,9.2,25.7,14,38.5 C520.3,590.5,520.6,592.2,520.8,593.9z"></path> <path class="st5" d="M520.8,593.9c-4.1-11.1-8.1-22.3-12.2-33.4c-1.7-4.5-2.9-9.2-5.2-13.5c-3.9-7.2-10.1-11.1-18.4-11.1 c-122.5,0-245,0-367.5-0.1c-9.5,0-17.5,5.3-20.8,14.4c-4.9,13.5-9.8,27-14.7,40.4c-0.5,1.3-0.6,2.9-1.8,3.8 c-0.2-1.5,1.4-2.8,0.4-4.3c3.6-10,7.1-19.9,10.7-29.9c1.3-3.7,2.7-7.5,4.1-11.2c3.7-9.5,11.4-14.8,21.6-14.8 c66.4,0,132.9,0,199.3,0c0.6,0,1.2,0.1,1.9,0.1c0.1,0,0.2,0,0.2,0c0.1,0,0.2,0,0.2,0c0.1,0.4,0,0.6-0.4,0.6c-0.7,0.1-1.4,0-2.1,0 c-65.8,0-131.5,0-197.3,0c-0.7,0-1.5,0.3-1.9,0c0.5,0,1.5,0,2.4,0c65.2,0,130.4,0.2,195.6-0.1c56.4-0.2,112.8,0,169.1-0.2 c1.8,0,3.6-0.6,5.3-0.1c6.9,1.1,11.9,4.8,15.1,10.9c3.6,7,5.7,14.7,8.4,22c2.9,7.7,5.6,15.5,8.3,23.3 C520.2,591.8,521.9,593.1,520.8,593.9z"></path> <path class="st6" d="M81,8.9c2.4,4.6,3.9,9.5,5.7,14.3c4.5,11.5,8.8,23.1,13.3,34.7c3.9,9.9,11.3,15.3,21.8,16.6 c26.7,3.2,53.4,6.6,80,9.8c20.3,2.5,40.6,5,60.9,7.4c8.1,0.9,16.2,1.4,24.4,1.8c8.6,0.4,17.3,0,25.9,0.3c1.5-0.4,3.1-0.2,4.6-0.1 c0.6,0,1.6,0.1,0.6,1.2c-11.3,0.9-22.5,0.7-33.8,0.1c-24.4-1.2-48.4-5-72.6-7.9c-19-2.2-38-4.6-57-6.9c-11.6-1.4-23.2-2.6-34.8-4.3 c-10.8-1.5-18-7.8-21.9-18C92.5,42.9,86.8,28,81.1,13.1c-0.2-0.6-0.3-1.2-0.5-1.8C81.4,10.6,80.4,9.6,81,8.9z"></path> <path class="st6" d="M318.8,93.3c16.7-1,33.3-3.3,49.9-5.3c19.8-2.4,39.5-4.8,59.3-7.2c17.3-2.1,34.6-4.2,51.9-6.3 c10.3-1.3,17.7-6.4,21.5-16.3c6.1-15.7,12.1-31.4,18.2-47.1c0.3-0.7,0.1-1.6,0.8-2.1c0.3,0.5,0.7,1,1,1.5c-3,7.9-5.9,15.7-8.9,23.6 c-3.3,8.7-6.5,17.3-10,25.9c-3.9,9.4-11.2,14.6-21.2,15.9c-24.4,3.1-48.9,6-73.3,9c-21.5,2.6-43,5.3-64.6,7.9 c-6.1,0.7-12.2,1.6-18.3,1.6c-1.8,0.5-3.6-0.2-5.5-0.1C319.2,94.2,318.7,93.9,318.8,93.3z"></path> <path class="st0" d="M79.7,10.8c0,1.2,0.1,2.5,0.1,3.7c0,191.2,0,382.3,0,573.5c0,0.9-0.1,1.7-0.1,2.6c-0.8-0.9-0.4-1.9-0.4-2.9 c0-154.2,0-308.3,0-462.5c0-37.3,0-74.5,0-111.8C79.2,12.6,78.8,11.6,79.7,10.8z"></path> <path class="st2" d="M521.1,7c-1.1-0.7-2.3-0.4-3.4-0.4c-144.6,0-289.1,0-433.7,0c-1,0-2,0.3-2.9-0.4c1.1,0,2.2-0.1,3.3-0.1 c144.7,0,289.5,0,434.2,0C519.4,6.2,520.9,5.2,521.1,7z"></path> <path class="st7" d="M318.8,93.3c2,0.7,4.2,0.8,6.3,1c-0.1,0.1-0.2,0.2-0.4,0.3c-1.5,0.2-3.6-0.5-4.4,0.7c-0.7,1.1-0.2,3-0.2,4.6 c0,143.7,0,287.4,0,431.1c0,1.1,0.1,2.2,0.1,3.3c0.6,0.7,1.5,0.3,2.2,0.4c53.8,0,107.6,0,161.4,0c0.8,0,1.6,0.2,2.3-0.2 c1.1,0.3,2.3-0.3,3.3,0.4c-15.1,1.1-30.3,0.4-45.4,0.5c-108.5,0.1-216.9,0-325.4,0c-0.9,0-1.8,0-2.8,0c0-0.2,0-0.3,0-0.5 c0.9,0,1.7,0,2.6,0c65.8,0,131.7,0,197.5,0c0.8,0,1.5-0.1,2.3-0.1c0,0,0.1-0.1,0.1-0.2c0-0.1-0.1-0.1-0.1-0.2 c0.7-0.6,0.4-1.5,0.4-2.2c0-145.1,0-290.1,0-435.2c0-0.8,0.3-1.6-0.4-2.2c0.4-1.2-0.6-0.9-1.1-0.9c-1.4-0.1-2.7-0.1-4.1-0.1 C314.9,92.9,316.9,93.6,318.8,93.3z"></path> <path class="st5" d="M486.1,534.4c-0.7,0.8-1.6,0.5-2.4,0.5c-53.6,0-107.3,0-160.9,0c-0.9,0-1.9,0.4-2.6-0.6c34.5,0,69.1,0,103.6,0 c19.9,0,39.8,0,59.8,0C484.4,534.2,485.2,534.3,486.1,534.4z"></path> </g> </svg>