<svg xmlns="http://www.w3.org/2000/svg" xmlns:xlink="http://www.w3.org/1999/xlink" id="Layer_1" x="0px" y="0px" viewBox="0 0 600 600" style="enable-background:new 0 0 600 600;" xml:space="preserve"> <style type="text/css"> .st0{fill:#0F0D0F;} .st1{fill:#161216;} .st2{fill:#F4C559;} .st3{fill:#1E130F;} .st4{fill:#F4C459;} .st5{fill:#F5C55A;} </style> <g> <path class="st0" d="M78.3,597.2c-0.1-0.6-0.2-1.2-0.2-1.8c0-195.1,0-390.2,0-585.2c0-1.8-0.5-3.7,0.3-5.5c0.9-0.3,1.9-0.2,2.8-0.2 c146.4,0,292.8,0,439.3,0c0.8,0,1.7-0.2,2.5,0.2c0.6,2.3,0.2,4.6,0.2,7c0,194.5,0,389,0,583.5c0,0.7,0.2,1.4-0.2,2 c-0.8,0.4-1.7,0.2-2.5,0.2c-146.6,0-293.2,0-439.8,0C80,597.4,79.1,597.6,78.3,597.2z"></path> <path class="st1" d="M78.3,597.2c69.4,0,138.9,0,208.3,0c78.8,0,157.6,0,236.5,0c-0.5,0.8-1.3,0.3-1.9,0.3c-147,0-294,0-441,0 C79.6,597.5,78.8,597.9,78.3,597.2z"></path> <path class="st1" d="M523.1,4.7c-73.9,0-147.8,0-221.7,0c-73.2,0-146.4,0-219.6,0c-1.1,0-2.2,0-3.3-0.1c0.7-0.4,1.5-0.2,2.3-0.2 c146.3,0,292.6,0,438.9,0C520.8,4.4,522,4.1,523.1,4.7z"></path> <path class="st2" d="M522.1,10.5L522.1,10.5c-0.3,0.9-0.1,1.7-0.1,2.6c0,191.7,0,383.5,0,575.2c0,0.9-0.2,1.7,0.2,2.6 c0,0.1-0.1,0.2-0.1,0.3c0,0.1,0.1,0.1,0.1,0.2c-1.6,0.1-1.8-1.2-2.2-2.3c-3.5-9.8-7.1-19.5-10.6-29.3c-1.2-3.5-2.5-6.9-3.8-10.3 c-3.5-9.7-12.3-14.5-20.9-14.5c-53.5,0.1-107.1,0.1-160.6,0c-1.4,0-3,0.4-4.2-0.8c-0.6-1.4-0.4-2.9-0.4-4.4c0-82.8,0-165.6,0-248.4 c0-60.7,0-121.4,0-182.1c0-1.4-0.2-2.8,0.2-4.2c0.5-1.1,1.5-1,2.4-1.1c8-0.7,16-1.2,24-2.3c10.8-1.5,21.7-2.6,32.5-4 c14.9-1.9,29.9-3.5,44.8-5.5c14.1-1.9,28.2-3.2,42.3-5.3c4.8-0.7,9.6-1.2,14.4-1.7c6.2-0.7,11.9-2.8,16.4-7.3 c2.7-2.7,4.6-6.1,6-9.7c5.9-15.3,11.7-30.6,17.6-45.9c0.3-0.7,0.5-1.5,1.1-2C521.5,10.1,521.9,10,522.1,10.5z"></path> <path class="st1" d="M522.1,10.5c-1.3-0.2-1,1-1.2,1.6c-6.1,15.9-12.1,31.8-18.4,47.6c-3.8,9.6-11.2,14.9-21.2,16.1 c-24.5,3.1-49,6-73.5,9c-23,2.8-45.9,5.6-68.9,8.3c-6.2,0.7-12.4,1-18.6,1.6c-0.7,0.7-0.3,1.5-0.3,2.2c0,144.5,0,288.9-0.1,433.4 c0,0.9,1,2.5-1,2.8c-0.8-0.6-0.8-1.5-0.8-2.3c-0.1-1.2,0-2.3,0-3.5c0-142.1,0-284.2,0-426.3c0-5.1,0-5.1-5-5.1 c-8.4,0-16.9,0.3-25.3-0.1c-11.5-0.5-23.1-1.3-34.5-2.9c-11-1.6-22-2.6-33-4c-19.4-2.6-38.9-4.8-58.4-7.2 c-13.7-1.7-27.4-3.4-41.2-5.1c-10.7-1.3-18.4-6.8-22.4-16.9c-6-14.9-11.5-30.1-17.3-45.1c-0.2-0.5-0.3-1.1-0.5-1.3 c0,191.4,0,382.9,0,574.8c2.3-6.6,4.7-12.9,6.9-19.2c2.4-6.8,4.8-13.6,7.4-20.2c4-10.1,11.5-15.1,22.5-15.1c65.2,0,130.3,0,195.5,0 c1.9,0,3.8,0,5.6-0.2c0.8-0.1,1.4,0.4,1.9,0.9c1.2,0,2.3-0.1,3.5-0.1c53.3,0,106.5,0,159.8,0c8.6,0,15.5,3,20.2,10.3 c2,3.2,3.1,6.8,4.4,10.3c4.2,11.7,8.4,23.3,12.7,35c0.2,0.6,0.2,1.5,1.1,1.6c0.2,0.4,0.4,0.9,0.5,1.3c0.6,3.6,0.2,4.1-3.4,4.1 c-145.8,0-291.6,0-437.3,0c-3.1,0-3.2,0-3.2-3.2c0-195.1,0-390.2,0-585.2c0-3.2,0-3.2,3.1-3.2c145.5,0,291.1,0,436.6,0 C523.1,5.2,523.7,6.1,522.1,10.5z"></path> <path class="st1" d="M522.1,590.8c-0.5-1.6-0.3-3.2-0.3-4.9c0-107.8,0-215.6,0-323.3c0-82.7,0-165.4,0-248.1c0-1.3-0.2-2.7,0.3-3.9 c0,1.2,0.1,2.5,0.1,3.7c0,191.2,0,382.5,0,573.7C522.2,589,522.2,589.9,522.1,590.8z"></path> <path class="st3" d="M318.7,533c0.6-0.1,1-0.4,1-1.1c0-0.6,0-1.2,0-1.9c0-144,0-288,0.1-432.1c0-1-1-2.4,0.5-3.2 c-0.1,0.9-0.2,1.7-0.2,2.6c0,144.7,0,289.4,0,434c0,1-0.2,2,0.3,3c-0.6-0.2-1.2-0.3-1.7-0.5C318.4,533.5,318.5,533.2,318.7,533z"></path> <path class="st4" d="M318.7,533c0,0.3-0.1,0.6-0.1,0.9c-0.8,0.6-1.6,0.4-2.5,0.4c-66,0-132,0-198,0c-11.8,0-19.4,5.4-23.3,16.5 c-4.6,13-9.4,26-14.1,38.9c-0.1,0.4-0.1,1-0.8,1.1c0-193.3,0-386.6,0-579.9c0.8,0.1,0.7,0.8,0.9,1.3C86.8,28,92.8,44,99.1,59.8 c4,10.1,12.1,15,22.6,16.3c16.7,2,33.3,4,50,6c27.9,3.4,55.8,6.8,83.7,10.3c17.3,2.2,34.7,3.2,52.2,2.9c3.2-0.1,6.4-0.3,9.5-0.5 c1-0.1,1.7,0.1,1.5,1.4c0,0.4,0,0.8,0,1.2c0,144.3,0,288.6,0,432.8C318.6,531.1,318.7,532,318.7,533z"></path> <path class="st5" d="M80.4,6.2c147,0,293.8,0,441,0c-1.3,3.5-2.6,6.9-3.9,10.3c-5.3,13.7-10.5,27.3-15.7,41 c-4,10.4-11.5,15.7-22.5,17c-20.3,2.3-40.6,5-60.8,7.4c-19.7,2.4-39.5,4.8-59.2,7.2c-10.9,1.3-21.9,2.8-32.9,3.6 c-4.8,0.3-9.6,0.8-14.4,0.8c-7.3,0.1-14.7,0.3-22,0c-11.9-0.4-23.7-1.5-35.5-2.9c-26.2-3.2-52.4-6.4-78.6-9.6 c-18.5-2.3-37-4.5-55.5-6.9c-10-1.3-16.6-7-20.2-16.3C93.5,41.1,87.2,24.4,80.8,7.6C80.6,7.2,80.5,6.8,80.4,6.2z"></path> <path class="st5" d="M80.2,595.8c2.3-6.3,4.4-12.3,6.6-18.3c3.6-9.9,6.9-19.9,11.1-29.6c3.4-7.9,10-12.1,18.7-12.1 c122.7,0,245.4,0,368.1,0c9.3,0,16.9,5.3,20.1,14c5,13.7,10,27.4,14.9,41.1c0.5,1.5,2.6,3.1,1.3,4.5c-0.8,0.8-3.1,0.3-4.7,0.3 c-144.6,0-289.2,0-433.7,0C81.8,595.8,81.1,595.8,80.2,595.8z"></path> </g> </svg>