<svg xmlns="http://www.w3.org/2000/svg" xmlns:xlink="http://www.w3.org/1999/xlink" id="Layer_1" x="0px" y="0px" viewBox="0 0 600 600" style="enable-background:new 0 0 600 600;" xml:space="preserve"> <style type="text/css"> .st0{fill:#241F20;} .st1{fill:#FEFEFE;} .st2{fill:#FFFFFF;} .st3{fill:#272324;} </style> <g> <path class="st0" d="M349.8,458.6c-82.2,0-164.4,0-246.5,0c-2.9,0-2.8,0.4-2.8-2.8c0-33.4,0-66.9,0-100.3c0-2.9,0.3-2.5-2.4-2.5 c-30.8,0-61.5,0-92.3,0c-0.6,0-1.2,0-1.7,0c-0.8-0.1-1.6-0.9-1.6-1.7c0-0.4,0-0.8,0-1.2c0-31.7,0-63.4,0-95.2 c0-36.5,0-72.9,0-109.4c0-0.4,0-0.8,0-1.2c0.1-0.9,0.9-1.7,1.8-1.8c0.5,0,1,0,1.5,0c76.6,0,153.2,0,229.8,0c87.2,0,174.3,0,261.5,0 c0.6,0,1.2,0,1.7,0c0.9,0.1,1.7,0.9,1.7,1.8c0,0.4,0,0.8,0,1.2c0,32.2,0,64.3,0,96.5c0,1.5,0,3.1,0,4.6c0,0.7,0.2,1.1,1,1 c0.5,0,1,0,1.5,0c30.9,0,61.8,0,92.7,0c0.4,0,0.9,0,1.3,0c2,0.1,2.1,0.2,2.1,2.2c0,68.6,0,137.1,0,205.7c0,0.4,0,0.8,0,1.2 c-0.1,1.6-0.3,1.8-2,1.8c-0.4,0-0.9,0-1.3,0C513.9,458.6,431.9,458.6,349.8,458.6z"></path> <path class="st1" d="M350,250c81.5,0,163.1,0,244.6,0c2.5,0,2.5,0,2.5,2.4c0,67.2,0,134.4,0,201.6c0,2.8,0.3,2.4-2.4,2.4 c-163.1,0-326.3,0-489.4,0c-2.8,0-2.5,0.4-2.5-2.4c0-67.2,0-134.4,0-201.6c0-2.7-0.4-2.4,2.4-2.4C186.8,250,268.4,250,350,250z"></path> <path class="st2" d="M498.6,144.4c-2.6,5.9-4.8,11.7-7.5,17.3c-1.1,2.4-2.4,4.7-3.9,6.8c-5.2,7.2-12.1,12.2-20.4,15.2 c-6.1,2.2-12.5,3.6-18.8,5.3c-39.6,10.6-79.2,21.2-118.8,31.8c-15,4-29.9,8.2-45,11.8c-4.7,1.1-9.4,1.8-14.2,2.4 c-6.9,0.9-13.9,1.3-20.8,1.2c-8.9-0.1-17.7-1.2-26.5-2.9c-9.7-1.8-19.2-4.7-28.8-7.2c-32.8-8.7-65.6-17.5-98.4-26.3 c-18.3-4.9-36.6-9.8-54.9-14.7c-5.7-1.5-11-3.9-15.7-7.4c-5.1-3.8-9-8.5-12-14c-3.2-6.1-5.5-12.5-8.2-18.8c0-0.1,0-0.2,0-0.5 C169.3,144.4,333.8,144.4,498.6,144.4z"></path> <path class="st2" d="M414.5,247.7c-1.2,0-2,0-2.8,0c-102.6,0-205.2,0-307.7,0c-3.4,0-3.4,0-3.4,3.4c0,32.6,0,65.1,0,97.7 c0,2.6,0,2.6-2.6,2.6c-30.3,0-60.6,0-90.9,0c-0.7,0-1.4,0-2.1,0c-0.4-0.5,0-0.9,0.1-1.3c4.6-12.8,11.1-24.6,19-35.5 c4.4-6.1,9.5-11.8,14.8-17.1c28.8-28.8,57.6-57.6,86.4-86.4c1-1,1.9-1.2,3.2-0.8c27.3,7.3,54.6,14.6,81.9,21.9 c10.1,2.7,20.4,4.5,30.9,5.3c6.1,0.5,12.3,0.5,18.4,0.2c11.6-0.7,23.1-2.7,34.3-5.8c27-7.3,54-14.5,81-21.7c1-0.3,1.8-0.4,2.7,0.5 c11.9,12,23.9,24,35.9,36C413.8,246.9,414,247.2,414.5,247.7z"></path> <path class="st2" d="M4.5,148.4c1.6,3.9,3.3,7.8,4.9,11.6c2.3,5.4,5.4,10.3,9.5,14.5c5.7,5.9,12.6,9.7,20.5,11.9 c11.4,3.1,22.8,6.1,34.2,9.2c16.9,4.5,33.8,9,50.7,13.6c0.2,0.8-0.5,1-0.8,1.4c-5,5-10,10.1-15,15.1 c-23.3,23.3-46.6,46.6-69.9,69.9c-6.7,6.8-13,13.9-18.4,21.8c-5.9,8.8-11.1,17.9-14.9,27.8c-0.2,0.5-0.4,0.9-0.6,1.4 c0,0.1-0.1,0.2-0.3,0.4c0-66.3,0-132.4,0-198.5C4.3,148.4,4.4,148.4,4.5,148.4z"></path> <path class="st2" d="M378.8,209.2c28-7.5,56-15,83.9-22.4c9.3-2.5,17.3-7,23.7-14.4c3.1-3.7,5.5-7.9,7.4-12.3 c1.5-3.3,2.8-6.7,4.3-10c0.2-0.5,0.3-1.2,1.1-1.7c0,0.7,0,1.2,0,1.8c0,31.9,0,63.8,0,95.7c0,0.4,0,0.8,0,1.2c0,0.6-0.3,0.8-0.8,0.8 c-0.4,0-0.8,0-1.2,0c-26.2,0-52.3,0-78.5,0c-1.2,0-2-0.3-2.9-1.1c-12-12-23.9-24-35.9-36C379.5,210.3,378.9,210,378.8,209.2z"></path> <path class="st3" d="M272,416.1c-35.2,0-70.3,0-105.5,0c-1.6,0-3.2-0.1-4.7-0.6c-4.1-1.4-6.9-5.1-6.9-9.4c0-13.7-0.1-27.4,0-41.1 c0-5.5,4.4-9.8,10-10.1c0.7,0,1.4,0,2.1,0c70,0,140,0,210.1,0c1.6,0,3.2,0,4.7,0.5c4.3,1.3,7.1,5,7.4,9.7c0,0.4,0,0.8,0,1.2 c0,12.9,0,25.7,0,38.6c0,1.3-0.1,2.6-0.4,3.8c-1.3,4.4-5.1,7.4-9.8,7.5c-0.8,0-1.5,0-2.3,0C341.8,416.1,306.9,416.1,272,416.1z"></path> <path class="st2" d="M272.1,356.6c34.9,0,69.8,0,104.8,0c0.8,0,1.7,0,2.5,0c4.5,0.3,7.9,3.7,8.2,8.2c0,0.5,0,1,0,1.5 c0,12.8,0,25.6,0,38.4c0,1.3,0,2.6-0.4,3.8c-1.3,3.4-3.7,5.4-7.3,5.9c-0.8,0.1-1.5,0.1-2.3,0.1c-70.3,0-140.7,0-211,0 c-1.3,0-2.6,0-3.8-0.4c-3.7-1.2-6.2-4.4-6.2-8.3c0-13.5,0-27,0-40.5c0-4.8,3.7-8.5,8.5-8.7c0.8,0,1.7,0,2.5,0 C202.3,356.6,237.2,356.6,272.1,356.6z"></path> </g> </svg>