<svg xmlns="http://www.w3.org/2000/svg" xmlns:xlink="http://www.w3.org/1999/xlink" id="Layer_1" x="0px" y="0px" viewBox="0 0 600 600" style="enable-background:new 0 0 600 600;" xml:space="preserve"> <style type="text/css"> .st0{fill:#050808;} .st1{fill:#231F20;} .st2{fill:#FFFFFF;} .st3{fill:#292526;} .st4{fill:#FEFEFE;} .st5{fill:#242021;} </style> <g> <path class="st0" d="M2.5,358.4c-0.8-0.5-1-1.3-1-2.2c0-68.9,0-137.7,0-206.6c0-0.6-0.3-1.3,0.5-1.8c0.4-0.3,0.7-0.6,1.3-0.6 c0.4,0,0.8,0,1.2,0c159.6,0,319.2,0,478.7,0c0.5,0,1,0,1.5,0c0.8,0,1.5,0.7,1.6,1.6c0,0.4,0,0.9,0,1.4c0,29.1,0,58.1,0,87.2 c-0.8,0.5-1.3,0.1-1.5-0.7c-0.1-0.5-0.1-1-0.1-1.5c0-27,0-53.9,0-80.9c0-0.2,0-0.5,0-0.6c-1.9,3.7-3.2,7.7-4.8,11.5 c-1.9,4.4-3.2,9.1-5.8,13.2c-5.1,8.3-12.4,13.7-22,15.6c-26.1,5.1-52.3,10.2-78.4,15.3c-4.2,0.8-8.4,1.7-12.6,2.5 c-0.5,0.1-1.2,0-1.3,0.5c-0.2,0.5,0.4,0.9,0.8,1.2c7.3,7.3,14.5,14.5,21.8,21.8c0.6,0.6,1.3,1.1,1.5,2c-0.7,1-1.5,0.6-2.3,0.2 c-0.8-0.4-1.4-1.1-2-1.8c-5.7-5.7-11.3-11.3-17-17c-1.5-1.5-2.8-3.2-4.4-4.7c-1-1-2.1-1.3-3.5-1.1c-8.8,1.8-17.6,3.5-26.4,5.2 c-21,4-41.9,8.3-62.9,12.1c-5.7,1-11.4,1.5-17.2,1.6c-12.3,0.4-24.4-1.2-36.5-3.6c-26.1-5.2-52.2-10.2-78.4-15.3 c-1.4-0.3-2.3,0.1-3.3,1c-6.2,6.3-12.4,12.5-18.7,18.7c-0.6,0.6-1.2,1.4-2.2,1.6c-0.7-0.1-1-0.5-1-1.2c0.2-1,1-1.5,1.6-2.1 c5.7-5.8,11.5-11.5,17.3-17.3c0.4-0.4,1-0.8,1.1-1.4c-0.5-0.5-1.3-0.5-1.9-0.6c-28.3-5.5-56.6-11-84.9-16.5c-2.8-0.6-5.7-1-8.5-1.8 c-10.1-3-17.2-9.4-21.3-18.9c-2.9-6.8-5.7-13.7-8.2-20.3c0,65.8,0,132,0,198c1.2-3.2,2.6-6.4,4-9.6c1.4-3.3,3.2-6.4,4.9-9.5 c1.7-3.1,3.7-6,5.8-8.8c2.1-2.9,4.4-5.6,6.7-8.3c0.5-0.6,1-1.1,1.5-1.6c23.5-23.5,47-47,70.5-70.5c0.8-0.8,1.4-1.8,2.7-2 c0.5,0,0.9,0.2,1,0.7c0,1.1-0.9,1.7-1.5,2.3c-13.4,13.4-26.8,26.8-40.2,40.2c-9.7,9.7-19.4,19.4-29.1,29.1 c-9.6,9.6-16.8,20.6-21.9,33.2c-1.1,2.6-2.1,5.3-3.2,7.9c-0.2,0.5-0.9,1.2,0,1.8c0.7,0.1,1.5,0,2.2,0c34.3,0,68.6,0,102.9,0 c0.8,0,1.7-0.1,2.5,0.1c0.5,0.1,0.8,0.4,0.7,1c-0.1,0.5-0.5,0.5-0.9,0.5c-0.4,0-0.8,0-1.2,0c-35.5,0-71,0-106.5,0 C3.8,358.6,3.1,358.7,2.5,358.4z"></path> <path class="st1" d="M484.6,152.3c0-0.2,0-0.5,0.2-0.6c0.2,0,0.3,0.1,0.4,0.3c0,0.6,0.1,1.1,0.1,1.7c0,27.1,0,54.1,0,81.2 c0,0.5,0,1,0,1.5c0,0.8,0.4,0.9,1.1,0.9c0.7,0,1.5,0.1,2.2,0.1c35.6,0,71.1,0,106.7,0c2.3,0,2-0.4,2.1,2.1 c0.9,17.2,0.3,34.4,0.4,51.6c0.1,17.2,0,34.5,0,51.7s0,34.5,0,51.7c0,17.2,0,34.5,0,51.7c0,2.5,0,2.5-2.5,2.5 c-160,0-319.9,0-479.9,0c-2.5,0-2.5,0-2.5-2.5c0-28.4,0-56.7,0-85.1c0-2.4,0-2.4-2.5-2.4c-35.3,0-70.5,0-105.8,0 c-0.7,0-1.4,0.2-2-0.1c0.7,0,1.5-0.1,2.2-0.1c35.1,0,70.3,0,105.4,0c0.4,0,0.8,0,1.2,0c0.5-0.1,1.4,0.3,1.3-0.5 c0-0.7-0.9-0.4-1.4-0.4c-0.4-0.1-0.8,0-1.2,0c-34.9,0-69.8,0-104.7,0c-0.7,0-1.5,0.4-2-0.5c1.1-0.6,2.3-0.4,3.5-0.4 c34,0,67.9,0,101.9,0c3.7,0,3.5,0.3,3.5-3.5c0-37.3,0-74.5,0-111.8c0-4.5,0-4.5,4.4-4.5c87.2,0,174.3,0,261.5,0 c1.2,0,2.5,0.1,3.7,0.2c0.6,0.3,1.3,0.6,2,0.1c0.7-0.5,1.4-0.3,2.1-0.3c31.7,0,63.4,0,95.1,0c3.6,0,3.3,0.2,3.3-3.3 c0-19.4,0-38.9,0-58.3C484.4,167.5,484.1,159.9,484.6,152.3z"></path> <path class="st2" d="M3.5,148.8c160.4,0,320.6,0,480.9,0c0,0.7-0.3,1.1-0.5,1.7c-3,7.4-6,14.9-9,22.3c-4.5,10.8-12.6,17.2-24,19.5 c-11.4,2.2-22.8,4.4-34.2,6.6c-12.5,2.4-24.9,4.9-37.4,7.3c-13.1,2.5-26.2,5.1-39.2,7.6c-13.1,2.6-26.3,5.1-39.4,7.7 c-10.7,2.1-21.5,4.2-32.2,6.3c-10.9,2.1-21.8,2.7-32.9,2c-8.3-0.5-16.3-2.1-24.4-3.7c-13.1-2.6-26.3-5.1-39.4-7.7 c-13.7-2.7-27.4-5.3-41.1-8c-13.1-2.5-26.2-5.1-39.2-7.6c-13.7-2.7-27.4-5.3-41.1-8c-4.8-0.9-9.5-1.8-14.3-2.8 c-10.6-2.3-18.2-8.4-22.5-18.4c-3.4-7.9-6.5-15.9-9.7-23.8C3.6,149.4,3.6,149.1,3.5,148.8z"></path> <path class="st2" d="M381.9,237c-0.1,0.3-0.2,0.4-0.5,0.4c-0.6,0-1.2,0-1.9,0c-88.1,0-176.1,0-264.2,0c-2.5,0-2.5,0-2.5,2.5 c0,38.4,0,76.8,0,115.1c0,2.1,0,2.1-2,2.1c-35.2,0-70.3,0-105.5,0c-0.7,0-1.4,0.1-2-0.2c1.4-3.5,2.9-7,4.3-10.5 c5.2-12.6,12.6-23.6,22.2-33.1c23.3-23.2,46.5-46.5,69.8-69.8c0.2-0.2,0.4-0.5,0.7-0.8c1.5-2.3,3.7-4,5.5-5.9c1-1,1.9-2.3,3.3-2.9 c0.4-0.4,0.8-0.7,1.2-1.1c6.6-6.6,13.1-13.1,19.6-19.7c0.9-0.9,1.7-1.1,2.9-0.9c12.5,2.5,24.9,4.9,37.4,7.3 c12.5,2.4,25,4.9,37.6,7.3c5.8,1.1,11.5,2.4,17.3,3.2c9.4,1.4,18.8,1.6,28.2,1c9.3-0.6,18.4-2.6,27.6-4.4 c13.1-2.5,26.1-5.1,39.2-7.6c11.7-2.3,23.5-4.5,35.2-6.9c1-0.2,1.6,0,2.4,0.7c7.6,7.7,15.2,15.3,22.9,22.9 C381,236.2,381.4,236.6,381.9,237z"></path> <path class="st2" d="M99.5,242c-0.7,0-1,0.6-1.5,1c-15.2,15.1-30.3,30.3-45.4,45.4c-7.5,7.5-14.9,15.1-22.5,22.5 c-11,10.7-19.3,23.1-24.8,37.4c-0.6,1.6-1.3,3.1-2,4.7c0,0.1-0.2,0.1-0.3,0.2c0-67,0-133.9,0-200.9c0.6,0.4,0.7,1,0.9,1.5 c2.6,6.4,5.2,12.9,7.8,19.3c4.6,11.2,13,17.9,24.9,20.3c19.1,3.7,38.1,7.4,57.2,11.1c11.3,2.2,22.6,4.4,33.9,6.6 c0.5,0.1,1,0.2,1.5,0.3c-0.1,0.7-0.6,0.9-1,1.3c-6.2,6.2-12.5,12.5-18.7,18.7c-0.4,0.4-0.9,0.7-1.1,1.3 C105.8,236.3,102.7,239.2,99.5,242z"></path> <path class="st2" d="M484.6,152.3c0.5,0.4,0.3,0.9,0.3,1.4c0,27.4,0,54.8,0,82.2c0,1.5,0.1,1.4-1.5,1.4c-32.7,0-65.3,0-98,0 c-0.6,0-1.1,0.1-1.6-0.3c-0.4-0.5-0.8-0.9-1.3-1.4c-7.5-7.6-15.1-15.1-22.7-22.7c-0.4-0.4-0.9-0.7-1.5-1.2c1.3-0.8,2.3-0.8,3.3-1 c25.9-5,51.7-10,77.6-15.1c4.9-0.9,9.8-1.8,14.6-3c9.9-2.5,17.2-8.5,21.4-17.8C478.7,167.7,481.5,159.9,484.6,152.3z"></path> <path class="st3" d="M99.5,242c0.1-0.5,0.4-0.8,0.7-1.1c2.3-2.4,4.7-4.7,7-7.1c0.4-0.4,0.7-0.7,1.2-0.9c0,0.5,0.2,0.9,0.7,1 c-2.9,2.9-5.7,6-8.8,8.8C100.3,242.2,99.9,242.1,99.5,242z"></path> <path class="st4" d="M355.2,238.8c79.6,0,159.2,0,238.8,0c2.3,0,2.3,0,2.3,2.3c0,68,0,136,0,204c0,2.6,0.3,2.2-2.1,2.2 c-159.2,0-318.5,0-477.7,0c-2.5,0-2.2,0.3-2.2-2.1c0-68.1,0-136.1,0-204.2c0-2.5-0.3-2.2,2.1-2.2 C196,238.8,275.6,238.8,355.2,238.8z"></path> <path class="st5" d="M271.8,422.2c-35,0-70,0-105,0c-1.2,0-2.5,0-3.7-0.4c-3.8-1.2-6.5-4.6-6.5-8.6c0-13.5,0-27,0-40.5 c0-4.9,4-8.8,8.8-9c0.5,0,1,0,1.5,0c70,0,139.9,0,209.9,0c1.1,0,2.1,0,3.2,0.2c4.2,1,7,4.5,7.1,8.8c0,0.3,0,0.7,0,1 c0,12.8,0,25.7,0,38.5c0,1.7-0.2,3.3-1,4.8c-1.7,3.2-4.2,4.9-7.8,5.1c-0.7,0-1.4,0-2,0C341.5,422.2,306.6,422.2,271.8,422.2z"></path> <path class="st2" d="M271.7,420.8c-34.9,0-69.9,0-104.8,0c-1.2,0-2.4,0-3.5-0.3c-3.1-1-5.3-3.8-5.4-7.1c0-0.3,0-0.6,0-0.8 c0-13,0-26,0-39c0-1.4,0.2-2.7,0.8-3.9c1.4-2.7,3.7-4.2,6.8-4.4c0.6,0,1.1,0,1.7,0c69.8,0,139.6,0,209.4,0c0.7,0,1.4,0,2,0 c4,0.4,6.9,3.5,7.1,7.6c0,0.3,0,0.7,0,1c0,12.8,0,25.5,0,38.3c0,0.9-0.1,1.8-0.3,2.7c-0.8,3.3-3.7,5.8-7.2,5.9c-0.7,0-1.5,0-2.2,0 C341.4,420.8,306.6,420.8,271.7,420.8z"></path> </g> </svg>