<svg xmlns="http://www.w3.org/2000/svg" xmlns:xlink="http://www.w3.org/1999/xlink" id="Layer_1" x="0px" y="0px" viewBox="0 0 600 600" style="enable-background:new 0 0 600 600;" xml:space="preserve"> <style type="text/css"> .st0{fill:#241F20;} .st1{fill:#F6C65B;} </style> <g> <path class="st0" d="M79,301.1c0-97.9,0-195.8,0-293.7c0-3,0-2.7,2.6-2.7c146.6,0,293.2,0,439.8,0c3.3,0,2.9-0.4,2.9,2.8 c0,39.9,0,79.8,0,119.7c0,156,0,311.9,0,467.9c0,2.8,0.4,2.7-2.6,2.7c-146.7,0-293.4,0-440,0c-3,0-2.7,0.2-2.7-2.6 C79,497.3,79,399.2,79,301.1z"></path> <path class="st1" d="M80.9,590.7c0-193,0-386.1,0-579.1c0.1,0,0.2-0.1,0.3-0.1c1.2,3.1,2.4,6.2,3.6,9.3 c5.1,13.3,10.1,26.7,15.4,39.9c3,7.5,8.7,12.3,16.6,14.6c3.7,1,7.4,1.3,11.1,1.7c10.5,1.4,21.1,2.7,31.6,3.9 c11.5,1.4,22.9,2.7,34.4,4.1c14,1.7,28.1,3.5,42.1,5.2c10.6,1.2,21.1,2.7,31.7,3.7c7.7,0.7,15.3,1.2,23,1.5 c5.3,0.2,10.7,0.2,16,0.2c3.6,0,7.2-0.2,10.8-0.4c1.9-0.1,1.9-0.1,1.9,1.8c0,0.6,0,1.1,0,1.7c0,143.9,0,287.8,0,431.6c0,4,0,4-4,4 c-65.6,0-131.2,0-196.9,0c-4.6,0-8.9,0.8-12.9,3.3c-4.8,3-7.9,7.3-9.8,12.6c-4.7,13-9.4,26-14.2,39.1c-0.2,0.4-0.4,0.9-0.6,1.3 C81.1,590.7,81,590.7,80.9,590.7z"></path> <path class="st1" d="M522.7,11.2c0,193.4,0,386.8,0,580.6c-1.4-2.7-2.1-5.3-3-7.8c-4.1-11.3-8.2-22.7-12.3-34 c-2.7-7.3-7.5-12.4-15.1-14.6c-2.5-0.7-5.1-0.9-7.8-0.9c-53.4,0-106.8,0-160.1,0c-4,0-3.4,0.5-3.4-3.4c0-144.1,0-288.3,0-432.4 c0-0.2,0-0.5,0-0.7c0-2.9,0-2.9,3-3c9.5-0.5,18.9-1.6,28.3-2.8c6-0.8,12-1.4,18-2.1c7.2-0.9,14.5-1.8,21.7-2.7c6-0.7,12-1.5,18-2.2 c7.5-0.9,15.1-1.9,22.6-2.8c7.2-0.9,14.5-1.7,21.7-2.6c9.5-1.2,19-2.2,28.5-3.5c10.1-1.5,17.2-7,20.9-16.5 c5.7-14.7,11.4-29.5,17-44.3c0.5-1.4,1.1-2.8,1.7-4.2C522.5,11.1,522.6,11.2,522.7,11.2z"></path> <path class="st1" d="M81.3,6.7c147.1,0,293.8,0,440.6,0c-0.1,1.8-0.9,3.3-1.5,4.8C514.5,27,508.5,42.5,502.6,58 c-2.2,5.9-5.8,10.6-11.4,13.7c-2.8,1.6-5.9,2.4-9.1,2.9c-6.9,0.9-13.8,1.7-20.7,2.6c-8.9,1.1-17.8,2.2-26.8,3.3 c-7.3,0.9-14.6,1.7-21.9,2.6c-10.1,1.2-20.1,2.5-30.2,3.7c-7.4,0.9-14.8,1.8-22.2,2.7c-6,0.7-12,1.5-18,2.2 c-4.5,0.5-9,0.9-13.4,1.3c-7.9,0.7-15.9,0.9-23.8,1c-7.3,0.1-14.5-0.1-21.8-0.5c-4.9-0.2-9.8-0.6-14.7-1.1 c-6.7-0.7-13.3-1.5-20-2.3c-5.8-0.7-11.5-1.4-17.3-2.1c-9.1-1.1-18.2-2.3-27.3-3.4c-7.1-0.9-14.3-1.7-21.4-2.5 c-10.2-1.3-20.4-2.6-30.7-3.8c-8.7-1.1-17.4-2-26.1-3.1c-3.5-0.4-7-0.8-10.3-2c-7.4-2.8-12.1-8.2-14.8-15.5 C94.5,41.6,88.4,25.6,82.3,9.5C82,8.7,81.7,7.8,81.3,6.7z"></path> <path class="st1" d="M522.2,596c-146.9,0-293.7,0-440.6,0c-0.2-0.9,0.3-1.7,0.5-2.5c4.4-12.1,8.8-24.2,13.2-36.3 c1.4-3.7,2.4-7.5,4.5-10.9c3.9-6.3,9.5-9.9,17-10c8.1-0.1,16.3,0,24.4,0c114.8,0,229.6,0,344.4-0.1c8.5,0,16.6,4.8,20,13.7 c5.6,14.9,10.9,29.9,16.3,44.8C521.9,595.1,522,595.5,522.2,596z"></path> </g> </svg>