<svg xmlns="http://www.w3.org/2000/svg" xmlns:xlink="http://www.w3.org/1999/xlink" id="Layer_1" x="0px" y="0px" width="600px" height="600px" viewBox="0 0 600 600" xml:space="preserve"> <g> <path fill="#FEFEFE" d="M301,601c-98.667,0-197.333-0.023-296,0.096C1.576,601.1,0.904,600.424,0.906,597 c0.106-197.333,0.106-394.667,0-592C0.904,1.576,1.576,0.904,5,0.906c197.333,0.106,394.667,0.106,592,0 c3.424-0.002,4.096,0.671,4.094,4.095c-0.106,197.333-0.106,394.667,0,592c0.002,3.424-0.67,4.1-4.095,4.096 C498.333,600.977,399.667,601,301,601z"></path> <path fill="#A9A9A9" d="M302.242,426c-93.316,0-186.632,0-279.947-0.001c-6.418,0-6.423-0.004-6.423-6.47 c-0.001-78.319-0.001-156.637-0.001-234.956c0-9.666-0.001-9.666,9.994-9.666c185.132,0,370.264,0,555.396,0 c7.638,0,7.64,0.001,7.64,7.616c0,78.652,0.001,157.304,0,235.955c0,7.519-0.003,7.521-7.71,7.521 C488.208,426,395.225,426,302.242,426z"></path> <path fill="#FEFEFE" d="M301.326,421.789c-91.144,0-182.288,0-273.432-0.001c-6.65,0-6.569,0.025-4.198-6.141 c6.797-17.678,17.142-32.941,30.558-46.297c37.197-37.028,74.284-74.165,111.311-111.363c2.972-2.986,5.508-4.106,9.969-3.203 c33.514,6.785,67.05,13.498,100.7,19.562c18.225,3.284,36.663,3.051,54.943-0.523c33.227-6.497,66.453-12.993,99.67-19.541 c2.4-0.473,4.063,0.225,5.759,1.923c39.432,39.505,79.024,78.852,118.303,118.509c11.84,11.954,20.04,26.438,26.012,42.192 c1.362,3.594,0.435,4.894-3.165,4.874c-1.5-0.008-2.999,0.008-4.499,0.008C482.614,421.789,391.97,421.789,301.326,421.789z"></path> <path fill="#FEFEFE" d="M302.36,179.193c91.311,0,182.622-0.001,273.934,0.001c6.399,0,6.441,0.026,4.119,5.842 c-2.961,7.415-5.756,14.91-9.063,22.169c-4.948,10.862-13.515,17.552-25.206,19.913c-29.278,5.913-58.562,11.805-87.887,17.479 c-37.803,7.315-75.673,14.285-113.463,21.668c-12.714,2.484-25.329,5.18-38.35,5.705c-19.185,0.774-37.606-3.745-56.188-7.329 c-34.392-6.632-68.811-13.123-103.195-19.798c-24.107-4.68-48.179-9.543-72.256-14.38c-7.953-1.598-16.164-2.042-23.731-5.392 c-9.301-4.117-15.752-10.851-19.409-20.375c-2.801-7.295-5.771-14.528-8.827-21.72c-1.245-2.931-0.51-4.023,2.591-3.796 c1.16,0.085,2.332,0.012,3.498,0.012C120.07,179.193,211.215,179.193,302.36,179.193z"></path> <path fill="#FEFEFE" d="M163.39,253.034c-0.533,1.97-2.059,2.848-3.204,3.995c-36.143,36.185-72.222,72.436-108.517,108.468 c-12.879,12.786-23.677,26.887-31.207,43.638c0-72.409,0-144.818,0-217.226c0.205-0.085,0.41-0.169,0.614-0.254 c1.296,3.109,2.861,6.135,3.845,9.339c6.433,20.959,21.647,29.804,42.384,33.176c28.34,4.608,56.439,10.71,84.624,16.261 C155.751,251.183,159.83,251.024,163.39,253.034z"></path> <path fill="#FEFEFE" d="M583.688,191.924c0,72.334,0,144.668,0,217.849c-3.845-5.984-5.89-12.106-9.332-17.502 c-5.131-8.044-10.838-15.527-17.582-22.264c-37.818-37.785-75.611-75.594-113.389-113.419c-1.008-1.009-2.96-1.835-2.498-3.401 c0.502-1.702,2.586-0.994,3.99-1.273c35.002-6.955,70.041-13.727,104.991-20.934c12.641-2.607,20.995-11.003,26.163-22.596 c2.426-5.442,4.525-11.029,6.773-16.55C583.099,191.864,583.394,191.894,583.688,191.924z"></path> </g> </svg>