<svg xmlns="http://www.w3.org/2000/svg" xmlns:xlink="http://www.w3.org/1999/xlink" id="Layer_1" x="0px" y="0px" viewBox="0 0 600 600" style="enable-background:new 0 0 600 600;" xml:space="preserve"> <g> <path d="M487.9,239.8c37.3,0,74.3,0,111.3,0c0.2,0.2,0.3,0.3,0.3,0.4c0.2,3,0.5,6,0.5,9c0,66.1,0,132.1,0,198.2c0,0.8,0,1.7,0,2.6 c-162.7,0-325.2,0-487.9,0c0-10,0-19.9,0-29.8c0-9.9,0-19.8,0-29.7c0-9.9,0-19.9,0-30c-1,0-1.7,0-2.5,0c-35.3,0-70.6,0-105.8,0 c-0.5,0-1,0-1.5,0c-1.6,0-2.1-0.5-2.2-2.1c0-0.3,0-0.7,0-1C0,289.2,0,221.1,0,153c0-0.5,0-0.9,0-1.4c0.1-1,0.7-1.6,1.7-1.7 c0.6,0,1.1,0,1.7,0c80.2,0,160.3,0,240.5,0c80.2,0,160.5,0,240.7,0c0.6,0,1.1,0,1.7,0c0.8,0.1,1.5,0.7,1.6,1.6c0,0.4,0,0.9,0,1.4 c0,28.1,0,56.3,0,84.4C487.9,238.1,487.9,238.8,487.9,239.8z M113.6,241.2c-0.4,3.3-0.2,206.2,0.2,207.5c0.4,0,0.9,0.1,1.3,0.1 c161.1,0,322.1,0,483.2-0.1c0,0,0.1-0.1,0.1-0.1c0,0,0.1-0.1,0.1-0.1c0.4-3.4,0.2-206-0.2-207.3 C436.8,241.2,275.2,241.2,113.6,241.2z M1.9,151.5c0.2,0.5,0.3,1,0.4,1.4c3.1,7.7,6.1,15.4,9.4,23c4.3,10.1,12,16.4,22.9,18.6 c9.7,2,19.5,3.8,29.3,5.7c16.2,3.1,32.4,6.2,48.5,9.3c16,3.1,32,6.2,48,9.2c16.2,3.1,32.4,6.2,48.5,9.3c8.7,1.7,17.4,3.5,26.3,4 c10.4,0.6,20.8,0.2,31.1-1.6c13.5-2.5,27-5.1,40.5-7.7c15.6-3,31.2-6,46.9-9c15.5-3,30.9-5.9,46.4-8.9c17.4-3.3,34.8-6.7,52.2-10 c11.5-2.2,19.6-8.7,24.1-19.5c3-7.3,6-14.6,8.9-21.9c0.2-0.6,0.4-1.1,0.7-1.8C324.6,151.5,163.3,151.5,1.9,151.5z M382.6,239.8 c0-0.1,0.1-0.3,0.1-0.4c-0.4-0.4-0.8-0.8-1.2-1.2c-7.6-7.5-15.1-15-22.7-22.5c-0.2-0.2-0.5-0.5-0.7-0.7c-0.4-0.5-0.9-0.6-1.5-0.4 c-0.5,0.2-1,0.2-1.5,0.3c-9.7,1.9-19.4,3.7-29.1,5.6c-14.9,2.9-29.8,5.7-44.7,8.6c-9.3,1.8-18.5,3.8-27.9,4.4 c-8.6,0.5-17.2,0.5-25.7-0.7c-5-0.7-9.9-1.6-14.8-2.5c-14.3-2.7-28.7-5.5-43-8.3c-12.6-2.4-25.1-4.8-37.7-7.3c-1.3-0.2-2.1,0-3,0.9 c-9.8,9.8-19.7,19.5-29.5,29.3c-23.7,23.5-47.4,47-71.2,70.4c-7.8,7.7-14.3,16.2-19,26c-2.7,5.5-4.9,11.2-7.3,16.9 c-0.1,0.2,0,0.4-0.1,0.6c36.7,0,73.3,0,110.1,0c0-39.7,0-79.3,0-119.1C202.4,239.8,292.5,239.8,382.6,239.8z M1.7,155.3 c-0.1,0-0.2,0.1-0.2,0.1c0,66.6,0,133.1,0,199.7c0.4-0.4,0.7-0.9,0.9-1.4c1-2.3,1.9-4.7,2.9-7c5.2-12,12.4-22.6,21.7-31.9 c23.9-23.6,47.8-47.1,71.6-70.7c3.4-3.4,6.7-6.9,10.1-10.2c6.2-6.2,12.4-12.3,18.6-18.4c0.4-0.4,0.8-0.8,1.3-1.4 c-0.7-0.2-1.1-0.3-1.6-0.4c-3.8-0.7-7.6-1.4-11.4-2.2c-26.8-5.1-53.6-10.3-80.3-15.5c-12-2.3-20.4-9-25.1-20.1 c-2.7-6.4-5.3-12.8-7.9-19.2C2.2,156.3,1.9,155.8,1.7,155.3z M359.3,214.1c0.5,0.6,0.9,1,1.3,1.4c7.8,7.7,15.6,15.4,23.4,23.2 c0.8,0.8,1.7,1.1,2.8,1.1c7.2,0,14.3,0,21.5,0c25.3,0,50.6,0,75.9,0c0.7,0,1.4,0,2.2-0.1c0-28.2,0-56.3,0-84.3 c-0.5,0.5-0.7,1-1,1.6c-2.7,6.6-5.3,13.2-8.1,19.7c-4.5,10.3-12.4,16.8-23.5,19.2c-10.6,2.2-21.2,4.1-31.8,6.2 c-18.6,3.6-37.3,7.2-55.9,10.8C364,213.2,361.8,213.6,359.3,214.1z"></path> <path d="M272.1,423.8c-35.2,0-70.4,0-105.7,0c-1.1,0-2.3,0-3.4-0.3c-4.2-1-6.9-4.5-7-8.9c0-6.8,0-13.6,0-20.4 c0-6.3,0.1-12.6,0-18.9c-0.1-5.2,4-9.6,9.7-9.6c10.6,0.1,21.3,0,31.9,0c59.9,0,119.7,0,179.6,0c1,0,2.1,0,3.1,0.1 c4.6,0.7,7.8,4.4,7.9,9c0,0.2,0,0.3,0,0.5c0,12.9,0,25.9,0,38.8c0,1.2-0.2,2.4-0.5,3.5c-1.2,3.6-4.5,6-8.3,6.1c-0.6,0-1.1,0-1.7,0 C342.4,423.8,307.2,423.8,272.1,423.8z M272.2,422.5c35,0,70,0,105,0c0.7,0,1.4,0,2,0c3.3-0.1,6.2-2.2,7.2-5.3 c0.3-1,0.4-2.1,0.4-3.2c0-12.8,0-25.7,0-38.5c0-0.3,0-0.7,0-1c-0.3-3.9-3.1-6.8-7-7.4c-0.7-0.1-1.5-0.1-2.2-0.1 c-70.3,0-140.6,0-210.9,0c-0.6,0-1.1,0-1.7,0c-3.8,0.2-6.8,2.9-7.4,6.6c-0.1,0.7-0.1,1.3-0.1,2c0,12.8,0,25.5,0,38.3 c0,0.3,0,0.7,0,1c0.2,3.6,2.7,6.6,6.2,7.3c0.9,0.2,1.9,0.2,2.9,0.2C201.7,422.5,236.9,422.5,272.2,422.5z"></path> </g> </svg>