<svg xmlns="http://www.w3.org/2000/svg" xmlns:xlink="http://www.w3.org/1999/xlink" id="Layer_1" x="0px" y="0px" width="926.705px" height="543.769px" viewBox="2886.978 1723.117 926.705 543.769" xml:space="preserve"> <g> <path fill="#010101" d="M3603.501,1901.765c49.786,0,99.099,0,148.317,0c0.19,0.285,0.379,0.379,0.379,0.569 c0.189,4.078,0.664,8.156,0.664,12.233c0,89.047,0,178.094,0,267.236c0,1.138,0,2.181,0,3.414c-216.975,0-433.57,0-650.545,0 c0-13.466,0-26.837,0-40.209c0-13.371,0-26.742,0-40.019c0-13.371,0-26.837,0-40.493c-1.328,0-2.371,0-3.414,0 c-47.037,0-94.073,0-141.11,0c-0.664,0-1.328,0-2.086,0c-2.181,0-2.845-0.664-2.845-2.75c0-0.474,0-0.948,0-1.328 c0-91.797,0-183.594,0-275.391c0-0.569,0-1.233,0-1.802c0.095-1.328,0.948-2.181,2.276-2.276c0.759,0,1.518,0,2.276,0 c106.875,0,213.75,0,320.721,0s213.94,0,320.91,0c0.759,0,1.517,0,2.276,0c1.138,0.095,2.086,1.043,2.181,2.181 c0,0.569,0,1.233,0,1.802c0,37.933,0,75.865,0,113.798C3603.501,1899.489,3603.501,1900.437,3603.501,1901.765z M3104.307,1903.661 c-0.474,4.457-0.285,278.046,0.19,279.658c0.569,0,1.138,0.095,1.802,0.095c214.794,0,429.493-0.095,644.286-0.095 c0.095,0,0.095-0.095,0.189-0.095c0.095-0.095,0.095-0.095,0.19-0.19c0.474-4.552,0.284-277.667-0.284-279.374 C3535.222,1903.661,3319.86,1903.661,3104.307,1903.661z M2955.517,1782.751c0.19,0.759,0.379,1.328,0.569,1.802 c4.173,10.337,8.156,20.768,12.518,31.01c5.785,13.561,16.026,22.096,30.441,25.13c12.992,2.75,25.984,5.121,39.071,7.681 c21.527,4.173,43.148,8.345,64.675,12.613c21.337,4.173,42.674,8.345,64.011,12.423c21.622,4.173,43.243,8.345,64.77,12.613 c11.569,2.276,23.139,4.647,34.993,5.405c14.035,0.759,27.881,0.285,41.536-2.276c18.018-3.319,36.036-6.923,54.054-10.432 c20.863-4.078,41.631-8.061,62.494-12.138c20.578-3.983,41.252-7.966,61.83-12.044c23.234-4.552,46.468-9.009,69.606-13.561 c15.363-3.035,26.174-11.759,32.148-26.268c4.078-9.768,7.966-19.63,11.949-29.493c0.284-0.759,0.569-1.517,0.854-2.466 C3385.768,1782.751,3170.689,1782.751,2955.517,1782.751z M3462.961,1901.765c0.095-0.19,0.095-0.379,0.189-0.474 c-0.474-0.569-1.043-1.138-1.517-1.612c-10.147-10.147-20.199-20.294-30.251-30.346c-0.285-0.285-0.664-0.664-0.948-0.948 c-0.569-0.664-1.138-0.854-1.991-0.569c-0.664,0.19-1.328,0.285-1.991,0.379c-12.897,2.56-25.889,5.026-38.786,7.587 c-19.82,3.888-39.735,7.776-59.554,11.57c-12.328,2.371-24.656,5.121-37.269,5.88c-11.475,0.664-22.949,0.664-34.329-0.948 c-6.638-0.948-13.182-2.086-19.725-3.414c-19.156-3.698-38.217-7.397-57.373-11.095c-16.785-3.224-33.476-6.449-50.166-9.768 c-1.707-0.379-2.75,0-3.983,1.233c-13.182,13.182-26.363,26.268-39.45,39.45c-31.674,31.674-63.253,63.348-94.927,94.927 c-10.337,10.337-19.061,21.906-25.415,34.993c-3.604,7.397-6.543,15.173-9.768,22.76c-0.095,0.284-0.095,0.569-0.095,0.853 c48.933,0,97.771,0,146.799,0c0-53.58,0-106.875,0-160.455C3222.752,1901.765,3342.809,1901.765,3462.961,1901.765z M2955.232,1787.872c-0.095,0-0.19,0.095-0.285,0.095c0,89.711,0,179.422,0,269.227c0.569-0.569,0.948-1.138,1.233-1.802 c1.328-3.129,2.56-6.354,3.888-9.483c6.828-16.216,16.501-30.536,28.924-42.959c31.863-31.769,63.727-63.537,95.495-95.306 c4.552-4.552,8.914-9.199,13.466-13.845c8.25-8.25,16.501-16.501,24.751-24.846c0.569-0.569,1.043-1.138,1.802-1.897 c-0.948-0.19-1.517-0.379-2.086-0.474c-5.026-0.948-10.147-1.897-15.173-2.94c-35.751-6.923-71.408-13.845-107.065-20.863 c-15.932-3.129-27.217-12.138-33.476-27.122c-3.604-8.63-7.018-17.259-10.526-25.889 C2955.801,1789.199,2955.517,1788.536,2955.232,1787.872z M3431.951,1867.151c0.759,0.759,1.233,1.328,1.707,1.897 c10.431,10.431,20.863,20.768,31.199,31.294c1.138,1.138,2.276,1.517,3.793,1.517c9.578-0.095,19.156,0,28.639,0 c33.76,0,67.52,0,101.28,0c0.948,0,1.896-0.095,2.845-0.095c0-38.027,0-75.865,0-113.608c-0.664,0.664-0.948,1.422-1.233,2.086 c-3.604,8.819-7.017,17.734-10.811,26.553c-5.974,13.94-16.5,22.665-31.389,25.794c-14.13,2.94-28.26,5.595-42.39,8.345 c-24.846,4.836-49.692,9.673-74.538,14.509C3438.21,1865.823,3435.27,1866.487,3431.951,1867.151z"></path> <path fill="#FFFFFF" d="M3104.307,1903.661c215.552,0,430.915,0,646.278,0c0.474,1.707,0.759,274.822,0.284,279.374 c-0.095,0.095-0.095,0.095-0.19,0.19s-0.095,0.095-0.189,0.095c-214.794,0-429.493,0.095-644.287,0.095 c-0.569,0-1.233-0.095-1.802-0.095C3104.023,2181.708,3103.833,1908.118,3104.307,1903.661z M3315.687,2149.749 c46.847,0,93.788,0,140.635,0c0.759,0,1.517,0,2.276,0c5.121-0.189,9.578-3.414,11.095-8.25c0.474-1.517,0.664-3.129,0.664-4.647 c0-17.449,0-34.898,0-52.347c0-0.19,0-0.474,0-0.664c-0.095-6.259-4.457-11.19-10.526-12.138c-1.328-0.19-2.75-0.19-4.078-0.19 c-79.848,0-159.602,0-239.45,0c-14.225,0-28.354,0.095-42.579,0c-7.587-0.095-12.992,5.975-12.897,12.897 c0.19,8.535,0,16.975,0,25.51c0,9.198,0,18.397,0,27.501c0,5.879,3.699,10.621,9.294,11.949c1.422,0.379,3.035,0.379,4.552,0.379 C3221.709,2149.749,3268.651,2149.749,3315.687,2149.749z"></path> <path fill="#FFFFFF" d="M2955.517,1782.751c215.268,0,430.251,0,645.519,0c-0.379,0.948-0.569,1.707-0.854,2.466 c-3.983,9.863-7.871,19.725-11.949,29.493c-5.975,14.509-16.785,23.234-32.148,26.268c-23.234,4.552-46.373,9.009-69.606,13.561 c-20.578,3.983-41.252,7.966-61.83,12.044c-20.863,4.078-41.631,8.156-62.494,12.138c-18.018,3.509-35.941,7.112-54.054,10.432 c-13.656,2.56-27.501,3.035-41.441,2.181c-11.854-0.664-23.423-3.129-35.088-5.31c-21.622-4.173-43.148-8.345-64.675-12.613 c-21.337-4.173-42.674-8.345-64.011-12.423c-21.527-4.173-43.148-8.345-64.675-12.613c-12.992-2.56-26.079-4.931-39.071-7.681 c-14.509-3.035-24.656-11.475-30.441-25.13c-4.362-10.242-8.345-20.673-12.518-31.01 C2955.896,1784.078,2955.706,1783.509,2955.517,1782.751z"></path> <path fill="#FFFFFF" d="M3462.961,1901.765c-120.152,0-240.209,0-360.55,0c0,53.58,0,106.97,0,160.455c-49.028,0-97.866,0-146.8,0 c0-0.285,0-0.569,0.095-0.854c3.224-7.587,6.164-15.363,9.768-22.76c6.354-13.182,15.078-24.656,25.415-34.993 c31.674-31.579,63.253-63.253,94.927-94.927c13.182-13.182,26.268-26.268,39.355-39.45c1.233-1.233,2.276-1.612,3.983-1.233 c16.69,3.319,33.476,6.543,50.166,9.768c19.156,3.698,38.217,7.492,57.373,11.095c6.543,1.233,13.087,2.466,19.725,3.414 c11.38,1.612,22.854,1.612,34.329,0.948c12.613-0.759,24.941-3.509,37.269-5.88c19.82-3.793,39.734-7.681,59.554-11.569 c12.897-2.561,25.889-5.026,38.786-7.587c0.664-0.095,1.328-0.19,1.991-0.379c0.854-0.285,1.422-0.095,1.991,0.569 c0.285,0.379,0.664,0.664,0.948,0.948c10.147,10.052,20.199,20.199,30.346,30.251c0.569,0.569,1.043,1.043,1.517,1.612 C3463.056,1901.385,3463.056,1901.575,3462.961,1901.765z"></path> <path fill="#FFFFFF" d="M2955.232,1787.872c0.284,0.664,0.664,1.328,0.948,1.991c3.509,8.63,6.923,17.354,10.526,25.889 c6.259,15.078,17.449,23.993,33.476,27.122c35.657,6.923,71.408,13.94,107.065,20.863c5.026,0.948,10.147,1.897,15.173,2.94 c0.569,0.095,1.138,0.285,2.086,0.474c-0.759,0.759-1.233,1.328-1.802,1.897c-8.25,8.25-16.501,16.501-24.751,24.846 c-4.552,4.552-8.914,9.294-13.466,13.845c-31.864,31.769-63.727,63.537-95.496,95.306c-12.423,12.423-22.096,26.743-28.924,42.959 c-1.328,3.13-2.561,6.354-3.888,9.483c-0.284,0.664-0.569,1.328-1.233,1.802c0-89.711,0-179.422,0-269.227 C2955.042,1787.967,2955.137,1787.967,2955.232,1787.872z"></path> <path fill="#FFFFFF" d="M3431.951,1867.151c3.319-0.664,6.259-1.233,9.198-1.802c24.846-4.836,49.692-9.673,74.538-14.509 c14.13-2.75,28.26-5.311,42.39-8.345c14.794-3.129,25.32-11.949,31.389-25.794c3.793-8.724,7.207-17.734,10.811-26.553 c0.284-0.759,0.664-1.422,1.233-2.086c0,37.743,0,75.581,0,113.608c-0.948,0-1.897,0.095-2.845,0.095c-33.76,0-67.52,0-101.28,0 c-9.578,0-19.156,0-28.639,0c-1.517,0-2.655-0.379-3.793-1.517c-10.337-10.432-20.768-20.863-31.199-31.295 C3433.184,1868.479,3432.709,1867.91,3431.951,1867.151z"></path> <path fill="#010101" d="M3315.687,2149.749c-46.942,0-93.884,0-140.825,0c-1.517,0-3.034,0-4.552-0.379 c-5.595-1.328-9.294-6.069-9.294-11.949c0-9.198,0-18.397,0-27.501c0-8.535,0.095-16.975,0-25.51 c-0.189-7.017,5.311-12.992,12.897-12.897c14.225,0.095,28.355,0,42.579,0c79.848,0,159.602,0,239.45,0 c1.328,0,2.75-0.095,4.078,0.189c6.164,0.948,10.432,5.88,10.526,12.138c0,0.19,0,0.474,0,0.664c0,17.449,0,34.898,0,52.347 c0,1.612-0.189,3.224-0.664,4.647c-1.517,4.836-5.974,8.061-11.095,8.25c-0.759,0-1.518,0-2.276,0 C3409.381,2149.749,3362.534,2149.749,3315.687,2149.749z M3315.782,2147.948c46.657,0,93.314,0,139.971,0c0.948,0,1.802,0,2.75,0 c4.457-0.189,8.25-2.94,9.578-7.207c0.379-1.328,0.569-2.845,0.569-4.267c0-17.259,0-34.614,0-51.873c0-0.474,0-0.948,0-1.328 c-0.379-5.216-4.078-9.199-9.293-9.957c-0.948-0.095-1.991-0.095-2.94-0.095c-93.789,0-187.482,0-281.271,0 c-0.759,0-1.517,0-2.276,0c-5.026,0.379-9.009,3.888-9.863,8.82c-0.19,0.854-0.095,1.802-0.095,2.75c0,17.259,0,34.424,0,51.683 c0,0.474,0,0.948,0,1.327c0.19,4.836,3.604,8.914,8.25,9.863c1.233,0.285,2.561,0.19,3.888,0.19 C3221.899,2147.948,3268.84,2147.948,3315.782,2147.948z"></path> <path fill="#FFFFFF" d="M3315.782,2147.948c-46.942,0-93.884,0-140.825,0c-1.328,0-2.561,0-3.888-0.189 c-4.741-0.948-8.061-5.026-8.25-9.863c0-0.474,0-0.948,0-1.328c0-17.26,0-34.424,0-51.683c0-0.948,0-1.802,0.095-2.75 c0.854-4.931,4.836-8.535,9.863-8.819c0.759-0.095,1.517,0,2.276,0c93.789,0,187.482,0,281.271,0c0.948,0,1.991,0,2.94,0.095 c5.216,0.664,8.914,4.647,9.294,9.957c0,0.474,0,0.948,0,1.328c0,17.259,0,34.614,0,51.873c0,1.423-0.19,2.94-0.569,4.268 c-1.328,4.173-5.121,7.017-9.578,7.207c-0.948,0-1.802,0-2.75,0C3409.096,2147.948,3362.439,2147.948,3315.782,2147.948z"></path> </g> </svg>